<?xml version="1.0" encoding="utf-8"?>
<!-- Generator: Adobe Illustrator 15.1.0, SVG Export Plug-In . SVG Version: 6.00 Build 0)  -->
<!DOCTYPE svg PUBLIC "-//W3C//DTD SVG 1.1//EN" "http://www.w3.org/Graphics/SVG/1.1/DTD/svg11.dtd">
<svg version="1.1" id="Layer_1" xmlns="http://www.w3.org/2000/svg" xmlns:xlink="http://www.w3.org/1999/xlink" x="0px" y="0px"
	 width="312px" height="54px" viewBox="0 0 312 54" enable-background="new 0 0 312 54" xml:space="preserve">
<g>
	<path fill="#FFFFFF" d="M79.913,21.526l-6.694,18.665H72.64l-4.731-13.324l-4.955,13.324h-0.579l-6.727-18.794l-1.898-0.259V20.11
		h7.241v1.028l-2.671,0.259l4.924,13.997l3.894-10.65l-1.223-3.347l-1.963-0.259V20.11h7.401v1.028l-2.671,0.259v0.322l4.763,13.675
		l4.924-13.901l-2.574-0.355V20.11h6.018v1.028L79.913,21.526z"/>
	<path fill="#FFFFFF" d="M91.135,39.934v-0.9l2.317-0.258V33.24h-7.337v5.535l2.317,0.258v0.9h-6.951v-0.9l2.317-0.258V27.19
		l-2.317-0.257v-0.902h6.951v0.902l-2.317,0.257v4.892h7.337V27.19l-2.317-0.257v-0.902h6.918v0.902l-2.316,0.257v11.585
		l2.316,0.258v0.9H91.135z"/>
	<path fill="#FFFFFF" d="M101.918,39.934v-0.9l2.318-0.258V27.19l-2.318-0.257v-0.902h6.951v0.902l-2.316,0.257v11.585l2.316,0.258
		v0.9H101.918z"/>
	<path fill="#FFFFFF" d="M123.963,29.893l-0.354-2.703h-3.894v11.585l2.318,0.258v0.9h-6.952v-0.9l2.317-0.258V27.19h-3.926
		l-0.354,2.703h-1.029v-3.861h12.905v3.861H123.963z"/>
	<path fill="#FFFFFF" d="M140.656,39.934v-0.9l2.317-0.258l-0.644-9.688l-5.278,10.846h-0.515l-5.181-10.588l-0.58,9.301
		l2.317,0.387v0.9h-5.985v-0.9l2.318-0.387l0.772-11.457l-2.317-0.257v-0.902h4.376l5.084,10.523l5.117-10.523h4.345v0.902
		l-2.317,0.192l0.805,11.65l2.316,0.258v0.9H140.656z"/>
	<path fill="#FFFFFF" d="M158.231,39.934v-0.9l2.413-0.258l-1.318-3.059h-5.6l-1.288,3.025l2.414,0.291v0.9h-5.536v-0.9l1.77-0.322
		l5.504-12.937h1.029l5.567,13.001l1.739,0.258v0.9H158.231z M156.558,29.088h-0.064l-2.285,5.471h4.634L156.558,29.088z"/>
	<path fill="#FFFFFF" d="M181.146,27.319v12.744h-0.74l-9.976-10.846v9.43l2.285,0.387v0.9h-5.922v-0.9l2.285-0.387V27.769
		l-0.611-0.644l-1.674-0.192v-0.902h3.798l9.204,10.072v-8.785l-2.286-0.386v-0.902h5.922v0.902L181.146,27.319z"/>
	<path fill="#FFFFFF" d="M206.314,40.447c-5.727,0-10.04-4.021-10.04-10.297c0-6.276,4.184-10.556,10.459-10.556
		c2.671,0,4.28,0.452,5.471,0.966l0.418-0.966h1.029l-0.257,5.826h-1.029l-0.517-2.541c-1.543-1.288-2.993-1.998-5.662-1.998
		c-3.862,0-7.079,3.316-7.079,8.787c0,4.891,2.67,9.332,7.433,9.332c2.574,0,4.796-1.062,6.502-2.832l0.771,1.029
		C211.688,39.354,209.243,40.447,206.314,40.447z"/>
	<path fill="#FFFFFF" d="M222.946,40.447c-4.248,0-7.562-2.959-7.562-7.336s3.442-7.595,7.692-7.595c4.246,0,7.561,2.96,7.561,7.337
		S227.194,40.447,222.946,40.447z M222.946,26.675c-2.834,0-4.925,2.317-4.925,6.178s2.22,6.436,5.055,6.436
		c2.832,0,4.923-2.316,4.923-6.178S225.777,26.675,222.946,26.675z"/>
	<path fill="#FFFFFF" d="M232.395,39.934v-0.9l2.316-0.258V27.19l-2.316-0.257v-0.902h6.95v0.902l-2.316,0.257v11.585h5.472
		l0.482-2.928h1.093v4.086H232.395z"/>
	<path fill="#FFFFFF" d="M246.734,39.934v-0.9l2.316-0.258V27.19l-2.316-0.257v-0.902h6.948v0.902l-2.314,0.257v11.585h5.47
		l0.483-2.928h1.093v4.086H246.734z"/>
	<path fill="#FFFFFF" d="M260.482,39.934v-0.9l2.317-0.258V27.19l-2.317-0.257v-0.902h11.555v3.637h-1.029l-0.355-2.478h-5.534
		v4.892h3.798l0.256-1.545h0.966v4.246h-0.966l-0.256-1.543h-3.798v5.535h5.728l0.419-2.607h1.094v3.766H260.482z"/>
	<path fill="#FFFFFF" d="M289.201,35.299v3.605c-1.062,0.676-3.154,1.543-5.952,1.543c-4.377,0-7.723-2.992-7.723-7.369
		s3.088-7.562,7.916-7.562c2.188,0,3.539,0.483,4.471,0.771l0.259-0.771h0.966l-0.194,4.376h-0.965l-0.354-1.931
		c-1.416-0.934-2.64-1.286-4.441-1.286c-2.961,0-5.019,2.348-5.019,6.147c0,3.764,2.026,6.467,5.309,6.467
		c1.674,0,2.703-0.354,3.411-0.9v-3.09l-2.51-0.258v-0.9h5.792v0.838L289.201,35.299z"/>
	<path fill="#FFFFFF" d="M293.162,39.934v-0.9l2.315-0.258V27.19l-2.315-0.257v-0.902h11.553v3.637h-1.03l-0.354-2.478h-5.534v4.892
		h3.797l0.258-1.545h0.966v4.246h-0.966l-0.258-1.543h-3.797v5.535h5.729l0.417-2.607h1.095v3.766H293.162z"/>
</g>
<g>
	<g>
		<path fill="#FFFFFF" d="M24.857,18.837l-0.005,0.001c-0.174,0-0.345,0.018-0.513,0.041c-2.02,0.18-3.595,2.004-3.594,4.216
			l-0.001,0.001c0,0.006,0,0.012,0.001,0.017c0.007,2.203,1.579,4.018,3.593,4.197c0.169,0.022,0.341,0.041,0.518,0.041h0.002
			c2.186-0.002,3.934-1.917,3.938-4.256v-0.002C28.795,20.753,27.043,18.84,24.857,18.837z M25.432,26.922
			c-0.187,0.034-0.377,0.056-0.573,0.056l-0.002-0.001c-1.956-0.003-3.564-1.726-3.565-3.88l-0.001-0.014
			c0.006-2.149,1.612-3.867,3.566-3.871h0.042l0.002-0.001c0.099,0.001,0.196,0.01,0.292,0.02c1.631,0.428,2.834,1.977,2.836,3.86
			C28.03,24.932,27.094,26.437,25.432,26.922z M26.572,22.382c-0.072,0.002-0.139,0.035-0.222,0.069
			c-0.122,0.051-0.289,0.109-0.399,0.177c-0.115,0.072-0.183,0.175-0.216,0.241c-0.045,0.051-0.396,0.263-0.476,0.322
			c-0.032,0.024-0.066,0.031-0.106,0.039c0.001-0.007,0.003-0.017,0.004-0.024c-0.001-0.004-0.001-0.008-0.001-0.01l0.001-0.009
			l-0.002-0.014c-0.025-0.123-0.068-0.162-0.07-0.238v-0.02c0-0.009,0-0.011,0-0.011c0-0.139-0.029-0.808-0.029-1.156
			c0-0.056,0.002-0.103,0.003-0.135c0.001-0.016,0.002-0.027,0.003-0.035c0.035-0.085,0.078-0.219,0.08-0.377
			c0-0.016-0.001-0.031-0.002-0.045c-0.011-0.175-0.104-0.77-0.119-0.93c-0.008-0.084-0.021-0.168-0.041-0.241
			c-0.023-0.053-0.026-0.125-0.103-0.161c0.002,0.001-0.005,0.004-0.005,0.004l0.001-0.005c0.001,0.001,0.003,0.001,0.004,0.001
			c-0.003-0.001-0.003,0-0.004-0.002h-0.001c-0.008-0.003-0.019-0.007-0.029-0.009v-0.002c0,0-0.001,0-0.003,0V19.81
			c0-0.001-0.005-0.002-0.025,0.002c-0.007,0.002-0.019,0.003-0.037,0.019c-0.073,0.041-0.07,0.112-0.089,0.163
			c-0.015,0.069-0.025,0.152-0.034,0.233c-0.018,0.174-0.097,0.759-0.106,0.931c0,0.009-0.001,0.023-0.001,0.038
			c0.001,0.165,0.048,0.306,0.085,0.388c0.004,0.033,0.008,0.161,0.007,0.307c0,0.344-0.013,0.839-0.013,0.994
			c0,0.014,0,0.023,0.002,0.037c0,0.002-0.001,0.005-0.001,0.008c0.003,0.082-0.042,0.121-0.065,0.252
			c0-0.002-0.002,0.01-0.002,0.026c0.002,0.044,0.012,0.093,0.024,0.139c-0.045,0.064-0.078,0.137-0.078,0.221
			c0,0.216,0.177,0.392,0.393,0.392c0.157,0,0.292-0.095,0.354-0.229c0.04-0.012,0.078-0.024,0.117-0.057l-0.056-0.06l0.057,0.059
			c0.066-0.076,0.064-0.124,0.12-0.159c0.049-0.032,0.152-0.117,0.258-0.198c0.051-0.04,0.102-0.077,0.141-0.105
			c0.02-0.015,0.037-0.026,0.049-0.032c0.006-0.003,0.009-0.005,0.012-0.006c0.073-0.009,0.193-0.04,0.298-0.123
			c0.103-0.085,0.205-0.222,0.296-0.321c0.068-0.083,0.133-0.132,0.145-0.238c0-0.02-0.005-0.041-0.016-0.06
			C26.64,22.388,26.598,22.381,26.572,22.382z M27.97,8.133l-1.064-1.075c0.007-0.01,0.018-0.016,0.022-0.026
			c0.025-0.058,0.011-0.126-0.035-0.172l-1.355-1.37c0.002-0.006,0.008-0.007,0.01-0.013c0.025-0.06,0.011-0.127-0.033-0.173
			l-0.941-0.85c0.048-0.025,0.034-0.015,0.073-0.059c0.041-0.046,0.052-0.143,0.02-0.197c-0.063-0.107-2.009-2.117-2.009-2.117
			c0.039-0.067,0.069-0.15,0.072-0.257c0.004-0.15-0.062-0.28-0.062-0.28L22.25,1.486V0.164l-0.072-0.046
			C22.163,0.107,22,0.001,21.751,0c-0.138,0-0.301,0.035-0.463,0.137l-0.074,0.045v1.336l-0.449,0.397l-0.023,0.024l-2.361,2.933
			c-0.041,0.049-0.054,0.115-0.038,0.176c0.003,0.013,0.011,0.079,0.054,0.144c0.036,0.056,0.074,0.086,0.195,0.101
			C18.495,5.4,18.41,5.501,18.348,5.59l-0.396,0.462l-0.014,0.016l0,0.002l-1.062,1.241c-0.024,0.029-0.033,0.071-0.012,0.102
			C16.902,7.47,16.95,7.46,16.97,7.468l-0.628,0.768C6.917,10.863,0,19.504,0,29.768c0,12.346,10.01,22.354,22.357,22.355
			c12.347-0.002,22.355-10.01,22.355-22.355C44.712,19.359,37.598,10.625,27.97,8.133z M24.996,5.343l0.015,0.165l1.354,1.446
			l0.019,0.181l1.25,1.288l0.003,0.158l1.337,1.367l0.017,0.16l1.414,1.475l0.032,0.143l1.31,1.394l0.026,0.17l1.316,1.387
			l0.004,0.139l1.286,1.379c-0.206,0.018-0.352,0.177-0.352,0.177L23.346,4.292c0.365,0.205,0.881,0.27,0.881,0.27L24.996,5.343z
			 M27.952,42.707l-0.016,5.973l-5.42-0.848l0.015-5.941L27.952,42.707z M24.525,40.248l1.384-0.525c0,0-0.085,1.541-1.37,1.953
			L24.525,40.248z M25.246,41.828c0.808-0.289,1.192-0.924,1.371-1.434l0.747,0.104l0,0.031l0.03,1.621L25.246,41.828z
			 M22.656,38.924l-0.002-1.068l7.028,1.045l0.007,1.031L22.656,38.924z M28.083,38.354l-2.332-0.346l0.001-2.389l0.234-0.012
			c0.007,0,0.012-0.008,0.02-0.01h0.006c0.073,0,0.14-0.049,0.159-0.121l0.181-0.703c0.011-0.045,0.004-0.094-0.023-0.133
			c-0.026-0.039-0.068-0.064-0.115-0.07l-0.356-0.047c0.117-0.402,0.362-0.734,1.078-0.742c0.047,0,0.101,0.004,0.153,0.008
			c0.974,0.324,0.925,1.607,0.925,1.607L28.083,38.354z M27.161,33.418c-0.077-0.008-0.154-0.01-0.226-0.01
			c-0.936-0.01-1.307,0.543-1.459,1.068l-0.469-0.061c-0.11-0.527-0.43-1.285-1.377-1.41c-0.084-0.008-0.165-0.012-0.243-0.012
			c-0.499,0-0.845,0.176-1.087,0.426c0.009-0.027,0.013-0.055,0.022-0.078c0.238-0.533,1.035-1.928,2.82-1.703
			c1.405,0.178,2.129,1.062,2.531,1.93C27.526,33.494,27.359,33.439,27.161,33.418z M26.009,34.869l-0.1,0.387l-1.32-0.154
			l-0.04-0.42L26.009,34.869z M25.378,35.6v2.352l-0.244-0.035l-0.054-2.352L25.378,35.6z M27.997,33.021
			c-0.375-0.594-0.888-1.092-1.487-1.418l0.458-0.824c0.755,0.434,1.395,1.082,1.857,1.854L27.997,33.021z M29.028,33.006
			c0.306,0.613,0.505,1.289,0.557,1.998l-0.95-0.131c-0.049-0.523-0.198-1.025-0.427-1.482L29.028,33.006z M26.134,31.43
			c-0.282-0.115-0.577-0.195-0.882-0.23c-0.416-0.049-0.813-0.018-1.183,0.078l-0.399-0.936c0.494-0.143,1.029-0.193,1.589-0.133
			c0.469,0.053,0.918,0.186,1.341,0.381L26.134,31.43z M23.688,31.406c-0.479,0.195-0.896,0.512-1.214,0.916l-0.896-0.48
			c0.426-0.611,1.02-1.08,1.715-1.363L23.688,31.406z M22.248,32.652c-0.223,0.377-0.374,0.807-0.428,1.277l-0.951-0.131
			c0.056-0.592,0.231-1.137,0.497-1.615L22.248,32.652z M22.216,34.629c0.085-0.566,0.29-1.262,1.171-1.262
			c0.062,0,0.13,0.004,0.202,0.012c0.026,0.002,0.049,0.008,0.073,0.012c0.445,0.191,0.651,0.596,0.747,0.947l-0.04-0.006
			c-0.037-0.004-0.072,0.006-0.104,0.025l-0.056,0.014l-0.195,0.143c-0.038,0.027-0.055,0.074-0.047,0.119l0.13,0.729
			c0.01,0.051,0.053,0.092,0.106,0.098l0.298,0.035l0.055,2.336l-2.104-0.312c-0.031-0.004-0.06,0.002-0.086,0.014
			c-0.003,0.002-0.006,0-0.009,0.002l-0.142,0.057V34.629z M22.229,37.977l0,0.994l-0.866,0.336l-0.008-0.982L22.229,37.977z
			 M22.757,39.277c0,0-0.085,1.541-1.37,1.953l-0.014-1.428L22.757,39.277z M23.462,39.959l0.756,0.104v0.021l0.03,1.594
			l-1.879-0.283v-0.07c0-0.021-0.006-0.039-0.011-0.057C22.983,40.949,23.303,40.408,23.462,39.959z M22.369,48.281l5.731,0.896
			v0.068c-1.818,0.535-3.74,0.832-5.731,0.832V48.281z M27.695,42.119l-0.014-1.426l1.383-0.525
			C29.064,40.168,28.979,41.709,27.695,42.119z M28.473,42.24c1.125-0.449,1.378-1.58,1.428-1.986
			c0.036-0.033,0.056-0.076,0.055-0.123l-0.01-1.359c0-0.08-0.059-0.148-0.138-0.16l-1.131-0.168l-0.073-3.107
			c-0.002,0-0.003-0.043-0.01-0.111l1.361,0.129l-0.012-0.121c-0.036-0.986-0.331-1.924-0.809-2.736l-0.003-0.006h0
			c-0.547-0.926-1.332-1.686-2.255-2.152c0,0-0.85-0.42-1.612-0.488c-0.31-0.029-0.914-0.02-0.914-0.02
			c-3.25,0.164-4.025,3.156-4.099,3.379c-0.074,0.221-0.222,0.721-0.083,0.857c0.128,0.127,1.43,0.205,1.646,0.217l0.061,0.008
			c-0.019,0.105-0.03,0.207-0.031,0.305l-0.001,3.143l-0.686,0.275c-0.062,0.023-0.104,0.086-0.103,0.152l0.009,1.33
			c0,0.008,0.004,0.014,0.005,0.021c-0.002,0.006-0.004,0.012-0.004,0.018c0,0.004,0.004,0.008,0.004,0.012l-0.001,0.092
			l0.034,1.855c0,0.018,0.008,0.033,0.021,0.045c0.005,0.004,0.013,0.004,0.02,0.008c0.001,0.002,0.001,0.002,0.003,0.004
			c0.01,0.008,0.025,0.014,0.04,0.014c0.002,0,0.005,0,0.008,0l0.506-0.074c0.105-0.021,0.201-0.049,0.296-0.078v8.656
			c-1.435-0.025-2.833-0.197-4.179-0.504V16.309c0.297,0.029,1.005,0.108,1.353,0.214c0.154,0.047,0.249,0.12,0.311,0.197
			c0.021,0.057,0.025,0.109,0.027,0.139c0,0.018,0.005,0.102,0.005,0.102V27.93l0.003,0.001l-0.01,0.313l11.025,1.664l-0.002-0.209
			V18.584c0.028-0.001,0.053-0.004,0.083-0.005c0.366-0.005,1.005,0.058,1.439,0.123v0.006l-0.007-0.001v28.917
			c-1.129,0.613-2.324,1.119-3.569,1.512V42.24z M19.828,27.659V17.086l9.902,1.692V29.18L19.828,27.659z M29.595,18.187
			l-9.587-1.672c0-0.605-1.648-0.808-2.303-0.864l0,0.009c0,0-1.238,0.538-1.088,1.244l-4.001,2.596c0,0-0.574-0.398-2.122,0.766
			l0.001-0.457c0,0,0.014-0.011,0.034-0.026c-0.034,0.012-0.066,0.021-0.093,0.021c-0.163,0.003-0.316-0.041-0.316-0.041
			s0.001-0.003,0.002-0.004c-0.009-0.003-0.017-0.003-0.025-0.007c-0.172-0.083-0.203-0.115-0.281-0.357
			c-0.006-0.019-0.012-0.043-0.018-0.068l0.315-0.208c0.006,0.035,0.015,0.069,0.024,0.099c0.052,0.156,0.17,0.231,0.27,0.279
			c0.12,0.043,0.328,0.057,0.433,0.062c0.454-0.307,1.252-0.759,1.741-0.542l3.996-2.568c0,0-0.134-0.43,0.466-0.938
			c-0.024,0.005-0.048,0.008-0.068,0.007c-0.159-0.006-0.525,0.04-0.683-0.267c-0.026-0.049-0.046-0.12-0.059-0.176l0.31-0.205
			c0.017,0.063,0.042,0.144,0.07,0.204c0.084,0.176,0.564,0.179,0.782,0.188c0.07-0.043,0.146-0.086,0.228-0.129l0.002,0.01
			l0.017-0.01c0,0,0.424,0.028,0.609,0.047c0.145-0.086,0.305-0.216,0.305-0.382c0-0.128-0.004-0.356-0.004-0.356l0.775,0.131
			c0,0,0.011,0.208,0.013,0.319c0.006,0.237-0.105,0.302-0.286,0.422c1.088,0.267,1.043,0.714,1.043,0.714l9.446,1.645
			c0.429-0.21,1.268-0.19,2.007-0.117c0.144-0.075,0.28-0.172,0.28-0.367c0-0.129-0.004-0.356-0.004-0.356l0.787,0.128
			c0,0,0.013,0.209,0.015,0.319c0.004,0.212-0.083,0.286-0.232,0.385c0.157,0.024,0.286,0.047,0.384,0.064l-0.005,0.509
			C29.857,17.761,29.595,18.187,29.595,18.187z M13.244,47.67v-5.258l2.526-1.398l0,5.35L13.244,47.67z M15.77,46.732v2.252
			c-0.827-0.285-1.629-0.621-2.405-1.006L15.77,46.732z M11.815,40.453l0.005-0.881l2.691-1.416v0.92L11.815,40.453z M12.792,40.973
			l-0.003,0.984c-0.788-0.143-0.839-0.615-0.858-0.916c0-0.025,0.001-0.051,0.002-0.07L12.792,40.973z M13.702,33.312
			c0.152-0.336,0.339-0.561,0.497-0.58c0.05-0.012,0.09-0.016,0.128-0.016c0.011-0.002,0.018-0.002,0.023-0.002
			c0.332-0.014,0.65,0.559,0.803,1.268c0.011,0.047,0.02,0.096,0.03,0.145c-0.063-0.033-0.135-0.055-0.219-0.055
			c-0.044,0-0.089,0.004-0.133,0.016c-0.406,0.133-0.499,0.598-0.58,1.006l0,0.004c-0.002-0.006-0.002-0.014-0.004-0.02
			c-0.078-0.293-0.257-0.6-0.614-0.604c-0.04,0-0.08,0.004-0.12,0.012c-0.045,0.014-0.083,0.031-0.12,0.053
			C13.437,34.26,13.532,33.742,13.702,33.312z M13.516,32.449c0,0,0.264-0.561,0.715-0.691c0.452-0.131,0.706,0.244,0.706,0.244
			l-0.209,0.439c-0.643-0.338-1.073,0.221-1.073,0.221L13.516,32.449z M15.454,33.611c-0.171-0.684-0.488-0.979-0.488-0.979
			l0.167-0.352c0.243,0.348,0.46,1.254,0.46,1.254L15.454,33.611z M15.658,33.84c0.083,0.277,0.197,1.447,0.197,1.447l-0.126,0.041
			c0.016-0.375-0.196-1.42-0.196-1.42L15.658,33.84z M14.796,39.588c0-0.035,0.001-0.066,0.004-0.096l0.969,0.004l-0.003,1.109
			C14.88,40.453,14.815,39.922,14.796,39.588z M15.379,40.852l-0.903,0.5l0.004-1.188l0.091-0.047
			C14.689,40.402,14.928,40.695,15.379,40.852z M14.774,37.738c-0.017,0-0.032,0.004-0.048,0.008
			c-0.023-0.004-0.048-0.004-0.072-0.002l0.017-1.762c0,0,0.018-1.193,0.33-1.576c0.077,0.02,0.167,0.133,0.236,0.363
			c0.055,0.184,0.089,0.412,0.109,0.629c0.006,0.094,0.008,0.168,0.01,0.203c0,0.01,0.006,0.018,0.007,0.025
			c0,0.008,0.001,0.014,0.001,0.02v2.092H14.774z M14.046,36.047v2.008l-0.645,0.34l0.018-2.037c0,0,0.018-1.119,0.301-1.537
			c0.084,0.041,0.152,0.15,0.213,0.348C14.007,35.42,14.031,35.762,14.046,36.047z M13.05,33.99
			c0.051-0.451,0.323-1.217,0.323-1.217l0.093,0.143C13.32,33.107,13.05,33.99,13.05,33.99z M14.153,40.219l-0.004,1.109
			c-0.884-0.152-0.95-0.686-0.969-1.02c0-0.035,0.001-0.066,0.003-0.094L14.153,40.219z M13.115,42.076l0.003-0.949
			c0.171,0.221,0.448,0.408,0.863,0.5l-0.866,0.479V42.076z M14.922,39.02v-0.971h0.868v0.971H14.922z M15.691,37.738v-1.893
			l0.754-0.252c0.023-0.01,0.039-0.031,0.035-0.057c0-0.004-0.001-0.006-0.002-0.01c0.002-0.006,0.003-0.014,0.002-0.02
			c-0.212-3.039-1.052-3.871-1.641-4.117c-0.026-0.01-0.328-0.043-0.417-0.047c-0.096,0-0.194,0.014-0.294,0.043
			c-1.578,0.521-1.584,3.65-1.616,4.766c0,0.123,0.001,0.225,0.003,0.293c0,0.033,0,0.061,0.001,0.08
			c0,0.008,0.001,0.016,0.001,0.021v0.006c0.003,0.066,0.04,0.127,0.097,0.16c0.03,0.018,0.063,0.025,0.095,0.025
			c0.033,0,0.064-0.008,0.092-0.023l0.041-0.021l-0.021,2.004l-1.226,0.646c-0.054,0.025-0.087,0.082-0.088,0.143l-0.005,1.25
			c-0.001,0.057,0.029,0.109,0.077,0.139c0.01,0.008,0.022,0.006,0.033,0.01c-0.004,0.045-0.009,0.096-0.009,0.156
			c-0.019,0.387,0.209,1.145,1.269,1.256v5.43c-0.511-0.271-1.01-0.562-1.495-0.873V20.304c0,0,0.642-0.49,0.964-0.283v10.535
			c0,0-0.003,0-0.004,0l-0.334,0.527c0,0-0.057,0.041,0.011,0.104c0.067,0.062,0.191-0.033,0.191-0.033l4.434-2.268
			c0,0-0.033-11.137-0.033-11.257c0-0.424,0.587-0.91,0.587-0.91v32.697c-0.346-0.09-0.686-0.193-1.024-0.301L16.132,37.9
			c0-0.043-0.017-0.084-0.048-0.115s-0.072-0.047-0.115-0.047H15.691z M12.679,30.389l0.004-10.24l3.604-2.256v10.581L12.679,30.389
			z M7.875,34.979c-0.188-0.211-1.654-1.23-2.32-1.402c-0.259-0.061-0.227-0.094-0.849-0.193c0.326-0.146,0.765-0.303,1.198-0.318
			c0.024-0.002,0.048-0.002,0.073-0.002c0.933-0.004,3.384,0.67,4.926,1.123v12.355c-1.044-0.715-2.02-1.52-2.911-2.412
			c-2.845-2.844-4.844-6.529-5.605-10.65c0.542,0.1,0.798,0.129,0.798,0.129l0.521,0.078c0.396,0.082,0.565,0.139,0.87,0.203
			c0.463,0.096,1.218,0.432,1.857,0.744c0.321,0.156,0.615,0.307,0.838,0.418c0.245,0.113,0.322,0.18,0.474,0.201
			c0.019,0,0.051,0,0.096-0.029c0.047-0.031,0.076-0.1,0.072-0.137C7.909,35.025,7.894,35.006,7.875,34.979z M9.391,33.277
			c-1.449-0.291-2.519-0.762-3.478-0.766c-0.082,0-0.165,0.002-0.247,0.012c-0.628,0.064-1.593,0.592-1.802,0.68
			C3.65,33.17,3.042,33.078,2.299,32.98c-0.167-1.047-0.255-2.119-0.255-3.213c0-5.611,2.273-10.688,5.949-14.364
			c1.747-1.747,3.813-3.166,6.099-4.186l-0.01,0.161l-1.279,1.496c-0.024,0.028-0.029,0.068-0.012,0.101
			c0.008,0.017,0.027,0.022,0.044,0.03l-1.416,1.698c-0.021,0.024-0.027,0.086,0.007,0.129s0.056,0.055,0.056,0.055l-1.474,1.737
			c-0.024,0.028-0.029,0.069-0.012,0.103c0.013,0.025,0.039,0.038,0.065,0.044l-1.388,1.627c-0.087,0.102-0.08,0.311-0.079,0.325
			c0.002,0.188,0.108,0.373,0.28,0.51c0.137,0.107,0.294,0.167,0.446,0.169c0.004,0,0.008-0.002,0.013-0.002
			c0.049,0.046,0.132,0.086,0.262,0.105v0.701h0.618v0.471h0.69v12.969C10.455,33.521,9.938,33.389,9.391,33.277z M9.231,18.713
			c0.123,0.096,0.184,0.227,0.182,0.307c-0.001,0.036-0.009,0.061-0.025,0.082c-0.021,0.027-0.061,0.048-0.128,0.048
			c-0.079,0.001-0.189-0.035-0.284-0.112c-0.122-0.093-0.183-0.223-0.181-0.305c0-0.037,0.01-0.062,0.024-0.08
			c0.024-0.03,0.063-0.05,0.13-0.051h0.003C9.031,18.601,9.137,18.638,9.231,18.713z M30.684,15.929
			c-0.588-0.325-1.175-0.065-1.175-0.065l-1.917-5.936l1.846,2.138L30.684,15.929z M30.065,12.805l1.763,2.072l0.449,1.33
			c-0.542-0.294-1.141-0.041-1.141-0.041L30.065,12.805z M29.883,16.489l0.771,0.124c0,0,0.012,0.209,0.015,0.318
			c0.004,0.204-0.074,0.277-0.21,0.371l-0.801-0.139c0.118-0.08,0.229-0.184,0.229-0.317C29.887,16.716,29.883,16.489,29.883,16.489
			z M29.044,15.635c-0.511-0.293-1.146-0.058-1.146-0.058l-2.7-8.378l1.815,2.066L29.044,15.635z M27.983,16.124l0.761,0.125
			c0,0,0.012,0.209,0.014,0.319c0.005,0.219-0.089,0.29-0.248,0.395l-0.775-0.135c0.129-0.092,0.251-0.215,0.251-0.348
			C27.987,16.352,27.983,16.124,27.983,16.124z M27.451,15.372c-0.541-0.325-1.196-0.082-1.196-0.082L22.704,4.391l1.868,2.085
			L27.451,15.372z M26.029,15.793l0.774,0.12c0,0,0.011,0.208,0.014,0.318c0.006,0.219-0.089,0.29-0.246,0.395L25.8,16.492
			c0.124-0.072,0.232-0.168,0.232-0.342C26.032,16.021,26.029,15.793,26.029,15.793z M25.812,15.042
			c-0.711-0.253-1.168-0.038-1.168-0.038l-3.44-10.597l0.216-0.541l0.116-0.071c0.3,0.286,0.766,0.442,0.766,0.442L25.812,15.042z
			 M24.187,15.448l0.764,0.129c0,0,0.011,0.209,0.015,0.319c0.005,0.226-0.095,0.295-0.261,0.404l-0.78-0.135
			c0.139-0.074,0.266-0.17,0.266-0.36C24.19,15.677,24.187,15.448,24.187,15.448z M24.235,14.843
			c-0.603-0.405-1.321-0.144-1.321-0.144l-2.596-8.054l0.693-1.758L24.235,14.843z M18.449,11.151l0.728-1.811l1.52,4.895
			c-0.631-0.426-1.324-0.146-1.324-0.146L18.449,11.151z M18.964,13.933c-0.646-0.434-1.323-0.145-1.323-0.145l-0.134-0.396
			l0.696-1.67L18.964,13.933z M20.436,15.13c0-0.129-0.004-0.357-0.004-0.357l0.771,0.113c0,0,0.012,0.209,0.015,0.319
			c0.005,0.247-0.114,0.305-0.308,0.437l-0.771-0.134C20.287,15.43,20.436,15.334,20.436,15.13z M21.156,14.42l-1.792-5.529
			l0.758-1.855l2.358,7.529C21.915,14.16,21.156,14.42,21.156,14.42z M22.316,15.455c0-0.13-0.003-0.356-0.003-0.356l0.771,0.123
			c0,0,0.012,0.208,0.014,0.318c0.006,0.243-0.109,0.304-0.298,0.431l-0.779-0.135C22.162,15.75,22.316,15.622,22.316,15.455z
			 M17.038,13.708l-0.178-0.057l4.04-9.718l0.17-0.003L17.038,13.708z M17.287,14.237c0,0.017-0.001,0.032-0.006,0.05
			c-0.022,0.08-0.125,0.152-0.284,0.153c-0.052,0-0.107-0.009-0.162-0.025c-0.194-0.06-0.305-0.212-0.299-0.311
			c0-0.019,0.002-0.034,0.006-0.047c0.025-0.084,0.127-0.157,0.286-0.158c0.051,0,0.106,0.009,0.161,0.026
			C17.182,13.985,17.292,14.138,17.287,14.237z M16.48,13.737c-0.737,0.062-0.889,0.893-0.889,0.893
			c-0.457-0.043-0.769,0.116-0.769,0.116l4.158-8.383l1.185-1.628L16.48,13.737z M16.081,16.255l-0.323,0.212
			c-0.205-0.096-0.517-0.222-0.579-0.416c-0.021-0.067-0.052-0.171-0.071-0.234l0.309-0.205c0.022,0.07,0.059,0.184,0.084,0.261
			C15.555,16.033,15.904,16.183,16.081,16.255z M14.966,16.987l-0.328,0.215c-0.19-0.099-0.585-0.233-0.656-0.454
			c-0.014-0.043-0.032-0.103-0.048-0.156l0.311-0.206c0.02,0.062,0.042,0.131,0.06,0.184C14.368,16.763,14.861,16.941,14.966,16.987
			z M14.004,15.727c-0.715,0.045-1.007,0.312-1.007,0.312l2.471-4.885l2.488-3.394L14.004,15.727z M13.9,17.687l-0.325,0.214
			c-0.198-0.098-0.568-0.23-0.637-0.444c-0.015-0.047-0.036-0.114-0.053-0.171l0.31-0.206c0.021,0.066,0.046,0.143,0.065,0.2
			C13.32,17.462,13.764,17.631,13.9,17.687z M12.112,17.129c-0.901-0.021-1.28,0.349-1.28,0.349l3.561-4.858L12.112,17.129z
			 M12.787,18.418l-0.324,0.213c-0.204-0.096-0.535-0.225-0.599-0.426c-0.018-0.057-0.042-0.14-0.062-0.204l0.309-0.205
			c0.023,0.071,0.053,0.163,0.075,0.23C12.242,18.193,12.619,18.349,12.787,18.418z M11.459,18.826l-0.319,0.213
			c-0.13-0.056-0.142-0.062-0.238-0.271c-0.017-0.037-0.039-0.085-0.06-0.132l0.303-0.2c0.019,0.041,0.038,0.082,0.055,0.116
			C11.28,18.72,11.362,18.791,11.459,18.826z M32.461,15.548l0.744,0.829c-0.082-0.003-0.458,0.092-0.458,0.092L32.461,15.548z
			 M32.645,33.469c0.306-0.086,0.674-0.156,1.087-0.156c0.116,0,0.233,0.006,0.354,0.018c1.34,0.129,2.592,0.75,2.868,0.85
			c0.561,0.199,1.308,0.348,1.64,0.404c0.311,0.053,1.504,0.451,1.805,0.461c0.022,0,0.046,0,0.085-0.016
			c0.037-0.006,0.115-0.078,0.111-0.16c-0.001-0.045-0.015-0.078-0.037-0.109c-0.164-0.213-0.456-0.32-1.031-0.482
			c-0.23-0.062-0.229-0.096-0.667-0.189c0.353-0.098,0.784-0.197,1.183-0.238c0.361-0.037,0.706-0.053,1.033-0.053
			c0.421,0,0.81,0.027,1.176,0.078c-0.813,3.961-2.78,7.502-5.533,10.254c-1.215,1.217-2.586,2.273-4.075,3.15V33.469z
			 M41.788,33.18c-0.814,0-1.512,0.098-1.971,0.141c-0.616,0.061-1.717,0.443-1.961,0.516c-0.426-0.113-2.477-1.139-3.875-1.141
			c-0.063,0-0.126,0-0.191,0.006c-0.323,0.025-0.935,0.18-1,0.186c-0.045,0.004-0.095,0.014-0.145,0.027V18.825l0.219,0.026
			l0.007-0.359l0.225-0.224l0.005-0.438c0.215-0.107,0.215-0.387,0.215-0.387l0.519-0.368c0.01,0.001,0.02,0.003,0.03,0.005
			c0.047,0.018,0.097,0.025,0.143,0.025h0.002c0.006,0,0.011,0.002,0.017,0.002c0.002,0,0.002,0,0.004,0
			c0.169-0.001,0.343-0.078,0.507-0.205L34.534,16.9c0,0,0,0,0,0l0.004,0.004c0.029-0.024,0.054-0.05,0.08-0.074
			c0.174-0.152,0.296-0.318,0.306-0.513c0-0.024-0.005-0.051-0.013-0.077c0-0.041-0.008-0.081-0.037-0.112l-1.253-1.315
			c0.008-0.011,0.02-0.018,0.025-0.03c0.024-0.059,0.011-0.128-0.034-0.173l-1.376-1.389c0.014-0.015,0.029-0.027,0.036-0.045
			c0.026-0.059,0.012-0.127-0.032-0.172l-1.323-1.335c0.004-0.007,0.012-0.01,0.015-0.018c0.024-0.059,0.012-0.127-0.033-0.172
			l-0.243-0.245c2.271,1.018,4.325,2.434,6.062,4.17c3.676,3.676,5.949,8.753,5.949,14.364c0,1.172-0.104,2.32-0.295,3.438
			C42.175,33.193,41.976,33.18,41.788,33.18z M34.042,16.855c-0.062-0.078,0.015-0.199,0.166-0.32
			c0.15-0.121,0.318-0.195,0.38-0.118c0.062,0.078-0.009,0.239-0.16,0.359C34.277,16.898,34.104,16.934,34.042,16.855z
			 M21.764,0.319c0.066,0.001,0.125,0.015,0.167,0.031v1.072c-0.052-0.005-0.11-0.01-0.167-0.015V0.319z M21.598,1.648H21.6
			L22.46,1.77c-0.002,0.061-0.029,0.104-0.065,0.142c-0.011,0.012-0.023,0.021-0.033,0.03l-0.702-0.093
			c-0.055-0.082-0.064-0.138-0.064-0.176C21.597,1.665,21.598,1.656,21.598,1.648z M21.475,2.218l0.808,0.109l1.792,1.879
			c-0.141-0.05-0.314-0.141-0.462-0.235C23.382,3.827,23.2,3.683,23.2,3.683l-0.136-0.108l-0.079,0.154
			c-0.077,0.139-0.148,0.167-0.27,0.172C22.54,3.905,22.281,3.78,22.08,3.645c-0.2-0.134-0.346-0.268-0.346-0.268l-0.126-0.115
			l-0.09,0.144c-0.126,0.191-0.261,0.231-0.409,0.236c-0.105,0-0.212-0.029-0.292-0.061c-0.003-0.001-0.006-0.002-0.008-0.003
			L21.475,2.218z M20.637,2.675l0.532-0.39l-0.593,1.204c0,0-0.245,0.251-0.232-0.116c0,0-1.468,2.044-1.495,1.406L20.637,2.675z
			 M15.633,9.689l1.25-1.528l0.021-0.141l1.342-1.635l0.024-0.161l1.797-2.101c0.11-0.069,0.188-0.095,0.223-0.102v0.007
			c0,0.021-0.004,0.045-0.008,0.062L9.646,18.6l-0.341-0.33l1.093-1.345l0.023-0.158l1.257-1.557l0.024-0.188l1.34-1.658
			l0.008-0.162l1.297-1.654l0.025-0.143l1.257-1.597L15.633,9.689z M37.505,44.914c-3.879,3.877-9.232,6.273-15.148,6.273
			c-5.917,0-11.27-2.396-15.148-6.273c-3.877-3.879-6.275-9.23-6.275-15.146c0-5.918,2.397-11.271,6.275-15.148
			c2.281-2.28,5.076-4.04,8.192-5.11l-0.782,0.975C6.976,13.555,1.577,21.026,1.576,29.768c0.001,8.965,5.679,16.604,13.636,19.518
			c2.228,0.814,4.635,1.26,7.145,1.26v0.002c8.966,0,16.606-5.68,19.519-13.635c0.815-2.229,1.261-4.635,1.261-7.145
			c0-8.853-5.538-16.404-13.334-19.399l-0.299-0.302c0.012-0.014,0.028-0.024,0.035-0.042c0.024-0.059,0.011-0.128-0.034-0.173
			l-0.412-0.417c3.205,1.061,6.078,2.851,8.413,5.185c3.877,3.877,6.274,9.229,6.274,15.148
			C43.779,35.684,41.382,41.035,37.505,44.914z M15.445,41.639c-0.049-0.029-0.111-0.031-0.161-0.004l-1.645,0.869
			c-0.059,0.031-0.091,0.092-0.087,0.154l0.007,4.229c0,0.057,0.03,0.109,0.079,0.141c0.026,0.014,0.056,0.021,0.084,0.021
			c0.026,0,0.053-0.006,0.077-0.02l1.644-0.877c0.053-0.029,0.085-0.086,0.085-0.146l-0.005-4.229
			C15.524,41.721,15.494,41.668,15.445,41.639z M14.348,46.365l-0.462,0.248l-0.006-3.865l0.468-0.25V46.365z M14.676,46.189v-3.863
			l0.521-0.275l0.005,3.857L14.676,46.189z M23.313,47.084l3.862,0.607c0.013,0.002,0.024,0.004,0.037,0.004
			c0.055,0,0.109-0.021,0.152-0.057c0.051-0.045,0.082-0.111,0.081-0.178l-0.017-3.902c0.006-0.104-0.057-0.201-0.153-0.234
			c-0.017-0.008-0.034-0.012-0.052-0.014l-3.832-0.588c-0.067-0.01-0.136,0.01-0.188,0.053c-0.051,0.045-0.081,0.109-0.081,0.178
			l-0.006,3.9C23.116,46.969,23.199,47.066,23.313,47.084z M25.604,43.535l1.357,0.209l0.016,3.443l-1.373-0.215V43.535z
			 M23.587,43.225l1.551,0.24v3.434l-1.556-0.246L23.587,43.225z M23.527,32.535c0,0,1.303-0.02,1.709,1.365
			c0,0,0.243-1.1,1.612-1.049C26.849,32.852,25.454,31.268,23.527,32.535z M25.262,33.244c-0.146-0.209-0.455-0.602-0.851-0.781
			c0.162-0.051,0.396-0.104,0.667-0.104c0.318,0.004,0.683,0.072,1.047,0.301C25.871,32.717,25.474,32.861,25.262,33.244z
			 M15.854,23.375c-0.043,0.002-0.079,0.033-0.129,0.065c-0.069,0.047-0.164,0.1-0.229,0.165c-0.065,0.068-0.104,0.165-0.123,0.227
			c-0.025,0.048-0.227,0.246-0.273,0.301c-0.018,0.023-0.037,0.028-0.06,0.036c0.001-0.007,0.002-0.015,0.002-0.022
			c-0.001-0.005-0.001-0.008-0.001-0.011v-0.007l-0.001-0.013C15.024,24,15,23.962,15,23.891v-0.019c0-0.01,0-0.01,0-0.01
			c0-0.132-0.017-0.763-0.018-1.093c0-0.052,0.002-0.096,0.003-0.128c-0.001-0.014,0.001-0.025,0.001-0.032
			c0.02-0.079,0.043-0.207,0.045-0.354c0.001-0.015-0.001-0.031-0.001-0.043c-0.006-0.166-0.061-0.727-0.069-0.879
			c-0.004-0.08-0.013-0.16-0.023-0.228c-0.014-0.05-0.017-0.119-0.06-0.152c0.001,0.001-0.003,0.004-0.003,0.004l0.002-0.005
			c0,0,0,0,0.001,0.001c-0.001-0.001-0.001-0.001-0.001-0.002h-0.002c-0.005-0.005-0.011-0.007-0.017-0.009v-0.003c0,0,0,0-0.001,0
			c0,0-0.003-0.001-0.015,0c-0.003,0.003-0.01,0.005-0.021,0.018c-0.041,0.039-0.04,0.108-0.05,0.154
			c-0.01,0.065-0.016,0.144-0.02,0.221c-0.01,0.164-0.055,0.717-0.061,0.88c-0.001,0.007-0.001,0.02-0.001,0.035
			c0,0.156,0.027,0.289,0.049,0.368c0.003,0.03,0.006,0.149,0.006,0.289c0,0.324-0.007,0.793-0.007,0.938
			c-0.001,0.012-0.001,0.022,0.001,0.035v0.007c0.001,0.079-0.024,0.114-0.038,0.238c0-0.002-0.001,0.01-0.001,0.025
			c0.001,0.042,0.007,0.088,0.014,0.132c-0.026,0.059-0.045,0.128-0.045,0.207c0.001,0.206,0.104,0.372,0.228,0.373
			c0.09,0.002,0.167-0.087,0.203-0.215c0.022-0.011,0.045-0.022,0.067-0.053l-0.033-0.058l0.033,0.057
			c0.038-0.071,0.038-0.116,0.068-0.148c0.029-0.031,0.087-0.112,0.148-0.187c0.03-0.037,0.06-0.073,0.081-0.1
			c0.013-0.014,0.023-0.024,0.029-0.03c0.004-0.003,0.004-0.003,0.005-0.006c0.043-0.009,0.112-0.037,0.172-0.115
			c0.058-0.08,0.117-0.209,0.169-0.302c0.039-0.077,0.077-0.125,0.083-0.224c0-0.018-0.002-0.04-0.01-0.058
			C15.892,23.383,15.868,23.375,15.854,23.375z M13.748,23.833L13.748,23.833c-0.003-2.093,0.729-3.727,1.707-3.804
			c0.035-0.003,0.063-0.033,0.063-0.07c0-0.035-0.027-0.066-0.062-0.069c-0.02-0.001-0.181-0.053-0.242-0.055v0.002
			c-0.002,0-0.003,0-0.003-0.002c-1.18,0.018-2.055,1.809-2.06,3.983c0.002,2.587,0.881,3.988,1.884,4.002
			c0.062,0,0.125-0.006,0.188-0.018c0.024-0.004,0.167-0.014,0.199-0.018c0.036-0.002,0.064-0.032,0.064-0.068
			c0.001-0.035-0.025-0.067-0.061-0.07C14.316,27.53,13.744,25.922,13.748,23.833z"/>
	</g>
</g>
<g opacity="0.22">
</g>
</svg>
