<?xml version="1.0" encoding="utf-8"?>
<!-- Generator: Adobe Illustrator 15.1.0, SVG Export Plug-In . SVG Version: 6.00 Build 0)  -->
<!DOCTYPE svg PUBLIC "-//W3C//DTD SVG 1.1//EN" "http://www.w3.org/Graphics/SVG/1.1/DTD/svg11.dtd">
<svg version="1.1" id="Layer_1" xmlns="http://www.w3.org/2000/svg" xmlns:xlink="http://www.w3.org/1999/xlink" x="0px" y="0px"
	 width="164px" height="60px" viewBox="0 0 164 60" enable-background="new 0 0 164 60" xml:space="preserve">
<g>
	<g>
		<path fill="#FFFFFF" d="M33.305,2.729l-8.344,23.267h-0.722L18.341,9.388l-6.177,16.608h-0.722L3.058,2.568L0.691,2.247V0.965
			h9.027v1.282L6.387,2.568l6.138,17.45L17.379,6.74l-1.525-4.172l-2.446-0.322V0.965h9.225v1.282l-3.329,0.322v0.402l5.937,17.047
			l6.138-17.329L28.17,2.247V0.965h7.501v1.282L33.305,2.729z"/>
		<path fill="#FFFFFF" d="M47.294,25.676v-1.124l2.888-0.321v-6.899h-9.146v6.899l2.888,0.321v1.124H35.26v-1.124l2.889-0.321V9.789
			l-2.889-0.32V8.345h8.665v1.124l-2.888,0.32v6.099h9.146V9.789l-2.888-0.32V8.345h8.625v1.124l-2.888,0.32v14.443l2.888,0.321
			v1.124H47.294z"/>
		<path fill="#FFFFFF" d="M60.736,25.676v-1.124l2.89-0.321V9.789l-2.89-0.32V8.345h8.665v1.124l-2.887,0.32v14.443l2.887,0.321
			v1.124H60.736z"/>
		<path fill="#FFFFFF" d="M88.216,13.16l-0.441-3.372h-4.853v14.443l2.889,0.321v1.124h-8.666v-1.124l2.889-0.321V9.789H75.14
			l-0.442,3.372h-1.284V8.345h16.087v4.815H88.216z"/>
		<path fill="#FFFFFF" d="M109.025,25.676v-1.124l2.888-0.321l-0.803-12.075l-6.578,13.519h-0.642l-6.458-13.198L96.71,24.071
			l2.889,0.481v1.124h-7.462v-1.124l2.889-0.481l0.963-14.283l-2.887-0.32V8.345h5.454l6.338,13.118l6.378-13.118h5.417v1.124
			l-2.89,0.241l1.005,14.522l2.887,0.321v1.124H109.025z"/>
		<path fill="#FFFFFF" d="M130.933,25.676v-1.124l3.01-0.321l-1.645-3.811h-6.98l-1.605,3.77l3.009,0.362v1.124h-6.9v-1.124
			l2.207-0.401l6.859-16.126h1.283l6.941,16.207l2.166,0.321v1.124H130.933z M128.848,12.157h-0.082l-2.847,6.82h5.776
			L128.848,12.157z"/>
		<path fill="#FFFFFF" d="M159.498,9.95v15.886h-0.923l-12.436-13.52v11.755l2.849,0.481v1.124h-7.383v-1.124l2.849-0.481V10.512
			l-0.763-0.803l-2.086-0.241V8.345h4.735l11.472,12.558V9.95l-2.849-0.481V8.345h7.382v1.124L159.498,9.95z"/>
	</g>
	<g>
		<path fill="#FFFFFF" d="M26.111,59.035c-7.14,0-12.516-5.015-12.516-12.837c0-7.823,5.215-13.159,13.037-13.159
			c3.33,0,5.336,0.562,6.82,1.205l0.521-1.205h1.283l-0.32,7.262h-1.284l-0.644-3.167c-1.924-1.604-3.731-2.489-7.059-2.489
			c-4.814,0-8.825,4.133-8.825,10.952c0,6.098,3.329,11.633,9.266,11.633c3.21,0,5.979-1.324,8.104-3.529l0.961,1.283
			C32.811,57.671,29.762,59.035,26.111,59.035z"/>
		<path fill="#FFFFFF" d="M46.842,59.035c-5.294,0-9.427-3.689-9.427-9.146s4.292-9.467,9.589-9.467
			c5.294,0,9.426,3.691,9.426,9.145C56.43,55.023,52.139,59.035,46.842,59.035z M46.842,41.867c-3.531,0-6.138,2.886-6.138,7.699
			c0,4.815,2.767,8.024,6.3,8.024c3.531,0,6.137-2.889,6.137-7.702S50.372,41.867,46.842,41.867z"/>
		<path fill="#FFFFFF" d="M58.621,58.394v-1.123l2.887-0.321V42.507l-2.887-0.319v-1.125h8.665v1.125l-2.889,0.319v14.442h6.82
			L71.82,53.3h1.362v5.094H58.621z"/>
		<path fill="#FFFFFF" d="M76.496,58.394v-1.123l2.888-0.321V42.507l-2.888-0.319v-1.125h8.664v1.125l-2.887,0.319v14.442h6.818
			l0.603-3.649h1.363v5.094H76.496z"/>
		<path fill="#FFFFFF" d="M93.636,58.394v-1.123l2.887-0.321V42.507l-2.887-0.319v-1.125h14.401v4.534h-1.283l-0.442-3.09h-6.898
			v6.1h4.733l0.319-1.926h1.205v5.293h-1.205l-0.319-1.924h-4.733v6.899h7.141l0.521-3.249h1.362v4.693H93.636z"/>
		<path fill="#FFFFFF" d="M129.434,52.617v4.492c-1.324,0.844-3.932,1.926-7.419,1.926c-5.457,0-9.627-3.732-9.627-9.188
			c0-5.454,3.848-9.426,9.867-9.426c2.728,0,4.412,0.602,5.573,0.961l0.323-0.961h1.203l-0.242,5.457h-1.202l-0.441-2.408
			c-1.765-1.165-3.289-1.604-5.535-1.604c-3.692,0-6.258,2.927-6.258,7.66c0,4.694,2.526,8.063,6.618,8.063
			c2.086,0,3.369-0.44,4.252-1.123v-3.851l-3.129-0.322v-1.123h7.221v1.045L129.434,52.617z"/>
		<path fill="#FFFFFF" d="M134.372,58.394v-1.123l2.886-0.321V42.507l-2.886-0.319v-1.125h14.399v4.534h-1.284l-0.438-3.09h-6.9v6.1
			h4.732l0.322-1.926h1.203v5.293h-1.203l-0.322-1.924h-4.732v6.899h7.14l0.521-3.249h1.366v4.693H134.372z"/>
	</g>
</g>
</svg>
