<?xml version="1.0" encoding="utf-8"?>
<!-- Generator: Adobe Illustrator 15.1.0, SVG Export Plug-In . SVG Version: 6.00 Build 0)  -->
<!DOCTYPE svg PUBLIC "-//W3C//DTD SVG 1.1//EN" "http://www.w3.org/Graphics/SVG/1.1/DTD/svg11.dtd">
<svg version="1.1" xmlns="http://www.w3.org/2000/svg" xmlns:xlink="http://www.w3.org/1999/xlink" x="0px" y="0px" width="312px"
	 height="54px" viewBox="0 0 312 54" enable-background="new 0 0 312 54" xml:space="preserve">
<g id="Layer_2" display="none">
	<rect x="-74" y="-41" display="inline" fill="#1A1A1A" width="460" height="133"/>
</g>
<g id="Layer_1">
	<g opacity="0.22">
	</g>
	<path fill="#FFFFFF" d="M30.034,7.588l-1.963-1.897c0.275-0.352,0-0.594,0-0.594l-3.278-3.563l0.2-1.111
		c-0.982-0.829-1.993,0-1.993,0v1.205l-3.564,4.068c-0.404,0.477-0.002,0.83-0.002,0.83l-0.735,0.993
		C8.404,10.017,0.717,19.289,0.717,30.352c0,12.978,10.501,23.499,23.48,23.499c12.978,0,23.49-10.521,23.49-23.499
		C47.687,19.396,40.178,10.191,30.034,7.588z"/>
	<g>
		<path fill="#FFFFFF" d="M81.299,22.157l-6.646,18.531h-0.575L69.381,27.46l-4.92,13.229h-0.575l-6.678-18.66l-1.886-0.256v-1.021
			h7.191v1.021l-2.653,0.256l4.889,13.897l3.866-10.574L67.4,22.029l-1.949-0.256v-1.021h7.348v1.021l-2.652,0.256v0.32
			l4.729,13.577l4.889-13.801l-2.556-0.353v-1.021h5.975v1.021L81.299,22.157z"/>
		<path fill="#FFFFFF" d="M92.442,40.434v-0.895l2.3-0.256v-5.496h-7.285v5.496l2.3,0.256v0.895h-6.901v-0.895l2.3-0.256V27.78
			l-2.3-0.256V26.63h6.901v0.894l-2.3,0.256v4.858h7.285V27.78l-2.3-0.256V26.63h6.869v0.894l-2.3,0.256v11.503l2.3,0.256v0.895
			H92.442z"/>
		<path fill="#FFFFFF" d="M103.147,40.434v-0.895l2.302-0.256V27.78l-2.302-0.256V26.63h6.902v0.894l-2.299,0.256v11.503
			l2.299,0.256v0.895H103.147z"/>
		<path fill="#FFFFFF" d="M125.036,30.464l-0.352-2.684h-3.865v11.503l2.301,0.256v0.895h-6.902v-0.895l2.3-0.256V27.78h-3.897
			l-0.353,2.684h-1.022V26.63h12.813v3.833H125.036z"/>
		<path fill="#FFFFFF" d="M141.611,40.434v-0.895l2.301-0.256l-0.639-9.619l-5.241,10.77h-0.511l-5.144-10.513l-0.576,9.235
			l2.301,0.383v0.895h-5.944v-0.895l2.302-0.383l0.766-11.376l-2.3-0.256V26.63h4.346l5.048,10.449L143.4,26.63h4.314v0.894
			l-2.301,0.191l0.799,11.567l2.3,0.256v0.895H141.611z"/>
		<path fill="#FFFFFF" d="M159.061,40.434v-0.895l2.396-0.256l-1.309-3.037h-5.561l-1.278,3.006l2.396,0.287v0.895h-5.497v-0.895
			l1.757-0.318l5.464-12.846h1.021l5.528,12.908l1.729,0.256v0.895H159.061z M157.398,29.664h-0.064l-2.268,5.433h4.603
			L157.398,29.664z"/>
		<path fill="#FFFFFF" d="M181.812,27.907v12.655h-0.735l-9.905-10.769v9.363l2.27,0.383v0.895h-5.88v-0.895l2.269-0.383V28.355
			l-0.605-0.64l-1.663-0.191V26.63h3.771l9.139,10v-8.724l-2.271-0.382V26.63h5.879v0.894L181.812,27.907z"/>
		<path fill="#FFFFFF" d="M206.803,40.943c-5.687,0-9.97-3.992-9.97-10.223c0-6.231,4.154-10.482,10.386-10.482
			c2.65,0,4.25,0.449,5.431,0.959l0.415-0.959h1.021l-0.254,5.785h-1.022l-0.512-2.523c-1.532-1.278-2.974-1.983-5.624-1.983
			c-3.834,0-7.028,3.292-7.028,8.725c0,4.855,2.652,9.265,7.38,9.265c2.557,0,4.763-1.055,6.457-2.812l0.765,1.022
			C212.138,39.858,209.71,40.943,206.803,40.943z"/>
		<path fill="#FFFFFF" d="M223.314,40.943c-4.216,0-7.509-2.938-7.509-7.284c0-4.345,3.419-7.541,7.639-7.541
			c4.217,0,7.507,2.939,7.507,7.286S227.533,40.943,223.314,40.943z M223.314,27.27c-2.812,0-4.89,2.3-4.89,6.135
			c0,3.833,2.205,6.389,5.02,6.389c2.812,0,4.888-2.299,4.888-6.134C228.332,29.825,226.127,27.27,223.314,27.27z"/>
		<path fill="#FFFFFF" d="M232.696,40.434v-0.895l2.3-0.256V27.78l-2.3-0.256V26.63h6.9v0.894l-2.299,0.256v11.503h5.432
			l0.479-2.906h1.086v4.057H232.696z"/>
		<path fill="#FFFFFF" d="M246.934,40.434v-0.895l2.301-0.256V27.78l-2.301-0.256V26.63h6.899v0.894l-2.298,0.256v11.503h5.43
			l0.48-2.906h1.084v4.057H246.934z"/>
		<path fill="#FFFFFF" d="M260.585,40.434v-0.895l2.302-0.256V27.78l-2.302-0.256V26.63h11.474v3.611h-1.024l-0.352-2.461h-5.494
			v4.858h3.77l0.255-1.536h0.958v4.216h-0.958l-0.255-1.531h-3.77v5.496h5.685l0.418-2.589h1.085v3.739H260.585z"/>
		<path fill="#FFFFFF" d="M289.099,35.832v3.579c-1.055,0.672-3.131,1.532-5.909,1.532c-4.346,0-7.667-2.972-7.667-7.315
			c0-4.348,3.064-7.51,7.858-7.51c2.174,0,3.513,0.479,4.439,0.766l0.257-0.766h0.958l-0.191,4.346h-0.958l-0.352-1.919
			c-1.407-0.927-2.622-1.275-4.41-1.275c-2.939,0-4.982,2.331-4.982,6.104c0,3.735,2.012,6.42,5.271,6.42
			c1.661,0,2.685-0.352,3.387-0.894v-3.067l-2.491-0.257v-0.893h5.75v0.831L289.099,35.832z"/>
		<path fill="#FFFFFF" d="M293.031,40.434v-0.895l2.299-0.256V27.78l-2.299-0.256V26.63h11.471v3.611h-1.023l-0.351-2.461h-5.495
			v4.858h3.77l0.257-1.536h0.959v4.216h-0.959l-0.257-1.531h-3.77v5.496h5.689l0.413-2.589h1.087v3.739H293.031z"/>
	</g>
	<g>
		<g>
			<path fill="#003D7D" d="M26.635,19.486l-0.005,0.002c-0.172,0-0.342,0.017-0.509,0.04c-2.005,0.179-3.568,1.991-3.568,4.187h0
				c0,0.007,0,0.012,0,0.018c0.007,2.188,1.567,3.99,3.567,4.168c0.169,0.021,0.34,0.042,0.515,0.042h0.002
				c2.17-0.002,3.905-1.905,3.91-4.228v-0.002C30.545,21.389,28.806,19.489,26.635,19.486z M27.207,27.516
				c-0.186,0.034-0.375,0.055-0.569,0.055l-0.002-0.002c-1.943-0.003-3.539-1.713-3.54-3.853l0-0.014
				c0.006-2.134,1.601-3.839,3.541-3.843h0.043c0.098,0.001,0.194,0.01,0.291,0.02c1.619,0.424,2.814,1.963,2.815,3.833
				C29.786,25.538,28.856,27.033,27.207,27.516z M25.315,33.087c0,0,1.294-0.02,1.696,1.356c0,0,0.242-1.093,1.602-1.042
				C28.613,33.401,27.228,31.829,25.315,33.087z M27.037,33.792c-0.145-0.208-0.451-0.597-0.846-0.775
				c0.162-0.051,0.395-0.104,0.663-0.104c0.315,0.004,0.678,0.071,1.04,0.298C27.642,33.269,27.248,33.412,27.037,33.792z
				 M17.291,42.127c-0.049-0.03-0.111-0.031-0.16-0.005l-1.633,0.863c-0.059,0.032-0.09,0.092-0.085,0.153l0.006,4.198
				c0,0.056,0.03,0.108,0.079,0.141c0.025,0.014,0.055,0.021,0.084,0.021c0.026,0,0.052-0.005,0.076-0.019l1.632-0.87
				c0.052-0.031,0.085-0.087,0.085-0.147l-0.005-4.198C17.369,42.208,17.338,42.155,17.291,42.127z M16.201,46.819l-0.458,0.247
				l-0.007-3.838l0.465-0.249V46.819z M16.526,46.646v-3.837l0.517-0.274l0.005,3.832L16.526,46.646z M28.338,23.006
				c-0.072,0.002-0.138,0.035-0.22,0.069c-0.121,0.05-0.287,0.108-0.396,0.176c-0.114,0.071-0.182,0.173-0.216,0.239
				c-0.044,0.051-0.393,0.26-0.472,0.32c-0.031,0.023-0.065,0.03-0.105,0.037c0-0.007,0.002-0.016,0.004-0.023
				c-0.002-0.005-0.002-0.008-0.002-0.01l0.002-0.01l-0.002-0.014c-0.024-0.122-0.067-0.16-0.069-0.236v-0.02c0-0.009,0-0.01,0-0.01
				c0-0.139-0.03-0.804-0.03-1.148c0-0.055,0.002-0.103,0.003-0.134c0.001-0.015,0.002-0.026,0.003-0.034
				c0.035-0.085,0.078-0.218,0.079-0.375c0-0.017-0.001-0.032-0.001-0.045c-0.011-0.173-0.104-0.764-0.119-0.922
				c-0.007-0.084-0.021-0.167-0.04-0.239c-0.023-0.053-0.026-0.125-0.102-0.16c0.002,0-0.005,0.004-0.005,0.004l0.001-0.006
				c0.001,0.002,0.003,0.002,0.004,0.002c-0.003-0.002-0.003,0-0.004-0.002h-0.001c-0.008-0.003-0.019-0.007-0.029-0.01v-0.001
				c0,0-0.001,0-0.003,0v-0.001c0-0.001-0.006-0.002-0.025,0.002c-0.007,0.001-0.019,0.004-0.038,0.019
				c-0.072,0.041-0.069,0.111-0.088,0.163c-0.015,0.068-0.025,0.151-0.033,0.231c-0.019,0.173-0.097,0.754-0.105,0.924
				c0,0.009-0.002,0.022-0.002,0.038c0.002,0.165,0.047,0.304,0.084,0.386c0.004,0.033,0.007,0.159,0.007,0.304
				c0,0.341-0.013,0.833-0.013,0.987c0,0.014,0,0.023,0.002,0.037c0,0.002-0.001,0.004-0.001,0.008
				c0.003,0.082-0.042,0.119-0.065,0.25c0-0.002-0.002,0.01-0.002,0.026c0.002,0.044,0.013,0.093,0.024,0.139
				c-0.045,0.063-0.077,0.136-0.077,0.22c0,0.214,0.175,0.388,0.389,0.388c0.156,0,0.29-0.094,0.352-0.227
				c0.039-0.013,0.076-0.025,0.116-0.058l-0.056-0.059l0.057,0.059c0.065-0.075,0.063-0.123,0.118-0.158
				c0.049-0.031,0.152-0.115,0.256-0.196c0.051-0.04,0.102-0.077,0.14-0.105c0.02-0.015,0.037-0.026,0.049-0.031
				c0.007-0.003,0.01-0.005,0.012-0.007c0.073-0.008,0.192-0.039,0.296-0.122c0.102-0.083,0.202-0.219,0.293-0.318
				c0.067-0.083,0.132-0.132,0.145-0.237c0-0.02-0.005-0.041-0.016-0.059C28.405,23.012,28.363,23.005,28.338,23.006z
				 M15.605,24.446L15.605,24.446c-0.003-2.077,0.723-3.699,1.694-3.776c0.034-0.003,0.062-0.033,0.062-0.07
				c0-0.034-0.027-0.066-0.061-0.069c-0.02-0.001-0.18-0.052-0.241-0.055v0.002c-0.001,0-0.003,0-0.003-0.002
				c-1.17,0.017-2.04,1.796-2.045,3.954c0.003,2.57,0.875,3.959,1.871,3.973c0.062,0,0.125-0.004,0.187-0.018
				c0.024-0.003,0.165-0.012,0.198-0.017c0.036-0.003,0.063-0.032,0.063-0.068c0.001-0.035-0.024-0.066-0.061-0.07
				C16.17,28.118,15.602,26.522,15.605,24.446z M17.697,23.993c-0.043,0.002-0.079,0.032-0.129,0.065
				c-0.068,0.047-0.163,0.099-0.228,0.164c-0.064,0.066-0.104,0.163-0.123,0.224c-0.025,0.048-0.225,0.244-0.271,0.299
				c-0.018,0.023-0.037,0.029-0.06,0.036c0.001-0.007,0.002-0.015,0.002-0.022c-0.001-0.005-0.001-0.008-0.001-0.011v-0.007
				l-0.001-0.013c-0.015-0.115-0.039-0.153-0.04-0.224v-0.02c0-0.01,0-0.01,0-0.01c0-0.131-0.017-0.757-0.018-1.085
				c0-0.051,0.002-0.096,0.003-0.127c-0.001-0.014,0.001-0.025,0.001-0.032c0.02-0.079,0.043-0.206,0.045-0.352
				c0.001-0.015-0.001-0.031-0.001-0.042c-0.006-0.165-0.061-0.721-0.069-0.873c-0.004-0.079-0.012-0.159-0.023-0.227
				c-0.014-0.049-0.017-0.118-0.059-0.151c0.001,0.001-0.003,0.004-0.003,0.004l0.001-0.005c0,0,0,0,0.002,0.001
				c-0.002-0.001-0.002-0.001-0.001-0.002h-0.002c-0.005-0.004-0.012-0.006-0.017-0.008v-0.003c0,0,0,0-0.001,0
				c0,0-0.003-0.001-0.015,0c-0.003,0.003-0.01,0.005-0.021,0.018c-0.041,0.039-0.04,0.108-0.049,0.153
				c-0.01,0.065-0.016,0.143-0.02,0.22c-0.01,0.163-0.055,0.711-0.061,0.874c-0.001,0.007-0.001,0.02-0.001,0.034
				c0,0.154,0.028,0.286,0.05,0.365c0.003,0.029,0.005,0.148,0.005,0.287c0,0.321-0.007,0.788-0.007,0.931
				c-0.001,0.014-0.001,0.023,0.001,0.035v0.008c0,0.078-0.024,0.113-0.038,0.236c0-0.002-0.001,0.01-0.001,0.025
				c0.001,0.042,0.007,0.088,0.013,0.131c-0.025,0.059-0.044,0.129-0.044,0.205c0,0.205,0.104,0.37,0.226,0.37
				c0.09,0.003,0.167-0.085,0.202-0.213c0.022-0.011,0.044-0.021,0.067-0.052l-0.033-0.059l0.033,0.057
				c0.037-0.07,0.036-0.115,0.066-0.146c0.029-0.032,0.086-0.112,0.147-0.186c0.03-0.037,0.061-0.072,0.082-0.099
				c0.013-0.014,0.022-0.024,0.028-0.03c0.003-0.002,0.004-0.002,0.005-0.006c0.043-0.009,0.112-0.037,0.171-0.113
				c0.058-0.079,0.117-0.208,0.168-0.3c0.04-0.076,0.077-0.125,0.083-0.223c0-0.018-0.002-0.039-0.01-0.057
				C17.734,24,17.711,23.993,17.697,23.993z M29.727,8.859L28.67,7.792c0.007-0.01,0.017-0.016,0.021-0.026
				c0.025-0.058,0.011-0.125-0.035-0.171l-1.345-1.359c0.002-0.005,0.008-0.008,0.01-0.014c0.024-0.059,0.011-0.126-0.033-0.171
				l-0.935-0.844c0.047-0.025,0.034-0.015,0.073-0.059c0.041-0.046,0.052-0.142,0.02-0.195c-0.064-0.106-1.995-2.103-1.995-2.103
				c0.038-0.065,0.068-0.148,0.071-0.254c0.004-0.149-0.062-0.278-0.062-0.278l-0.415-0.058V0.946L23.975,0.9
				c-0.014-0.009-0.176-0.116-0.424-0.116c-0.136,0-0.299,0.034-0.459,0.136l-0.074,0.045v1.327l-0.445,0.395L22.55,2.711
				l-2.344,2.911c-0.04,0.048-0.054,0.114-0.037,0.174c0.003,0.013,0.011,0.079,0.053,0.143c0.035,0.056,0.074,0.086,0.194,0.101
				c-0.097,0.105-0.182,0.206-0.243,0.294L19.78,6.793l-0.014,0.016l0,0.002l-1.054,1.232c-0.025,0.028-0.033,0.071-0.012,0.102
				c0.038,0.055,0.085,0.045,0.105,0.053l-0.624,0.762C8.823,11.569,1.956,20.149,1.956,30.341c0,12.257,9.938,22.193,22.198,22.194
				c12.258-0.001,22.196-9.938,22.196-22.194C46.35,20.005,39.284,11.334,29.727,8.859z M26.773,6.088l0.015,0.163l1.344,1.436
				l0.019,0.18l1.242,1.277l0.003,0.157l1.328,1.357l0.017,0.159l1.403,1.464l0.031,0.141l1.301,1.384l0.025,0.168l1.307,1.377
				l0.004,0.138l1.277,1.369c-0.205,0.019-0.349,0.176-0.349,0.176L25.136,5.046c0.362,0.203,0.875,0.269,0.875,0.269L26.773,6.088z
				 M29.708,43.188l-0.015,5.93l-5.382-0.842l0.015-5.899L29.708,43.188z M26.306,40.745l1.374-0.521c0,0-0.085,1.53-1.36,1.939
				L26.306,40.745z M27.021,42.314c0.802-0.286,1.184-0.918,1.361-1.424l0.74,0.103v0.031l0.03,1.61L27.021,42.314z M24.451,39.431
				l-0.003-1.061l6.979,1.036l0.007,1.024L24.451,39.431z M29.838,38.865l-2.315-0.344l0.001-2.371l0.232-0.013
				c0.007,0,0.013-0.008,0.02-0.009h0.006c0.072,0,0.139-0.05,0.157-0.12l0.18-0.699c0.012-0.045,0.004-0.094-0.022-0.133
				c-0.026-0.037-0.067-0.064-0.114-0.069l-0.354-0.045c0.116-0.4,0.358-0.729,1.069-0.738c0.047,0,0.101,0.005,0.152,0.009
				c0.967,0.322,0.919,1.595,0.919,1.595L29.838,38.865z M28.923,33.963c-0.077-0.008-0.152-0.009-0.224-0.009
				c-0.929-0.011-1.297,0.538-1.448,1.061l-0.466-0.059c-0.109-0.524-0.427-1.276-1.368-1.401c-0.083-0.007-0.163-0.012-0.24-0.012
				c-0.496,0-0.84,0.176-1.08,0.423c0.009-0.027,0.013-0.055,0.021-0.078c0.236-0.528,1.028-1.913,2.8-1.689
				c1.395,0.176,2.115,1.054,2.513,1.915C29.286,34.039,29.119,33.983,28.923,33.963z M27.78,35.404l-0.1,0.384l-1.311-0.153
				l-0.04-0.417L27.78,35.404z M27.153,36.13v2.334l-0.242-0.034l-0.054-2.334L27.153,36.13z M29.752,33.57
				c-0.372-0.59-0.881-1.084-1.477-1.407l0.455-0.819c0.749,0.431,1.384,1.074,1.844,1.841L29.752,33.57z M30.776,33.555
				c0.304,0.609,0.502,1.28,0.553,1.984l-0.943-0.132c-0.049-0.518-0.196-1.017-0.424-1.472L30.776,33.555z M27.903,31.991
				c-0.28-0.115-0.572-0.194-0.875-0.229c-0.412-0.049-0.808-0.018-1.174,0.077l-0.397-0.928c0.491-0.143,1.022-0.193,1.578-0.134
				c0.465,0.053,0.912,0.186,1.332,0.379L27.903,31.991z M25.475,31.967c-0.476,0.193-0.889,0.508-1.206,0.91l-0.89-0.479
				c0.423-0.606,1.013-1.072,1.703-1.354L25.475,31.967z M24.045,33.204c-0.221,0.374-0.371,0.801-0.424,1.268l-0.945-0.13
				c0.056-0.588,0.23-1.128,0.494-1.603L24.045,33.204z M24.013,35.166c0.084-0.561,0.288-1.253,1.164-1.253
				c0.062,0,0.129,0.005,0.199,0.012c0.025,0.002,0.049,0.009,0.073,0.011c0.443,0.19,0.646,0.594,0.742,0.942l-0.04-0.006
				c-0.038-0.003-0.072,0.006-0.103,0.026l-0.055,0.013l-0.194,0.142c-0.037,0.026-0.055,0.072-0.047,0.117l0.129,0.724
				c0.01,0.05,0.052,0.091,0.105,0.096l0.295,0.036l0.054,2.32l-2.089-0.312c-0.03-0.004-0.059,0.002-0.085,0.014
				c-0.003,0.002-0.006,0-0.009,0.002l-0.141,0.056V35.166z M24.027,38.489l0,0.989l-0.86,0.332l-0.007-0.976L24.027,38.489z
				 M24.55,39.782c0,0-0.084,1.529-1.36,1.94l-0.014-1.418L24.55,39.782z M25.25,40.458l0.751,0.104v0.022l0.03,1.581l-1.867-0.28
				v-0.068c0-0.023-0.005-0.041-0.011-0.058C24.774,41.443,25.092,40.904,25.25,40.458z M24.165,48.722l5.69,0.89v0.068
				c-1.805,0.53-3.712,0.824-5.69,0.824V48.722z M29.453,42.604l-0.013-1.416l1.373-0.521
				C30.813,40.666,30.729,42.195,29.453,42.604z M30.225,42.725c1.117-0.447,1.369-1.569,1.418-1.974
				c0.036-0.032,0.056-0.076,0.055-0.12l-0.01-1.353c0-0.077-0.058-0.146-0.137-0.157l-1.124-0.167l-0.072-3.086
				c-0.002,0-0.003-0.043-0.01-0.109l1.35,0.128l-0.011-0.121c-0.036-0.979-0.328-1.91-0.803-2.718l-0.003-0.004h0
				c-0.543-0.92-1.323-1.675-2.24-2.138c0,0-0.844-0.417-1.601-0.485c-0.308-0.029-0.908-0.019-0.908-0.019
				c-3.226,0.163-3.996,3.134-4.07,3.354c-0.073,0.218-0.22,0.715-0.082,0.852c0.127,0.126,1.42,0.202,1.636,0.215l0.06,0.008
				c-0.019,0.106-0.03,0.207-0.031,0.303l-0.001,3.119l-0.681,0.273c-0.062,0.023-0.103,0.087-0.102,0.152l0.009,1.318
				c0,0.011,0.004,0.017,0.005,0.024c-0.001,0.005-0.004,0.012-0.004,0.017c0,0.004,0.004,0.009,0.004,0.012l-0.001,0.09
				l0.034,1.843c0,0.019,0.008,0.034,0.021,0.046c0.005,0.005,0.012,0.005,0.02,0.008c0.001,0.002,0.001,0.002,0.003,0.005
				c0.01,0.006,0.025,0.013,0.041,0.013h0.008l0.502-0.074c0.105-0.021,0.2-0.05,0.294-0.077v8.593
				c-1.424-0.025-2.812-0.195-4.149-0.501V16.977c0.294,0.029,0.998,0.108,1.343,0.213c0.153,0.046,0.247,0.119,0.308,0.195
				c0.021,0.056,0.024,0.108,0.027,0.138c0,0.017,0.004,0.101,0.004,0.101v10.891l0.003,0.002l-0.01,0.309l10.947,1.653
				l-0.002-0.207V19.236c0.029-0.001,0.053-0.004,0.082-0.004c0.363-0.005,0.998,0.058,1.429,0.122v0.007l-0.007-0.001V48.07
				c-1.121,0.608-2.307,1.111-3.544,1.501V42.725z M21.642,28.246V17.749l9.832,1.68v10.329L21.642,28.246z M31.339,18.841
				l-9.518-1.659c0-0.602-1.636-0.802-2.287-0.858v0.008c0,0-1.228,0.534-1.08,1.235l-3.973,2.577c0,0-0.57-0.396-2.106,0.761
				l0-0.454c0,0,0.014-0.01,0.034-0.026c-0.034,0.012-0.066,0.021-0.093,0.021c-0.162,0.004-0.314-0.04-0.314-0.04
				s0.001-0.004,0.002-0.005c-0.009-0.003-0.017-0.003-0.026-0.007c-0.171-0.082-0.202-0.115-0.279-0.354
				c-0.006-0.019-0.011-0.043-0.017-0.067l0.313-0.207c0.006,0.034,0.015,0.068,0.024,0.098c0.051,0.154,0.169,0.229,0.268,0.276
				c0.12,0.043,0.327,0.057,0.43,0.062c0.45-0.304,1.243-0.754,1.728-0.539l3.968-2.55c0,0-0.133-0.427,0.463-0.931
				c-0.024,0.005-0.048,0.009-0.068,0.007c-0.158-0.005-0.521,0.04-0.678-0.265c-0.026-0.049-0.046-0.119-0.059-0.174l0.308-0.204
				c0.017,0.062,0.041,0.142,0.069,0.202c0.083,0.175,0.561,0.178,0.776,0.187c0.07-0.042,0.145-0.086,0.227-0.128l0.001,0.011
				l0.017-0.011c0,0,0.421,0.028,0.605,0.047c0.144-0.085,0.303-0.215,0.303-0.378c0-0.128-0.004-0.354-0.004-0.354l0.77,0.13
				c0,0,0.011,0.206,0.013,0.316c0.006,0.235-0.105,0.3-0.285,0.42c1.08,0.265,1.036,0.709,1.036,0.709l9.379,1.632
				c0.425-0.209,1.258-0.189,1.992-0.116c0.143-0.075,0.279-0.17,0.279-0.365c0-0.128-0.004-0.354-0.004-0.354l0.781,0.127
				c0,0,0.012,0.208,0.015,0.317c0.004,0.21-0.083,0.284-0.23,0.382c0.155,0.024,0.283,0.047,0.381,0.064l-0.004,0.505
				C31.6,18.418,31.339,18.841,31.339,18.841z M15.104,48.115v-5.221l2.509-1.388l0,5.31L15.104,48.115z M17.613,47.184v2.235
				c-0.821-0.283-1.618-0.616-2.388-0.998L17.613,47.184z M13.687,40.949l0.005-0.875l2.672-1.406v0.913L13.687,40.949z
				 M14.656,41.466l-0.003,0.977c-0.782-0.142-0.833-0.61-0.852-0.909c0-0.024,0.001-0.051,0.002-0.069L14.656,41.466z
				 M15.56,33.859c0.151-0.333,0.336-0.557,0.493-0.576c0.05-0.012,0.089-0.015,0.127-0.015c0.012-0.003,0.019-0.003,0.023-0.003
				c0.329-0.014,0.646,0.555,0.798,1.259c0.011,0.047,0.019,0.096,0.028,0.145c-0.062-0.034-0.133-0.055-0.217-0.055
				c-0.044,0-0.088,0.004-0.132,0.017c-0.402,0.13-0.495,0.592-0.575,0.997l-0.001,0.003c-0.002-0.006-0.002-0.014-0.004-0.02
				c-0.078-0.29-0.255-0.594-0.609-0.598c-0.039,0-0.079,0.004-0.119,0.012c-0.044,0.015-0.082,0.03-0.119,0.051
				C15.296,34.8,15.391,34.287,15.56,33.859z M15.375,33.002c0,0,0.262-0.557,0.709-0.686c0.449-0.131,0.701,0.242,0.701,0.242
				l-0.208,0.436c-0.639-0.335-1.065,0.22-1.065,0.22L15.375,33.002z M17.299,34.156c-0.17-0.678-0.485-0.972-0.485-0.972
				l0.166-0.35c0.241,0.347,0.457,1.246,0.457,1.246L17.299,34.156z M17.501,34.383c0.083,0.276,0.197,1.438,0.197,1.438
				l-0.126,0.041c0.017-0.373-0.195-1.41-0.195-1.41L17.501,34.383z M16.646,40.09c0-0.034,0.002-0.065,0.004-0.095l0.962,0.002
				L17.609,41.1C16.729,40.949,16.665,40.422,16.646,40.09z M17.225,41.344l-0.896,0.498l0.005-1.181l0.09-0.044
				C16.54,40.9,16.777,41.19,17.225,41.344z M16.624,38.253c-0.017,0-0.032,0.004-0.046,0.007c-0.024-0.003-0.049-0.003-0.073,0
				l0.017-1.75c0,0,0.018-1.185,0.328-1.563c0.076,0.02,0.166,0.13,0.234,0.358c0.055,0.184,0.089,0.411,0.109,0.625
				c0.006,0.095,0.009,0.168,0.01,0.202c0,0.009,0.006,0.019,0.007,0.025c0,0.009,0,0.014,0,0.021v2.075H16.624z M15.901,36.573
				v1.993l-0.639,0.34l0.018-2.023c0,0,0.017-1.111,0.299-1.526c0.083,0.04,0.151,0.149,0.211,0.345
				C15.862,35.952,15.887,36.293,15.901,36.573z M14.912,34.532c0.05-0.447,0.32-1.208,0.32-1.208l0.093,0.142
				C15.18,33.655,14.912,34.532,14.912,34.532z M16.008,40.716l-0.003,1.103c-0.878-0.151-0.944-0.681-0.962-1.013
				c0-0.034,0.001-0.066,0.003-0.094L16.008,40.716z M14.977,42.561l0.002-0.941c0.17,0.219,0.446,0.405,0.857,0.496l-0.859,0.475
				V42.561z M16.771,39.526v-0.964h0.861v0.964H16.771z M17.534,38.253v-1.878l0.75-0.25c0.023-0.009,0.038-0.03,0.034-0.057
				c0-0.004,0-0.005-0.001-0.01c0.001-0.006,0.003-0.014,0.001-0.02c-0.21-3.019-1.044-3.844-1.628-4.088
				c-0.027-0.01-0.327-0.043-0.415-0.046c-0.095,0-0.194,0.012-0.292,0.042c-1.567,0.518-1.573,3.625-1.605,4.731
				c0,0.122,0.001,0.225,0.003,0.291c0,0.034,0,0.061,0.001,0.08c0,0.008,0.001,0.016,0.001,0.021v0.007
				c0.003,0.065,0.04,0.126,0.096,0.158c0.03,0.019,0.062,0.025,0.095,0.025c0.032,0,0.062-0.007,0.091-0.023l0.042-0.021
				l-0.021,1.99l-1.217,0.643c-0.053,0.023-0.087,0.079-0.088,0.139l-0.005,1.242c-0.001,0.057,0.029,0.107,0.076,0.139
				c0.011,0.007,0.022,0.004,0.034,0.009c-0.005,0.045-0.009,0.095-0.009,0.155c-0.019,0.383,0.208,1.137,1.26,1.247v5.391
				c-0.507-0.269-1.003-0.559-1.484-0.866V20.944c0,0,0.637-0.488,0.958-0.281v10.459c0,0-0.004,0-0.004,0l-0.332,0.525
				c0,0-0.057,0.039,0.011,0.104c0.067,0.062,0.19-0.034,0.19-0.034l4.402-2.25c0,0-0.032-11.06-0.032-11.18
				c0-0.421,0.584-0.903,0.584-0.903v32.464c-0.344-0.09-0.682-0.193-1.018-0.298l-0.039-11.137c0-0.041-0.016-0.082-0.047-0.113
				c-0.031-0.031-0.072-0.048-0.114-0.048H17.534z M14.544,30.956l0.004-10.167l3.578-2.241v10.505L14.544,30.956z M9.775,35.514
				c-0.187-0.21-1.643-1.222-2.304-1.392c-0.257-0.061-0.225-0.094-0.844-0.193c0.325-0.146,0.76-0.3,1.19-0.314
				c0.024-0.003,0.047-0.003,0.072-0.003c0.926-0.004,3.36,0.665,4.891,1.115v12.267c-1.036-0.71-2.005-1.508-2.89-2.394
				c-2.824-2.824-4.809-6.483-5.565-10.576c0.539,0.1,0.793,0.129,0.793,0.129l0.516,0.076c0.393,0.084,0.562,0.14,0.864,0.203
				c0.46,0.095,1.209,0.43,1.843,0.738c0.319,0.155,0.61,0.305,0.833,0.416c0.242,0.111,0.319,0.178,0.469,0.199
				c0.019,0,0.051,0,0.097-0.028c0.046-0.032,0.075-0.1,0.071-0.137C9.808,35.56,9.792,35.541,9.775,35.514z M11.279,33.824
				c-1.438-0.288-2.502-0.757-3.452-0.76c-0.082,0-0.164,0.002-0.245,0.011C6.958,33.141,6,33.664,5.792,33.751
				c-0.213-0.032-0.817-0.123-1.554-0.222c-0.166-1.039-0.254-2.104-0.254-3.188c0-5.572,2.257-10.613,5.907-14.263
				c1.734-1.734,3.787-3.144,6.055-4.157l-0.009,0.16l-1.271,1.485c-0.024,0.028-0.029,0.068-0.012,0.101
				c0.008,0.017,0.027,0.021,0.044,0.029l-1.405,1.686c-0.021,0.024-0.027,0.085,0.006,0.128c0.035,0.042,0.056,0.055,0.056,0.055
				l-1.463,1.725c-0.024,0.029-0.028,0.069-0.011,0.103c0.013,0.024,0.038,0.037,0.065,0.043l-1.378,1.617
				c-0.086,0.101-0.079,0.308-0.079,0.323c0.002,0.187,0.108,0.37,0.279,0.506c0.135,0.107,0.292,0.167,0.443,0.168
				c0.004,0,0.007-0.002,0.012-0.002c0.049,0.045,0.131,0.085,0.26,0.104v0.696h0.614v0.467h0.686V34.19
				C12.335,34.067,11.823,33.935,11.279,33.824z M11.121,19.364c0.121,0.095,0.183,0.224,0.18,0.304
				c0,0.036-0.009,0.061-0.025,0.082c-0.021,0.026-0.061,0.047-0.127,0.047c-0.078,0.001-0.187-0.035-0.282-0.111
				c-0.121-0.093-0.181-0.221-0.179-0.303c0-0.036,0.01-0.062,0.023-0.08c0.024-0.03,0.063-0.049,0.129-0.05
				c0.001,0,0.002,0,0.002,0C10.922,19.252,11.026,19.289,11.121,19.364z M32.42,16.6c-0.583-0.324-1.167-0.065-1.167-0.065
				l-1.903-5.894l1.833,2.123L32.42,16.6z M31.806,13.497l1.75,2.058l0.445,1.321c-0.537-0.292-1.132-0.041-1.132-0.041
				L31.806,13.497z M31.626,17.155l0.766,0.123c0,0,0.011,0.208,0.015,0.316c0.004,0.202-0.074,0.275-0.209,0.368l-0.795-0.138
				c0.117-0.08,0.227-0.183,0.227-0.316C31.629,17.381,31.626,17.155,31.626,17.155z M30.793,16.308
				c-0.508-0.292-1.138-0.058-1.138-0.058l-2.681-8.318l1.803,2.051L30.793,16.308z M29.739,16.793l0.756,0.124
				c0,0,0.013,0.208,0.014,0.318c0.005,0.217-0.089,0.287-0.246,0.392l-0.769-0.134c0.127-0.091,0.249-0.214,0.249-0.345
				C29.743,17.019,29.739,16.793,29.739,16.793z M29.211,16.046c-0.537-0.322-1.187-0.081-1.187-0.081L24.497,5.144l1.854,2.07
				L29.211,16.046z M27.799,16.464l0.769,0.119c0,0,0.012,0.207,0.015,0.316c0.005,0.217-0.089,0.288-0.245,0.392l-0.765-0.133
				c0.123-0.072,0.23-0.167,0.23-0.34C27.802,16.69,27.799,16.464,27.799,16.464z M27.583,15.718
				c-0.706-0.251-1.159-0.038-1.159-0.038L23.008,5.159l0.214-0.537l0.115-0.071c0.298,0.284,0.761,0.438,0.761,0.438L27.583,15.718
				z M25.97,16.122l0.759,0.128c0,0,0.011,0.208,0.014,0.317c0.005,0.224-0.095,0.292-0.26,0.401l-0.774-0.134
				c0.137-0.074,0.264-0.168,0.264-0.357C25.973,16.349,25.97,16.122,25.97,16.122z M26.018,15.521
				c-0.599-0.401-1.312-0.143-1.312-0.143l-2.577-7.997l0.688-1.747L26.018,15.521z M20.273,11.855l0.723-1.798l1.509,4.86
				c-0.628-0.423-1.314-0.144-1.314-0.144L20.273,11.855z M20.785,14.618c-0.642-0.431-1.314-0.144-1.314-0.144l-0.133-0.394
				l0.691-1.658L20.785,14.618z M22.245,15.806c0-0.129-0.004-0.354-0.004-0.354l0.765,0.111c0,0,0.012,0.208,0.015,0.317
				c0.004,0.244-0.113,0.302-0.306,0.434l-0.766-0.133C22.097,16.104,22.245,16.009,22.245,15.806z M22.96,15.102l-1.78-5.49
				l0.752-1.843l2.342,7.476C23.714,14.843,22.96,15.102,22.96,15.102z M24.112,16.129c0-0.13-0.003-0.354-0.003-0.354l0.767,0.122
				c0,0,0.012,0.207,0.014,0.315c0.006,0.242-0.109,0.302-0.296,0.428l-0.774-0.134C23.96,16.422,24.112,16.294,24.112,16.129z
				 M18.872,14.393l-0.178-0.056l4.011-9.649l0.169-0.002L18.872,14.393z M19.12,14.92c0,0.017-0.002,0.031-0.006,0.049
				c-0.022,0.08-0.125,0.151-0.283,0.152c-0.052,0-0.106-0.009-0.161-0.024c-0.193-0.06-0.302-0.211-0.297-0.309
				c0-0.018,0.002-0.034,0.006-0.047c0.025-0.084,0.125-0.155,0.283-0.156c0.051,0,0.105,0.009,0.16,0.026
				C19.016,14.669,19.124,14.821,19.12,14.92z M18.318,14.422c-0.731,0.062-0.882,0.887-0.882,0.887
				c-0.453-0.043-0.763,0.114-0.763,0.114l4.128-8.323l1.176-1.617L18.318,14.422z M17.921,16.923l-0.32,0.211
				c-0.204-0.095-0.513-0.221-0.575-0.414c-0.021-0.066-0.051-0.169-0.07-0.232l0.306-0.203c0.021,0.07,0.058,0.182,0.083,0.259
				C17.398,16.703,17.745,16.851,17.921,16.923z M16.815,17.65l-0.326,0.214c-0.189-0.098-0.582-0.231-0.651-0.45
				c-0.014-0.043-0.032-0.102-0.048-0.155l0.308-0.204c0.02,0.062,0.042,0.13,0.06,0.182C16.22,17.427,16.71,17.605,16.815,17.65z
				 M15.86,16.398c-0.71,0.044-1,0.309-1,0.309l2.453-4.85l2.471-3.369L15.86,16.398z M15.756,18.345l-0.323,0.213
				c-0.197-0.097-0.564-0.229-0.632-0.44c-0.015-0.047-0.036-0.113-0.053-0.17l0.307-0.204c0.021,0.064,0.046,0.142,0.065,0.198
				C15.181,18.121,15.622,18.29,15.756,18.345z M13.981,17.791c-0.895-0.021-1.271,0.346-1.271,0.346l3.535-4.823L13.981,17.791z
				 M14.651,19.07l-0.321,0.212c-0.202-0.095-0.531-0.224-0.595-0.423c-0.018-0.056-0.042-0.138-0.062-0.201l0.308-0.203
				c0.022,0.069,0.052,0.161,0.074,0.229C14.11,18.847,14.484,19.002,14.651,19.07z M13.333,19.476l-0.316,0.21
				c-0.129-0.055-0.142-0.062-0.236-0.268c-0.017-0.037-0.038-0.084-0.059-0.132l0.301-0.198c0.019,0.041,0.038,0.082,0.054,0.116
				C13.155,19.371,13.236,19.441,13.333,19.476z M34.186,16.222l0.738,0.823c-0.082-0.003-0.455,0.09-0.455,0.09L34.186,16.222z
				 M34.368,34.015c0.303-0.086,0.669-0.155,1.079-0.155c0.115,0,0.232,0.006,0.352,0.017c1.332,0.129,2.574,0.745,2.847,0.846
				c0.557,0.197,1.298,0.344,1.629,0.399c0.309,0.053,1.493,0.448,1.792,0.459c0.022,0,0.046,0,0.084-0.017
				c0.037-0.005,0.114-0.077,0.111-0.159c-0.001-0.045-0.016-0.076-0.037-0.108c-0.163-0.211-0.453-0.317-1.023-0.479
				c-0.229-0.062-0.229-0.096-0.662-0.187c0.35-0.099,0.778-0.197,1.174-0.239c0.358-0.036,0.701-0.051,1.026-0.051
				c0.418,0,0.804,0.027,1.168,0.076c-0.808,3.933-2.76,7.449-5.494,10.183c-1.206,1.209-2.567,2.256-4.045,3.126V34.015z
				 M43.445,33.729c-0.808,0-1.501,0.096-1.958,0.139c-0.611,0.06-1.704,0.44-1.947,0.513c-0.422-0.114-2.458-1.131-3.847-1.132
				c-0.063,0-0.125,0-0.189,0.004c-0.321,0.025-0.929,0.18-0.993,0.185c-0.044,0.004-0.095,0.014-0.143,0.029v-13.99l0.217,0.025
				l0.006-0.356l0.224-0.222l0.004-0.434c0.214-0.107,0.214-0.385,0.214-0.385l0.515-0.364c0.01,0,0.02,0.002,0.029,0.004
				c0.047,0.018,0.096,0.025,0.142,0.025h0.001c0.006,0,0.011,0.002,0.018,0.002c0.002,0,0.002,0,0.003,0
				c0.168-0.002,0.34-0.077,0.504-0.204l-0.003-0.003c0,0,0,0,0,0l0.004,0.004c0.029-0.024,0.054-0.049,0.08-0.073
				c0.172-0.151,0.294-0.315,0.303-0.509c0-0.024-0.005-0.051-0.013-0.076c0.001-0.041-0.007-0.081-0.036-0.111l-1.244-1.306
				c0.008-0.011,0.02-0.017,0.024-0.029c0.024-0.06,0.012-0.128-0.033-0.172l-1.366-1.378c0.013-0.015,0.029-0.027,0.036-0.045
				c0.025-0.059,0.012-0.127-0.032-0.172l-1.314-1.326c0.004-0.007,0.012-0.01,0.015-0.018c0.024-0.059,0.012-0.126-0.032-0.171
				l-0.241-0.243c2.255,1.011,4.295,2.417,6.019,4.142c3.65,3.649,5.908,8.69,5.908,14.263c0,1.162-0.104,2.302-0.293,3.412
				C43.831,33.74,43.632,33.729,43.445,33.729z M35.755,17.52c-0.062-0.078,0.014-0.197,0.165-0.317
				c0.149-0.12,0.316-0.194,0.377-0.117c0.062,0.077-0.009,0.237-0.159,0.356C35.988,17.562,35.816,17.597,35.755,17.52z
				 M23.564,1.101c0.066,0.001,0.124,0.015,0.166,0.031v1.063c-0.052-0.005-0.109-0.009-0.166-0.014V1.101z M23.398,2.42
				c0,0,0.001,0,0.002,0l0.854,0.121c-0.001,0.061-0.028,0.103-0.064,0.14c-0.011,0.012-0.022,0.021-0.033,0.031L23.462,2.62
				c-0.055-0.082-0.064-0.138-0.064-0.175C23.397,2.437,23.398,2.428,23.398,2.42z M23.278,2.986l0.801,0.108l1.779,1.865
				c-0.14-0.049-0.313-0.139-0.459-0.233c-0.228-0.143-0.408-0.286-0.408-0.286l-0.136-0.108l-0.079,0.153
				c-0.077,0.139-0.147,0.167-0.267,0.171c-0.174,0.004-0.432-0.121-0.631-0.254s-0.345-0.266-0.345-0.266l-0.125-0.114
				l-0.089,0.143c-0.125,0.189-0.259,0.228-0.406,0.233c-0.105,0-0.211-0.029-0.29-0.061c-0.003-0.001-0.006-0.003-0.009-0.003
				L23.278,2.986z M22.445,3.44l0.528-0.388l-0.589,1.196c0,0-0.243,0.25-0.23-0.115c0,0-1.458,2.03-1.485,1.396L22.445,3.44z
				 M17.477,10.405l1.241-1.517l0.022-0.14l1.332-1.624l0.023-0.16l1.785-2.085c0.109-0.069,0.186-0.095,0.22-0.101v0.007
				c0.001,0.022-0.004,0.045-0.007,0.061L11.532,19.252l-0.339-0.328l1.085-1.336l0.023-0.157l1.249-1.544l0.023-0.188l1.331-1.646
				l0.008-0.16l1.288-1.644l0.025-0.142l1.249-1.585L17.477,10.405z M39.193,45.378c-3.852,3.85-9.166,6.229-15.04,6.229
				c-5.875,0-11.189-2.38-15.041-6.229c-3.849-3.851-6.23-9.164-6.23-15.037c0-5.877,2.38-11.192,6.23-15.042
				c2.265-2.263,5.041-4.012,8.133-5.073l-0.775,0.967C8.881,14.242,3.521,21.661,3.52,30.341
				c0.001,8.901,5.639,16.484,13.539,19.377c2.212,0.81,4.602,1.252,7.095,1.252v0.002c8.901,0,16.488-5.641,19.38-13.537
				c0.81-2.214,1.252-4.604,1.252-7.094c0-8.791-5.499-16.288-13.24-19.262l-0.297-0.3c0.012-0.014,0.027-0.024,0.034-0.042
				c0.025-0.059,0.012-0.127-0.033-0.172l-0.409-0.413c3.182,1.054,6.034,2.83,8.353,5.147c3.85,3.85,6.229,9.165,6.229,15.042
				C45.422,36.214,43.043,41.527,39.193,45.378z M25.103,47.533l3.834,0.603c0.013,0.002,0.025,0.005,0.037,0.005
				c0.055,0,0.109-0.022,0.151-0.058c0.051-0.043,0.081-0.11,0.08-0.177l-0.017-3.872c0.006-0.105-0.056-0.202-0.152-0.234
				c-0.016-0.008-0.033-0.011-0.052-0.014l-3.804-0.583c-0.067-0.009-0.135,0.01-0.187,0.053c-0.052,0.043-0.081,0.107-0.081,0.176
				l-0.006,3.873C24.906,47.418,24.99,47.516,25.103,47.533z M27.377,44.009l1.348,0.208l0.015,3.418l-1.363-0.213V44.009z
				 M25.375,43.701l1.541,0.238v3.409l-1.545-0.245L25.375,43.701z"/>
		</g>
	</g>
</g>
<g id="Layer_3" display="none">
	<g display="inline">
		<path fill="#FFFFFF" d="M80.016,81.033l-6.694,18.665h-0.579l-4.731-13.324l-4.955,13.324h-0.579l-6.727-18.794l-1.898-0.259
			v-1.028h7.241v1.028l-2.671,0.259l4.924,13.997l3.894-10.65l-1.223-3.347l-1.963-0.259v-1.028h7.401v1.028l-2.671,0.259v0.322
			l4.763,13.675l4.924-13.9l-2.574-0.355v-1.028h6.018v1.028L80.016,81.033z"/>
		<path fill="#FFFFFF" d="M91.239,99.44v-0.9l2.317-0.258v-5.535h-7.337v5.535l2.317,0.258v0.9h-6.951v-0.9l2.317-0.258V86.696
			l-2.317-0.256v-0.902h6.951v0.902l-2.317,0.256v4.893h7.337v-4.893l-2.317-0.256v-0.902h6.918v0.902l-2.316,0.256v11.586
			l2.316,0.258v0.9H91.239z"/>
		<path fill="#FFFFFF" d="M102.021,99.44v-0.9l2.318-0.258V86.696l-2.318-0.256v-0.902h6.951v0.902l-2.316,0.256v11.586l2.316,0.258
			v0.9H102.021z"/>
		<path fill="#FFFFFF" d="M124.066,89.399l-0.354-2.703h-3.894v11.586l2.318,0.258v0.9h-6.952v-0.9l2.317-0.258V86.696h-3.926
			l-0.354,2.703h-1.029v-3.861h12.905v3.861H124.066z"/>
		<path fill="#FFFFFF" d="M140.76,99.44v-0.9l2.317-0.258l-0.644-9.688l-5.278,10.846h-0.515l-5.181-10.588l-0.58,9.301l2.317,0.387
			v0.9h-5.985v-0.9l2.318-0.387l0.772-11.457l-2.317-0.256v-0.902h4.376l5.084,10.523l5.117-10.523h4.345v0.902l-2.317,0.191
			l0.805,11.65l2.316,0.258v0.9H140.76z"/>
		<path fill="#FFFFFF" d="M158.335,99.44v-0.9l2.413-0.258l-1.318-3.059h-5.6l-1.288,3.025l2.414,0.291v0.9h-5.536v-0.9l1.77-0.322
			l5.504-12.938h1.029l5.567,13.002l1.739,0.258v0.9H158.335z M156.661,88.595h-0.064l-2.285,5.471h4.634L156.661,88.595z"/>
		<path fill="#FFFFFF" d="M181.249,86.825v12.744h-0.74l-9.976-10.846v9.43l2.285,0.387v0.9h-5.922v-0.9l2.285-0.387V87.276
			l-0.611-0.645l-1.674-0.191v-0.902h3.798l9.204,10.072v-8.785l-2.286-0.385v-0.902h5.922v0.902L181.249,86.825z"/>
		<path fill="#FFFFFF" d="M206.418,99.954c-5.727,0-10.04-4.021-10.04-10.297s4.184-10.557,10.459-10.557
			c2.671,0,4.28,0.452,5.471,0.967l0.418-0.967h1.029l-0.257,5.826h-1.029l-0.517-2.541c-1.543-1.288-2.993-1.998-5.662-1.998
			c-3.862,0-7.079,3.316-7.079,8.787c0,4.891,2.67,9.332,7.433,9.332c2.574,0,4.796-1.062,6.502-2.832l0.771,1.029
			C211.792,98.86,209.347,99.954,206.418,99.954z"/>
		<path fill="#FFFFFF" d="M223.05,99.954c-4.248,0-7.562-2.959-7.562-7.336s3.442-7.596,7.692-7.596
			c4.246,0,7.561,2.961,7.561,7.338S227.298,99.954,223.05,99.954z M223.05,86.183c-2.834,0-4.925,2.316-4.925,6.178
			s2.22,6.436,5.055,6.436c2.832,0,4.923-2.316,4.923-6.178S225.881,86.183,223.05,86.183z"/>
		<path fill="#FFFFFF" d="M232.498,99.44v-0.9l2.316-0.258V86.696l-2.316-0.256v-0.902h6.95v0.902l-2.316,0.256v11.586h5.472
			l0.482-2.928h1.093v4.086H232.498z"/>
		<path fill="#FFFFFF" d="M246.838,99.44v-0.9l2.316-0.258V86.696l-2.316-0.256v-0.902h6.948v0.902l-2.314,0.256v11.586h5.47
			l0.483-2.928h1.093v4.086H246.838z"/>
		<path fill="#FFFFFF" d="M260.586,99.44v-0.9l2.317-0.258V86.696l-2.317-0.256v-0.902h11.555v3.637h-1.029l-0.355-2.479h-5.534
			v4.893h3.798l0.256-1.545h0.966v4.246h-0.966l-0.256-1.543h-3.798v5.535h5.728l0.419-2.607h1.094v3.766H260.586z"/>
		<path fill="#FFFFFF" d="M289.305,94.806v3.605c-1.062,0.676-3.154,1.543-5.952,1.543c-4.377,0-7.723-2.992-7.723-7.369
			s3.088-7.562,7.916-7.562c2.188,0,3.539,0.484,4.471,0.771l0.259-0.771h0.966l-0.194,4.377h-0.965l-0.354-1.932
			c-1.416-0.934-2.64-1.285-4.441-1.285c-2.961,0-5.019,2.348-5.019,6.146c0,3.764,2.026,6.467,5.309,6.467
			c1.674,0,2.703-0.354,3.411-0.9v-3.09l-2.51-0.258v-0.9h5.792v0.838L289.305,94.806z"/>
		<path fill="#FFFFFF" d="M293.266,99.44v-0.9l2.315-0.258V86.696l-2.315-0.256v-0.902h11.553v3.637h-1.03l-0.354-2.479H297.9v4.893
			h3.797l0.258-1.545h0.966v4.246h-0.966l-0.258-1.543H297.9v5.535h5.729l0.417-2.607h1.095v3.766H293.266z"/>
	</g>
	<g display="inline">
		<g>
			<path fill="#FFFFFF" d="M24.96,78.344l-0.005,0.001c-0.174,0-0.345,0.018-0.513,0.041c-2.02,0.18-3.595,2.004-3.594,4.216
				l-0.001,0.001c0,0.006,0,0.012,0.001,0.018c0.007,2.203,1.579,4.018,3.593,4.197c0.169,0.021,0.341,0.041,0.518,0.041h0.002
				c2.186-0.002,3.934-1.918,3.938-4.257V82.6C28.899,80.26,27.147,78.347,24.96,78.344z M25.536,86.429
				c-0.187,0.035-0.377,0.057-0.573,0.057l-0.002-0.002c-1.956-0.002-3.564-1.725-3.565-3.88l-0.001-0.015
				c0.006-2.148,1.612-3.866,3.566-3.87h0.042l0.002-0.001c0.099,0.002,0.196,0.01,0.292,0.02c1.631,0.428,2.834,1.978,2.836,3.861
				C28.133,84.438,27.197,85.944,25.536,86.429z M15.549,101.146c-0.049-0.029-0.111-0.031-0.161-0.004l-1.645,0.869
				c-0.059,0.031-0.091,0.092-0.087,0.154l0.007,4.229c0,0.057,0.03,0.109,0.079,0.141c0.026,0.014,0.056,0.021,0.084,0.021
				c0.026,0,0.053-0.006,0.077-0.02l1.644-0.877c0.053-0.029,0.085-0.086,0.085-0.146l-0.005-4.229
				C15.628,101.228,15.598,101.175,15.549,101.146z M14.452,105.872l-0.462,0.248l-0.006-3.865l0.468-0.25V105.872z M14.779,105.696
				v-3.863l0.521-0.275l0.005,3.857L14.779,105.696z M13.851,83.339L13.851,83.339c-0.003-2.092,0.729-3.727,1.707-3.804
				c0.035-0.003,0.063-0.033,0.063-0.069c0-0.035-0.027-0.066-0.062-0.07c-0.02,0-0.181-0.053-0.242-0.055v0.002
				c-0.002,0-0.003,0-0.003-0.002c-1.18,0.018-2.055,1.809-2.06,3.982c0.002,2.588,0.881,3.988,1.884,4.002
				c0.062,0,0.125-0.006,0.188-0.018c0.024-0.004,0.167-0.014,0.199-0.018c0.036-0.002,0.064-0.031,0.064-0.068
				c0.001-0.035-0.025-0.066-0.061-0.07C14.42,87.036,13.847,85.429,13.851,83.339z M23.631,92.042c0,0,1.303-0.02,1.709,1.365
				c0,0,0.243-1.1,1.612-1.049C26.952,92.358,25.557,90.774,23.631,92.042z M25.365,92.751c-0.146-0.209-0.455-0.602-0.851-0.781
				c0.162-0.051,0.396-0.104,0.667-0.104c0.318,0.004,0.683,0.072,1.047,0.301C25.975,92.224,25.578,92.368,25.365,92.751z
				 M28.074,67.64l-1.064-1.075c0.007-0.01,0.018-0.016,0.022-0.026c0.025-0.059,0.011-0.126-0.035-0.172l-1.355-1.37
				c0.002-0.006,0.008-0.007,0.01-0.013c0.025-0.061,0.011-0.127-0.033-0.174l-0.941-0.85c0.048-0.025,0.034-0.016,0.073-0.059
				c0.041-0.047,0.052-0.143,0.02-0.197c-0.063-0.106-2.009-2.117-2.009-2.117c0.039-0.066,0.069-0.149,0.072-0.256
				c0.004-0.15-0.062-0.28-0.062-0.28l-0.418-0.058v-1.322l-0.072-0.047c-0.015-0.01-0.177-0.116-0.427-0.117
				c-0.138,0-0.301,0.035-0.463,0.137l-0.074,0.046v1.337l-0.449,0.396l-0.023,0.025l-2.361,2.932
				c-0.041,0.05-0.054,0.115-0.038,0.176c0.003,0.014,0.011,0.08,0.054,0.145c0.036,0.057,0.074,0.086,0.195,0.101
				c-0.098,0.106-0.183,0.207-0.245,0.296l-0.396,0.463l-0.014,0.016l0,0.002l-1.062,1.242c-0.024,0.028-0.033,0.07-0.012,0.102
				c0.038,0.056,0.086,0.047,0.106,0.054l-0.628,0.768C7.021,70.37,0.104,79.011,0.104,89.274c0,12.346,10.01,22.354,22.357,22.355
				c12.347-0.002,22.355-10.01,22.355-22.355C44.816,78.866,37.701,70.132,28.074,67.64z M25.099,64.85l0.015,0.165l1.354,1.445
				l0.019,0.182l1.25,1.287l0.003,0.158l1.337,1.366l0.017,0.16l1.414,1.475l0.032,0.143l1.31,1.394l0.026,0.17l1.316,1.387
				l0.004,0.139l1.286,1.38c-0.206,0.018-0.352,0.177-0.352,0.177L23.45,63.8c0.365,0.204,0.881,0.27,0.881,0.27L25.099,64.85z
				 M28.055,102.214l-0.016,5.973l-5.42-0.848l0.015-5.941L28.055,102.214z M24.628,99.755l1.384-0.525c0,0-0.085,1.541-1.37,1.953
				L24.628,99.755z M25.35,101.335c0.808-0.289,1.192-0.924,1.371-1.434l0.747,0.104l0,0.031l0.03,1.621L25.35,101.335z
				 M22.76,98.431l-0.002-1.068l7.028,1.045l0.007,1.031L22.76,98.431z M28.187,97.86l-2.332-0.346l0.001-2.389l0.234-0.012
				c0.007,0,0.012-0.008,0.02-0.01h0.006c0.073,0,0.14-0.049,0.159-0.121l0.181-0.703c0.011-0.045,0.004-0.094-0.023-0.133
				c-0.026-0.039-0.068-0.064-0.115-0.07l-0.356-0.047c0.117-0.402,0.362-0.734,1.078-0.742c0.047,0,0.101,0.004,0.153,0.008
				c0.974,0.324,0.925,1.607,0.925,1.607L28.187,97.86z M27.265,92.925c-0.077-0.008-0.154-0.01-0.226-0.01
				c-0.936-0.01-1.307,0.543-1.459,1.068l-0.469-0.061c-0.11-0.527-0.43-1.285-1.377-1.41c-0.084-0.008-0.165-0.012-0.243-0.012
				c-0.499,0-0.845,0.176-1.087,0.426c0.009-0.027,0.013-0.055,0.022-0.078c0.238-0.533,1.035-1.928,2.82-1.703
				c1.405,0.178,2.129,1.062,2.531,1.93C27.63,93.001,27.462,92.946,27.265,92.925z M26.113,94.376l-0.1,0.387l-1.32-0.154
				l-0.04-0.42L26.113,94.376z M25.482,95.106v2.352l-0.244-0.035l-0.054-2.352L25.482,95.106z M28.1,92.528
				c-0.375-0.594-0.888-1.092-1.487-1.418l0.458-0.824c0.755,0.434,1.395,1.082,1.857,1.854L28.1,92.528z M29.131,92.513
				c0.306,0.613,0.505,1.289,0.557,1.998l-0.95-0.131c-0.049-0.523-0.198-1.025-0.427-1.482L29.131,92.513z M26.237,90.937
				c-0.282-0.115-0.577-0.195-0.882-0.23c-0.416-0.049-0.813-0.018-1.183,0.078l-0.399-0.936c0.494-0.143,1.029-0.193,1.589-0.133
				c0.469,0.053,0.918,0.186,1.341,0.381L26.237,90.937z M23.792,90.913c-0.479,0.195-0.896,0.512-1.214,0.916l-0.896-0.48
				c0.426-0.611,1.02-1.08,1.715-1.363L23.792,90.913z M22.352,92.159c-0.223,0.377-0.374,0.807-0.428,1.277l-0.951-0.131
				c0.056-0.592,0.231-1.137,0.497-1.615L22.352,92.159z M22.319,94.136c0.085-0.566,0.29-1.262,1.171-1.262
				c0.062,0,0.13,0.004,0.202,0.012c0.026,0.002,0.049,0.008,0.073,0.012c0.445,0.191,0.651,0.596,0.747,0.947l-0.04-0.006
				c-0.037-0.004-0.072,0.006-0.104,0.025l-0.056,0.014l-0.195,0.143c-0.038,0.027-0.055,0.074-0.047,0.119l0.13,0.729
				c0.01,0.051,0.053,0.092,0.106,0.098l0.298,0.035l0.055,2.336l-2.104-0.312c-0.031-0.004-0.06,0.002-0.086,0.014
				c-0.003,0.002-0.006,0-0.009,0.002l-0.142,0.057V94.136z M22.333,97.483l0,0.994l-0.866,0.336l-0.008-0.982L22.333,97.483z
				 M22.861,98.784c0,0-0.085,1.541-1.37,1.953l-0.014-1.428L22.861,98.784z M23.566,99.466l0.756,0.104v0.021l0.03,1.594
				l-1.879-0.283v-0.07c0-0.021-0.006-0.039-0.011-0.057C23.086,100.456,23.407,99.915,23.566,99.466z M22.472,107.788l5.731,0.896
				v0.068c-1.818,0.535-3.74,0.832-5.731,0.832V107.788z M27.798,101.626l-0.014-1.426l1.383-0.525
				C29.168,99.675,29.083,101.216,27.798,101.626z M28.576,101.747c1.125-0.449,1.378-1.58,1.428-1.986
				c0.036-0.033,0.056-0.076,0.055-0.123l-0.01-1.359c0-0.08-0.059-0.148-0.138-0.16l-1.131-0.168l-0.073-3.107
				c-0.002,0-0.003-0.043-0.01-0.111l1.361,0.129l-0.012-0.121c-0.036-0.986-0.331-1.924-0.809-2.736l-0.003-0.006h0
				c-0.547-0.926-1.332-1.686-2.255-2.152c0,0-0.85-0.42-1.612-0.488c-0.31-0.029-0.914-0.02-0.914-0.02
				c-3.25,0.164-4.025,3.156-4.099,3.379c-0.074,0.221-0.222,0.721-0.083,0.857c0.128,0.127,1.43,0.205,1.646,0.217l0.061,0.008
				c-0.019,0.105-0.03,0.207-0.031,0.305l-0.001,3.143l-0.686,0.275c-0.062,0.023-0.104,0.086-0.103,0.152l0.009,1.33
				c0,0.008,0.004,0.014,0.005,0.021c-0.002,0.006-0.004,0.012-0.004,0.018c0,0.004,0.004,0.008,0.004,0.012l-0.001,0.092
				l0.034,1.855c0,0.018,0.008,0.033,0.021,0.045c0.005,0.004,0.013,0.004,0.02,0.008c0.001,0.002,0.001,0.002,0.003,0.004
				c0.01,0.008,0.025,0.014,0.04,0.014h0.008l0.506-0.074c0.105-0.021,0.201-0.049,0.296-0.078v8.656
				c-1.435-0.025-2.833-0.197-4.179-0.504V75.815c0.297,0.029,1.005,0.109,1.353,0.215c0.154,0.047,0.249,0.12,0.311,0.197
				c0.021,0.057,0.025,0.109,0.027,0.139c0,0.018,0.005,0.103,0.005,0.103v10.968l0.003,0.002l-0.01,0.312l11.025,1.664
				l-0.002-0.209V78.091c0.028,0,0.053-0.004,0.083-0.004c0.366-0.006,1.005,0.058,1.439,0.122v0.007l-0.007-0.002v28.918
				c-1.129,0.613-2.324,1.119-3.569,1.512V101.747z M19.932,87.165V76.593l9.902,1.692v10.401L19.932,87.165z M29.699,77.694
				l-9.587-1.672c0-0.605-1.648-0.809-2.303-0.865l0,0.01c0,0-1.238,0.537-1.088,1.243l-4.001,2.596c0,0-0.574-0.398-2.122,0.767
				l0.001-0.457c0,0,0.014-0.012,0.034-0.026c-0.034,0.012-0.066,0.021-0.093,0.021c-0.163,0.003-0.316-0.041-0.316-0.041
				s0.001-0.003,0.002-0.005c-0.009-0.003-0.017-0.002-0.025-0.007c-0.172-0.083-0.203-0.115-0.281-0.356
				c-0.006-0.02-0.012-0.044-0.018-0.068l0.315-0.209c0.006,0.035,0.015,0.07,0.024,0.1c0.052,0.156,0.17,0.231,0.27,0.279
				c0.12,0.043,0.328,0.057,0.433,0.062c0.454-0.307,1.252-0.76,1.741-0.543l3.996-2.568c0,0-0.134-0.43,0.466-0.938
				c-0.024,0.005-0.048,0.008-0.068,0.007c-0.159-0.007-0.525,0.04-0.683-0.267c-0.026-0.05-0.046-0.121-0.059-0.177l0.31-0.205
				c0.017,0.063,0.042,0.144,0.07,0.204c0.084,0.176,0.564,0.178,0.782,0.188c0.07-0.043,0.146-0.086,0.228-0.129l0.002,0.01
				l0.017-0.01c0,0,0.424,0.027,0.609,0.047c0.145-0.086,0.305-0.217,0.305-0.382c0-0.128-0.004-0.356-0.004-0.356l0.775,0.131
				c0,0,0.011,0.207,0.013,0.318c0.006,0.238-0.105,0.303-0.286,0.423c1.088,0.267,1.043,0.714,1.043,0.714l9.446,1.645
				c0.429-0.211,1.268-0.19,2.007-0.117c0.144-0.075,0.28-0.172,0.28-0.367c0-0.129-0.004-0.356-0.004-0.356l0.787,0.128
				c0,0,0.013,0.209,0.015,0.32c0.004,0.212-0.083,0.285-0.232,0.385c0.157,0.023,0.286,0.047,0.384,0.064l-0.005,0.509
				C29.96,77.268,29.699,77.694,29.699,77.694z M13.348,107.177v-5.258l2.526-1.398l0,5.35L13.348,107.177z M15.874,106.239v2.252
				c-0.827-0.285-1.629-0.621-2.405-1.006L15.874,106.239z M11.918,99.96l0.005-0.881l2.691-1.416v0.92L11.918,99.96z
				 M12.896,100.479l-0.003,0.984c-0.788-0.143-0.839-0.615-0.858-0.916c0-0.025,0.001-0.051,0.002-0.07L12.896,100.479z
				 M13.805,92.819c0.152-0.336,0.339-0.561,0.497-0.58c0.05-0.012,0.09-0.016,0.128-0.016c0.011-0.002,0.018-0.002,0.023-0.002
				c0.332-0.014,0.65,0.559,0.803,1.268c0.011,0.047,0.02,0.096,0.03,0.145c-0.063-0.033-0.135-0.055-0.219-0.055
				c-0.044,0-0.089,0.004-0.133,0.016c-0.406,0.133-0.499,0.598-0.58,1.006l0,0.004c-0.002-0.006-0.002-0.014-0.004-0.02
				c-0.078-0.293-0.257-0.6-0.614-0.604c-0.04,0-0.08,0.004-0.12,0.012c-0.045,0.014-0.083,0.031-0.12,0.053
				C13.54,93.767,13.636,93.249,13.805,92.819z M13.62,91.956c0,0,0.264-0.561,0.715-0.691c0.452-0.131,0.706,0.244,0.706,0.244
				l-0.209,0.439c-0.643-0.338-1.073,0.221-1.073,0.221L13.62,91.956z M15.557,93.118c-0.171-0.684-0.488-0.979-0.488-0.979
				l0.167-0.352c0.243,0.348,0.46,1.254,0.46,1.254L15.557,93.118z M15.761,93.347c0.083,0.277,0.197,1.447,0.197,1.447
				l-0.126,0.041c0.016-0.375-0.196-1.42-0.196-1.42L15.761,93.347z M14.9,99.095c0-0.035,0.001-0.066,0.004-0.096l0.969,0.004
				l-0.003,1.109C14.983,99.96,14.918,99.429,14.9,99.095z M15.482,100.358l-0.903,0.5l0.004-1.188l0.091-0.047
				C14.793,99.909,15.032,100.202,15.482,100.358z M14.877,97.245c-0.017,0-0.032,0.004-0.048,0.008
				c-0.023-0.004-0.048-0.004-0.072-0.002l0.017-1.762c0,0,0.018-1.193,0.33-1.576c0.077,0.02,0.167,0.133,0.236,0.363
				c0.055,0.184,0.089,0.412,0.109,0.629c0.006,0.094,0.008,0.168,0.01,0.203c0,0.01,0.006,0.018,0.007,0.025
				c0,0.008,0.001,0.014,0.001,0.02v2.092H14.877z M14.15,95.554v2.008l-0.645,0.34l0.018-2.037c0,0,0.018-1.119,0.301-1.537
				c0.084,0.041,0.152,0.15,0.213,0.348C14.11,94.927,14.135,95.269,14.15,95.554z M13.153,93.497
				c0.051-0.451,0.323-1.217,0.323-1.217l0.093,0.143C13.423,92.614,13.153,93.497,13.153,93.497z M14.257,99.726l-0.004,1.109
				c-0.884-0.152-0.95-0.686-0.969-1.02c0-0.035,0.001-0.066,0.003-0.094L14.257,99.726z M13.218,101.583l0.003-0.949
				c0.171,0.221,0.448,0.408,0.863,0.5l-0.866,0.479V101.583z M15.026,98.526v-0.971h0.868v0.971H15.026z M15.794,97.245v-1.893
				l0.754-0.252c0.023-0.01,0.039-0.031,0.035-0.057c0-0.004-0.001-0.006-0.002-0.01c0.002-0.006,0.003-0.014,0.002-0.02
				c-0.212-3.039-1.052-3.871-1.641-4.117c-0.026-0.01-0.328-0.043-0.417-0.047c-0.096,0-0.194,0.014-0.294,0.043
				c-1.578,0.521-1.584,3.65-1.616,4.766c0,0.123,0.001,0.225,0.003,0.293c0,0.033,0,0.061,0.001,0.08
				c0,0.008,0.001,0.016,0.001,0.021v0.006c0.003,0.066,0.04,0.127,0.097,0.16c0.03,0.018,0.063,0.025,0.095,0.025
				c0.033,0,0.064-0.008,0.092-0.023l0.041-0.021l-0.021,2.004L11.7,98.851c-0.054,0.025-0.087,0.082-0.088,0.143l-0.005,1.25
				c-0.001,0.057,0.029,0.109,0.077,0.139c0.01,0.008,0.022,0.006,0.033,0.01c-0.004,0.045-0.009,0.096-0.009,0.156
				c-0.019,0.387,0.209,1.145,1.269,1.256v5.43c-0.511-0.271-1.01-0.562-1.495-0.873V79.812c0,0,0.642-0.49,0.964-0.283v10.535
				c0,0-0.003,0-0.004,0l-0.334,0.527c0,0-0.057,0.041,0.011,0.104c0.067,0.062,0.191-0.033,0.191-0.033l4.434-2.268
				c0,0-0.033-11.137-0.033-11.258c0-0.424,0.587-0.91,0.587-0.91v32.697c-0.346-0.09-0.686-0.193-1.024-0.301l-0.038-11.215
				c0-0.043-0.017-0.084-0.048-0.115s-0.072-0.047-0.115-0.047H15.794z M12.782,89.896l0.004-10.24l3.604-2.256v10.58L12.782,89.896
				z M7.979,94.485c-0.188-0.211-1.654-1.23-2.32-1.402C5.4,93.022,5.432,92.989,4.81,92.89c0.326-0.146,0.765-0.303,1.198-0.318
				c0.024-0.002,0.048-0.002,0.073-0.002c0.933-0.004,3.384,0.67,4.926,1.123v12.355c-1.044-0.715-2.02-1.52-2.911-2.412
				c-2.845-2.844-4.844-6.529-5.605-10.65c0.542,0.1,0.798,0.129,0.798,0.129l0.521,0.078c0.396,0.082,0.565,0.139,0.87,0.203
				c0.463,0.096,1.218,0.432,1.857,0.744c0.321,0.156,0.615,0.307,0.838,0.418c0.245,0.113,0.322,0.18,0.474,0.201
				c0.019,0,0.051,0,0.096-0.029c0.047-0.031,0.076-0.1,0.072-0.137C8.013,94.532,7.997,94.513,7.979,94.485z M9.494,92.784
				c-1.449-0.291-2.519-0.762-3.478-0.766c-0.082,0-0.165,0.002-0.247,0.012c-0.628,0.064-1.593,0.592-1.802,0.68
				c-0.214-0.033-0.823-0.125-1.565-0.223c-0.167-1.047-0.255-2.119-0.255-3.213c0-5.611,2.273-10.688,5.949-14.364
				c1.747-1.746,3.813-3.166,6.099-4.187l-0.01,0.162l-1.279,1.495c-0.024,0.028-0.029,0.068-0.012,0.101
				c0.008,0.018,0.027,0.022,0.044,0.03l-1.416,1.698c-0.021,0.023-0.027,0.086,0.007,0.129s0.056,0.055,0.056,0.055l-1.474,1.738
				c-0.024,0.027-0.029,0.068-0.012,0.102c0.013,0.025,0.039,0.039,0.065,0.045l-1.388,1.627c-0.087,0.102-0.08,0.311-0.079,0.325
				c0.002,0.188,0.108,0.373,0.28,0.511c0.137,0.107,0.294,0.167,0.446,0.168c0.004,0,0.008-0.002,0.013-0.002
				c0.049,0.046,0.132,0.086,0.262,0.105v0.7h0.618v0.472h0.69v12.969C10.559,93.028,10.042,92.896,9.494,92.784z M9.335,78.22
				c0.123,0.096,0.184,0.227,0.182,0.307c-0.001,0.036-0.009,0.061-0.025,0.082c-0.021,0.026-0.061,0.047-0.128,0.047
				c-0.079,0.002-0.189-0.035-0.284-0.111c-0.122-0.094-0.183-0.224-0.181-0.305c0-0.037,0.01-0.062,0.024-0.08
				c0.024-0.031,0.063-0.051,0.13-0.051c0.001,0,0.003,0,0.003,0C9.135,78.108,9.24,78.145,9.335,78.22z M30.788,75.436
				c-0.588-0.325-1.175-0.065-1.175-0.065l-1.917-5.936l1.846,2.138L30.788,75.436z M30.168,72.312l1.763,2.072l0.449,1.33
				c-0.542-0.295-1.141-0.041-1.141-0.041L30.168,72.312z M29.987,75.995l0.771,0.125c0,0,0.012,0.209,0.015,0.318
				c0.004,0.203-0.074,0.277-0.21,0.37l-0.801-0.14c0.118-0.08,0.229-0.184,0.229-0.316C29.991,76.223,29.987,75.995,29.987,75.995z
				 M29.148,75.142c-0.511-0.293-1.146-0.059-1.146-0.059l-2.7-8.377l1.815,2.066L29.148,75.142z M28.086,75.631l0.761,0.125
				c0,0,0.012,0.209,0.014,0.319c0.005,0.219-0.089,0.29-0.248,0.395l-0.775-0.135c0.129-0.092,0.251-0.215,0.251-0.348
				C28.09,75.858,28.086,75.631,28.086,75.631z M27.555,74.879c-0.541-0.325-1.196-0.081-1.196-0.081l-3.551-10.9l1.868,2.086
				L27.555,74.879z M26.132,75.3l0.774,0.119c0,0,0.011,0.209,0.014,0.318c0.006,0.219-0.089,0.29-0.246,0.395l-0.771-0.133
				c0.124-0.072,0.232-0.168,0.232-0.343C26.136,75.527,26.132,75.3,26.132,75.3z M25.915,74.548
				c-0.711-0.252-1.168-0.037-1.168-0.037l-3.44-10.598l0.216-0.541l0.116-0.07c0.3,0.285,0.766,0.441,0.766,0.441L25.915,74.548z
				 M24.29,74.955l0.764,0.13c0,0,0.011,0.209,0.015,0.318c0.005,0.227-0.095,0.295-0.261,0.404l-0.78-0.135
				c0.139-0.074,0.266-0.17,0.266-0.361C24.293,75.184,24.29,74.955,24.29,74.955z M24.338,74.35
				c-0.603-0.405-1.321-0.144-1.321-0.144l-2.596-8.055l0.693-1.758L24.338,74.35z M18.553,70.657l0.728-1.811l1.52,4.895
				c-0.631-0.426-1.324-0.145-1.324-0.145L18.553,70.657z M19.068,73.44c-0.646-0.434-1.323-0.145-1.323-0.145l-0.134-0.396
				l0.696-1.67L19.068,73.44z M20.539,74.637c0-0.13-0.004-0.356-0.004-0.356l0.771,0.112c0,0,0.012,0.209,0.015,0.319
				c0.005,0.246-0.114,0.305-0.308,0.436l-0.771-0.134C20.391,74.937,20.539,74.841,20.539,74.637z M21.259,73.927l-1.792-5.529
				l0.758-1.855l2.358,7.529C22.018,73.667,21.259,73.927,21.259,73.927z M22.419,74.962c0-0.131-0.003-0.357-0.003-0.357
				l0.771,0.123c0,0,0.012,0.209,0.014,0.318c0.006,0.243-0.109,0.305-0.298,0.432l-0.779-0.136
				C22.266,75.257,22.419,75.128,22.419,74.962z M17.141,73.214l-0.178-0.057l4.04-9.719l0.17-0.002L17.141,73.214z M17.391,73.744
				c0,0.017-0.001,0.032-0.006,0.05c-0.022,0.08-0.125,0.152-0.284,0.152c-0.052,0-0.107-0.008-0.162-0.024
				c-0.194-0.06-0.305-0.212-0.299-0.311c0-0.019,0.002-0.034,0.006-0.047c0.025-0.085,0.127-0.157,0.286-0.157
				c0.051,0,0.106,0.008,0.161,0.025C17.286,73.492,17.396,73.646,17.391,73.744z M16.584,73.243
				c-0.737,0.062-0.889,0.893-0.889,0.893c-0.457-0.043-0.769,0.116-0.769,0.116l4.158-8.383l1.185-1.628L16.584,73.243z
				 M16.185,75.763l-0.323,0.211c-0.205-0.096-0.517-0.222-0.579-0.416c-0.021-0.066-0.052-0.17-0.071-0.234l0.309-0.204
				c0.022,0.07,0.059,0.184,0.084,0.261C15.658,75.54,16.007,75.689,16.185,75.763z M15.069,76.494l-0.328,0.216
				c-0.19-0.1-0.585-0.233-0.656-0.454c-0.014-0.043-0.032-0.103-0.048-0.156l0.311-0.206c0.02,0.062,0.042,0.132,0.06,0.184
				C14.471,76.27,14.964,76.448,15.069,76.494z M14.108,75.233c-0.715,0.045-1.007,0.312-1.007,0.312l2.471-4.885l2.488-3.395
				L14.108,75.233z M14.003,77.194l-0.325,0.214c-0.198-0.099-0.568-0.23-0.637-0.444c-0.015-0.047-0.036-0.113-0.053-0.171
				l0.31-0.206c0.021,0.066,0.046,0.143,0.065,0.2C13.424,76.969,13.867,77.138,14.003,77.194z M12.216,76.636
				c-0.901-0.021-1.28,0.349-1.28,0.349l3.561-4.858L12.216,76.636z M12.891,77.925l-0.324,0.213
				c-0.204-0.096-0.535-0.225-0.599-0.426c-0.018-0.057-0.042-0.14-0.062-0.203l0.309-0.205c0.023,0.07,0.053,0.162,0.075,0.23
				C12.345,77.7,12.723,77.856,12.891,77.925z M11.562,78.333l-0.319,0.213c-0.13-0.057-0.142-0.062-0.238-0.271
				c-0.017-0.037-0.039-0.085-0.06-0.132l0.303-0.2c0.019,0.041,0.038,0.082,0.055,0.116C11.384,78.228,11.465,78.298,11.562,78.333
				z M32.565,75.056l0.744,0.828c-0.082-0.003-0.458,0.092-0.458,0.092L32.565,75.056z M32.749,92.976
				c0.306-0.086,0.674-0.156,1.087-0.156c0.116,0,0.233,0.006,0.354,0.018c1.34,0.129,2.592,0.75,2.868,0.85
				c0.561,0.199,1.308,0.348,1.64,0.404c0.311,0.053,1.504,0.451,1.805,0.461c0.022,0,0.046,0,0.085-0.016
				c0.037-0.006,0.115-0.078,0.111-0.16c-0.001-0.045-0.015-0.078-0.037-0.109c-0.164-0.213-0.456-0.32-1.031-0.482
				c-0.23-0.062-0.229-0.096-0.667-0.189c0.353-0.098,0.784-0.197,1.183-0.238c0.361-0.037,0.706-0.053,1.033-0.053
				c0.421,0,0.81,0.027,1.176,0.078c-0.813,3.961-2.78,7.502-5.533,10.254c-1.215,1.217-2.586,2.273-4.075,3.15V92.976z
				 M41.891,92.687c-0.814,0-1.512,0.098-1.971,0.141c-0.616,0.061-1.717,0.443-1.961,0.516c-0.426-0.113-2.477-1.139-3.875-1.141
				c-0.063,0-0.126,0-0.191,0.006c-0.323,0.025-0.935,0.18-1,0.186c-0.045,0.004-0.095,0.014-0.145,0.027V78.332l0.219,0.026
				l0.007-0.359l0.225-0.225l0.005-0.438c0.215-0.106,0.215-0.387,0.215-0.387l0.519-0.367c0.01,0.002,0.02,0.004,0.03,0.006
				c0.047,0.018,0.097,0.024,0.143,0.024h0.002c0.006,0,0.011,0.003,0.017,0.003c0.002,0,0.002,0,0.004,0
				c0.169-0.002,0.343-0.078,0.507-0.205l-0.003-0.004l0.004,0.004c0.029-0.024,0.054-0.05,0.08-0.074
				c0.174-0.152,0.296-0.318,0.306-0.513c0-0.024-0.005-0.052-0.013-0.077c0-0.041-0.008-0.08-0.037-0.111l-1.253-1.316
				c0.008-0.01,0.02-0.018,0.025-0.029c0.024-0.06,0.011-0.129-0.034-0.174l-1.376-1.389c0.014-0.016,0.029-0.027,0.036-0.045
				c0.026-0.059,0.012-0.127-0.032-0.172l-1.323-1.336c0.004-0.008,0.012-0.01,0.015-0.018c0.024-0.06,0.012-0.128-0.033-0.173
				l-0.243-0.245c2.271,1.019,4.325,2.434,6.062,4.171c3.676,3.677,5.949,8.753,5.949,14.364c0,1.172-0.104,2.32-0.295,3.438
				C42.279,92.7,42.08,92.687,41.891,92.687z M34.146,76.362c-0.062-0.078,0.015-0.199,0.166-0.32c0.15-0.12,0.318-0.195,0.38-0.117
				c0.062,0.078-0.009,0.238-0.16,0.359C34.381,76.405,34.208,76.44,34.146,76.362z M21.868,59.826
				c0.066,0.001,0.125,0.015,0.167,0.03v1.072c-0.052-0.005-0.11-0.01-0.167-0.015V59.826z M21.701,61.155c0,0,0.001,0,0.002,0
				l0.861,0.121c-0.002,0.062-0.029,0.104-0.065,0.143c-0.011,0.012-0.023,0.02-0.033,0.029l-0.702-0.093
				c-0.055-0.082-0.064-0.138-0.064-0.177C21.7,61.171,21.701,61.163,21.701,61.155z M21.579,61.725l0.808,0.108l1.792,1.88
				c-0.141-0.05-0.314-0.142-0.462-0.235c-0.23-0.145-0.412-0.288-0.412-0.288l-0.136-0.108l-0.079,0.154
				c-0.077,0.139-0.148,0.168-0.27,0.172c-0.175,0.004-0.435-0.121-0.635-0.256c-0.2-0.134-0.346-0.268-0.346-0.268l-0.126-0.115
				l-0.09,0.145c-0.126,0.191-0.261,0.23-0.409,0.235c-0.105,0.001-0.212-0.029-0.292-0.062c-0.003,0-0.006-0.002-0.008-0.002
				L21.579,61.725z M20.74,62.183l0.532-0.391l-0.593,1.204c0,0-0.245,0.251-0.232-0.116c0,0-1.468,2.045-1.495,1.406L20.74,62.183z
				 M15.737,69.196l1.25-1.527l0.021-0.142l1.342-1.636l0.024-0.16l1.797-2.102c0.11-0.068,0.188-0.095,0.223-0.102v0.008
				c0,0.021-0.004,0.045-0.008,0.062L9.749,78.106l-0.341-0.329l1.093-1.345l0.023-0.158l1.257-1.557l0.024-0.188l1.34-1.658
				l0.008-0.161l1.297-1.654l0.025-0.143l1.257-1.598L15.737,69.196z M37.608,104.421c-3.879,3.877-9.232,6.273-15.148,6.273
				c-5.917,0-11.27-2.396-15.148-6.273c-3.877-3.879-6.275-9.23-6.275-15.146c0-5.918,2.397-11.271,6.275-15.148
				c2.281-2.279,5.076-4.039,8.192-5.109l-0.782,0.975C7.08,73.062,1.68,80.533,1.679,89.274
				c0.001,8.965,5.679,16.604,13.636,19.518c2.228,0.814,4.635,1.26,7.145,1.26v0.002c8.966,0,16.606-5.68,19.519-13.635
				c0.815-2.229,1.261-4.635,1.261-7.145c0-8.853-5.538-16.404-13.334-19.398l-0.299-0.303c0.012-0.014,0.028-0.024,0.035-0.041
				c0.024-0.06,0.011-0.129-0.034-0.174l-0.412-0.416c3.205,1.061,6.078,2.85,8.413,5.184c3.877,3.878,6.274,9.23,6.274,15.148
				C43.882,95.19,41.485,100.542,37.608,104.421z M23.417,106.591l3.862,0.607c0.013,0.002,0.024,0.004,0.037,0.004
				c0.055,0,0.109-0.021,0.152-0.057c0.051-0.045,0.082-0.111,0.081-0.178l-0.017-3.902c0.006-0.104-0.057-0.201-0.153-0.234
				c-0.017-0.008-0.034-0.012-0.052-0.014l-3.832-0.588c-0.067-0.01-0.136,0.01-0.188,0.053c-0.051,0.045-0.081,0.109-0.081,0.178
				l-0.006,3.9C23.219,106.476,23.302,106.573,23.417,106.591z M25.708,103.042l1.357,0.209l0.016,3.443l-1.373-0.215V103.042z
				 M23.691,102.731l1.551,0.24v3.434l-1.556-0.246L23.691,102.731z M26.675,81.889c-0.072,0.003-0.139,0.035-0.222,0.069
				c-0.122,0.051-0.289,0.109-0.399,0.177c-0.115,0.071-0.183,0.175-0.216,0.241c-0.045,0.051-0.396,0.262-0.476,0.321
				c-0.032,0.024-0.066,0.031-0.106,0.038c0.001-0.007,0.003-0.016,0.004-0.023c-0.001-0.004-0.001-0.008-0.001-0.01l0.001-0.01
				l-0.002-0.014c-0.025-0.123-0.068-0.162-0.07-0.238v-0.02c0-0.009,0-0.011,0-0.011c0-0.139-0.029-0.808-0.029-1.155
				c0-0.057,0.002-0.104,0.003-0.135c0.001-0.016,0.002-0.027,0.003-0.035c0.035-0.085,0.078-0.219,0.08-0.377
				c0-0.017-0.001-0.031-0.002-0.045c-0.011-0.176-0.104-0.77-0.119-0.93c-0.008-0.085-0.021-0.169-0.041-0.241
				c-0.023-0.054-0.026-0.125-0.103-0.161c0.002,0.002-0.005,0.004-0.005,0.004l0.001-0.005c0.001,0.001,0.003,0.001,0.004,0.001
				c-0.003-0.001-0.003,0-0.004-0.002h-0.001c-0.008-0.004-0.019-0.007-0.029-0.01v-0.002c0,0-0.001,0-0.003,0
				c0-0.002-0.005-0.002-0.025,0.002c-0.007,0.002-0.019,0.003-0.037,0.018c-0.073,0.041-0.07,0.112-0.089,0.164
				c-0.015,0.068-0.025,0.152-0.034,0.232c-0.018,0.174-0.097,0.76-0.106,0.932c0,0.009-0.001,0.022-0.001,0.037
				c0.001,0.166,0.048,0.307,0.085,0.389c0.004,0.033,0.008,0.16,0.007,0.307c0,0.344-0.013,0.838-0.013,0.994
				c0,0.014,0,0.023,0.002,0.037c0,0.002-0.001,0.004-0.001,0.008c0.003,0.082-0.042,0.121-0.065,0.252
				c0-0.002-0.002,0.01-0.002,0.026c0.002,0.044,0.012,0.093,0.024,0.14c-0.045,0.063-0.078,0.137-0.078,0.221
				c0,0.216,0.177,0.393,0.393,0.393c0.157,0,0.292-0.096,0.354-0.23c0.04-0.012,0.078-0.023,0.117-0.057l-0.056-0.061l0.057,0.06
				c0.066-0.075,0.064-0.124,0.12-0.159c0.049-0.031,0.152-0.116,0.258-0.197c0.051-0.041,0.102-0.078,0.141-0.105
				c0.02-0.016,0.037-0.027,0.049-0.032c0.006-0.003,0.009-0.005,0.012-0.007c0.073-0.009,0.193-0.039,0.298-0.123
				c0.103-0.084,0.205-0.221,0.296-0.32c0.068-0.083,0.133-0.133,0.145-0.238c0-0.02-0.005-0.041-0.016-0.061
				C26.743,81.896,26.701,81.888,26.675,81.889z M15.958,82.882c-0.043,0.002-0.079,0.033-0.129,0.065
				c-0.069,0.048-0.164,0.101-0.229,0.165c-0.065,0.068-0.104,0.165-0.123,0.227c-0.025,0.048-0.227,0.246-0.273,0.301
				c-0.018,0.023-0.037,0.029-0.06,0.036c0.001-0.007,0.002-0.015,0.002-0.022c-0.001-0.005-0.001-0.008-0.001-0.01v-0.008
				l-0.001-0.013c-0.015-0.116-0.039-0.154-0.04-0.226v-0.019c0-0.011,0-0.011,0-0.011c0-0.132-0.017-0.763-0.018-1.092
				c0-0.053,0.002-0.096,0.003-0.129c-0.001-0.014,0.001-0.025,0.001-0.032c0.02-0.079,0.043-0.206,0.045-0.354
				c0.001-0.016-0.001-0.031-0.001-0.043c-0.006-0.166-0.061-0.727-0.069-0.879c-0.004-0.08-0.013-0.16-0.023-0.229
				c-0.014-0.05-0.017-0.118-0.06-0.151c0.001,0.001-0.003,0.004-0.003,0.004l0.002-0.005c0,0,0,0,0.001,0.001
				c-0.001-0.001-0.001-0.001-0.001-0.002h-0.002c-0.005-0.005-0.011-0.007-0.017-0.009v-0.004c0,0,0,0-0.001,0c0,0-0.003,0-0.015,0
				c-0.003,0.004-0.01,0.006-0.021,0.019c-0.041,0.039-0.04,0.108-0.05,0.154c-0.01,0.065-0.016,0.144-0.02,0.221
				c-0.01,0.164-0.055,0.717-0.061,0.88c-0.001,0.007-0.001,0.02-0.001,0.035c0,0.156,0.027,0.289,0.049,0.367
				c0.003,0.03,0.006,0.149,0.006,0.289c0,0.324-0.007,0.793-0.007,0.938c-0.001,0.013-0.001,0.022,0.001,0.035v0.007
				c0.001,0.079-0.024,0.115-0.038,0.238c0-0.002-0.001,0.011-0.001,0.025c0.001,0.043,0.007,0.088,0.014,0.133
				c-0.026,0.059-0.045,0.128-0.045,0.206c0.001,0.206,0.104,0.372,0.228,0.373c0.09,0.002,0.167-0.087,0.203-0.215
				c0.022-0.011,0.045-0.022,0.067-0.054c0.038-0.071,0.038-0.116,0.068-0.148c0.029-0.031,0.087-0.111,0.148-0.187
				c0.03-0.037,0.06-0.073,0.081-0.1c0.013-0.014,0.023-0.024,0.029-0.03c0.004-0.002,0.004-0.002,0.005-0.006
				c0.043-0.008,0.112-0.037,0.172-0.114c0.058-0.079,0.117-0.209,0.169-0.302c0.039-0.078,0.077-0.126,0.083-0.225
				c0-0.018-0.002-0.04-0.01-0.059C15.996,82.89,15.972,82.882,15.958,82.882z"/>
		</g>
	</g>
</g>
</svg>
