<?xml version="1.0" encoding="utf-8"?>
<!-- Generator: Adobe Illustrator 20.0.0, SVG Export Plug-In . SVG Version: 6.00 Build 0)  -->
<svg version="1.1" id="Layer_1" xmlns="http://www.w3.org/2000/svg" xmlns:xlink="http://www.w3.org/1999/xlink" x="0px" y="0px"
	 viewBox="0 0 125 125" style="enable-background:new 0 0 125 125;" xml:space="preserve">
<style type="text/css">
	.st0{fill:#003D7D;}
	.st1{fill:none;}
</style>
<g>
	<g>
		<path class="st0" d="M124.8,44.6c0,0-5.6-10-27.5-17.3c-22-7.3-32.4-2.6-32.4-2.6S54.3,35.2,50.8,59.4s21.8,42.4,21.8,42.4
			s31.2,0.5,42.8-21C127.2,59.2,124.8,44.6,124.8,44.6z M64,48.8c1.4-8.1,9.7-6.2,9.7-6.2c13,4.3,11.5,11.7,11.5,11.7L64,48.8z
			 M77.2,89.9c0,0-19.6-5.8-16.1-26.1l44.6,14.8C105.7,78.6,96.9,96.4,77.2,89.9z M112.2,64.8L92,56.6c0,0,3.2-6.8,16.1-2.5
			C108.1,54.1,115.9,57.5,112.2,64.8z"/>
	</g>
	<g>
		<path class="st1" d="M22.1,52.7C10,57.3,11.8,64.2,11.8,64.2l19.7-6.1C29.8,50.5,22.1,52.7,22.1,52.7z"/>
		<path class="st0" d="M23.4,89.8c0,0-2.3-17.1,15.1-21.8c0,0,3.3-1,7.5-0.8c-0.3-2.7-0.2-5.4,0.2-8.2c0.3-1.7,0.6-3.4,0.9-5
			l-7.3,1.8c-2.5-7.4,5.4-9.5,5.4-9.5c1.5-0.3,2.8-0.4,3.9-0.4c2.5-8.5,5.6-14.5,8.1-18.3c-2.7-1-12.3-3.7-29.9,1.2
			c-21.1,5.8-26.8,15-26.8,15s-2.9,13.7,7.1,34.5s39.4,21.9,39.4,21.9s4.8-3.1,10.1-8.6c-2.2-2.8-4.3-5.9-6.2-9.4L23.4,89.8z
			 M11.8,64.2c0,0-1.8-6.9,10.3-11.5c0,0,7.8-2.2,9.4,5.4L11.8,64.2z"/>
	</g>
</g>
</svg>
