<?xml version="1.0" encoding="utf-8"?>
<!-- Generator: Adobe Illustrator 20.0.0, SVG Export Plug-In . SVG Version: 6.00 Build 0)  -->
<svg version="1.1" id="Layer_1" xmlns="http://www.w3.org/2000/svg" xmlns:xlink="http://www.w3.org/1999/xlink" x="0px" y="0px"
	 viewBox="0 0 125 125" style="enable-background:new 0 0 125 125;" xml:space="preserve">
<style type="text/css">
	.st0{fill:#9BC7EB;}
	.st1{fill:none;}
	.st2{enable-background:new    ;}
	.st3{fill:#F5F6F6;}
	.st4{fill:#338ECD;}
	.st5{fill:#1E417B;}
</style>
<g>
	<g>
		<g>
			<path class="st0" d="M89.5,10.4L34.1,31l32.3,86.6L121.8,97c2.5-0.9,3.8-3.8,2.9-6.3L95.8,13.3C94.9,10.7,92,9.4,89.5,10.4z"/>
		</g>
		<rect x="39.6" y="35.4" transform="matrix(0.937 -0.3493 0.3493 0.937 -9.6875 27.5941)" class="st1" width="64" height="10.5"/>
		<g class="st2">
			<path class="st3" d="M46.8,44.9l2.4-0.9c0.3-0.1,0.7-0.2,1-0.2s0.6,0,0.9,0s0.5,0.2,0.8,0.4c0.2,0.2,0.4,0.5,0.6,0.9
				c0.1,0.4,0.2,0.7,0.1,1.1s-0.1,0.6-0.3,0.9c-0.1,0.2-0.4,0.5-0.6,0.7c-0.3,0.2-0.6,0.3-0.9,0.5l-0.9,0.3l0.8,2.2l-1.5,0.5
				L46.8,44.9z M50.3,47.2c0.8-0.3,1.1-0.8,0.8-1.5c-0.1-0.3-0.3-0.5-0.6-0.6c-0.2,0-0.6,0-1,0.1l-0.7,0.3l0.7,2L50.3,47.2z"/>
			<path class="st3" d="M57.4,46.7l-2,0.7l0.2,1.7l-1.5,0.5l-0.4-7.3l1.8-0.6l4.5,5.8l-1.6,0.6L57.4,46.7z M56.6,45.6l-0.4-0.5
				c-0.2-0.3-0.4-0.6-0.6-0.9c-0.2-0.3-0.4-0.6-0.6-0.9h0c0,0.4,0.1,0.7,0.1,1.1c0,0.4,0.1,0.8,0.1,1.1l0,0.6L56.6,45.6z"/>
			<path class="st3" d="M60.4,45.2c0.3,0.1,0.6,0.2,0.9,0.2c0.3,0,0.6,0,0.9-0.1c0.3-0.1,0.5-0.2,0.6-0.4c0.1-0.1,0.1-0.3,0-0.5
				c0-0.1-0.1-0.2-0.1-0.2s-0.1-0.1-0.2-0.1c-0.1,0-0.2,0-0.3,0c-0.1,0-0.3,0-0.4,0l-1,0c-0.2,0-0.4,0-0.6-0.1
				c-0.2,0-0.4-0.1-0.5-0.2c-0.2-0.1-0.3-0.2-0.5-0.4c-0.1-0.1-0.2-0.3-0.3-0.6c-0.1-0.2-0.1-0.5-0.1-0.8c0-0.3,0.1-0.5,0.2-0.8
				c0.1-0.2,0.3-0.5,0.6-0.7c0.2-0.2,0.5-0.4,0.9-0.5c0.4-0.1,0.8-0.2,1.2-0.2c0.4,0,0.8,0.1,1.2,0.3L62.4,41
				c-0.3-0.1-0.5-0.1-0.8-0.1c-0.2,0-0.5,0-0.7,0.1c-0.2,0.1-0.4,0.2-0.5,0.4c-0.1,0.1-0.1,0.3,0,0.5c0,0.1,0.1,0.2,0.1,0.2
				c0.1,0,0.1,0.1,0.3,0.1c0.1,0,0.2,0,0.4,0c0.1,0,0.3,0,0.4,0l1,0c0.4,0,0.8,0.1,1.2,0.3c0.3,0.2,0.6,0.5,0.7,1
				c0.1,0.3,0.1,0.5,0.1,0.8c0,0.3-0.1,0.5-0.2,0.8c-0.1,0.2-0.3,0.5-0.6,0.7c-0.2,0.2-0.6,0.4-1,0.5c-0.4,0.1-0.9,0.2-1.4,0.2
				c-0.5,0-0.9-0.1-1.4-0.3L60.4,45.2z"/>
			<path class="st3" d="M65.8,43.2c0.3,0.1,0.6,0.2,0.9,0.2c0.3,0,0.6,0,0.9-0.1c0.3-0.1,0.5-0.2,0.6-0.4c0.1-0.1,0.1-0.3,0.1-0.5
				c-0.1-0.1-0.1-0.2-0.1-0.2c0,0-0.1-0.1-0.2-0.1s-0.2,0-0.3,0c-0.1,0-0.3,0-0.4,0l-1,0c-0.2,0-0.4,0-0.6-0.1
				c-0.2,0-0.4-0.1-0.5-0.2c-0.2-0.1-0.3-0.2-0.5-0.4c-0.1-0.1-0.2-0.3-0.3-0.6c-0.1-0.2-0.1-0.5-0.1-0.8s0.1-0.5,0.2-0.8
				c0.1-0.2,0.3-0.5,0.6-0.7c0.2-0.2,0.5-0.4,0.9-0.5c0.4-0.1,0.8-0.2,1.2-0.2c0.4,0,0.8,0.1,1.2,0.3l-0.4,1.2
				c-0.3-0.1-0.5-0.1-0.8-0.1c-0.2,0-0.5,0-0.7,0.1s-0.4,0.2-0.5,0.4c-0.1,0.1-0.1,0.3,0,0.5c0,0.1,0.1,0.2,0.1,0.2
				c0.1,0,0.1,0.1,0.3,0.1c0.1,0,0.2,0,0.4,0s0.3,0,0.4,0l1,0c0.4,0,0.8,0.1,1.2,0.3c0.3,0.2,0.6,0.5,0.7,1c0.1,0.3,0.1,0.5,0.1,0.8
				S70,43,69.9,43.3c-0.1,0.3-0.3,0.5-0.6,0.7s-0.6,0.4-1,0.5c-0.4,0.1-0.9,0.2-1.4,0.2s-0.9-0.1-1.4-0.3L65.8,43.2z"/>
			<path class="st3" d="M69.2,36.5l2.4-0.9c0.3-0.1,0.7-0.2,1-0.2c0.3,0,0.6,0,0.9,0c0.3,0.1,0.5,0.2,0.8,0.4
				c0.2,0.2,0.4,0.5,0.6,0.9s0.2,0.7,0.1,1.1s-0.1,0.6-0.3,0.9c-0.1,0.2-0.4,0.5-0.6,0.7c-0.3,0.2-0.6,0.3-0.9,0.5l-0.9,0.3l0.8,2.2
				l-1.5,0.5L69.2,36.5z M72.7,38.8c0.8-0.3,1.1-0.8,0.8-1.5c-0.1-0.3-0.3-0.5-0.6-0.6c-0.2,0-0.6,0-1,0.1l-0.8,0.3l0.7,2L72.7,38.8
				z"/>
			<path class="st3" d="M80.5,39.9c-0.4,0.1-0.9,0.2-1.3,0.2c-0.4,0-0.8-0.1-1.2-0.3c-0.3-0.2-0.7-0.5-1-0.8s-0.5-0.8-0.7-1.3
				c-0.2-0.5-0.3-1-0.3-1.5s0-0.9,0.2-1.3c0.1-0.4,0.4-0.7,0.7-1s0.7-0.5,1.1-0.7c0.4-0.2,0.9-0.2,1.3-0.2c0.4,0,0.8,0.1,1.2,0.3
				c0.3,0.2,0.7,0.4,1,0.8c0.3,0.3,0.5,0.8,0.7,1.3c0.2,0.5,0.3,1,0.3,1.5c0,0.5,0,0.9-0.2,1.3s-0.4,0.7-0.7,1
				C81.4,39.5,81,39.8,80.5,39.9z M80.1,38.7c0.4-0.1,0.7-0.5,0.8-1c0.1-0.5,0.1-1-0.2-1.7c-0.2-0.6-0.5-1.1-0.9-1.4
				c-0.4-0.2-0.8-0.3-1.3-0.1c-0.4,0.1-0.7,0.5-0.8,0.9c-0.1,0.4,0,1,0.2,1.7s0.6,1.1,1,1.4C79.2,38.8,79.6,38.8,80.1,38.7z"/>
			<path class="st3" d="M88.3,36.9L86.1,35l-0.8,0.3l0.9,2.3l-1.5,0.5l-2.4-6.6l2.3-0.9c0.3-0.1,0.7-0.2,1-0.2c0.3,0,0.6,0,0.9,0
				c0.3,0.1,0.5,0.2,0.8,0.4c0.2,0.2,0.4,0.5,0.5,0.9c0.2,0.5,0.2,0.9,0.1,1.3c0,0.4-0.3,0.7-0.6,1l2.5,2.1L88.3,36.9z M84.9,34.1
				l0.7-0.3c0.4-0.1,0.6-0.3,0.8-0.6c0.1-0.2,0.1-0.5,0-0.8c-0.1-0.3-0.3-0.5-0.5-0.5c-0.2,0-0.6,0-0.9,0.1l-0.7,0.3L84.9,34.1z"/>
			<path class="st3" d="M90,30.2l-1.8,0.6l-0.4-1.2l5.1-1.9l0.4,1.2l-1.8,0.6l2,5.3L92,35.5L90,30.2z"/>
		</g>
	</g>
	<g>
		<g>
			<path class="st4" d="M67.9,8L17.6,39.2l48.7,78.6l50.2-31.1c2.3-1.4,3-4.4,1.6-6.8L74.7,9.6C73.2,7.3,70.2,6.6,67.9,8z"/>
		</g>
	</g>
	<g>
		<g>
			<path class="st5" d="M41.2,10.8L0,53.2l66.2,64.5l41.2-42.3c1.9-1.9,1.8-5-0.1-6.9L48.2,10.7C46.3,8.8,43.1,8.9,41.2,10.8z"/>
		</g>
		
			<rect x="6.1" y="40.6" transform="matrix(0.6979 -0.7162 0.7162 0.6979 -21.2888 41.1339)" class="st1" width="64" height="10.5"/>
		<g class="st2">
			<path class="st3" d="M19,56.8c0.3-0.3,0.7-0.5,1.1-0.5c0.4,0,0.7,0.1,1.1,0.4c0.3,0.3,0.5,0.7,0.5,1.1c0,0.4-0.2,0.8-0.6,1.2
				l-2,2.1l1.3,1.3L19.8,63l-3.5-3.4L19,56.8z M20.5,58.5c0.4-0.4,0.4-0.8,0.1-1.2c-0.4-0.4-0.8-0.3-1.2,0.1l-2,2l1.1,1.1L20.5,58.5
				z"/>
			<path class="st3" d="M28.1,54.5l-0.6,0.6l-1.1-0.3L24,57.2l0.4,1.1L23.8,59l-1.7-5.2l0.7-0.7L28.1,54.5z M25.5,54.6L23,53.8
				l0.8,2.5L25.5,54.6z"/>
			<path class="st3" d="M29,48.2c-0.7,0.2-1.4,0.6-1.9,1.2c-0.3,0.3-0.5,0.6-0.6,0.9c-0.1,0.2-0.1,0.5,0,0.6c0.1,0.1,0.3,0.1,0.6,0
				c0.2-0.1,0.4-0.3,0.8-0.6c0.5-0.4,0.8-0.7,1-0.9c0.5-0.4,0.9-0.6,1.2-0.6s0.7,0,1,0.3c0.3,0.3,0.5,0.8,0.4,1.3
				c-0.1,0.5-0.4,1.1-1,1.7c-0.8,0.9-1.7,1.4-2.6,1.5l-0.1-0.7c0.8-0.2,1.6-0.6,2.2-1.3c0.4-0.4,0.6-0.8,0.7-1.1
				c0.1-0.3,0-0.6-0.1-0.7c-0.2-0.2-0.5-0.2-0.8,0c-0.2,0.1-0.6,0.4-1.3,1.1c-0.6,0.5-1,0.8-1.4,1c-0.4,0.1-0.7,0-1.1-0.2
				c-0.3-0.3-0.4-0.7-0.3-1.2c0.1-0.4,0.4-1,1-1.6c0.7-0.7,1.5-1.2,2.3-1.4L29,48.2z"/>
			<path class="st3" d="M33.5,43.6c-0.7,0.2-1.4,0.6-1.9,1.2c-0.3,0.3-0.5,0.6-0.6,0.9c-0.1,0.2-0.1,0.5,0,0.6
				c0.1,0.1,0.3,0.1,0.6,0c0.2-0.1,0.4-0.3,0.8-0.6c0.5-0.4,0.8-0.7,1-0.9c0.5-0.4,0.9-0.6,1.2-0.6c0.3,0,0.7,0,1,0.3
				c0.3,0.3,0.5,0.8,0.4,1.3c-0.1,0.5-0.4,1.1-1,1.7c-0.8,0.9-1.7,1.4-2.6,1.5l-0.1-0.7c0.8-0.2,1.6-0.6,2.2-1.3
				c0.4-0.4,0.6-0.8,0.7-1.1s0-0.6-0.1-0.7c-0.2-0.2-0.5-0.2-0.8,0c-0.2,0.1-0.6,0.4-1.3,1.1c-0.6,0.5-1,0.8-1.4,1
				c-0.4,0.1-0.7,0-1.1-0.2c-0.3-0.3-0.4-0.7-0.3-1.2c0.1-0.4,0.4-1,1-1.6c0.7-0.7,1.5-1.2,2.3-1.4L33.5,43.6z"/>
			<path class="st3" d="M36.8,38.6c0.3-0.3,0.7-0.5,1.1-0.5c0.4,0,0.7,0.1,1.1,0.4c0.3,0.3,0.5,0.7,0.5,1.1c0,0.4-0.2,0.8-0.6,1.2
				l-2,2.1l1.3,1.3l-0.5,0.6l-3.5-3.4L36.8,38.6z M38.3,40.3c0.4-0.4,0.4-0.8,0.1-1.2c-0.4-0.4-0.8-0.3-1.2,0.1l-2,2l1.1,1.1
				L38.3,40.3z"/>
			<path class="st3" d="M44.5,34.2c0.5,0.5,0.8,1.2,0.7,2c-0.1,0.7-0.4,1.4-1,2c-0.6,0.6-1.2,1-1.9,1.1c-0.8,0.1-1.5-0.1-2-0.6
				c-0.5-0.5-0.8-1.2-0.7-2c0.1-0.7,0.4-1.4,1-2c0.6-0.6,1.2-0.9,1.9-1C43.2,33.4,43.9,33.6,44.5,34.2z M43.9,34.8
				c-0.4-0.4-0.9-0.5-1.5-0.4c-0.5,0.1-1,0.3-1.4,0.8c-0.4,0.5-0.7,1-0.8,1.5c0,0.5,0.1,1,0.5,1.4s0.8,0.5,1.4,0.5
				c0.5,0,1-0.3,1.5-0.8c0.5-0.5,0.7-1,0.8-1.5C44.5,35.6,44.3,35.2,43.9,34.8z"/>
			<path class="st3" d="M51.1,30.9l-0.6,0.6l-2.2-0.3L46.4,33l1.3,1.3l-0.5,0.6l-3.5-3.4l2.7-2.7c0.3-0.3,0.7-0.5,1.1-0.5
				c0.4,0,0.7,0.1,1.1,0.4c0.3,0.3,0.4,0.6,0.4,0.9c0,0.3-0.1,0.6-0.3,0.9L51.1,30.9z M47.9,30.4c0.4-0.4,0.4-0.8,0.1-1.2
				c-0.4-0.4-0.8-0.3-1.3,0.1l-2,2l1.1,1.1L47.9,30.4z"/>
			<path class="st3" d="M52.3,23.7l-1.6,1.6l2.9,2.9l-0.5,0.6L50.1,26l-1.6,1.6L48,27.1l3.8-3.9L52.3,23.7z"/>
		</g>
		<g>
			<path class="st3" d="M51.5,64.4l0,0.3V65l-0.1,0.3l0,0.1c0,0,0,0.1,0,0.2c0,0.1,0.1,0.1,0.1,0.1s0,0.3,0,0.4c0,0.1,0,0.3,0,0.3
				s0,0.1,0,0.1c0,0,0,0.1,0,0.2s0,0.2,0,0.2c0,0,0,0.2,0.1,0.3s0.1,0.3,0.1,0.3l0,0c0.2,0.1,0.2,0.2,0.3,0.2c0.1,0.1,0.1,0,0.2,0.1
				c0.1,0.1,0.1,0.2,0.2,0.3c0,0.1,0.1,0.2,0.1,0.3c0,0.1,0.2,0.1,0.2,0.1s0.1,0.1,0.2,0.1c0,0.1,0.1,0.1,0.1,0.1s0.2,0,0.3,0
				c0.1,0,0.2,0,0.2,0s0.2,0.1,0.3,0.1s0.2,0,0.3,0s0.2,0,0.2,0s0.2,0,0.3,0s0.2-0.1,0.2-0.1c0,0,0.1-0.1,0.2-0.1
				c0,0,0.1-0.1,0.1-0.1s0.1-0.2,0.1-0.2c0-0.1,0-0.2,0.1-0.2c0.1,0,0.1-0.1,0.1-0.1c0,0,0-0.1,0.1-0.2c0-0.1,0.1-0.2,0.1-0.2
				c0-0.1,0-0.2,0.1-0.2c0-0.1,0-0.1,0.1-0.1c0,0,0,0,0.1-0.1c0.1,0,0.1-0.1,0.2-0.1c0,0,0,0,0.1,0c0,0,0.1,0,0.2,0c0,0,0.1,0,0.1,0
				l0-0.1c0,0,0-0.1,0.1-0.1c0,0,0.1-0.1,0.1-0.1h0.2h0c0,0,0.2,0.1,0.3,0.1c0,0.1,0.2,0.2,0.2,0.2c0,0.1,0.1,0.2,0.1,0.2
				s0,0.1,0.2,0c0.2,0,0.3,0,0.4,0c0,0,0.2,0.1,0.3,0.1c0.1,0.1,0.1,0.1,0.3,0.1c0.1,0,0.2,0,0.3,0.1c0.1,0.1,0.1,0.1,0.2,0.1
				s0,0.1,0.1,0.1c0.1,0,0.2,0,0.2,0.1c0,0,0.1,0.2,0.1,0.2l0,0.1l0.1,0.2l0,0.1c0,0.1,0.1,0.2,0.2,0.3c0.1,0.1,0,0.1,0.2,0.1
				s0.3,0.1,0.5,0.1c0.1,0,0.2,0.1,0.3,0.1c0,0.1,0.1,0.1,0.2,0.1c0.1,0,0.1,0.1,0.2,0.1c0,0.1,0.2,0.2,0.2,0.2c0,0,0.1,0.1,0.2,0.1
				c0,0,0,0.1,0.1,0.1c0.1,0,0.2,0,0.3,0c0.1,0,0,0,0.1,0c0.1,0.1,0.2,0.1,0.2,0.1c0.1,0,0.2,0.2,0.3,0.2c0.1,0.1,0.2,0.1,0.2,0.1
				s0.2-0.1,0.2-0.1c0.1-0.1,0-0.2,0.1-0.2c0.1-0.1,0.1-0.1,0.1-0.1c0,0,0-0.1,0.1-0.2c0.1-0.1,0.1-0.2,0.1-0.2
				c0.1,0,0.1-0.1,0.1-0.2s0-0.2,0-0.3c0-0.2,0-0.1,0-0.3c0-0.1-0.1-0.3,0-0.4c0-0.1,0-0.2-0.1-0.2c0-0.1,0-0.1,0-0.2
				c0,0,0,0-0.1-0.2c-0.1-0.2-0.1-0.3,0-0.4c0-0.1,0-0.2,0-0.2c0,0,0.1,0,0-0.1s-0.2-0.2-0.3-0.2c0,0,0,0.1-0.1,0s-0.2-0.4-0.2-0.4
				s-0.1-0.3-0.1-0.4s0-0.1,0.1-0.2c0-0.1,0.1-0.3,0-0.4c0,0-0.1-0.2-0.1-0.3c-0.1-0.1-0.1-0.1-0.2-0.2c-0.2-0.1-0.1-0.1-0.3-0.2
				s-0.4-0.3-0.5-0.3s-0.2-0.1-0.2-0.2c0-0.1-0.1-0.2-0.1-0.3c0,0,0-0.3,0-0.3s0-0.4-0.1-0.6c0-0.2-0.1-0.3,0-0.4c0-0.1,0-0.3,0-0.5
				c0-0.2-0.1-0.5-0.1-0.5c0,0,0-0.2,0-0.2s0-0.2-0.1-0.3c0-0.1-0.3-0.6-0.3-0.5s-0.1,0.2-0.1,0.2c0,0,0.1,0-0.2,0.2
				c-0.3,0.3-0.4,0.5-0.4,0.5c-0.1,0-0.1,0.2-0.2,0.1c-0.2-0.1-0.3-0.1-0.4-0.2c-0.1,0-0.2,0-0.5-0.1c-0.2,0-0.1,0-0.3,0
				s-0.2,0-0.3,0c-0.2-0.1-0.2,0-0.4-0.1c-0.2-0.1-0.3-0.1-0.4-0.1c-0.1,0-0.2,0-0.3-0.1c-0.1,0-0.8-0.3-0.9-0.3s-0.3-0.1-0.2-0.1
				s0.3,0,0.3,0s0-0.1,0.1-0.1s0.2,0,0.3,0c0,0,0.4,0,0.6,0.1c0.2,0.1,0.3,0.1,0.4,0.1c0,0,0.3,0.1,0.4,0.1c0.1,0,0.3,0,0.4,0
				c0.1,0,0.5,0,0.6,0.2c0.1,0.1,0.4,0.2,0.4,0.2s0.3-0.1,0.3-0.1l0.2-0.3c0,0,0.1-0.6,0.1-0.6c0,0,0.2-0.5,0.2-0.5s0-0.2,0-0.4
				c0-0.1,0-0.4,0-0.5c0-0.1,0-0.1,0-0.3c0-0.2,0-0.4-0.1-0.3c-0.1,0-0.1,0-0.3,0.1c-0.2,0-0.2,0-0.4,0c-0.2,0-0.3-0.3-0.3,0
				c0,0.3,0.1,0.3,0,0.5c-0.1,0.2-0.1,0.3-0.2,0.3c-0.2,0-0.2,0.1-0.4,0c-0.2-0.1-0.2-0.1-0.3-0.1c0,0,0,0-0.3-0.1
				c-0.2,0-0.4-0.3-0.2-0.3c0.2,0.1,0.3,0,0.5,0c0.2,0,0.3,0,0.5-0.1c0.1-0.1,0.2-0.2,0.2-0.2s0,0,0.1-0.1c0,0,0-0.1,0.1,0
				c0.1,0,0.2,0,0.3,0s0.1,0,0.2-0.1c0.1-0.1,0.3-0.3,0.3-0.3l0.2-0.2l0.2-0.2c0,0,0.2-0.1,0.3-0.1c0,0,0.1,0,0.3,0
				c0.1,0,0.2,0,0.3,0c0.1,0,0.1,0,0.3,0c0.1,0,0.2-0.2,0.2-0.3c0,0,0-0.2,0.1-0.1c0,0.1,0.1,0,0.3,0.1c0.1,0.2,0.1,0.2,0.3,0.3
				c0.2,0.1,0.8,0.2,0.9,0.3c0.1,0.1,0.1,0,0.3,0.1c0.1,0.1,0.2,0.1,0.3,0.1c0.1,0.1,0.2,0,0.2,0.1s0.1-0.1,0.1-0.1
				c0,0,0.1-0.3,0.1-0.3s0-0.1-0.1-0.2c-0.1-0.1-0.1-0.1-0.2-0.2s-0.2-0.1-0.3-0.3s-0.1-0.3-0.2-0.4c0-0.1-0.1-0.3,0-0.3
				c0,0,0.1-0.4,0.1-0.5c0-0.1,0-0.3-0.1-0.4c0-0.1,0.1-0.4,0.1-0.4c0.1,0,0.1,0,0.1,0c0.1,0,0.2-0.1,0.2-0.1c0.1,0,0.4,0,0.5,0
				s0.1,0,0.3,0.1c0.2,0,0.2-0.1,0.4,0c0.1,0.1,0.1,0.1,0.2,0.1s0-0.2,0.1-0.2c0.1,0,0-0.1,0.2,0s0.2,0.1,0.4,0.2
				c0.2,0.1,0,0,0.1,0.1c0.1,0.1,0.1,0.1,0.3,0.2c0.1,0.1,0.2,0,0.2,0.1c0,0-0.1-0.2-0.2-0.3c-0.1-0.1-0.3-0.3-0.3-0.4
				c0-0.1,0-0.2,0.1-0.1c0.2,0.1,0.1,0,0.3,0c0.2,0,0.3,0,0.4,0c0.1,0,0.1,0,0.3,0s0.1-0.1,0.1-0.3c0-0.1,0-0.6,0-0.7
				c-0.1-0.1,0-0.2-0.4-0.2c-0.4,0-0.5-0.1-0.8-0.1c-0.3,0-0.4,0.1-0.5-0.2c-0.1-0.3-0.1-0.5,0-0.5c0.1,0,0.2-0.2,0.5,0
				c0.2,0.2,0.4,0.4,0.3,0.1c-0.1-0.4-0.2-0.6-0.2-0.5c0,0.1,0-0.2,0-0.2s-0.1-0.1,0-0.3c0.1-0.2,0.1-0.3,0.2-0.4s0-0.5-0.1-0.6
				c0-0.1-0.1-0.3-0.2-0.4s-0.5-0.3-0.5-0.2s0,0-0.3,0s-0.5,0-0.5,0c-0.1,0-0.1,0-0.1-0.1c0-0.1,0-0.1,0-0.2c-0.1-0.1-0.1-0.2-0.1,0
				c-0.1,0.2,0,0-0.1,0.2s-0.4,0.5-0.4,0.1c0-0.4-0.1-0.6-0.1-0.6c0.1,0,0-0.3,0.2-0.2c0.2,0.1,0.2,0,0.3,0.1
				c0.1,0.1,0.1-0.3,0.1-0.3s0.1,0,0.2,0s0.2,0.1,0.2,0.1s-0.1,0,0.1,0c0.2,0,0.3-0.2,0.4,0c0.2,0.1,0.2,0.2,0.3,0.1
				c0.1,0,0.1-0.1,0.1-0.2s-0.1-0.4-0.1-0.4s0-0.1-0.3,0c-0.2,0-0.4,0.1-0.5,0.1c-0.1,0-0.2-0.1-0.2-0.3c0-0.1,0-0.2-0.1-0.2
				c-0.1,0-0.1-0.2,0.1-0.3c0.1-0.1,0.1-0.2,0.1-0.2s0,0,0,0s-0.1-0.5-0.2-0.5c0,0,0-0.1-0.2-0.1c-0.1-0.1-0.2-0.4-0.4-0.3
				c-0.2,0-0.2,0-0.4,0c-0.2,0-0.2-0.1-0.5,0.1c-0.3,0.2-0.3,0.4-0.4,0.4c-0.1,0,0.1,0.2-0.2,0c-0.3-0.2-0.3-0.4-0.3-0.4
				s0-0.2,0-0.4c0-0.1,0.1-0.3,0.3-0.4c0.2-0.1,0.3-0.3,0.5-0.4c0.2-0.1,0.3,0,0.2-0.2c0-0.2-0.2-0.2-0.2-0.3s0-0.3,0.1-0.3
				c0.1,0,0.3,0,0.3-0.2c0-0.2,0-0.2,0-0.2h0.1c0,0,0.1-0.1,0.1,0c0.1,0.1,0.3,0.1,0.3,0.2c0,0.1,0,0.2,0.1,0.3
				c0.2,0.1,0.1,0.1,0.4,0.1c0.2,0,0.2-0.1,0.4,0c0.2,0.1,0.1,0.1,0.4,0c0.2,0,0.2,0,0.3,0s0.2,0,0.1-0.1c-0.1-0.1-0.1-0.1-0.2-0.2
				c-0.1-0.1-0.1-0.2-0.3-0.3c-0.2-0.1-0.1-0.1-0.4-0.1c-0.2,0-0.2,0.2-0.4,0.1c-0.2-0.1-0.1-0.4,0-0.5c0-0.1,0-0.3,0.1-0.2
				s0.2,0.5,0.2-0.1c0-0.6,0-0.3,0-0.3s0.1-0.2,0.2-0.2s0-0.2,0-0.1s-0.5,0.1-0.5,0.1l-0.3,0.1c0,0,0-0.1,0.1-0.1c0.1,0,0-0.1,0-0.2
				c0.1,0,0.4-0.3,0.6-0.3c0.1,0,0.4-0.3,0.3-0.2c0,0-0.3,0-0.4,0c0,0-0.5,0.2-0.6,0.4c-0.1,0.1-0.1,0.2-0.3,0.3
				c-0.1,0-0.3,0.1-0.4,0.2c-0.1,0-1.1,0.8-1.2,0.9c0,0,0.1,0.3,0,0.3s-0.1,0-0.3,0.1c-0.2,0.1-0.4,0.3-0.7,0.5
				c-0.3,0.2-0.4,0.4-0.5,0.4c-0.1,0-0.3,0.2-0.4,0.3c-0.2,0.1-0.4,0.4-0.4,0.5c-0.1,0.1-0.3,0.3-0.4,0.3c0,0-0.2,0-0.2,0.1
				c0,0-0.1,0-0.2,0.1c-0.1,0.1-0.2,0-0.2,0.1s0,0.1,0,0.2s0,0.2,0,0.3s-0.2,0.2-0.2,0.2c0,0-0.1,0-0.2,0.1
				c-0.1,0.1-0.1,0.1-0.2,0.2c-0.1,0.1-0.2,0.2-0.4,0.3c-0.2,0-0.2,0-0.3,0.1c-0.1,0.1-0.1,0.1-0.2,0.2c-0.1,0.1-0.2,0.4-0.3,0.5
				c-0.1,0.1-0.3,0.3-0.4,0.3c-0.1,0-0.2,0-0.4,0.3c-0.2,0.3-0.4,0.4-0.4,0.3c0-0.1,0-0.3,0-0.3c0,0,0-0.1,0-0.1c0,0-0.1,0-0.3,0.1
				c-0.1,0.1,0,0.1-0.3,0.3c-0.2,0.1,0-0.2-0.3,0.2c-0.3,0.4-0.4,0.5-0.4,0.5c0,0-0.2,0-0.1,0.2c0,0.2,0,0.4-0.2,0.6
				c-0.2,0.2-0.2,0.2-0.3,0.4c-0.1,0.2-0.3,0.3-0.1,0.4c0.2,0.1,0.3,0.1,0.3,0.1c0,0,0.1,0.3-0.1,0.3c-0.2,0-0.9-0.3-0.5,0
				c0.4,0.2,0.7,0.1,0.6,0.4c-0.1,0.2-0.2,0.1-0.2,0.1s-0.1-0.1-0.2-0.2c-0.1,0-0.1-0.1-0.2-0.1c-0.1,0-0.1,0-0.2,0s0,0-0.2,0.1
				c-0.1,0.1-0.3,0.1-0.1,0.3c0.2,0.1,0.1,0,0.4,0.1c0.2,0.1,0.3-0.2,0.3,0c0,0.2-0.3,0.5-0.4,0.5c-0.1,0,0,0-0.2,0.1
				c-0.2,0-0.2,0-0.3,0.1c-0.1,0.2,0,0.4-0.1,0.4c-0.1,0-0.1,0.3-0.2,0.2c-0.1,0-0.3,0.2-0.3,0.3s-0.1,0.2-0.2,0.5
				c-0.1,0.2-0.1,0.1-0.1,0.5c0,0.4,0,0.6-0.2,0.6c-0.2,0-0.8,0.1-0.6,0c0.1-0.2,0.1-0.3,0.3-0.3c0.1,0,0.2-0.1,0.2-0.2
				c0,0,0-0.2-0.2-0.1c-0.2,0-0.1,0.1-0.4,0.2c-0.2,0.1,0,0-0.3,0.2s-0.4,0.3-0.5,0.4c-0.1,0-0.1,0.2-0.3,0.2
				c-0.1,0.1-0.2,0.1-0.3,0.2c-0.1,0.1-0.1,0.1-0.2,0.3c0,0.2-0.1,0.3-0.1,0.5c0,0.1-0.1,0.5-0.1,0.6c0,0.1,0,0.5,0,0.6
				c0,0.1,0.1,0.1,0.1,0.2c0,0.1-0.1,0.2-0.1,0.3c0,0-0.1-0.1,0,0c0,0.1,0.4,0.5,0.4,0.4s-0.2-0.2,0.2-0.3c0.4-0.1,0.5-0.2,0.6-0.1
				c0.1,0.1,0.3,0,0.3,0s0.1-0.1,0.1-0.1s0.1-0.3,0-0.4c0,0-0.1-0.4-0.1-0.4s-0.1,0-0.2,0c-0.1-0.1-0.1-0.1-0.2-0.3
				c-0.1-0.1-0.1,0.1,0-0.4c0.1-0.5,0.2-0.4,0.2-0.4s0.1,0,0.1,0.1c0,0.1,0.1,0.3,0.1,0.4c0,0,0.3,0.1,0.3,0s0.1-0.2,0.2-0.2
				c0,0,0.1-0.2,0.2-0.2c0,0,0.2,0,0.2,0.1s0,0.3-0.1,0.3c-0.1,0-0.3,0-0.1,0.2c0.3,0.1,0.2,0.2,0.2,0.3c0,0-0.3,0.1-0.1,0.2
				c0.2,0.1,0.1,0.4,0.1,0.4c0,0-0.1,0.1-0.1,0.1S51.8,59,51.8,59c0,0-0.1,0.2-0.1,0.3c0,0,0,0.1-0.1,0.1c0,0,0,0-0.2,0
				c-0.1,0.1-0.2,0.1-0.2,0.2c0,0.1-0.1,0.2-0.1,0.2c0,0-0.1-0.1-0.1,0c0,0.1,0,0.3,0,0.3s0.1-0.1,0,0c-0.1,0.1-0.1,0.2-0.1,0.3
				c0,0.1,0.1,0.1,0.1,0.3c0,0.1-0.1,0-0.1,0.2c0,0.2,0,0.3,0,0.3s0,0-0.1,0.1c-0.1,0.1,0,0.1-0.1,0.1s0,0-0.1,0.1s-0.1,0.2-0.1,0.2
				c0,0,0.5-0.2,0.2,0s-0.1,0.2,0,0.2c0.1,0,0.2,0,0.2,0c0,0,0.2,0,0.2,0s0-0.1,0.1,0c0,0.1,0.1,0,0.1,0.2c0,0.1,0,0.1,0,0.1
				c0,0,0,0.2-0.2,0.2c-0.2,0-0.3,0.1-0.4,0.2c-0.1,0.1,0,0-0.1,0.2c0,0.1,0,0.2,0.1,0.3c0.1,0.1,0.2,0.2,0.2,0.3
				c0,0.1,0.1,0.1,0.2,0.2c0.1,0.1,0.2,0.1,0.2,0.1s0.1-0.1,0.2-0.1s0-0.1,0.2-0.1c0.1,0,0.2-0.1,0.2-0.2s0.1-0.4,0.1-0.5
				c0-0.1,0-0.2-0.1-0.2c-0.1,0-0.1-0.3-0.1-0.3c0-0.1,0.1-0.2,0.1-0.2l0-0.3c0,0,0-0.2,0-0.2c0,0,0.4-0.2,0.3-0.3
				c-0.1-0.1-0.1-0.2,0-0.2s0.1-0.1,0.1-0.1s0,0,0.1,0c0,0,0.2,0.1,0.3,0c0.1,0,0.2,0,0.2-0.1c0,0,0.1-0.1,0.2-0.1
				c0.1,0,0.3,0,0.3,0c0,0,0.2,0,0.2,0s0.1,0,0.1,0s0,0.3,0,0.3s-0.2,0.1-0.1,0.1s0.2,0,0.2-0.1s0-0.4,0-0.4s0,0,0,0
				c0,0-0.1-0.1,0-0.1c0.1,0,0.1,0,0.1,0s0,0,0,0c-0.1,0-0.4,0-0.4,0c0,0-0.3,0.1-0.3,0.1s0,0-0.2,0c-0.1,0-0.1,0-0.2,0
				c-0.1,0-0.2-0.1-0.1-0.1c0.1-0.1,0.3-0.1,0.4-0.1c0.1,0,0.1,0,0.3,0s0.2,0,0.3,0c0-0.1,0.2-0.1,0.3,0s0.2,0.1,0.2,0.1
				s0.1,0,0.2,0c0,0,0.2,0.1,0.3,0.1c0,0,0.1,0,0.2,0c0.1,0,0,0,0.1,0s0.1,0,0-0.1c0,0-0.1-0.1-0.1-0.1s0.1-0.2,0-0.1
				c0,0-0.3,0-0.3,0c0,0-0.1-0.1,0-0.1c0,0,0.2,0,0.2-0.2c0-0.2,0.1-0.4,0.2-0.2c0.1,0.1,0.1,0.1,0.3,0.3c0.1,0.1,0.1,0,0.3,0
				s0.2,0,0.3-0.1c0,0,0.1-0.1,0.2-0.2s0.1-0.1,0.2-0.2c0.1,0,0.2-0.2,0.3-0.2c0,0,0.1-0.2,0.2-0.1c0.1,0,0,0,0.2,0.1
				c0.1,0.2,0.2,0.3,0.2,0.3c0.1,0.3,0.1,0.4,0.1,0.5c0,0,0,0.1-0.1,0.2c-0.1,0.1-0.2,0.2-0.3,0.3c-0.1,0.1-0.3,0.4-0.5,0.4
				c-0.1,0-0.2,0.2-0.4,0.2c-0.1,0-0.2,0.1-0.3,0.1c-0.1,0-0.2-0.1,0,0c0.1,0.1,0.1,0.2,0.1,0.3c0,0.1,0,0,0,0.1
				c-0.1,0.1-0.1,0.2-0.4,0.2c-0.3,0-0.3,0.1-0.5,0.1c-0.1,0,0,0.2-0.3,0.2c-0.2-0.1-0.2,0.1-0.3,0c-0.1-0.1-0.1-0.1-0.2-0.2
				c0-0.1,0-0.3-0.1-0.2c-0.1,0-0.1,0-0.1,0c0,0.1-0.1,0.2-0.2,0.3c0,0.1,0.2-0.2-0.2,0.2c-0.3,0.4-0.4,0.6-0.4,0.6s0,0,0,0.1
				c0,0.1,0,0.2-0.1,0.2c-0.1,0-0.1,0.1-0.2,0.1s-0.1,0-0.1,0.2c0,0.1-0.1,0.2-0.1,0.2C51.6,64.4,51.5,64.4,51.5,64.4z"/>
			<path class="st3" d="M65.2,64.1c0.1,0.1,0.1,0.4,0.1,0.4l-0.1,0.3c0,0,0,0.1,0,0.2c-0.1,0.1-0.1,0.2-0.1,0.2s-0.1,0.1,0,0.1
				c0.1,0.1,0.2,0.1,0.2,0.2c0,0.1,0.1,0.1,0.1,0.2c0.1,0.1,0.1,0.2,0.1,0.3c-0.1,0.1-0.1,0.1,0,0.2c0.1,0,0.3,0.3,0.3,0.3l0.3,0
				c0,0,0,0,0.1-0.1s0.1-0.2,0.1-0.2s0.1-0.1,0-0.2c-0.1-0.1-0.2-0.3-0.2-0.3c-0.1,0-0.1-0.2-0.1-0.3c-0.1-0.1-0.1-0.3-0.1-0.3
				C66,65,66,64.9,65.9,64.8c-0.1,0-0.2-0.2-0.2-0.3c0-0.1,0-0.1-0.1-0.1c0,0-0.1-0.1-0.1-0.1L65.2,64.1z"/>
			<path class="st3" d="M74.7,57.3c0,0,0.4,0.5,0.5,0.6c0.1,0,0.2,0.4,0.3,0.4c0.1,0,0.3,0.2,0.4,0.3c0,0.1,0.3,0.3,0.2,0.3
				c-0.1,0-0.1,0.1-0.1,0.1c0.1,0,0.1,0,0.1,0s0.1-0.1,0.1-0.2c0,0,0.1-0.2,0.1-0.3c0.1-0.1,0.1-0.2,0.1-0.2c0.1,0,0.1-0.3,0.2-0.3
				c0,0,0-0.2,0.1-0.2c0.1,0,0.1-0.3,0.2-0.4c0.1,0,0-0.2,0.1-0.3c0.1,0,0.2-0.3,0.3-0.3s0.1-0.3,0.2-0.2c0.1,0,0.3,0,0.4,0
				c0,0,0.1,0.1,0.1,0.1l0.1-0.1c0,0,0.1-0.3,0.1-0.3c0,0,0-0.2,0-0.1c0.1,0,0.1,0.2,0.1,0.3c0,0,0.1,0.1,0.1,0.1s0.1,0,0.2,0.1
				s0.1,0,0.1,0.1c0,0.1,0,0,0.1,0c0.1,0,0.2,0,0.3-0.1c0.1,0,0-0.1,0.1-0.2c0.1,0,0.1-0.1,0.2-0.1c0.1,0,0,0.3,0.1-0.2
				c0.2-0.5,0.2-0.6,0.2-0.7c0-0.1,0-0.2,0-0.3c0-0.1,0,0,0-0.2c0.1-0.2,0.1-0.2,0-0.4c0-0.3,0-0.4,0-0.5s0-0.1-0.1-0.2
				c-0.1-0.1-0.1-0.3-0.2-0.3c0,0,0-0.1-0.1-0.2s-0.1-0.2-0.3-0.2c-0.1,0-0.1-0.1-0.2-0.1c-0.1,0-0.1,0.1-0.2,0.1
				c-0.1,0-0.1,0-0.4-0.1s-0.3,0-0.3,0s-0.2,0-0.1,0c0,0-0.1-0.2-0.2-0.2c-0.1,0-0.1-0.1-0.2-0.1c-0.1,0-0.2-0.1-0.3-0.1
				c-0.1,0-0.2,0-0.3,0c-0.1,0-0.1,0-0.2,0c0,0-0.1-0.1,0,0c0.1,0.1,0.2,0.4,0.2,0.4s0.1,0.2,0.1,0.3s0.1,0.2,0,0.3
				c0,0,0,0.1-0.1,0.1c0,0-0.1,0.1-0.1,0.1c-0.1,0-0.2,0-0.3,0c0,0-0.1,0-0.2,0c-0.1,0-0.1,0-0.2,0c-0.1,0-0.1-0.1-0.1-0.2
				c-0.1,0-0.1-0.2-0.1-0.2s0,0-0.1,0c0,0,0,0-0.2,0.1c-0.1,0.1-0.1,0.1-0.2,0.1c0,0,0,0,0,0.1c-0.1,0.1-0.1,0.3-0.1,0.4
				s0.1,0,0,0.1c0,0.1-0.1,0,0,0.1c0,0.1,0.1,0.1,0.1,0.1c0,0-0.3,0.2-0.3,0.2s0.1,0,0,0c-0.1,0-0.2,0-0.2,0
				c-0.1,0.1-0.1,0.1-0.1,0.2c0,0.1,0.1,0.1,0.1,0.2s-0.1,0.1-0.1,0.2c0.1,0,0.1,0.1,0.1,0.2c0,0-0.1,0-0.1,0c0,0-0.1,0-0.1,0
				c0,0,0,0.1,0,0.2c0,0.1,0.1,0.2,0.1,0.2s0,0,0,0.1c-0.1,0.1-0.1,0.1-0.1,0.3c-0.1,0.2-0.1,0.1-0.1,0.2c-0.1,0.1-0.1,0.1-0.1,0.2
				c-0.1,0-0.1,0.1-0.1,0.2c0,0.1,0,0.2,0,0.2C74.7,57.2,74.7,57.3,74.7,57.3z"/>
			<path class="st3" d="M71.1,52.6c0,0.1,0.1,0.4,0,0.5s0,0.1-0.1,0.2s-0.1,0.1,0,0.3c0.1,0.1,0.1,0.3,0.1,0.3c-0.1,0,0.2,0.1,0,0.2
				c-0.2,0.1-0.1,0.2,0,0.2c0,0,0.2,0.1,0.2,0.1s0.1,0,0.2,0.1c0.1,0,0.2,0,0.2,0c0.1-0.1,0.3-0.3,0.3-0.3s0.1,0,0.1-0.1
				c0,0,0-0.1,0-0.1c0.1,0,0-0.2,0-0.2c0,0-0.1,0-0.1-0.1c0-0.1,0.1-0.2,0-0.3c0-0.1-0.1,0-0.1-0.1s0.1-0.1,0-0.1c0,0,0,0-0.1-0.1
				c-0.1,0-0.2,0-0.2-0.1c0-0.1,0-0.2-0.1-0.2s0-0.1-0.2-0.1S71.2,52.6,71.1,52.6C71.1,52.6,71.1,52.6,71.1,52.6z"/>
			<path class="st3" d="M74.2,51.6c0,0,0-0.3,0.2-0.1s0.1,0.1,0.3,0.1c0.1,0,0.2,0,0.2-0.1c0-0.1,0.1-0.2,0-0.3c0-0.1,0-0.1,0-0.2
				c0,0,0-0.1,0.1-0.1c0.1,0,0.1,0,0.2-0.1c0.2,0,0.3-0.2,0.4-0.2c0.1,0,0.2,0,0.3-0.1c0.1,0,0.1-0.1,0.2-0.1c0.2,0,0.2,0.1,0.3,0.1
				c0.1,0,0-0.1,0.1,0c0.1,0.1-0.1,0.1,0.2,0.1c0.4,0,0.4,0,0.6,0c0.1,0,0.2,0,0.2,0c0,0-0.2,0.2-0.3,0.2c0,0-0.1,0-0.3,0
				s-0.3,0.1-0.4,0c-0.1,0-0.1,0-0.2,0c-0.1,0-0.1,0.1-0.1,0.3c0,0.1-0.1,0-0.1,0.1c0,0.1-0.2,0.2-0.3,0.2s-0.1,0-0.2,0
				c-0.1,0.1-0.1,0.1-0.1,0c-0.1-0.1-0.1-0.1-0.1-0.1s0-0.1-0.1-0.1c-0.1,0-0.1,0-0.2,0c-0.1,0-0.2,0.1-0.2,0.1s0,0-0.1,0
				c0,0,0,0-0.1,0.1c-0.1,0-0.1,0.1-0.2,0.1s-0.1-0.1-0.1-0.1s0.2-0.1-0.1-0.1c-0.3,0-0.3,0-0.3,0L74.2,51.6
				C74.1,51.7,74.2,51.6,74.2,51.6z"/>
			<path class="st3" d="M68.7,55.4c0,0,0.1,0,0.2-0.1c0.1-0.1,0.3,0,0.4,0c0.1,0,0.2,0,0.3,0c0.2,0,0-0.1,0.4-0.1c0.3,0,0.1,0,0.3,0
				c0.2,0,0.3,0.1,0.4,0.1c0,0,0.2,0,0.2,0c0,0,0.2,0,0.2,0c0,0,0.1,0.1,0.1,0.2c0,0.1,0,0.2,0,0.2s-0.2,0-0.3,0c-0.1,0-0.2,0-0.4,0
				c-0.2,0-0.4-0.1-0.5-0.1c-0.1,0-0.2,0-0.3,0c-0.1,0-0.3-0.1-0.4-0.1c0,0-0.1,0-0.3,0c-0.1,0-0.2,0-0.2-0.1
				C68.9,55.5,68.7,55.5,68.7,55.4L68.7,55.4z"/>
			<path class="st3" d="M57,83.9c-0.1,0-0.3,0.1-0.4,0.1C56.4,84,56,84,56,84l-0.3-0.1c0,0-0.3-0.1-0.3-0.1c0-0.1,0-0.2,0-0.2
				c0-0.1,0-0.2-0.1-0.1c-0.1,0-0.1,0-0.2,0c-0.1-0.1-0.2-0.1-0.2-0.1c0,0-0.2-0.1-0.3,0s-0.1,0-0.1,0l-0.9-0.7c0,0-0.4-0.3-0.5-0.4
				c-0.1-0.1-0.2-0.3-0.4-0.4c-0.2-0.1-0.3-0.3-0.4-0.4s-0.2-0.2-0.4-0.4c-0.2-0.1-0.2-0.5-0.4-0.4c-0.2,0-0.2-0.1-0.3,0
				s-0.2,0.1-0.4,0.1c-0.1,0-0.5,0-0.6,0s-0.4,0.1-0.5,0.1c-0.1,0-0.3-0.1-0.4-0.1s-0.2-0.1-0.4-0.1c-0.1-0.1-0.4-0.1-0.4-0.1
				c0,0-0.5,0-0.5,0L47.3,80c0,0,0-0.2,0-0.2c0,0,0-0.1-0.2-0.1c-0.1,0-0.2-0.1-0.2-0.2c0-0.1,0-0.3,0-0.3l-0.1-0.4
				c0,0,0-0.2-0.1-0.3c-0.1-0.1,0-0.3-0.1-0.3c-0.2,0-0.2-0.1-0.3-0.1S46,77.8,46,77.7c0-0.1,0-0.5,0-0.5s0.1-0.1,0.1-0.2
				c0,0-0.2-0.4,0-0.3s0.2,0,0.3,0.1c0.1,0.2,0.1,0.1,0.1,0s0,0.1-0.1-0.2c-0.1-0.2-0.2-0.3-0.1-0.3c0.1,0,0.1,0,0.2-0.1
				c0.1,0,0.1-0.1,0.2-0.1c0.1,0.1,0,0,0.2-0.2c0.2-0.1,0.3-0.5,0.4-0.3c0,0.1-0.1,0.1,0.1,0c0.2,0,0.3,0,0.4-0.1
				c0.1,0,0.1-0.1,0.4-0.1s0.3,0,0.4,0c0.1,0,0.1-0.1,0.2-0.1c0.1,0,0.2,0,0.2-0.1c0,0,0,0,0.1-0.1c0.2,0,0.3-0.1,0.5,0
				c0.2,0.1,0.3,0,0.4,0.2c0.1,0.2,0,0.5,0,0.4s0.1-0.3,0.2-0.3c0,0,0-0.1,0.1-0.1c0.1,0,0-0.1,0.1,0c0,0.1,0,0,0,0.1
				c0,0.1-0.1,0,0-0.1c0.1-0.1,0-0.1,0.2-0.1c0.3,0,0.2-0.1,0.3-0.1c0.1,0,0-0.1,0.1-0.1s0.1-0.1,0.2-0.2c0.1-0.1,0-0.1,0.2-0.1
				c0.2,0,0.3-0.2,0.4-0.2c0.1,0,0.1-0.1,0.2-0.1s0-0.1,0.1,0s0.2-0.1,0.2,0c0,0.1,0,0,0.1,0.1c0.1,0.1,0.2,0.3,0.1,0.4
				c0,0.1,0,0.1,0,0.2c0,0.1-0.1,0,0,0.2c0.1,0.2,0.1,0.2,0.2,0.4c0.1,0.2,0,0,0.1,0.2c0.1,0.1,0.2,0.2,0.3,0.4
				c0.1,0.2,0.1,0.1,0.2,0.3c0.1,0.1,0-0.1,0.1,0.2c0.1,0.3,0.1,0.3,0.2,0.4c0,0.1,0,0,0,0.2s0,0.1-0.1,0.2
				c-0.1,0.2-0.2,0.4-0.2,0.4s-0.2,0.3,0,0.4c0.2,0.1,0.2,0.1,0.3,0.3c0.1,0.2,0,0.3,0.1,0.4c0,0,0.1,0.2,0.1,0.2c0,0,0-0.1,0,0.1
				c0,0.3,0,0.2,0,0.4c0,0.1,0,0,0,0.1c0,0.1,0,0.2,0,0.2s0,0,0,0s0,0.1-0.2,0.1c-0.2,0.1-0.3,0.1-0.2,0.1s0.1,0.1,0.3,0.1
				c0.1,0,0.3-0.1,0.3-0.1c0,0.1,0,0.1,0,0.2c0,0,0-0.1,0,0c0,0.1,0,0.3,0,0.3c0,0,0,0.1,0,0.1s-0.2,0-0.2,0.1c0,0-0.1,0,0,0.1
				s0.2,0.2,0.2,0.3s-0.1,0.2-0.1,0.2l0,0l0,0.1c0,0,0.1,0.1,0.1,0.1c0,0,0.1,0,0.2,0c0.1,0,0.2,0.1,0.2,0.1s0,0,0,0.1s0,0.1,0,0.2
				c0,0,0.1,0.2,0.2,0.1c0.1-0.1,0.1-0.2,0.2-0.1c0.1,0.1,0.1,0.1,0.2,0.2c0,0.1,0,0.2,0.1,0.3c0.1,0.1,0.1,0.1,0.2,0.1
				c0.1,0,0.1-0.1,0.1,0C57.2,83.8,57,83.9,57,83.9z"/>
			<path class="st3" d="M45.8,78.3l-0.2,0c0,0-0.1-0.1-0.1,0c0,0-0.3,0-0.3,0s-0.1,0-0.1,0c0-0.1-0.2-0.1-0.3-0.3
				c-0.1-0.1-0.2-0.3-0.3-0.3c0,0,0-0.1-0.1,0c-0.1,0-0.2,0.1-0.3,0.2c-0.1,0.1-0.1,0.2-0.2,0.2c0,0-0.2-0.4-0.2-0.5
				c0-0.1-0.1-0.4-0.2-0.4c0,0,0,0-0.1,0s-0.2,0.1-0.2,0.2c0,0.1-0.1,0,0,0.2c0,0.2,0.1,0.3,0.1,0.4c0,0.1-0.1,0.2-0.1,0.2
				s-0.1,0.1-0.2,0.2c0,0-0.4,0.1-0.5,0.1c-0.1-0.1-0.3-0.1-0.3-0.2c0-0.1-0.2-0.4-0.2-0.4c0-0.1-0.1-0.3-0.2-0.4
				c0,0-0.1-0.1-0.1-0.2c0,0,0.1-0.3,0.1-0.3c0-0.1,0-0.2,0-0.3c0-0.1,0.1-0.2,0.1-0.2c0-0.1,0-0.3,0.2-0.2c0.1,0.1,0.2-0.1,0.2-0.1
				c0,0,0.1,0,0-0.2c0-0.2,0-0.3,0-0.3c0,0,0.1-0.1,0.2-0.1c0,0,0-0.1,0.1-0.1c0.1,0,0.2-0.1,0.2-0.1c0,0.1,0,0,0.1,0
				c0,0.1,0-0.1,0.1,0.1c0.2,0.2,0.3,0.2,0.3,0.2s0.2,0.1,0.2,0c0-0.1,0-0.2,0-0.2s0-0.1-0.2-0.3c-0.3-0.1-0.3-0.2-0.4-0.3
				c-0.1,0-0.1-0.1-0.1-0.3c0-0.2,0.1-0.7,0.1-0.8c0-0.1,0.1-0.4,0.1-0.4s0-0.1,0-0.2c0-0.1,0-0.4,0-0.5c0-0.1,0-0.3,0-0.3
				s0-0.2,0-0.2c0,0,0-0.3,0-0.3c0,0,0.2-0.1,0.1-0.2c-0.1-0.1-0.1-0.1-0.1-0.3s0-0.4,0.1-0.5c0,0,0.1-0.3,0.2-0.4s0.1-0.4,0.1-0.1
				c-0.1,0.3,0,0.1,0,0.2s0.1,0.3,0.2,0c0-0.3,0-0.3,0-0.4c0-0.1,0,0,0.1-0.2c0.1-0.2,0.1-0.2,0.1-0.2s0-0.1,0-0.1
				c0,0,0-0.1-0.1,0.1c-0.1,0.2,0,0.2-0.2,0.3c-0.1,0-0.3,0.2-0.2,0c0-0.2,0.1-0.4,0-0.3c-0.1,0-0.3,0.3-0.3,0.4
				c0,0-0.1,0.1-0.1,0.1c0,0.1-0.1,0-0.1-0.1c0,0,0.1-0.2,0.2-0.4c0.1-0.2,0.5-0.6,0.6-0.7c0.1-0.1,0.2-0.2,0.2-0.3
				c0-0.1,0.1-0.3,0-0.4c0-0.1,0-0.2,0-0.2s0-0.2-0.1-0.2c-0.1,0-0.2,0-0.2,0.1c0,0,0.1,0.1-0.1,0.1c-0.2-0.1-0.2-0.1-0.3-0.1
				c0,0-0.1,0.1-0.2-0.1c-0.1-0.1-0.2-0.2-0.2-0.2S42.5,67,42.5,67c0,0-0.1,0-0.1,0.1s-0.1,0.5-0.2,0.6s-0.2,0-0.3-0.1s0,0-0.1-0.1
				c-0.1,0-0.3,0.1-0.4,0.1c0,0.1-0.3,0.1-0.3,0.2s0,0.5,0,0.6c0,0.1-0.3,0,0,0.3c0.3,0.3,0.5,0.3,0.4,0.5s-0.2,0.4-0.2,0.4
				s-0.1,0.1,0,0.2c0.1,0.1,0.2,0.3,0.2,0.4c0,0.1-0.2,0.2-0.3,0.2c-0.1,0-0.3-0.3-0.3-0.3V70c0,0-0.7,0.5-0.8,0.5
				c0,0-0.3,0.1-0.4,0.1c-0.1-0.1-0.2-0.1-0.2-0.2c0,0,0-0.6,0.1-0.8c0.1-0.2,0.2-0.5,0.2-0.6c0-0.1,0.2-0.2,0.1-0.3
				c0-0.1-0.1-0.2-0.1-0.2s-0.1-0.1-0.1-0.1c0,0,0.1-0.1,0.2-0.1s0.1,0.1,0.1,0c0-0.1,0-0.3,0.1-0.4c0-0.1,0.1-0.2,0.2-0.3
				c0-0.1,0.1-0.3,0-0.4s-0.1,0-0.1,0c0,0,0,0,0,0.2c-0.1,0.2-0.1,0.1-0.1,0.3c0,0.2,0,0.2-0.1,0.1s-0.1-0.1-0.1-0.1s0,0-0.1,0
				c-0.1,0.1,0,0.1-0.1,0c-0.1-0.1-0.2-0.3-0.2-0.1s-0.2,0.1-0.1,0.4c0.1,0.3,0.1,0.7,0,0.7c-0.1,0-0.1,0-0.2,0.1c0,0-0.2,0-0.3,0.1
				s-0.4,0.3-0.4,0.4s-0.2,0.1-0.2,0.2c0,0.1,0,0.3,0,0.3c0,0-0.2,0-0.2,0c0,0-0.1,0-0.2,0.1c-0.1,0.1-0.2,0.1-0.2,0.1
				c0,0,0-0.1-0.1-0.1c0,0-0.7,0.7-0.7,0.7S36,71,35.9,71.1s-0.3,0.3-0.4,0.5c-0.1,0.2-0.3,0.5-0.3,0.6s-0.2,0.3-0.3,0.2
				c-0.1,0,0,0-0.1,0c0,0.1,0,0-0.2,0c-0.1,0-0.1-0.2-0.3,0s-0.3,0.3-0.4,0.4c-0.1,0.2-0.4,0.6-0.4,0.6c0,0.1-0.3,0.4-0.4,0.4
				c-0.1,0-0.2,0.4-0.2,0.4c0,0.1-0.2,0.2-0.2,0.3s-0.2,0.4,0,0.3c0.1,0,0.2,0,0.2,0c0,0,0,0.2,0,0.2s0,0-0.2,0.1
				c-0.1,0-0.3,0.2-0.3,0.2c0,0.1,0,0.2,0,0.2c0,0,0.3,0,0.3-0.1s0-0.1,0-0.2c0-0.1,0.1-0.2,0.1,0c0,0.2,0,0.3,0,0.3
				s-0.1,0.2-0.2,0.3c-0.1,0.1-0.1,0-0.1,0.2c0,0.2-0.1,0.2,0,0.3c0.1,0.1,0,0.1,0.1,0.1c0,0,0,0.1,0.1,0c0.1,0,0.2-0.1,0.3-0.1
				c0,0.1,0-0.1,0.1,0c0,0.1,0,0.2,0.1,0.1c0-0.2,0.1-0.2,0.2-0.4c0-0.1,0.1-0.2,0.1-0.4c0-0.1,0-0.2,0-0.3c0-0.1,0,0,0.1,0
				c0,0.1,0,0.1,0.1,0c0-0.1,0-0.1,0.1-0.2c0-0.1,0-0.3,0.1-0.3c0.1-0.1,0.1-0.1,0.1-0.1c0-0.1,0,0,0-0.1c0.1-0.1,0,0,0.3-0.2
				c0.4-0.2,0.4-0.4,0.5-0.3c0.1,0.1,0-0.1,0.2-0.1c0.1,0,0.1,0,0.2,0c0.1,0.1,0.4,0.4,0.5,0.5c0,0.1,0,0.1,0.1,0.1s0.7,0.4,0.6,0.4
				c0,0-0.1,0.2-0.1,0.2l0.1,0.2c0,0,0.1,0.2,0.1,0.4s0,0.3,0,0.5c0,0.1,0.1,0.3,0.1,0.4c0,0.1-0.1,0.2,0.1,0.3
				c0.2,0.1,0.3,0.3,0.4,0.4c0.1,0.1,0.3,0.2,0.4,0.2s0.1,0,0.2-0.1c0.1,0,0.3,0,0.3,0c0,0.1,0.4,0.3,0.4,0.3s0.1,0,0.3,0.1
				s0.3,0.1,0.3,0.1l0.2,0c0,0,0,0,0.1,0c0.1,0,0.1,0,0.2,0c0,0.1,0,0,0,0.1c0,0-0.2-0.1-0.2-0.2c0,0-0.1-0.1-0.2-0.1
				c-0.1-0.1-0.1-0.1-0.3-0.1c-0.1-0.1-0.1-0.1-0.3-0.1c-0.1-0.1-0.2-0.1-0.2-0.2c0,0-0.1-0.2,0.1-0.1c0.2,0,0.2,0,0.3,0.1
				c0.1,0.1,0.2,0.1,0.3,0.1c0.1,0,0.3,0.1,0.4,0.1c0.1,0,0-0.1,0.2,0c0.2,0,0.3,0,0.4,0.1c0.1,0,0.2,0,0.3,0.1s0,0,0.1,0.1
				c0,0.1,0.2,0.1,0.2,0.1s0.2-0.1,0.2,0c0,0,0.2-0.1,0.3-0.1c0,0,0.2,0,0.2,0s0.2,0,0.2,0s0.2-0.1,0.2-0.1s0.1,0,0.1-0.1
				c0,0,0.1-0.1,0.1-0.1s0-0.1,0-0.1s0-0.1,0.1-0.1c0.1,0,0.1,0,0.2,0s0.1,0,0.2,0c0.1,0,0.1-0.1,0.2-0.1c0.1,0,0.1-0.1,0.2-0.1
				c0,0,0,0,0.1-0.1s0-0.1,0.1-0.1c0.1,0,0.1,0,0.2,0.1c0.1,0,0.1-0.1,0.2,0c0.1,0,0.1,0,0.2,0.1c0,0,0.1,0,0.2,0s0.2,0,0.2,0
				l0.2-0.1l0.2-0.1L45.8,78.3z"/>
			<path class="st3" d="M39.3,65.4l0.5-0.7c0,0,0.2-0.2,0.2-0.4c0-0.2-0.1-0.1,0.2-0.4c0.2-0.4,0.1-0.3,0.3-0.4
				c0.2-0.1,0.2-0.2,0.4-0.3c0.2-0.1,0.2-0.2,0.4-0.4c0.2-0.1,0.3-0.2,0.4-0.3c0.1-0.1,0.2-0.2,0.4-0.4c0.2-0.2,0.3-0.5,0.4-0.5
				c0.1,0,0.1-0.1,0.4-0.3c0.3-0.2,0.3-0.4,0.5-0.5c0.1-0.1,0.3-0.3,0.5-0.5c0.2-0.2,0.3-0.3,0.4-0.4c0.1-0.1,0-0.2,0.2-0.3
				c0.2,0,0.2-0.3,0.3-0.2c0.1,0.1,0.2-0.2,0.1,0.1c-0.1,0.3-0.1,0.2-0.1,0.5s0.3,0.1,0.1,0.5c-0.2,0.4-0.4,0.3-0.3,0.5
				c0.1,0.2,0.2,0.2,0.3,0.3c0.1,0.1,0,0.1,0,0.3c0,0.1-0.1,0.1-0.2,0.3c-0.1,0.2-0.2,0.4-0.3,0.5c-0.1,0.1-0.2,0.4-0.2,0.4
				c0,0.1,0.2,0,0,0.4c-0.2,0.4-0.3,0.5-0.3,0.7c0,0.2,0.1,0.2,0.1,0.3c0,0.1,0.1,0.6,0,0.6S44.3,65,44.1,65c-0.1,0-0.3,0-0.4,0
				c-0.1,0-0.3-0.1-0.4-0.2c-0.1-0.1-0.4-0.1-0.3-0.3c0.2-0.1,0.2-0.2,0.3-0.3c0-0.1,0-0.2,0-0.2s-0.2-0.1-0.3-0.2
				c-0.1,0-0.2-0.1-0.3-0.1c-0.1,0-0.1,0-0.3,0c-0.2,0-0.2,0-0.4,0.1c-0.2,0.1-0.3,0.1-0.3,0.2c0,0.1-0.3,0.1-0.1-0.1
				c0.2-0.2,0.4-0.4,0.4-0.4s0.1-0.4,0-0.3c-0.1,0.1,0-0.3-0.2,0c-0.1,0.2-0.3,0.6-0.4,0.6c0,0.1-0.2,0.2-0.3,0.4
				c-0.1,0.2-0.3,0.4-0.3,0.6c0,0.2,0.1,0.1,0,0.2c-0.1,0.1,0-0.2-0.1,0.1c-0.1,0.3,0,0.2-0.2,0.3c-0.1,0.1-0.2,0.1-0.2,0.1
				s0.1-0.1-0.1,0c-0.2,0.2-0.2,0.2-0.4,0.2c-0.1,0-0.1,0-0.1-0.1C39.3,65.5,39.3,65.4,39.3,65.4z"/>
			<path class="st3" d="M39.7,66.4c0,0.1,0,0.4,0,0.4c0.1,0,0.3,0.1,0.3,0c0-0.1-0.2-0.2,0.2-0.4c0.5-0.2,0.3-0.3,0.5-0.2
				c0.2,0.1,0.4,0.2,0.4,0.2c0,0.1,0,0.1,0,0.3c-0.1,0.2-0.1,0.3,0.1,0.3c0.2,0,0.4-0.1,0.6-0.2c0.1-0.1,0.4-0.3,0.1-0.3
				c-0.3,0-0.1-0.2-0.1-0.2s0.4,0,0.1-0.2c-0.3-0.1-0.4-0.1-0.3-0.1c0,0,0.2-0.1,0.2-0.1l0-0.2l-0.2-0.1h-0.4c0,0,0-0.3-0.2-0.1
				c-0.2,0.2-0.2,0.2-0.4,0.2c-0.2,0-0.2,0-0.4,0.3c-0.2,0.3-0.2,0.4-0.2,0.4L39.7,66.4z"/>
			<path class="st3" d="M36.4,70.1c0-0.2,0-0.6,0.2-0.7c0.1-0.1,0.2-0.3,0.4-0.3c0.2,0,0.4,0,0.5-0.1c0.1,0,0.1-0.3,0.2-0.3
				s0.2-0.6,0.3-0.4c0.1,0.3,0.3,0.2,0.2,0.4s-0.2,0.5-0.3,0.5c-0.1,0.1-0.2,0.1-0.3,0.2c0,0.2,0,0.1-0.1,0.2
				c-0.1,0.1-0.1,0.2-0.2,0.2c-0.1,0-0.1,0.1-0.3,0c-0.1-0.1,0-0.2-0.1-0.1S36.8,70,36.7,70C36.5,70,36.4,70.1,36.4,70.1z"/>
		</g>
	</g>
</g>
</svg>
