<?xml version="1.0" encoding="utf-8"?>
<!-- Generator: Adobe Illustrator 15.1.0, SVG Export Plug-In . SVG Version: 6.00 Build 0)  -->
<!DOCTYPE svg PUBLIC "-//W3C//DTD SVG 1.1//EN" "http://www.w3.org/Graphics/SVG/1.1/DTD/svg11.dtd">
<svg version="1.1" id="Layer_1" xmlns="http://www.w3.org/2000/svg" xmlns:xlink="http://www.w3.org/1999/xlink" x="0px" y="0px"
	 width="125px" height="125px" viewBox="0 0 125 125" enable-background="new 0 0 125 125" xml:space="preserve">
<g id="zf7LjJ.tif_2_">
	<g>
		<g>
			<path fill="#333333" d="M125,33.733c0-0.49,0-0.981,0-1.473C112.104,27.357,112.822,9.758,101.992,4C99.785,4,98,4,96,4
				c0,0,0,0.041,0,0.286C80,5.538,75.676,26.249,82.433,40.358C55.91,39.26,38.226,52.926,21.171,60.971
				c-4.23,1.997-5.722,9.437-11.12,11.042c-1.455-2.542,2.468-3.238,0.695-3.681c-4.543-0.228-0.763,5.034-3.7,5.153
				c-2.511-0.307,1.103-4.036-0.746-3.681c-2.029,1.898-1.438,6.419-4.423,7.361c0.749,0.316,4.018,1.587,0.902,1.473
				C1.458,78.546,0.992,79.541,0,79.376c0,0.246,0,0.491,0,0.735c12.897-1.657,17.254,11.37,26.335,14.724
				c9.949,3.675,20.057,4.133,33.779,3.682c1.24,6.614,2.864,12.63,5.111,18.235c3.266,2.379,8.388,3.248,12.473,4.248
				c2.454,0,4.302,0,7.302,0c0,0,0-0.152,0-0.399c1-1.416,3.598-2.323,5.186-3.681c-2.328,0.118-4.428,0.026-5.139-1.472
				c2.81-1.853,7.74-1.591,11.049-2.945c-1.747-1.105-0.729-3.1-1.468-3.682c-4.687,0.958-10.525,0.763-16.195,0.737
				c-2.226-3.172-2.79-8.006-4.414-11.778c20.992-5.542,52.019-17.186,50.06-41.962c-1.164-14.691-15.345-17.272-24.2-25.767
				C108.309,23.092,117.063,40.56,125,33.733z M76.228,115c-2.454,0-4.908,0-7.362,0c-1.716-5-3.3-10.933-3.682-17.668
				C75.631,96.456,70.49,111,76.228,115z"/>
		</g>
	</g>
</g>
</svg>
