<?xml version="1.0" encoding="utf-8"?>
<!-- Generator: Adobe Illustrator 15.1.0, SVG Export Plug-In . SVG Version: 6.00 Build 0)  -->
<!DOCTYPE svg PUBLIC "-//W3C//DTD SVG 1.1//EN" "http://www.w3.org/Graphics/SVG/1.1/DTD/svg11.dtd">
<svg version="1.1" id="Layer_1" xmlns="http://www.w3.org/2000/svg" xmlns:xlink="http://www.w3.org/1999/xlink" x="0px" y="0px"
	 width="125px" height="125px" viewBox="0 0 125 125" enable-background="new 0 0 125 125" xml:space="preserve">
<path fill="#333333" d="M119.55,79.993h-3.005l-1.909-1.639l-1.092,2.184l-5.459,0.819l-1.914-3.004l-1.908-2.457h-2.186
	l-1.911,3.55l-2.183-1.639l-0.822-1.911l-1.089-6.007l-1.368-4.368l0.273-3.002l-3.822-4.915l-4.64-2.458l-5.188-6.006l-6.552-5.733
	l-9.559-5.462c0,0-2.73-6.826-8.735-2.456c0,0-6.008,4.641-8.193,7.099c0,0-8.189,4.368-10.375,7.917l-1.639,6.552l-1.637,1.092
	l-2.732,7.097l-0.819,6.555l-1.638,3.004l-1.366,1.092l-0.682,2.951l-0.138,0.599l-1.638-0.272l-1.169,8.554h100.126V83.51
	l-0.119-0.513L119.55,79.993z"/>
<path fill="#333333" d="M19.987,82.723l-3.003-3.275l-0.546,2.184l-1.639-2.184l-1.091-6.826l-3.003-2.183l-1.365-4.643
	c0,0-2.184-1.639-4.096,0l-1.363,2.73l0.273,2.729l-1.365,0.82l-0.273,5.139l-1.638,3.871L0,87.729h21.042L19.987,82.723z"/>
<path fill="#CACACA" d="M119.55,94.624h-3.005l-1.909,1.082l-1.092-1.442l-5.459-0.542l-1.914,1.985l-1.908,1.624h-2.186
	l-1.911-2.346l-2.183,1.082l-0.822,1.264l-1.089,3.97l-1.368,2.887l0.273,1.983l-3.822,3.249l-4.64,1.623l-5.188,3.97l-6.552,3.789
	l-9.559,3.609c0,0-2.73,4.512-8.735,1.623c0,0-6.008-3.067-8.193-4.691c0,0-8.189-2.887-10.375-5.232l-1.639-4.33l-1.637-0.722
	l-2.732-4.69l-0.819-4.332l-1.638-1.985l-1.366-0.721l-0.682-1.95l-0.138-0.395l-1.638,0.179l-1.169-5.652h100.126v2.787
	l-0.119,0.34L119.55,94.624z"/>
<path fill="#CACACA" d="M19.987,92.819l-3.003,2.166l-0.546-1.444l-1.639,1.444l-1.091,4.51l-3.003,1.442l-1.365,3.067
	c0,0-2.184,1.083-4.096,0l-1.363-1.804l0.273-1.803l-1.365-0.542L2.514,96.46l-1.638-2.559L0,89.512h21.042L19.987,92.819z"/>
<path fill="#333333" d="M34.021,22.09c0,0,2.983-5.172,8.204-3.479c0,0-6.464-2.983-8.204,0.483c0,0-4.847-3.84-7.954,0.387
	C26.067,19.481,29.919,15.876,34.021,22.09z"/>
<path fill="#333333" d="M11.296,40.178c0,0,1.42-4.703,5.919-4.33c0,0-5.74-1.175-6.481,1.929c0,0-4.603-2.167-6.298,1.803
	C4.436,39.581,6.846,35.97,11.296,40.178z"/>
<path fill="#333333" d="M33.285,37.449c0,0,6.928-10.087,17.321-5.793c0,0-12.725-7.134-16.835-0.327c0,0-9.286-8.627-16.313-0.496
	C17.456,30.832,25.907,24.091,33.285,37.449z"/>
</svg>
