<?xml version="1.0" encoding="utf-8"?>
<!-- Generator: Adobe Illustrator 15.1.0, SVG Export Plug-In . SVG Version: 6.00 Build 0)  -->
<!DOCTYPE svg PUBLIC "-//W3C//DTD SVG 1.1//EN" "http://www.w3.org/Graphics/SVG/1.1/DTD/svg11.dtd">
<svg version="1.1" id="Layer_1" xmlns="http://www.w3.org/2000/svg" xmlns:xlink="http://www.w3.org/1999/xlink" x="0px" y="0px"
	 width="125px" height="125px" viewBox="0 0 125 125" enable-background="new 0 0 125 125" xml:space="preserve">
<g>
	<circle fill="#333333" cx="62.112" cy="101.12" r="11.915"/>
	<g>
		<g>
			<path fill="#333333" d="M3.136,45.086l9.887,9.886c27.111-27.112,71.067-27.112,98.18,0l9.887-9.886
				C88.518,12.513,35.708,12.513,3.136,45.086z"/>
			<path fill="#333333" d="M19.529,61.477l11.177,11.177c17.346-17.345,45.469-17.345,62.816,0l11.177-11.177
				C81.178,37.959,43.047,37.959,19.529,61.477z"/>
			<path fill="#333333" d="M36.761,78.709l9.003,9.004c9.029-9.029,23.668-9.029,32.698,0l9.004-9.004
				C73.463,64.709,50.763,64.709,36.761,78.709z"/>
		</g>
	</g>
</g>
</svg>
