<?xml version="1.0" encoding="utf-8"?>
<!-- Generator: Adobe Illustrator 15.1.0, SVG Export Plug-In . SVG Version: 6.00 Build 0)  -->
<!DOCTYPE svg PUBLIC "-//W3C//DTD SVG 1.1//EN" "http://www.w3.org/Graphics/SVG/1.1/DTD/svg11.dtd">
<svg version="1.1" id="Layer_1" xmlns="http://www.w3.org/2000/svg" xmlns:xlink="http://www.w3.org/1999/xlink" x="0px" y="0px"
	 width="125px" height="125px" viewBox="0 0 125 125" enable-background="new 0 0 125 125" xml:space="preserve">
<g>
	<polygon fill="#333333" points="74.879,103.694 74.879,106.526 106.59,106.526 106.59,97.483 103.184,97.483 103.184,103.694 
		91.268,103.694 91.268,97.483 81.621,97.483 81.621,103.694 	"/>
	<path fill="#333333" d="M115.73,68.367v-0.014c0,0,0.076-3.686-2.236-4.167l-0.078,0.384h-1.01l-0.057-0.364
		c-2.318,0.548-2.135,4.147-2.135,4.147v0.014v0.009h1.139l-1.139,1.572v3.639h5.516v-3.639l-1.139-1.572h1.139V68.367z"/>
	<polygon fill="#333333" points="107.977,106.526 109.301,106.526 109.301,99.339 112.516,99.339 112.516,106.526 113.592,106.526 
		113.592,99.339 116.807,99.339 116.807,106.526 117.812,106.526 117.812,97.483 107.977,97.483 	"/>
	<polygon fill="#333333" points="110.215,79.825 110.98,79.825 115.73,79.825 115.73,74.592 110.215,74.592 	"/>
	<path fill="#333333" d="M115.605,42.06v-0.014c0,0,0.074-3.685-2.238-4.166l-0.076,0.383h-1.01l-0.057-0.364
		c-2.32,0.547-2.135,4.146-2.135,4.146v0.014v0.009h1.139l-1.139,1.572v3.638h5.516v-3.638l-1.141-1.572h1.141V42.06z"/>
	<path fill="#333333" d="M107.977,33.319v20.198h0.002h1.182V42.046h0.004c-0.01-0.277-0.152-4.813,2.846-5.524l-0.053-0.344h1.75
		l-0.068,0.341c2.898,0.702,2.895,5.25,2.891,5.527l0,0v11.472h1.283V33.319H107.977z"/>
	<rect x="110.09" y="48.284" fill="#333333" width="5.516" height="5.233"/>
	<polygon fill="#333333" points="120.461,79.825 117.812,79.825 117.812,83.006 119.705,83.006 	"/>
	<polygon fill="#333333" points="120.336,53.518 117.812,53.518 117.812,56.194 119.578,56.194 	"/>
	<rect x="117.812" y="58.244" fill="#333333" width="1.146" height="1.665"/>
	<polygon fill="#333333" points="118.344,31.302 119.453,25.165 73.42,25.165 74.879,31.302 	"/>
	<polygon fill="#333333" points="119.453,24.282 119.514,24.282 119.514,22.39 118.512,22.39 118.512,17.472 111.076,17.472 
		111.076,22.39 109.74,22.39 109.74,17.472 98.109,17.472 98.109,22.39 96.225,22.39 96.225,17.472 84.594,17.472 84.594,22.39 
		83.131,22.39 83.131,17.472 74.879,17.472 74.879,24.282 	"/>
	<rect x="78.264" y="56.194" fill="#333333" width="9.936" height="2.05"/>
	<polygon fill="#333333" points="93.396,58.244 103.336,58.244 103.363,58.244 103.363,56.194 93.396,56.194 	"/>
	<polygon fill="#333333" points="109.564,56.194 109.564,58.244 109.58,58.244 110.09,58.244 117.812,58.244 117.812,56.194 	"/>
	<polygon fill="#333333" points="77.967,95.718 89.025,95.718 102.686,95.718 106.59,95.718 106.59,86.224 106.59,83.006 
		91.629,83.006 76.666,83.006 74.879,83.006 74.879,95.718 	"/>
	<path fill="#333333" d="M117.812,86.224v-3.218h-6.832h-2.848h-0.154h-0.002v3.218v9.494h9.836H125
		C125,86.107,117.812,86.224,117.812,86.224z"/>
	<path fill="#333333" d="M110.09,59.908h-0.51h-0.016h-1.588v19.917h0.002h0.154h1.154V68.354h0.004
		c-0.012-0.277-0.152-4.814,2.846-5.525l-0.053-0.343h1.75l-0.068,0.341c2.898,0.702,2.893,5.25,2.891,5.527l0,0v11.472h1.156
		V59.908H110.09z"/>
	<g>
		<rect x="94.662" y="74.592" fill="#333333" width="7.438" height="5.233"/>
		<path fill="#333333" d="M79.514,68.367v0.009h1.537l-1.537,1.572v3.639h7.438v-3.639l-1.535-1.572h1.535v-0.009v-0.014
			c0,0,0.104-3.686-3.016-4.167l-0.104,0.384h-1.361l-0.076-0.364c-3.129,0.548-2.881,4.147-2.881,4.147V68.367z"/>
		<rect x="79.514" y="74.592" fill="#333333" width="7.438" height="5.233"/>
		<path fill="#333333" d="M74.879,59.908v19.917h1.828h1.555V68.354h0.006c-0.016-0.277-0.207-4.814,3.838-5.525l-0.072-0.343h2.361
			l-0.092,0.341c3.906,0.702,3.9,5.25,3.896,5.527l0,0v11.472h1.561h2.094h1.557V68.354h0.006c-0.016-0.277-0.207-4.814,3.836-5.525
			l-0.072-0.343h2.361l-0.092,0.341c3.908,0.702,3.9,5.25,3.896,5.527h0.002v11.472h1.559h1.684V59.908H74.879z"/>
		<path fill="#333333" d="M94.662,68.367v0.009h1.535l-1.535,1.572v3.639h7.438v-3.639l-1.537-1.572h1.537v-0.009v-0.014
			c0,0,0.102-3.686-3.018-4.167l-0.104,0.384h-1.361l-0.076-0.364c-3.129,0.548-2.879,4.147-2.879,4.147V68.367z"/>
	</g>
	<g>
		<rect x="94.662" y="48.284" fill="#333333" width="7.438" height="5.233"/>
		<path fill="#333333" d="M79.514,42.06v0.009h1.537l-1.537,1.572v3.638h7.438v-3.638l-1.535-1.572h1.535V42.06v-0.014
			c0,0,0.104-3.685-3.016-4.166l-0.104,0.383h-1.361l-0.076-0.364c-3.129,0.547-2.881,4.146-2.881,4.146V42.06z"/>
		<rect x="79.514" y="48.284" fill="#333333" width="7.438" height="5.233"/>
		<path fill="#333333" d="M74.879,33.601v19.917h1.828h1.555V42.046h0.006c-0.016-0.277-0.207-4.813,3.838-5.524l-0.072-0.344h2.361
			l-0.092,0.341c3.906,0.702,3.9,5.25,3.896,5.527l0,0v11.472h1.561h2.094h1.557V42.046h0.006c-0.016-0.277-0.207-4.813,3.836-5.524
			l-0.072-0.344h2.361l-0.092,0.341c3.908,0.702,3.9,5.25,3.896,5.527h0.002v11.472h1.559h1.684V33.601H74.879z"/>
		<path fill="#333333" d="M94.662,42.06v0.009h1.535l-1.535,1.572v3.638h7.438v-3.638l-1.537-1.572h1.537V42.06v-0.014
			c0,0,0.102-3.685-3.018-4.166l-0.104,0.383h-1.361l-0.076-0.364c-3.129,0.547-2.879,4.146-2.879,4.146V42.06z"/>
	</g>
</g>
<g>
	<rect x="0.422" y="47.658" fill="#333333" width="69.318" height="5.868"/>
	<rect y="85.673" fill="#333333" width="8.083" height="5.867"/>
	<rect x="61.657" y="85.673" fill="#333333" width="8.083" height="5.867"/>
	<rect x="49.326" y="85.673" fill="#333333" width="8.083" height="5.867"/>
	<rect x="41.847" y="85.673" fill="#333333" width="4.56" height="5.867"/>
	<rect x="24.074" y="85.673" fill="#333333" width="4.56" height="5.867"/>
	<rect x="12.332" y="85.673" fill="#333333" width="8.083" height="5.867"/>
	<polygon fill="#333333" points="0.637,93.67 10.851,93.67 10.851,102.391 24.074,102.391 24.074,93.67 28.634,93.67 
		28.634,106.526 28.163,106.526 28.163,106.528 1.161,106.528 1.161,106.526 0.637,106.526 	"/>
	<polygon fill="#333333" points="46.407,93.67 46.407,102.391 59.527,102.391 59.527,93.67 69.74,93.67 69.74,102.391 
		69.74,106.526 69.74,106.528 41.847,106.528 41.847,106.526 41.847,102.391 41.847,93.67 	"/>
	<path fill="#333333" d="M40.124,91.413h-9.792c0,0,0-5.74,4.896-5.74C40.124,85.673,40.124,91.413,40.124,91.413z"/>
	<rect x="30.331" y="93.67" fill="#333333" width="9.792" height="12.856"/>
	<g>
		<rect x="0.422" y="43.042" fill="#333333" width="26.597" height="3.11"/>
		<rect x="43.011" y="43.042" fill="#333333" width="26.596" height="3.11"/>
		<polygon fill="#333333" points="28.634,46.192 28.634,46.152 34.817,46.152 		"/>
		<polygon fill="#333333" points="34.988,35.756 41.595,39.21 41.595,46.107 28.382,46.152 28.382,39.35 		"/>
	</g>
	<g>
		<path fill="#333333" d="M0.422,56.194v26.307H69.74V56.194H0.422z M57.204,61.985h6.171v17.19h-6.171V61.985z M44.63,61.985h6.172
			v17.19H44.63V61.985z M32.057,61.985h6.172v17.19h-6.172V61.985z M19.483,61.985h6.172v17.19h-6.172V61.985z M6.909,61.985h6.172
			v17.19H6.909V61.985z"/>
	</g>
</g>
</svg>
