<?xml version="1.0" encoding="utf-8"?>
<!-- Generator: Adobe Illustrator 15.1.0, SVG Export Plug-In . SVG Version: 6.00 Build 0)  -->
<!DOCTYPE svg PUBLIC "-//W3C//DTD SVG 1.1//EN" "http://www.w3.org/Graphics/SVG/1.1/DTD/svg11.dtd">
<svg version="1.1" id="Layer_1" xmlns="http://www.w3.org/2000/svg" xmlns:xlink="http://www.w3.org/1999/xlink" x="0px" y="0px"
	 width="125px" height="125px" viewBox="0 0 125 125" enable-background="new 0 0 125 125" xml:space="preserve">
<g>
	<circle fill="#333333" cx="33.531" cy="96.148" r="8.557"/>
	<circle fill="#333333" cx="104.019" cy="96.148" r="8.558"/>
	<path fill="#333333" d="M115.423,63.108h-1.364l-9.586-21.146l-2.159-4.764c-0.089-0.105-0.179-0.208-0.272-0.309
		c-1.75-1.897-4.256-3.086-7.04-3.086H74.189l-26.433-5.689v5.689h-5.99l-26.433-5.689v5.689H9.577C4.288,33.803,0,38.091,0,43.38
		v43.19c0,5.29,4.288,9.578,9.577,9.578h11.695c0-6.771,5.488-12.26,12.259-12.26c6.77,0,12.259,5.488,12.259,12.26h45.97
		c0-6.771,5.489-12.26,12.26-12.26c6.756,0,12.236,5.468,12.258,12.219c4.889-0.432,8.723-4.535,8.723-9.537V72.686
		C125,67.396,120.713,63.108,115.423,63.108z M70.357,67.35h-57.18c-1.666,0-3.015-1.35-3.015-3.014V54.285
		c0.708,0.357,1.508,0.56,2.355,0.56c2.693,0,4.91-2.037,5.196-4.653h4.233c0.286,2.617,2.502,4.653,5.196,4.653
		c2.693,0,4.91-2.037,5.196-4.653h4.233c0.287,2.617,2.503,4.653,5.196,4.653s4.91-2.037,5.196-4.653h4.233
		c0.286,2.617,2.503,4.653,5.196,4.653c2.693,0,4.91-2.037,5.196-4.653h4.233c0.286,2.617,2.503,4.653,5.196,4.653
		c0.847,0,1.646-0.202,2.354-0.56v10.051C73.372,66,72.021,67.35,70.357,67.35z M104.743,62.664H89.38
		c-1.358,0-2.46-1.101-2.46-2.459v-15.84c0-1.358,1.102-2.46,2.46-2.46h7.582c1.027,0,1.739,0.721,2.46,2.46l6.752,15.84
		C106.844,61.751,106.18,62.664,104.743,62.664z"/>
</g>
</svg>
