<?xml version="1.0" encoding="utf-8"?>
<!-- Generator: Adobe Illustrator 20.0.0, SVG Export Plug-In . SVG Version: 6.00 Build 0)  -->
<svg version="1.1" id="Layer_1" xmlns="http://www.w3.org/2000/svg" xmlns:xlink="http://www.w3.org/1999/xlink" x="0px" y="0px"
	 viewBox="0 0 125 125" style="enable-background:new 0 0 125 125;" xml:space="preserve">
<style type="text/css">
	.st0{fill:#1E407B;}
	.st1{fill:none;}
</style>
<g>
	<circle class="st0" cx="32.1" cy="31.7" r="7.3"/>
	<g>
		<polygon class="st0" points="31.1,43 44.6,37.8 25.9,40.6 26.1,41.5 26.3,40.5 		"/>
		<polygon class="st0" points="26.1,41.5 25.8,42.9 26.5,43 		"/>
		<polygon class="st0" points="24.3,47.6 24,48.7 22.6,48.2 25,51.8 26.8,53.5 27.8,51.6 27,48.3 		"/>
		<polygon class="st0" points="29.6,43.6 31.1,43 26.3,40.5 26.1,41.5 26.5,43 		"/>
		<polygon class="st0" points="57,85.5 51.2,80.7 48.2,65.6 42.4,52.5 43.4,45.6 31.1,49.3 27.7,48.4 30.2,59.5 17,70 26.2,91.9 
			29.5,91.9 27.9,77.3 24.3,72.8 37.5,67.5 46.5,84.2 61.5,103.6 65.5,102.2 		"/>
		<polygon class="st0" points="31.1,43 29.6,43.6 26.5,43 25.8,42.9 12.7,41.4 15.3,44.6 31.1,48 43.7,43.3 44.6,37.8 		"/>
	</g>
	<circle class="st0" cx="51.5" cy="29.8" r="2.8"/>
	<polygon class="st0" points="16.8,45.6 16.7,45.5 16.9,47.9 19.3,49.8 	"/>
	<g>
		<path class="st1" d="M13,36.9c-0.5,0.3-1.3,0.4-1.9,0.6c1.4,1,3,1.8,4.9,4.1c-1.2-2.7-1.4-4.5-1.7-6.2C14,35.8,13.5,36.6,13,36.9z
			"/>
		<path class="st1" d="M14,32.5c0.1-0.3,0.1-0.6,0.2-0.9c0.2-1.9,0-3.6-1.2-5.6c-2.3-3.6-6-4.4-8.7-2.6c-2.7,1.7-3.5,5.4-1.1,9.1
			c1.3,2,2.8,2.8,4.6,3.4C8,35.9,8.3,36,8.6,36c1.2,0.1,2.3,0,3.3-0.7C13,34.7,13.6,33.7,14,32.5z"/>
		<polygon class="st0" points="17.5,45.8 21.4,51.8 23.2,50.6 20.7,46.7 		"/>
		<path class="st0" d="M17.6,41.8c0,0-1.6-4.2-1.9-9.6c0,0,0,0,0,0c0.3-2.3,0-4.6-1.6-7c-2.9-4.5-7.3-5.2-10.7-3s-4.5,6.5-1.6,11
			c1.6,2.4,3.5,3.6,5.7,4.3c0,0,0,0,0.1,0c4.9,2.4,8.1,5.7,8.1,5.7l1.2,1.8l3,0.6L17.6,41.8z M8.6,35.8c-0.3,0-0.6-0.1-0.9-0.2
			c-1.8-0.5-3.3-1.4-4.6-3.4c-2.3-3.6-1.6-7.3,1.1-9.1c2.7-1.7,6.4-0.9,8.7,2.6c1.3,2,1.5,3.7,1.2,5.6c0,0.3-0.1,0.6-0.2,0.9
			c-0.3,1.1-1,2.1-2,2.7C11,35.8,9.8,36,8.6,35.8z M11.1,37.4c0.5-0.1,1.4-0.3,1.9-0.6c0.4-0.3,0.9-1,1.3-1.5
			c0.3,1.6,0.5,3.5,1.7,6.2C14.1,39.2,12.5,38.3,11.1,37.4z"/>
	</g>
</g>
<g>
	<polygon class="st0" points="110.8,85.7 106.8,86.9 94.1,76.2 92.5,70.5 77.9,65.5 77.3,82.2 58.5,102.2 54.4,101 65.1,84 
		71.3,79.7 67.1,64.2 72.3,50.8 69.8,36.2 88.5,37.9 84.8,57.2 97.6,67.4 	"/>
	
		<ellipse transform="matrix(0.9988 -4.857266e-02 4.857266e-02 0.9988 -1.3152 3.9569)" class="st0" cx="80.8" cy="29" rx="7.3" ry="7.3"/>
	<polygon class="st0" points="88.5,37.9 81.4,41.4 88.1,56.8 102,50.5 102,47.3 91,50.8 	"/>
	<polygon class="st0" points="69.8,36.2 71.1,43.8 59.2,47 59.8,60.2 56.8,60.4 54.1,44.1 	"/>
	<g>
		<path class="st1" d="M124.1,72.7L124.1,72.7L124.1,72.7l0,0.1l0,0L124.1,72.7L124.1,72.7z"/>
		<path class="st0" d="M114.5,69.7l2.5-1.3l0-2.8l2.5-1.3l0-1.8l0,0l0,1.8l-2.5,1.3l0,2.8L114.5,69.7l0,2.8l-1.8,1l0,0l1.8-1
			L114.5,69.7z"/>
		<path class="st0" d="M124.1,72.7L124.1,72.7l0-2.7l0.8-0.4l0,0l-0.8,0.4L124.1,72.7z"/>
		<path class="st0" d="M124.1,72.8L124.1,72.8l-2.4,1.3l0,1.1l0,0l0-1.1L124.1,72.8z"/>
		<path class="st0" d="M112.1,65.4L112.1,65.4C112.2,65.4,112.2,65.5,112.1,65.4L112.1,65.4z"/>
		<path class="st0" d="M112.2,65.4l2.4-1.3l2.4,1.4l0,2.8l-2.5,1.3l-2.4-1.5L112.2,65.4C112.2,65.5,112.2,65.4,112.2,65.4z"/>
		<path class="st0" d="M112.2,65.4c0.6-0.9,1.4-1.7,2.4-2.2l0,0.9L112.2,65.4z"/>
		<path class="st0" d="M112.2,65.4L112.2,65.4L112.2,65.4L112.2,65.4L112.2,65.4z"/>
		<path class="st0" d="M112.2,65.4l2.4-1.3l0,0L112.2,65.4L112.2,65.4z"/>
		<path class="st0" d="M112.1,65.5L112.1,65.5L112.1,65.5L112.1,65.5L112.1,65.5z"/>
		<path class="st0" d="M112.1,68.2L112.1,68.2l0-2.7l0,0L112.1,68.2z"/>
		<polygon class="st0" points="121.8,68.5 119.3,69.8 116.9,68.4 117,65.5 119.5,64.2 121.9,65.6 		"/>
		<polygon class="st0" points="121.9,65.6 121.9,65.7 121.8,68.5 121.8,68.5 		"/>
		<path class="st0" d="M111.1,68.8l0.9-0.5l2.4,1.5l0,2.8l-1.8,1C111.5,72.2,111,70.5,111.1,68.8z"/>
		<polygon class="st0" points="112.1,68.2 111.1,68.8 111.1,68.8 		"/>
		<path class="st0" d="M116.8,74l0,2c-0.8-0.1-1.5-0.4-2.3-0.9c-0.7-0.4-1.3-1-1.8-1.6l1.8-1L116.8,74z"/>
		<polygon class="st0" points="114.7,63.1 114.7,63.1 114.6,64.1 114.6,64.1 		"/>
		<path class="st0" d="M123.5,64.8l-1.6,0.9l-2.4-1.4l0-1.8c0.7,0.1,1.5,0.4,2.2,0.8C122.4,63.6,123,64.2,123.5,64.8z"/>
		<path class="st0" d="M123.5,64.8L123.5,64.8l-1.6,0.9h0L123.5,64.8z"/>
		<path class="st0" d="M124.1,72.8L124.1,72.8C124.1,72.8,124.1,72.7,124.1,72.8L124.1,72.8z"/>
		<path class="st0" d="M121.8,68.5l2.4,1.4l0,2.7c0,0,0,0.1,0,0.1l-2.4,1.3l-2.4-1.4l0-2.8L121.8,68.5z"/>
		<polygon class="st0" points="119.3,69.8 121.8,68.5 121.8,68.5 		"/>
		<polygon class="st0" points="119.3,69.8 119.3,69.8 119.3,72.7 119.2,72.7 		"/>
		<path class="st0" d="M116.7,76.1l0-2l2.5-1.3l2.4,1.4l0,1.1C120.2,76.1,118.4,76.4,116.7,76.1z"/>
		<path class="st0" d="M116.7,76.1L116.7,76.1v-2h0L116.7,76.1z"/>
		<polygon class="st0" points="119.3,72.7 116.8,74 116.8,74 119.2,72.7 		"/>
		<path class="st0" d="M124.2,70l0.8-0.4c0,1.1-0.3,2.2-0.9,3.2L124.2,70z"/>
	</g>
</g>
</svg>
