<?xml version="1.0" encoding="utf-8"?>
<!-- Generator: Adobe Illustrator 20.0.0, SVG Export Plug-In . SVG Version: 6.00 Build 0)  -->
<svg version="1.1" id="Layer_1" xmlns="http://www.w3.org/2000/svg" xmlns:xlink="http://www.w3.org/1999/xlink" x="0px" y="0px"
	 viewBox="0 0 125 125" style="enable-background:new 0 0 125 125;" xml:space="preserve">
<style type="text/css">
	.st0{fill:none;}
	.st1{fill:#003D7D;}
</style>
<g>
	<g>
		<rect x="45.1" y="62.7" class="st0" width="0.9" height="2.3"/>
		<rect x="45.1" y="50" class="st0" width="0.9" height="2.3"/>
		<rect x="45.1" y="58.7" class="st0" width="0.9" height="2.3"/>
		<rect x="45.1" y="54.5" class="st0" width="0.9" height="2.3"/>
		<path class="st0" d="M41.4,85.6l2,1.8v-6.5l-2.2,3.5c0.1,0.2,0.2,0.5,0.2,0.8C41.5,85.4,41.4,85.5,41.4,85.6z"/>
		<path class="st0" d="M114.9,80.3h3.2h0.2h3.2c0,0-1.5-4.5-2.5-8.8h-1.6C116.4,75.8,114.9,80.3,114.9,80.3z"/>
		<rect x="45.1" y="67.2" class="st0" width="0.9" height="2.3"/>
		<rect x="45.1" y="45.3" class="st0" width="0.9" height="2.3"/>
		<polygon class="st0" points="83.2,77.1 86.4,77.1 86.4,77.1 86.8,76.9 83.2,76.9 		"/>
		<polygon class="st0" points="78.2,77.1 78.2,77.1 81.4,77.1 81.4,76.9 77.8,76.9 		"/>
		<path class="st0" d="M50.4,85.2c0-0.4,0.2-0.8,0.4-1.1l-2.1-3.3v6.4l1.8-1.6C50.4,85.5,50.4,85.3,50.4,85.2z"/>
		<path class="st0" d="M38.3,86.2c-0.1-0.1-0.1-0.1-0.1-0.2c-0.1,0.2-0.1,0.4-0.2,0.7L38.3,86.2z"/>
		<path class="st1" d="M118.2,84c0.1,0,0.1,0,0.1,0c0.1,0,0.1,0,0.1,0v-3.7h-0.2V84z"/>
		<path class="st1" d="M117.4,71.5h1.6c-0.4-1.5-0.7-3.1-0.8-4.3C118.1,68.4,117.8,70,117.4,71.5z"/>
		<path class="st1" d="M116.3,71.5h1.1c0.4-1.5,0.7-3.1,0.8-4.3c-0.1-0.6-0.1-1.2-0.1-1.6v-0.3h-1.9L116.3,71.5L116.3,71.5z"/>
		<path class="st1" d="M118.3,67.2c0.2,1.3,0.4,2.8,0.8,4.3h1.5l-0.5-6.2h-1.7v0.3C118.4,66,118.3,66.6,118.3,67.2z"/>
		<path class="st1" d="M118.2,65.5c0,0.5,0.1,1,0.1,1.6c0.1-0.6,0.1-1.2,0.1-1.6v-0.3h-0.2V65.5z"/>
		<path class="st1" d="M38.2,86c-0.1-0.2-0.2-0.4-0.2-0.6c-3.6,0.2-6.1,4.2-6.1,4.2c-1.6-2.6-4.8-3.2-4.8-3.2l-0.8,3.9h9.5l2.2-3.6
			C38.1,86.5,38.1,86.2,38.2,86z"/>
		<path class="st1" d="M17.8,85.5c0,0,0.7-8.2-7.8-12.2c0,0,1.5,9.1-0.8,16.1h7.3l2.8,1h6.3c0.4-1.6,2-8.9,1.2-10.2
			C26.9,80.3,21,79.9,17.8,85.5z"/>
		<path class="st1" d="M8.2,89.4h0.4c0,0,1.9-5.5,1.2-8.6c0,0-3.5-4.8-9.6-0.6c0,0,1.9,1,2.6,4.2c0,0-0.4-0.3-1.1-0.6
			c0.5,1,1,2,1.6,3h0.7L8.2,89.4z"/>
		<path class="st1" d="M39.4,90.9h-2.1l-0.5,0.9h-1.8l0.5-0.9H25.3H19l-2.8-1H8.8H8H7.6l-4.2-2.5c0.9,1.5,1.8,3,2.7,4.4h33.9
			L39.4,90.9z"/>
		<polygon class="st1" points="55.6,91.8 57.4,91.8 55.8,89.4 54,89.4 		"/>
		<path class="st1" d="M39.7,87C39.7,87,39.7,87,39.7,87c0.3,0,0.5-0.1,0.7-0.2l3.1,2.7v2.3h5.2v-2.5l2.8-2.5
			c0.2,0.1,0.4,0.2,0.7,0.2c0.1,0,0.3,0,0.4-0.1l1.3,2v-0.3h1.6l-0.9-1.4c-0.3-0.1-0.5-0.1-0.8-0.1v-0.4c0,0,0.2,0,0.4,0l-0.5-0.8
			c0.1-0.2,0.2-0.5,0.2-0.8c0-1-0.8-1.7-1.7-1.7l-2.6-4.1c0.9-0.9,1.5-2.1,1.5-3.6c0-1.8-1-3.4-2.4-4.3V44.2l0,0
			c1.1-0.8,1.9-2.1,1.9-3.6c0-2.1-1.5-3.9-3.5-4.4v-2.7h0.4v-0.6H47v-4.8c0.4-0.3,0.7-0.8,0.7-1.4c0-0.6-0.3-1.1-0.9-1.5H47v-0.6
			h-0.5v-5.2H47v-0.4h-0.7V3.2h-0.5v16H45v0.4h0.5v5.2H45v0.6h0.2c-0.5,0.3-0.9,0.8-0.9,1.5c0,0.5,0.3,1,0.7,1.4v4.8h-0.4v0.6H45
			v2.7c-2,0.4-3.5,2.2-3.5,4.4c0,1.5,0.8,2.8,1.9,3.6l0,0v27.3C42,72.4,41,74,41,75.8c0,1.4,0.6,2.7,1.5,3.6l-2.6,4.1
			c-0.1,0-0.2-0.1-0.3-0.1c-1,0-1.7,0.8-1.7,1.7c0,0.1,0,0.2,0,0.2c0.1,0,0.3,0,0.4,0c0,0-0.1,0.3-0.2,0.7c0.1,0.1,0.1,0.2,0.1,0.2
			l-0.3,0.5c-0.3,1.3-0.7,3-0.7,3.6h-1.6L35.3,91h1.8L39.7,87z M53.9,87.8c0.2,0.1,0.3,0.1,0.5,0.1v0.4h-0.5V87.8z M48.6,80.8
			l2.1,3.3c-0.2,0.3-0.4,0.7-0.4,1.1c0,0.2,0,0.3,0.1,0.4l-1.8,1.6V80.8z M45.1,45.3h0.9v2.3h-0.9V45.3z M45.1,50h0.9v2.3h-0.9V50z
			 M45.1,54.5h0.9v2.3h-0.9V54.5z M45.1,58.7h0.9V61h-0.9V58.7z M45.1,62.7h0.9V65h-0.9V62.7z M45.1,67.2h0.9v2.3h-0.9V67.2z
			 M43.4,80.9v6.5l-2-1.8c0.1-0.2,0.1-0.3,0.1-0.4c0-0.3-0.1-0.5-0.2-0.8L43.4,80.9z"/>
		<path class="st1" d="M38,86.7l-2.2,3.6h1.6C37.3,89.8,37.6,88.1,38,86.7z"/>
		<path class="st1" d="M38.4,85.4c-0.1,0-0.3,0-0.4,0c0.1,0.2,0.1,0.4,0.2,0.6C38.3,85.6,38.4,85.4,38.4,85.4z"/>
		<polygon class="st1" points="36.7,91.8 37.2,90.9 35.4,90.9 34.9,91.8 		"/>
		<polygon class="st1" points="95.5,88.4 95.1,88.4 93.3,88.4 93.1,88.4 91.9,88.4 90.9,88.4 90.9,92.3 97.6,92.3 97.6,88.4 
			96.6,88.4 		"/>
		<rect x="91.9" y="75.9" class="st1" width="1.1" height="2.7"/>
		<rect x="95.5" y="75.9" class="st1" width="1.1" height="2.7"/>
		<rect x="93.3" y="75.9" class="st1" width="1.8" height="2.7"/>
		<rect x="91.9" y="79.3" class="st1" width="1.1" height="9.1"/>
		<rect x="95.5" y="79.3" class="st1" width="1.1" height="9.1"/>
		<rect x="93.3" y="79.3" class="st1" width="1.8" height="9.1"/>
		<polygon class="st1" points="94.3,70 93.3,75.5 95.1,75.5 		"/>
		<polygon class="st1" points="93.1,75.5 92.6,73.2 92.7,73 92.5,73 92.3,73 92.4,73.2 91.9,75.5 		"/>
		<polygon class="st1" points="96.6,75.5 96.2,73.2 96.3,73 96.1,73 95.8,73 96,73.2 95.5,75.5 		"/>
		<polygon class="st1" points="71.5,88.4 71.2,88.4 69.4,88.4 69.1,88.4 68,88.4 66.9,88.4 66.9,92.3 73.7,92.3 73.7,88.4 
			72.7,88.4 		"/>
		<rect x="68" y="75.9" class="st1" width="1.1" height="2.7"/>
		<rect x="71.5" y="75.9" class="st1" width="1.1" height="2.7"/>
		<rect x="69.4" y="75.9" class="st1" width="1.8" height="2.7"/>
		<rect x="68" y="79.3" class="st1" width="1.1" height="9.1"/>
		<rect x="71.5" y="79.3" class="st1" width="1.1" height="9.1"/>
		<rect x="69.4" y="79.3" class="st1" width="1.8" height="9.1"/>
		<polygon class="st1" points="70.3,70 69.4,75.5 71.2,75.5 		"/>
		<polygon class="st1" points="69.1,75.5 68.7,73.2 68.7,73 68.5,73 68.3,73 68.4,73.2 68,75.5 		"/>
		<polygon class="st1" points="72.7,75.5 72.2,73.2 72.3,73 72.1,73 71.9,73 72,73.2 71.5,75.5 		"/>
		<path class="st1" d="M90.9,77.1h-3.7l0,0l-0.4-0.2h4v-0.4h-7.8l0,0l-0.3-0.2l-0.1,0.1l-0.4-0.4l-0.4,0.4l-0.1-0.1l-0.3,0.2v0.1
			h-7.8v0.4h4.1l-0.4,0.2l0,0h-3.7v1.5h17.3L90.9,77.1L90.9,77.1z M81.4,77.1h-3.2l0,0l-0.4-0.2h3.6L81.4,77.1L81.4,77.1z
			 M86.4,77.1L86.4,77.1h-3.2v-0.2h3.6L86.4,77.1z"/>
		<polygon class="st1" points="66.4,89.4 66.4,88.5 55.4,88.5 55.8,89.4 		"/>
		<polygon class="st1" points="53.7,89.4 54,89.4 53.7,88.9 		"/>
		<polygon class="st1" points="53.7,88.9 54,89.4 55.8,89.4 55.4,88.5 53.7,88.5 		"/>
		<path class="st1" d="M67.5,79.4v-0.5c-5.7,7.2-11.7,7.8-13.3,7.8l0.3,0.5C63.3,88.4,67.5,79.4,67.5,79.4z"/>
		<path class="st1" d="M53.7,86.7v0.4c0.3,0.1,0.5,0.1,0.8,0.1l-0.3-0.5C53.9,86.7,53.7,86.7,53.7,86.7z"/>
		<path class="st1" d="M65.7,88.3h0.5V82c-0.2,0.2-0.3,0.4-0.5,0.7V88.3z"/>
		<path class="st1" d="M63.3,88.3h0.5v-3.6c-0.2,0.2-0.3,0.3-0.5,0.4V88.3z"/>
		<path class="st1" d="M61,88.3h0.5v-1.8c-0.2,0.1-0.3,0.2-0.5,0.3V88.3z"/>
		<path class="st1" d="M58.6,88.3h0.5v-0.8c-0.2,0.1-0.3,0.1-0.5,0.2V88.3z"/>
		<path class="st1" d="M54.4,87.8c-0.2,0-0.3-0.1-0.5-0.1v0.5h0.5V87.8z"/>
		<rect x="56.2" y="88" class="st1" width="0.5" height="0.3"/>
		<polygon class="st1" points="98.1,88.5 98.1,89.4 106.7,89.4 107.2,88.5 		"/>
		<polygon class="st1" points="110.8,88.5 107.2,88.5 106.7,89.4 110.8,89.4 		"/>
		<path class="st1" d="M97.1,78.9v0.5c0,0,3.4,7.5,10.8,7.9l0.5-0.8C105.7,85.9,101.4,84.2,97.1,78.9z"/>
		<path class="st1" d="M110.8,87.1v-0.4c0,0-0.9,0.1-2.5-0.2l-0.5,0.8C108.8,87.3,109.8,87.3,110.8,87.1z"/>
		<path class="st1" d="M98.9,82.8c-0.2-0.2-0.4-0.5-0.5-0.7v6.2h0.5V82.8z"/>
		<path class="st1" d="M101.2,85.2c-0.2-0.2-0.3-0.3-0.5-0.4v3.6h0.5V85.2z"/>
		<path class="st1" d="M103.6,86.7c-0.2-0.1-0.3-0.2-0.5-0.3v1.8h0.5V86.7z"/>
		<path class="st1" d="M105.9,87.6c-0.2-0.1-0.3-0.1-0.5-0.2v0.8h0.5V87.6z"/>
		<path class="st1" d="M110.1,88.3h0.5v-0.5c-0.2,0.1-0.3,0.1-0.5,0.1V88.3z"/>
		<rect x="107.8" y="88" class="st1" width="0.5" height="0.3"/>
		<path class="st1" d="M82.2,88.5h-8v1.5c0,0,5.4-0.8,8.1-0.8c0,0,0,0-0.1,0V88.5z"/>
		<path class="st1" d="M82.3,89.3L82.3,89.3c2.7,0,8,0.8,8,0.8v-1.5h-8V89.3z"/>
		<path class="st1" d="M82.3,88.5L82.3,88.5l-0.1,0.8c0,0,0,0,0.1,0c0,0,0,0,0.1,0L82.3,88.5L82.3,88.5z"/>
		<path class="st1" d="M124.2,80.3c-4.1-9.1-3.4-12.6-3.4-12.6l0.6-0.5v-1h-1.1c-0.5-0.9-1.4-26.3-1.4-26.3l0.4-0.7v-0.6h-1.1V35
			h-0.1h-0.2h-0.1v3.6h-1.1v0.6l0.4,0.7c0,0-0.9,25.5-1.4,26.3h-1.1v1l0.6,0.5c0,0,0.7,3.5-3.4,12.6h-1.1v1l0.4,0.4l-2.7,4.7
			c1.5,0.3,2.5,0.2,2.5,0.2V87c-1,0.2-2,0.3-2.9,0.2l-0.7,1.3h3.6v0.8h-4.1l-1.4,2.4h4.9l2-4.6c0,0,1.7-3,5.7-3.2
			c2.1,0.1,3.6,1,4.5,1.8c0.9-1.7,1.7-3.5,2.6-5.4H124.2z M108.4,88.3h-0.5V88h0.5V88.3z M110.7,88.3h-0.5v-0.4
			c0.2,0,0.3-0.1,0.5-0.1V88.3z M118.2,80.3h-0.3h-2.9c0,0,1.5-4.5,2.5-8.8h-1.1v-6.2h0.6v3.9h2.4v-3.9h0.3l0.5,6.2h-1.5
			c1,4.3,2.5,8.8,2.5,8.8H118.2z"/>
	</g>
	<g>
		<path class="st1" d="M119.4,91.8H6.2c12.3,18.1,33.1,30.1,56.6,30.1S107.1,109.9,119.4,91.8z"/>
	</g>
</g>
</svg>
