<?xml version="1.0" encoding="utf-8"?>
<!-- Generator: Adobe Illustrator 20.0.0, SVG Export Plug-In . SVG Version: 6.00 Build 0)  -->
<svg version="1.1" id="Layer_1" xmlns="http://www.w3.org/2000/svg" xmlns:xlink="http://www.w3.org/1999/xlink" x="0px" y="0px"
	 viewBox="0 0 125 125" style="enable-background:new 0 0 125 125;" xml:space="preserve">
<style type="text/css">
	.st0{fill:#003D7D;}
	.st1{fill:#F5F5F5;}
</style>
<g>
	<g>
		<ellipse class="st0" cx="65.2" cy="73.7" rx="47.2" ry="38.7"/>
		<path class="st0" d="M99.3,110.6c1.5,3.9-0.5,8.3-4.4,9.8l-6.4,2.4c-3.9,1.5-8.3-0.5-9.8-4.4L59.7,68.2c-1.5-3.9,0.5-8.3,4.4-9.8
			l6.4-2.4c3.9-1.5,8.3,0.5,9.8,4.4L99.3,110.6z"/>
		<path class="st0" d="M52.3,119c-1.3,4-5.6,6.2-9.6,4.9l-6.5-2.1c-4-1.3-6.2-5.6-4.9-9.6l16.4-51c1.3-4,5.6-6.2,9.6-4.9l6.5,2.1
			c4,1.3,6.2,5.6,4.9,9.6L52.3,119z"/>
		<path class="st1" d="M49.3,43.3l2.1,5.4c0,0,12.9-5.4,27.3,0l3.3-5.4C82.2,43.3,66.1,37.4,49.3,43.3z"/>
		<circle class="st0" cx="65.2" cy="15.6" r="14.8"/>
		<path class="st0" d="M21.7,58.9c0,0-2.2,2.7-4.8,3.2c0,0-2.2,0.7-3.4,0.3c0,0-6.3-1.4-10.8-1.2c0,0-5.4,13-0.7,24.9
			c0,0,6.9,14.1,43.8,22.6L21.7,58.9z"/>
		<path class="st0" d="M31.5,47.8c0,0-3.1-12.8-4.5-14.6c0,0,11.3-1,16.5,7.1L31.5,47.8z"/>
	</g>
	<circle class="st1" cx="31.4" cy="58.5" r="5.2"/>
	<path class="st0" d="M107.4,56.6l2.9,7.1c0,0,9.4-6.2,9.7-11.3c0,0,6.5-2.5,4.5-9.4c0,0-1.8,3.8-5.6,4.2c0,0-2.9-6.5-9.4-6
		c-6.5,0.5-8.9,13,2.9,11.6c0,0,2.3-2.2,0.7-4.5c0,0-3.6,1-3.9-1c0,0-0.2-2.1,3.1-1.3c1.2,0.3,3,1.1,3.4,3.7
		C115.6,49.6,116.4,54.2,107.4,56.6z"/>
</g>
</svg>
