<?xml version="1.0" encoding="utf-8"?>
<!-- Generator: Adobe Illustrator 20.0.0, SVG Export Plug-In . SVG Version: 6.00 Build 0)  -->
<svg version="1.1" id="Layer_1" xmlns="http://www.w3.org/2000/svg" xmlns:xlink="http://www.w3.org/1999/xlink" x="0px" y="0px"
	 viewBox="0 0 125 125" style="enable-background:new 0 0 125 125;" xml:space="preserve">
<style type="text/css">
	.st0{fill:#328DCC;}
	.st1{fill:#1E407B;}
	.st2{fill:#9AC6EA;}
</style>
<g>
	<path class="st0" d="M0.6,79.9c1.6-1.3,2.9-2,4.1-2s2.2,0.3,3.2,1c0.9,0.6,1.8,1.6,2.6,3c1.1,0.4,1.9,0.7,2.6,1.1
		c0.1-1.3,0.3-2.4,0.5-3L9.9,66c-0.3-1.2-0.4-2.3-0.4-3.2c0-0.9,0.2-1.6,0.6-2c0.4-0.4,1.1-0.6,2-0.6c1.5,0,2.8,1.6,3.9,4.7
		l4.1,14.1l-0.8-17.2c0-3.4,1-5.1,3.2-5.1c1.1,0,1.9,0.4,2.4,1.1c0.5,0.7,0.8,1.9,0.8,3.4l-0.5,18l4-16.2c0.7-2.4,1.9-3.7,3.5-3.7
		c0.9,0,1.6,0.2,2.1,0.8c0.4,0.5,0.7,1.3,0.7,2.4c0,0.5-0.2,1.5-0.6,3l-4.2,15.1L37,69c1.1-1.8,2.1-2.6,3.2-2.6
		c0.7,0,1.3,0.2,1.8,0.8c0.5,0.5,0.7,1.2,0.7,1.9c0,0.8-0.4,2-1.2,3.4L36,82.1l0.3,3.5c-0.6,4.3-1.6,7.8-3.1,10.6l-2.5,2.9v13.6
		c-2.1,1-4.3,1.5-6.6,1.5c-2.2,0-4.5-0.5-7-1.5V98.2c-1.6-1.1-3.5-2.7-5.6-4.6l-5.3-7.1L0,80.4L0.6,79.9z"/>
	<path class="st1" d="M22.5,54.2c3-2.5,5.5-3.8,7.6-3.8c2.1,0,4.1,0.6,5.9,1.8c1.8,1.2,3.4,3.1,4.9,5.5c2,0.7,3.6,1.4,4.8,2
		c0.2-2.5,0.5-4.4,0.9-5.7l-6.7-26c-0.6-2.3-0.8-4.3-0.8-6.1c0-1.7,0.4-2.9,1.2-3.8c0.8-0.8,2-1.2,3.7-1.2c2.9,0,5.3,2.9,7.3,8.8
		l7.7,26.3l-1.5-32c0-6.3,2-9.5,6-9.5c2,0,3.5,0.7,4.5,2.1c1,1.4,1.5,3.5,1.5,6.3l-0.9,33.5l7.4-30.3c1.3-4.6,3.5-6.9,6.5-6.9
		c1.7,0,3.1,0.5,3.9,1.5c0.9,1,1.3,2.5,1.3,4.5c0,1-0.3,2.9-1.1,5.6l-7.8,28.3l11.4-21.5c2-3.3,4-4.9,6-4.9c1.3,0,2.5,0.5,3.5,1.5
		s1.4,2.2,1.4,3.6c0,1.6-0.8,3.8-2.3,6.5L88.7,58.4l0.6,6.5c-1.1,8.1-3,14.7-5.7,19.8L78.9,90v21.5c-3.9,1.8-8,2.8-12.3,2.8
		c-4.1,0-8.4-0.9-13-2.8V88.2C50.5,86,47,83.1,43,79.5l-9.9-13.3L21.4,55.1L22.5,54.2z"/>
	<path class="st2" d="M92,77.3c1.2-1,2.3-1.6,3.2-1.6c0.9,0,1.7,0.2,2.5,0.7c0.7,0.5,1.4,1.3,2,2.3c0.8,0.3,1.5,0.6,2,0.8
		c0.1-1,0.2-1.8,0.4-2.3l-2.8-10.8c-0.2-0.9-0.3-1.8-0.3-2.5c0-0.7,0.1-1.2,0.5-1.6s0.8-0.5,1.5-0.5c1.2,0,2.2,1.2,3,3.7l3.2,11
		L106.7,63c0-2.6,0.8-3.9,2.5-3.9c0.8,0,1.4,0.3,1.9,0.9c0.4,0.6,0.6,1.4,0.6,2.6l-0.4,14l3.1-12.6c0.5-1.9,1.4-2.9,2.7-2.9
		c0.7,0,1.3,0.2,1.6,0.6c0.3,0.4,0.5,1,0.5,1.9c0,0.4-0.1,1.2-0.4,2.3l-3.3,11.7l4.8-9c0.8-1.4,1.7-2,2.5-2c0.5,0,1,0.2,1.4,0.6
		c0.4,0.4,0.6,0.9,0.6,1.5c0,0.7-0.3,1.6-0.9,2.7l-4.3,7.4l0.2,2.7c-0.4,3.3-1.2,6.1-2.4,8.2l-1.9,2.2v20c-1.6,0.8-3.3,1.1-5.1,1.1
		c-1.7,0-3.5-0.4-5.4-1.1V91.3c-1.3-0.9-2.7-2.1-4.4-3.6l-4.1-5.5l-4.8-4.6L92,77.3z"/>
</g>
</svg>
