<?xml version="1.0" encoding="utf-8"?>
<!-- Generator: Adobe Illustrator 15.1.0, SVG Export Plug-In . SVG Version: 6.00 Build 0)  -->
<!DOCTYPE svg PUBLIC "-//W3C//DTD SVG 1.1//EN" "http://www.w3.org/Graphics/SVG/1.1/DTD/svg11.dtd">
<svg version="1.1" id="Layer_1" xmlns="http://www.w3.org/2000/svg" xmlns:xlink="http://www.w3.org/1999/xlink" x="0px" y="0px"
	 width="125px" height="125px" viewBox="0 0 125 125" enable-background="new 0 0 125 125" xml:space="preserve">
<g>
	<path fill="#333333" d="M55.966,56.086c0,0,1.231-2.542-0.539-4.538l-4.62-4.797c0,0-0.618,2.653,0.476,4.681L55.966,56.086z"/>
	<path fill="#333333" d="M56.407,51.156c0,0,1.231-2.542-0.539-4.538l-4.62-4.797c0,0-0.618,2.653,0.476,4.681L56.407,51.156z"/>
	<path fill="#333333" d="M56.875,45.923c0,0,1.231-2.542-0.539-4.537l-4.621-4.797c0,0-0.618,2.653,0.476,4.681L56.875,45.923z"/>
	<path fill="#333333" d="M57.316,40.993c0,0,1.231-2.542-0.539-4.538l-4.621-4.797c0,0-0.618,2.653,0.476,4.681L57.316,40.993z"/>
	<path fill="#333333" d="M57.789,35.71c0,0,1.231-2.542-0.539-4.537l-4.62-4.797c0,0-0.618,2.653,0.476,4.681L57.789,35.71z"/>
	<path fill="#333333" d="M58.229,30.779c0,0,1.231-2.542-0.539-4.538l-4.62-4.797c0,0-0.618,2.653,0.476,4.681L58.229,30.779z"/>
	<path fill="#333333" d="M58.697,25.546c0,0,1.231-2.542-0.539-4.537l-4.62-4.797c0,0-0.618,2.653,0.476,4.681L58.697,25.546z"/>
	<path fill="#333333" d="M59.139,20.616c0,0,1.231-2.542-0.539-4.537l-4.62-4.797c0,0-0.618,2.653,0.476,4.681L59.139,20.616z"/>
	<path fill="#333333" d="M56.965,56.175l5.435-3.748c1.436-1.802,1.299-4.522,1.299-4.522l-5.398,3.901
		C56.205,53.455,56.965,56.175,56.965,56.175z"/>
	<path fill="#333333" d="M64.141,42.975l-5.398,3.901c-2.096,1.649-1.335,4.37-1.335,4.37l5.435-3.748
		C64.277,45.695,64.141,42.975,64.141,42.975z"/>
	<path fill="#333333" d="M64.607,37.742l-5.397,3.901c-2.096,1.649-1.336,4.37-1.336,4.37l5.435-3.748
		C64.745,40.463,64.607,37.742,64.607,37.742z"/>
	<path fill="#333333" d="M65.049,32.812l-5.397,3.901c-2.097,1.649-1.336,4.369-1.336,4.369l5.435-3.748
		C65.188,35.532,65.049,32.812,65.049,32.812z"/>
	<path fill="#333333" d="M65.521,27.529l-5.398,3.901c-2.096,1.649-1.336,4.369-1.336,4.369l5.436-3.748
		C65.658,30.25,65.521,27.529,65.521,27.529z"/>
	<path fill="#333333" d="M65.963,22.598l-5.398,3.901c-2.096,1.649-1.336,4.37-1.336,4.37l5.435-3.748
		C66.1,25.319,65.963,22.598,65.963,22.598z"/>
	<path fill="#333333" d="M66.432,17.366l-5.398,3.901c-2.096,1.649-1.336,4.369-1.336,4.369l5.436-3.748
		C66.566,20.086,66.432,17.366,66.432,17.366z"/>
	<path fill="#333333" d="M60.138,20.705l5.435-3.748c1.437-1.802,1.299-4.523,1.299-4.523l-5.397,3.901
		C59.377,17.985,60.138,20.705,60.138,20.705z"/>
	<path fill="#333333" d="M59.939,16.633c0,0,0.631-1.436,1.37-1.756l2.107-1.873c0,0,0.348-8.472-1.996-12.933
		c-3.098,3.974-4.26,12.373-4.26,12.373l1.742,2.217C59.572,15.108,59.939,16.633,59.939,16.633z"/>
	<path fill="#333333" d="M71.279,70.936c0,0,1.404-1.762,0.375-3.623L68.9,62.772c0,0-0.945,1.957-0.449,3.725L71.279,70.936z"/>
	<path fill="#333333" d="M72.486,67.178c0,0,1.402-1.763,0.375-3.623l-2.756-4.541c0,0-0.944,1.956-0.449,3.725L72.486,67.178z"/>
	<path fill="#333333" d="M73.766,63.188c0,0,1.402-1.762,0.375-3.624l-2.754-4.54c0,0-0.945,1.956-0.451,3.725L73.766,63.188z"/>
	<path fill="#333333" d="M74.973,59.43c0,0,1.401-1.762,0.373-3.624l-2.755-4.54c0,0-0.944,1.956-0.448,3.725L74.973,59.43z"/>
	<path fill="#333333" d="M76.264,55.403c0,0,1.402-1.762,0.373-3.624l-2.755-4.54c0,0-0.944,1.956-0.448,3.725L76.264,55.403z"/>
	<path fill="#333333" d="M77.469,51.645c0,0,1.402-1.763,0.374-3.625l-2.755-4.54c0,0-0.945,1.956-0.449,3.725L77.469,51.645z"/>
	<path fill="#333333" d="M78.747,47.656c0,0,1.403-1.763,0.375-3.624l-2.755-4.54c0,0-0.945,1.956-0.449,3.725L78.747,47.656z"/>
	<path fill="#333333" d="M79.953,43.897c0,0,1.402-1.762,0.375-3.624l-2.756-4.541c0,0-0.944,1.957-0.448,3.725L79.953,43.897z"/>
	<path fill="#333333" d="M72.042,71.18l4.884-1.965c1.434-1.15,1.803-3.29,1.803-3.29l-4.883,2.091
		C71.927,68.932,72.042,71.18,72.042,71.18z"/>
	<path fill="#333333" d="M73.248,67.422l4.883-1.965c1.434-1.15,1.803-3.292,1.803-3.292l-4.882,2.09
		C73.132,65.172,73.248,67.422,73.248,67.422z"/>
	<path fill="#333333" d="M74.527,63.434l4.883-1.966c1.433-1.15,1.803-3.291,1.803-3.291l-4.882,2.09
		C74.411,61.184,74.527,63.434,74.527,63.434z"/>
	<path fill="#333333" d="M75.732,59.674l4.884-1.965c1.433-1.15,1.802-3.291,1.802-3.291l-4.881,2.091
		C75.617,57.425,75.732,59.674,75.732,59.674z"/>
	<path fill="#333333" d="M77.023,55.647l4.885-1.965c1.433-1.15,1.802-3.291,1.802-3.291l-4.882,2.09
		C76.909,53.398,77.023,55.647,77.023,55.647z"/>
	<path fill="#333333" d="M78.229,51.889l4.885-1.965c1.433-1.15,1.802-3.291,1.802-3.291l-4.882,2.09
		C78.113,49.64,78.229,51.889,78.229,51.889z"/>
	<path fill="#333333" d="M79.509,47.9l4.886-1.965c1.432-1.15,1.801-3.291,1.801-3.291l-4.883,2.09
		C79.395,45.651,79.509,47.9,79.509,47.9z"/>
	<path fill="#333333" d="M80.715,44.142l4.885-1.965c1.433-1.15,1.801-3.291,1.801-3.291l-4.881,2.09
		C80.6,41.892,80.715,44.142,80.715,44.142z"/>
	<path fill="#333333" d="M81.271,40.939c0,0,0.742-1.006,1.373-1.126l1.969-1.088c0,0,1.752-6.529,0.709-10.409
		c-3.105,2.549-5.479,8.88-5.479,8.88l0.968,2.029C81.254,39.688,81.271,40.939,81.271,40.939z"/>
	<path fill="#333333" d="M63.662,112.021c2.475-21.19,6.744-33.789,7.957-37.055l3.708-1.49c1.474-1.186,1.854-3.389,1.854-3.389
		l-5.024,2.151c-0.517,0.245-0.888,0.587-1.158,0.954c-0.005-0.457-0.108-0.949-0.386-1.449l-2.836-4.674
		c0,0-0.973,2.014-0.463,3.834l2.308,3.619c-0.692,2.043-1.343,4.176-1.951,6.363c-2.872,3.94-7.42,12.247-9.752,27.275
		c-2.759-26.438-1.011-42.923-0.429-47.237l4.127-2.846c1.479-1.854,1.336-4.655,1.336-4.655l-5.556,4.015
		c-0.563,0.444-0.925,0.962-1.154,1.486c-0.132-0.556-0.396-1.131-0.872-1.667l-4.756-4.938c0,0-0.636,2.731,0.49,4.818l3.818,3.793
		c-1.338,12.68-0.981,27.555-0.228,39.731c-5.902-35.418-15.979-46.085-15.979-46.085C52.251,79.988,54.8,125.072,54.8,125.072
		h7.289v-0.067l0.229,0.041c0,0,0.015-0.088,0.045-0.249l0.128,0.028c0.024-0.367,0.053-0.722,0.079-1.084
		c1.022-5.022,5.307-23.462,14.929-33.589C77.498,90.152,69.657,94.604,63.662,112.021z M60.163,122.833h-0.368
		c-0.173-1.149-0.34-2.288-0.497-3.41c0.413-7.673,1.929-22.87,7.454-35.087C62.705,100.257,60.689,117.787,60.163,122.833z"/>
</g>
</svg>
