<?xml version="1.0" encoding="utf-8"?>
<!-- Generator: Adobe Illustrator 15.1.0, SVG Export Plug-In . SVG Version: 6.00 Build 0)  -->
<!DOCTYPE svg PUBLIC "-//W3C//DTD SVG 1.1//EN" "http://www.w3.org/Graphics/SVG/1.1/DTD/svg11.dtd">
<svg version="1.1" id="Layer_1" xmlns="http://www.w3.org/2000/svg" xmlns:xlink="http://www.w3.org/1999/xlink" x="0px" y="0px"
	 width="125px" height="125px" viewBox="0 0 125 125" enable-background="new 0 0 125 125" xml:space="preserve">
<path fill="none" d="M0,125h125V94.994c-8.223,0.271-67.044,2.283-125,6.306V125z"/>
<path fill="none" d="M28.036,54.087l1.284-3.034l0.214-4.028l1.07-0.642l-0.214-2.14l1.069-2.14c1.499-1.284,3.21,0,3.21,0
	l1.07,3.638l2.354,1.712l0.855,5.35l1.285,1.712l0.428-1.712l2.354,2.568l0.826,3.923h2.678l0.916-6.706l1.284,0.214l0.108-0.469
	l0.535-2.313l1.07-0.856l1.284-2.354l0.642-5.137L54.5,36.11l1.282-0.855l1.285-5.136c1.713-2.782,8.132-6.206,8.132-6.206
	c1.713-1.926,6.422-5.564,6.422-5.564c4.707-3.425,6.847,1.925,6.847,1.925l7.492,4.281l5.134,4.494l4.067,4.708l3.637,1.926
	l2.997,3.852l-0.215,2.354l1.072,3.424l0.854,4.708l0.645,1.498l1.711,1.284l1.498-2.782h1.713l1.496,1.926l1.5,2.354l4.279-0.642
	l0.854-1.711l1.497,1.284h2.354l3.854,2.354L125,55.987V0H0v59.294h27.349L28.036,54.087z M1,59.29l1.391-1.034h3.632l0.428-3.104
	c0,0,0.863-0.855,1.291,0c0,0,0.856,0.321,1.071,0.749l0.535,1.13v1.867l0.856,0.393L1,59.29L1,59.29z M13.341,57.414l0.994-1.049
	l0.883,0.497v-1.066H16.1v-2.354h1.436v2.354h0.772l0.332,1.177h1.765l0.442,1.104l1.325,1.214H12.9L13.341,57.414z"/>
<path fill="none" d="M125,75.143v-9.438c-7.777,1.025-15.539,2.211-22.993,3.579C102.007,69.282,109.43,72.477,125,75.143z"/>
<path fill="#333333" d="M121.055,53.231H118.7l-1.497-1.284l-0.855,1.711l-4.279,0.642l-1.5-2.354l-1.495-1.926h-1.714l-1.498,2.782
	l-1.711-1.284l-0.644-1.498l-0.854-4.708l-1.071-3.424l0.215-2.354l-2.997-3.852l-3.637-1.926l-4.066-4.708l-5.135-4.494
	l-7.492-4.281c0,0-2.14-5.35-6.847-1.925c0,0-4.709,3.638-6.422,5.564c0,0-6.419,3.424-8.132,6.206l-1.285,5.136L54.5,36.11
	l-2.141,5.564l-0.642,5.137l-1.284,2.354l-1.07,0.856l-0.535,2.313l-0.108,0.469l-1.284-0.214l-0.916,6.706H125v-3.307l-0.093-0.402
	L121.055,53.231z"/>
<path fill="#333333" d="M43.016,55.371l-2.354-2.568l-0.428,1.712l-1.285-1.712l-0.855-5.35l-2.354-1.712l-1.07-3.638
	c0,0-1.712-1.284-3.21,0l-1.069,2.14l0.214,2.14l-1.07,0.642l-0.214,4.028l-1.284,3.034l-0.687,5.208h16.493L43.016,55.371z"/>
<path fill="#333333" d="M9.347,57.03L8.812,55.9c-0.214-0.427-1.071-0.749-1.071-0.749c-0.428-0.855-1.291,0-1.291,0l-0.428,3.104
	H2.391L1,59.29h9.203l-0.856-0.393V57.03z"/>
<polygon fill="#333333" points="20.846,58.076 20.404,56.972 18.639,56.972 18.308,55.795 17.536,55.795 17.536,53.441 16.1,53.441 
	16.1,55.795 15.218,55.795 15.218,56.861 14.335,56.365 13.341,57.414 12.9,59.29 22.171,59.29 "/>
<path fill="#8E8E8E" d="M114.844,83.766C95.675,82.997,47.431,86.639,0,90.893V101.3c57.956-4.022,116.777-6.034,125-6.306V83.823
	C119.111,83.811,114.844,83.766,114.844,83.766z"/>
<path fill="#8E8E8E" d="M102.859,66.072c-97.018,2.568-3.137,11.414-3.137,11.414c9.827,0.586,18.194,1.119,25.275,1.603v-3.946
	c-15.571-2.666-22.993-5.858-22.993-5.858c7.454-1.368,15.216-2.554,22.993-3.579v-3.04
	C108.596,64.27,102.859,66.072,102.859,66.072z"/>
<path fill="#8E8E8E" d="M46.52,59.294h-2.678H27.349H0v2.794c30.793-0.984,78.475-0.153,78.475-0.153
	C27.76,62.147,7.011,63.893,0,65.846v3.983c2.908,1.069,6.851,1.808,6.851,1.808C4.633,71.479,2.343,71.341,0,71.225v8.52
	c32.308-0.503,58.917-0.401,58.917-0.401c-97.302-11.556,38.81-15.266,38.81-15.266C95.266,62.679,109.461,61.819,125,61.3v-0.726
	v-1.28H46.52z"/>
<path fill="#F5F5F5" d="M102.859,66.072c0,0,5.736-1.803,22.141-3.409V61.3c-15.539,0.519-29.734,1.378-27.273,2.775
	c0,0-136.11,3.71-38.81,15.266c0,0-26.609-0.102-58.917,0.401v11.148c47.431-4.255,95.675-7.896,114.844-7.127
	c0,0,4.27,0.045,10.156,0.06v-4.734c-7.081-0.483-15.448-1.017-25.277-1.603C99.723,77.486,5.843,68.641,102.859,66.072z"/>
<path fill="#F5F5F5" d="M78.475,61.936c0,0-47.681-0.831-78.475,0.153v3.757C7.011,63.893,27.76,62.147,78.475,61.936z"/>
<path fill="#F5F5F5" d="M0,69.829v1.396c2.343,0.116,4.633,0.254,6.851,0.412C6.851,71.637,2.908,70.898,0,69.829z"/>
<linearGradient id="SVGID_1_" gradientUnits="userSpaceOnUse" x1="549.5" y1="692.9775" x2="549.5" y2="729.4792" gradientTransform="matrix(1 0 0 1 -487 -667)">
	<stop  offset="0" style="stop-color:#FFFFFF;stop-opacity:0"/>
	<stop  offset="0.9387" style="stop-color:#FFFFFF"/>
</linearGradient>
<rect y="16.25" fill="url(#SVGID_1_)" width="125" height="43.04"/>
<path fill="#333333" d="M34.021,8.122c0,0,2.983-5.172,8.204-3.479c0,0-6.464-2.983-8.204,0.483c0,0-4.847-3.84-7.954,0.387
	C26.067,5.513,29.919,1.908,34.021,8.122z"/>
<path fill="#333333" d="M9.663,24.835c0,0,1.082-3.583,4.51-3.299c0,0-4.373-0.895-4.938,1.47c0,0-3.507-1.651-4.799,1.374
	C4.436,24.38,6.272,21.629,9.663,24.835z"/>
<path fill="#333333" d="M46.864,25.481c0,0,5.557-8.091,13.893-4.647c0,0-10.207-5.722-13.504-0.262c0,0-7.448-6.92-13.085-0.398
	C34.167,20.173,40.946,14.766,46.864,25.481z"/>
</svg>
