<?xml version="1.0" encoding="utf-8"?>
<!-- Generator: Adobe Illustrator 20.0.0, SVG Export Plug-In . SVG Version: 6.00 Build 0)  -->
<svg version="1.1" id="Layer_1" xmlns="http://www.w3.org/2000/svg" xmlns:xlink="http://www.w3.org/1999/xlink" x="0px" y="0px"
	 viewBox="0 0 125 125" style="enable-background:new 0 0 125 125;" xml:space="preserve">
<style type="text/css">
	.st0{fill:#328DCC;}
	.st1{fill:#1E407B;}
	.st2{fill:none;}
	.st3{enable-background:new    ;}
	.st4{fill:#F4F5F5;}
</style>
<g>
	<g>
		<circle class="st0" cx="20.5" cy="64.2" r="3.9"/>
		<path class="st0" d="M28.3,70.3c0-0.9-0.7-1.5-1.6-1.5h-3.9h-4.6h-3.9c-0.9,0-1.6,0.7-1.6,1.6v0.4v0.4v5.5c0,1.1,0.9,2,2,2
			s2-0.9,2-2v10.1c0,0.9,0.7,1.6,1.6,1.6h4.7c0.9,0,1.6-0.7,1.6-1.6V76.7c0,1.1,0.9,2,2,2c1.1,0,2-0.9,2-2v-5.9
			C28.3,70.6,28.3,70.5,28.3,70.3z"/>
	</g>
	<g>
		<circle class="st0" cx="39.8" cy="64.2" r="3.9"/>
		<path class="st0" d="M47.6,70.3c0-0.9-0.7-1.5-1.6-1.5h-3.9h-4.6h-3.9c-0.9,0-1.6,0.7-1.6,1.6v0.4v0.4v5.5c0,1.1,0.9,2,2,2
			s2-0.9,2-2v10.1c0,0.9,0.7,1.6,1.6,1.6h4.7c0.9,0,1.6-0.7,1.6-1.6V76.7c0,1.1,0.9,2,2,2s2-0.9,2-2v-5.9
			C47.7,70.6,47.7,70.5,47.6,70.3z"/>
	</g>
	<g>
		<circle class="st0" cx="59.2" cy="64.2" r="3.9"/>
		<path class="st0" d="M67,70.3c0-0.9-0.7-1.5-1.6-1.5h-3.9h-4.7h-3.9c-0.9,0-1.6,0.7-1.6,1.6v0.4v0.4v5.5c0,1.1,0.9,2,2,2
			s2-0.9,2-2v10.1c0,0.9,0.7,1.6,1.6,1.6h4.7c0.9,0,1.6-0.7,1.6-1.6V76.7c0,1.1,0.9,2,2,2s2-0.9,2-2v-5.9C67,70.6,67,70.5,67,70.3z"
			/>
	</g>
	<g>
		<circle class="st0" cx="78.5" cy="64.2" r="3.9"/>
		<path class="st0" d="M86.3,70.3c0-0.9-0.7-1.5-1.6-1.5h-3.9h-4.7h-3.9c-0.9,0-1.6,0.7-1.6,1.6v0.4v0.4v5.5c0,1.1,0.9,2,2,2
			s2-0.9,2-2v10.1c0,0.9,0.7,1.6,1.6,1.6h4.7c0.9,0,1.6-0.7,1.6-1.6V76.7c0,1.1,0.9,2,2,2s2-0.9,2-2v-5.9
			C86.4,70.6,86.3,70.5,86.3,70.3z"/>
	</g>
	<g>
		<circle class="st0" cx="55.3" cy="93.1" r="3.9"/>
		<path class="st0" d="M63.1,99.3c0-0.9-0.7-1.5-1.6-1.5h-3.9h-4.7h-3.9c-0.9,0-1.6,0.7-1.6,1.6v0.4v0.4v5.5c0,1.1,0.9,2,2,2
			c1.1,0,2-0.9,2-2v10.1c0,0.9,0.7,1.6,1.6,1.6h4.7c0.9,0,1.6-0.7,1.6-1.6v-10.1c0,1.1,0.9,2,2,2s2-0.9,2-2v-5.9
			C63.1,99.6,63.1,99.4,63.1,99.3z"/>
	</g>
	<g>
		<circle class="st0" cx="74.6" cy="93.1" r="3.9"/>
		<path class="st0" d="M82.4,99.3c0-0.9-0.7-1.5-1.6-1.5h-3.9h-4.7h-3.9c-0.9,0-1.6,0.7-1.6,1.6v0.4v0.4v5.5c0,1.1,0.9,2,2,2
			s2-0.9,2-2v10.1c0,0.9,0.7,1.6,1.6,1.6h4.7c0.9,0,1.6-0.7,1.6-1.6v-10.1c0,1.1,0.9,2,2,2c1.1,0,2-0.9,2-2v-5.9
			C82.4,99.6,82.4,99.4,82.4,99.3z"/>
	</g>
	<g>
		<circle class="st0" cx="93.9" cy="93.1" r="3.9"/>
		<path class="st0" d="M101.7,99.3c0-0.9-0.7-1.5-1.6-1.5h-3.9h-4.7h-3.9c-0.9,0-1.6,0.7-1.6,1.6v0.4v0.4v5.5c0,1.1,0.9,2,2,2
			s2-0.9,2-2v10.1c0,0.9,0.7,1.6,1.6,1.6h4.7c0.9,0,1.6-0.7,1.6-1.6v-10.1c0,1.1,0.9,2,2,2s2-0.9,2-2v-5.9
			C101.7,99.6,101.7,99.4,101.7,99.3z"/>
	</g>
	<g>
		<circle class="st0" cx="16.6" cy="93.1" r="3.9"/>
		<path class="st0" d="M24.4,99.3c0-0.9-0.7-1.5-1.6-1.5h-3.9h-4.6h-3.9c-0.9,0-1.6,0.7-1.6,1.6v0.4v0.4v5.5c0,1.1,0.9,2,2,2
			s2-0.9,2-2v10.1c0,0.9,0.7,1.6,1.6,1.6H19c0.9,0,1.6-0.7,1.6-1.6v-10.1c0,1.1,0.9,2,2,2c1.1,0,2-0.9,2-2v-5.9
			C24.4,99.6,24.4,99.4,24.4,99.3z"/>
	</g>
	<g>
		<circle class="st0" cx="35.9" cy="93.1" r="3.9"/>
		<path class="st0" d="M43.7,99.3c0-0.9-0.7-1.5-1.6-1.5h-3.9h-4.6h-3.9c-0.9,0-1.6,0.7-1.6,1.6v0.4v0.4v5.5c0,1.1,0.9,2,2,2
			c1.1,0,2-0.9,2-2v10.1c0,0.9,0.7,1.6,1.6,1.6h4.7c0.9,0,1.6-0.7,1.6-1.6v-10.1c0,1.1,0.9,2,2,2c1.1,0,2-0.9,2-2v-5.9
			C43.8,99.6,43.8,99.4,43.7,99.3z"/>
	</g>
	<g>
		<circle class="st1" cx="106.1" cy="52.4" r="5"/>
		<g>
			<path class="st1" d="M103,61.3c0.6-0.9,0.3-2.2-0.6-2.8l-0.4-0.3l-0.4-0.3l-6-3.8c-1.2-0.7-2.8-0.4-3.5,0.8
				c-0.7,1.2-0.4,2.8,0.8,3.5l8.6,5.4L103,61.3z"/>
			<path class="st1" d="M103.1,83.5h6.1c1.1,0,2-0.9,2-2v-13c0,1.4,1.1,2.5,2.5,2.5s2.5-1.1,2.5-2.5v-7.6c0-0.2,0-0.4,0-0.5
				c0-1.1-0.9-2-2-2h-5h-6.1h-2v10.1v13C101.1,82.6,102,83.5,103.1,83.5z"/>
		</g>
		<rect x="92" y="42.4" transform="matrix(0.9365 -0.3506 0.3506 0.9365 -12.5137 35.7089)" class="st1" width="0.8" height="20"/>
	</g>
	<g>
		<polygon class="st1" points="98,52.6 98,49.8 92.5,49.8 93.5,52.6 		"/>
		<polygon class="st1" points="89.6,41.9 92.1,48.8 98,48.8 98,7.7 32.9,7.7 32.9,48.8 34.4,48.8 34.4,45.9 48.8,45.9 48.8,48.8 
			55.3,48.8 55.3,47.4 71.2,47.4 71.2,48.8 89.8,48.8 87.5,42.7 		"/>
		<polygon class="st1" points="90.2,49.8 70.1,49.8 70.1,48.8 56.2,48.8 56.2,49.8 47.2,49.8 47.2,48.8 47.2,47.1 35.9,47.1 
			35.9,48.8 35.9,49.8 32.9,49.8 32.9,52.6 91.2,52.6 		"/>
	</g>
	<rect x="34.1" y="13.5" class="st2" width="62.7" height="27.5"/>
	<g class="st3">
		<path class="st4" d="M44.9,33.7c0.4,0.4,0.9,0.8,1.6,1.1c0.7,0.4,1.4,0.5,2,0.5c0.7,0,1.3-0.1,1.8-0.4c0.6-0.3,1.1-0.7,1.5-1.2
			s0.8-1.3,1.1-2.2c0.3-0.9,0.4-2.1,0.4-3.5c-0.3,0.4-0.7,0.7-1.1,1.1c-0.4,0.3-0.8,0.6-1.2,0.8c-0.4,0.2-0.8,0.4-1.3,0.5
			c-0.4,0.1-0.8,0.2-1.2,0.2c-1,0-1.9-0.1-2.8-0.4c-0.8-0.3-1.6-0.7-2.2-1.3c-0.6-0.6-1.1-1.3-1.4-2.2c-0.4-0.9-0.5-2-0.5-3.2
			c0-1.2,0.2-2.3,0.6-3.2c0.4-1,1-1.8,1.7-2.5c0.7-0.7,1.5-1.2,2.5-1.6c1-0.4,1.9-0.5,3-0.5c1.1,0,2.2,0.2,3.3,0.7
			c1.1,0.4,2,1.1,2.9,2.1c0.8,0.9,1.5,2.1,2,3.6c0.5,1.4,0.7,3.2,0.7,5.3c0,2.2-0.3,4.1-0.8,5.7c-0.5,1.6-1.2,2.9-2.1,3.9
			c-0.9,1.1-1.9,1.8-3,2.3c-1,0.5-2.2,0.7-3.4,0.7c-1.5,0-2.9-0.3-4-0.8c-1.1-0.6-2.1-1.2-2.8-2L44.9,33.7z M49.7,26.7
			c0.6,0,1.2-0.2,1.8-0.5s1.2-1,1.7-1.8c-0.3-1.8-0.7-3.1-1.4-3.8c-0.7-0.7-1.4-1.1-2.3-1.1c-0.8,0-1.5,0.3-2.1,0.9
			C47,21,46.7,22,46.7,23.3c0,1.3,0.3,2.1,0.9,2.6C48.1,26.4,48.9,26.7,49.7,26.7z"/>
		<path class="st4" d="M62.1,24.4c0-1,0.3-1.8,0.9-2.5s1.4-1,2.3-1c0.9,0,1.7,0.3,2.3,1c0.6,0.7,0.9,1.4,0.9,2.5
			c0,1-0.3,1.8-0.9,2.4c-0.6,0.7-1.4,1-2.3,1s-1.7-0.3-2.3-1C62.5,26.1,62.1,25.3,62.1,24.4z M62.1,36.3c0-1,0.3-1.8,0.9-2.5
			c0.6-0.7,1.4-1,2.3-1c0.9,0,1.7,0.3,2.3,1c0.6,0.7,0.9,1.4,0.9,2.5c0,1-0.3,1.8-0.9,2.4c-0.6,0.7-1.4,1-2.3,1s-1.7-0.3-2.3-1
			C62.5,38.1,62.1,37.3,62.1,36.3z"/>
		<path class="st4" d="M73.6,34.9h5.1V21.3h-4.4V18c1.3-0.3,2.4-0.5,3.2-0.9c0.9-0.4,1.8-0.7,2.6-1.3h4v19h4.4v4.4H73.6L73.6,34.9
			L73.6,34.9z"/>
	</g>
</g>
</svg>
