<?xml version="1.0" encoding="utf-8"?>
<!-- Generator: Adobe Illustrator 15.1.0, SVG Export Plug-In . SVG Version: 6.00 Build 0)  -->
<!DOCTYPE svg PUBLIC "-//W3C//DTD SVG 1.1//EN" "http://www.w3.org/Graphics/SVG/1.1/DTD/svg11.dtd">
<svg version="1.1" id="Layer_1" xmlns="http://www.w3.org/2000/svg" xmlns:xlink="http://www.w3.org/1999/xlink" x="0px" y="0px"
	 width="125px" height="125px" viewBox="0 0 125 125" enable-background="new 0 0 125 125" xml:space="preserve">
<g>
	<path fill="none" d="M63.111,64.985c-0.01,0.118-0.021,0.235-0.031,0.354h0.031V64.985z"/>
	<path fill="none" d="M99.469,96.776h-1.586C98.499,96.878,99.015,96.87,99.469,96.776z"/>
	<path fill="none" d="M63.111,57.09V41.055h-1.93c0,0,1.508,11.152,1.749,13.986C62.931,55.041,63.025,55.822,63.111,57.09z"/>
	<path fill="none" d="M0,82.687c0.005,0.007,0.011,0.013,0.016,0.019v-0.017C0.011,82.688,0.005,82.688,0,82.687z"/>
	<polygon fill="none" points="66.386,44.973 66.919,44.973 67.512,41.055 65.668,41.055 65.668,44.973 66.307,44.973 	"/>
	<path fill="none" d="M95.946,96.776v0.138c0.962,0.683,1.952,1.137,2.699,1.419c-0.506-0.749-0.839-1.429-0.899-1.557H95.946z"/>
	<path fill="none" d="M39.733,97.415c0.306-0.196,0.617-0.409,0.924-0.639h-1.299C39.483,97.002,39.608,97.214,39.733,97.415z"/>
	<path fill="none" d="M49.371,97.494c-0.052-0.025-0.103-0.051-0.15-0.074h-0.066C49.225,97.444,49.298,97.469,49.371,97.494z"/>
	<path fill="#8E8E8E" d="M62.156,65.339h-0.998v9.842l0.828-8.048C61.986,67.133,62.066,66.45,62.156,65.339z"/>
	<path fill="#8E8E8E" d="M4.637,82.018c0.952-1.667,1.943-3.8,2.672-6.354c0,0,0.053,5.228,1.867,8.742
		c2.649-2.623,3.911-5.917,3.911-5.917c0.569,6.197,4.649,10.21,4.649,10.21c-1.077,0.062-2.381-0.378-3.263-0.612
		c2.922,2.813,7.089,4.398,7.089,4.398c-3.019,1.013-4.216,0.874-5.818,0.394c1.277,1.482,2.971,2.381,4.202,2.881
		c3.037-0.978,5.132-1.672,6.593-3.516c-2.541,0.273-4.207-0.172-4.207-0.172c5.248-1.811,7.691-8.202,7.691-8.202
		c0.542,5.912,4.434,9.738,4.434,9.738c-1.027,0.059-2.271-0.36-3.112-0.584c0.913,0.879,1.952,1.631,2.938,2.246
		c0.712-0.318,1.333-0.757,1.925-1.484c-1.389-0.078-2.175-0.664-2.175-0.664c3.118-0.898,5.676-6.05,5.676-6.05
		c-0.738,4.218,0.006,7.502,0.288,8.52c0.893-1.109,2.544-3.565,2.847-6.862c0,0,1.886,4.934,5.937,6.33
		c0,0-1.287,0.345-3.248,0.133c0.876,1.105,2.045,1.675,3.622,2.229h0.066c-0.35-0.179-0.561-0.319-0.561-0.319
		c2.496-0.805,4.194-1.324,5.366-2.803c-1.961,0.211-3.248-0.133-3.248-0.133c4.051-1.397,5.937-6.331,5.937-6.331
		c0.265,2.887,1.564,5.128,2.483,6.387l0.165-1.597l-0.912-0.55h0.968h0.626c0.043-0.391,0.078-0.813,0.099-1.266h-0.594H58.45
		l1.162-0.615l0.343-3.338c-0.032-0.224-0.066-0.449-0.106-0.679c0,0,0.052,0.104,0.147,0.281l1.1-10.68h-0.001H58.91l-0.724,2.29
		h-0.822v1.668h-1.949v-25.6h-9.584v6.88H44.02v6.872h-0.603v1.647h-1.969v-1.203h-5.546v-6.111l-0.643,0.041v-4.269h-1.648
		l-1.447-1.358h-2.089l-1.045,1.688h-0.884v0.844h-0.362v0.924h-0.562v1.326v0.241h-0.804v1.085l-2.773,0.121v2.05h-2.049v-2.291
		l-1.447-0.723h-7.713v-7.765v-3.979h-0.663v-0.482c-2.954-1.809-10.188-1.567-10.188-1.567v2.05H0.016v28.499
		C1.289,79.979,2.826,81.193,4.637,82.018z"/>
	<path fill="#2E8ED1" d="M106.609,89.893c-0.018,0.005-0.04,0.011-0.059,0.016c0,0.013,0.001,0.026,0.002,0.038
		C106.571,89.928,106.592,89.91,106.609,89.893z"/>
	<path fill="#8E8E8E" d="M63.111,89.361V65.339H63.08c-0.041,0.484-0.089,0.971-0.149,1.457L60.97,88.078
		c0.27,0.407,0.581,0.847,0.929,1.283H63.111z"/>
	<path fill="#8E8E8E" d="M39.579,96.402c0,0,0.143-0.141,0.371-0.408c-0.451-0.174-0.891-0.556-1.216-0.795
		c0.224,0.632,0.497,1.214,0.783,1.734h1.298c0.402-0.3,0.797-0.627,1.165-0.981C41.332,96.124,40.372,96.448,39.579,96.402z"/>
	<path fill="#8E8E8E" d="M65.674,92.074c0.264-0.313,0.596-0.739,0.955-1.266h-0.961h-1.311h-1.135
		c0.581,0.538,1.214,0.99,1.877,1.266H65.674z"/>
	<path fill="#8E8E8E" d="M66.125,50.218l0.794-5.245h-0.533h-0.079h-0.639v6.75C65.803,51.448,65.955,50.973,66.125,50.218z"/>
	<path fill="#8E8E8E" d="M66.708,67.133l2.013,19.553c0.389-1.114,0.689-2.356,0.814-3.71c0,0,2.424,6.338,7.628,8.177
		c0.624-1.214,1.188-2.758,1.353-4.551c0,0,1.791,4.681,5.628,6.214c1.784-0.662,3.139-1.392,4.175-2.699
		c-2.539,0.273-4.207-0.172-4.207-0.172c5.248-1.811,7.691-8.201,7.691-8.201c0.543,5.911,4.434,9.737,4.434,9.737
		c-1.027,0.06-2.271-0.36-3.111-0.584c2.787,2.684,6.761,4.195,6.761,4.195c-2.88,0.966-4.021,0.833-5.549,0.376
		c0.49,0.568,1.045,1.047,1.609,1.446v-0.138h1.8c-0.007-0.014-0.012-0.024-0.012-0.024c0.051,0.01,0.099,0.017,0.148,0.024h1.586
		c0.769-0.159,1.364-0.564,1.986-1.107c-0.693,0.036-1.29-0.359-1.729-0.785c-0.244-0.074-0.497-0.153-0.768-0.244
		c0,0,0.145-0.055,0.396-0.16c-0.259-0.319-0.405-0.577-0.405-0.577c1.906-0.492,3.196-0.796,4.376-2.244
		c-1.39-0.078-2.176-0.663-2.176-0.663c2.175-0.627,4.075-3.32,5.026-4.895c0.895-1.765,1.693-3.99,1.93-6.567
		c0,0,1.361,3.555,4.222,6.387c1.958-3.794,2.015-9.436,2.015-9.436c0.787,2.759,1.857,5.062,2.886,6.861
		c3.538-1.61,6.108-4.613,7.772-7.155v-0.505h-0.604v-1.467h-1.186l-1.305-1.305h-1.969l-1.244,1.244v-4.268l-1.93-1.045h-4.581
		l-1.929,1.045v6.719h-1.691v-0.831l-1.245-0.374h-1.407v-1.125h-0.684l-1.326-3.657l-0.924,3.777h-0.562v1.379h-0.52V65.55h-1.93
		v-4.823h-4.5v-7.475h-1.207v-0.924h-0.32l-2.01-1.567v-0.603h-0.965v0.603l-2.01,1.567h-0.24v0.924h-1.367v9.967h-0.562v12.56
		h-2.01V58.718h-8.56v11.515h-1.489v-1.387h-2.73V44.973h-4.245l-1.041,7.958C65.744,58.878,66.708,67.133,66.708,67.133z"/>
	<polygon fill="#8E8E8E" points="65.668,83.886 67.482,83.886 67.301,80.118 65.668,80.118 	"/>
	<polygon fill="#8E8E8E" points="65.668,75.627 65.668,79.214 67.06,79.214 66.758,75.627 	"/>
	<polygon fill="#8E8E8E" points="65.668,84.64 65.668,88.287 67.753,88.287 67.482,84.64 	"/>
	<polygon fill="#8E8E8E" points="65.668,74.904 66.758,74.904 66.487,70.985 65.668,70.985 	"/>
	<path fill="#8E8E8E" d="M65.668,94.125c0.29-0.189,0.584-0.391,0.875-0.604h-0.875V94.125z"/>
	<path fill="#8E8E8E" d="M60.981,94.146c-0.176,0.13-0.386,0.302-0.612,0.461l-0.107,1.156
		C60.524,95.272,60.774,94.732,60.981,94.146z"/>
	<path fill="#8E8E8E" d="M122.23,84.065c-1.914,0.206-3.489,0.134-4.568,0.015c0.619,1.017,1.205,1.84,1.684,2.46
		C120.459,85.883,121.412,85.098,122.23,84.065z"/>
	<path fill="#8E8E8E" d="M0.174,82.846v0.018c0.754,0.947,1.633,1.669,2.657,2.274c0.443-0.574,0.986-1.338,1.56-2.28
		C3.394,82.968,1.942,83.035,0.174,82.846z"/>
	<path fill="#8E8E8E" d="M57.893,95.058c0.404,0.389,0.84,0.746,1.282,1.069l0.074-0.719C58.755,95.309,58.271,95.158,57.893,95.058
		z"/>
	<path fill="#8E8E8E" d="M73.02,91.349c0.725,0.916,1.608,1.547,2.684,2.07c0.398-0.499,0.936-1.254,1.438-2.222
		C76.772,91.281,75.227,91.587,73.02,91.349z"/>
	<polygon fill="#003D7D" points="61.158,75.181 61.097,75.778 61.158,75.778 	"/>
	<g>
		<path fill="#333333" d="M64.338,39.227c-5.767-0.041-6.974,0.964-6.974,0.964c1.125,0.764,3.108,0.864,3.108,0.864h-0.04
			l1.554,11.876c0.688,4.24,0.395,9.649,0.17,12.408c-0.09,1.111-0.17,1.794-0.17,1.794l-0.828,8.048v0.598h-0.062l-1.1,10.68
			c0.179,0.332,0.515,0.928,0.973,1.62l1.961-21.282c0.061-0.486,0.108-0.973,0.149-1.457c0.01-0.118,0.021-0.235,0.031-0.354v0.354
			v24.022h-1.213c0.398,0.504,0.844,1.004,1.324,1.447h1.135h1.311h0.961c0.698-1.02,1.498-2.419,2.092-4.123l-2.013-19.553
			c0,0-0.964-8.254,0-14.202l1.041-7.958l0.513-3.918h-0.059c0,0,1.982-0.1,3.107-0.864C71.311,40.191,70.104,39.186,64.338,39.227z
			 M62.931,55.041c-0.241-2.833-1.749-13.986-1.749-13.986h1.93V57.09C63.025,55.822,62.931,55.041,62.931,55.041z M65.668,88.287
			V84.64h1.814l0.271,3.647H65.668z M67.482,83.886h-1.814v-3.768h1.633L67.482,83.886z M65.668,79.214v-3.587h1.09l0.302,3.587
			H65.668z M66.487,70.985l0.271,3.919h-1.09v-3.919H66.487z M66.125,50.218c-0.17,0.755-0.322,1.23-0.457,1.506v-6.75v-3.918h1.844
			l-0.593,3.918L66.125,50.218z"/>
		<path fill="#333333" d="M60.143,90.809c0.054-1.15,0.02-2.488-0.188-3.953l-0.343,3.338l-1.162,0.615h1.099H60.143z"/>
		<path fill="#333333" d="M64.479,37.036c-4.743,0-9.063,0.663-9.063,0.663V37.9c1.085,0.422,9.063,0.321,9.063,0.321
			s7.977,0.101,9.062-0.321v-0.201C73.541,37.699,69.22,37.036,64.479,37.036z"/>
		<path fill="#333333" d="M70.627,35.911V35.67c0,0-4.1-0.543-4.803-1.226c0,0-0.502-0.764,1.266-1.085v-0.281l-1.828-0.924h-0.16
			l-0.402-5.486h-0.221h-0.222l-0.402,5.486h-0.16l-1.829,0.924v0.281c1.769,0.321,1.266,1.085,1.266,1.085
			c-0.703,0.683-4.802,1.226-4.802,1.226v0.241h6.149H70.627z"/>
		<path fill="#333333" d="M65.102,92.713c0,0,0.225-0.222,0.572-0.639H65.1c0.141,0.059,0.283,0.111,0.426,0.153
			c0,0-0.787,0.585-2.176,0.663c0.593,0.728,1.213,1.166,1.926,1.485c0.13-0.082,0.261-0.165,0.393-0.251v-0.604h0.875
			c0.576-0.421,1.145-0.886,1.67-1.393C67.372,92.353,66.128,92.772,65.102,92.713z"/>
		<path fill="#333333" d="M60.137,95.351c-0.332,0.02-0.691-0.027-1.045-0.1l-0.074,0.719c0.269,0.196,0.54,0.38,0.807,0.551
			c0.147-0.235,0.294-0.488,0.438-0.757l0.107-1.156c-0.192,0.134-0.396,0.255-0.604,0.335
			C59.993,95.21,60.137,95.351,60.137,95.351z"/>
		<path fill="#333333" d="M59.362,92.624l-0.165,1.597c0.13,0.179,0.253,0.338,0.365,0.476c0.126-0.457,0.345-1.371,0.482-2.622
			h-0.626H58.45L59.362,92.624z"/>
	</g>
	<path fill="#EC1C24" d="M59.85,86.177c0.04,0.229,0.074,0.455,0.106,0.679l0.041-0.397C59.902,86.281,59.85,86.177,59.85,86.177z"
		/>
	<path fill="#8E8E8E" d="M40.253,96.079c0,0-0.04-0.116-0.099-0.331c-0.073,0.092-0.142,0.174-0.204,0.246
		C40.051,96.033,40.152,96.065,40.253,96.079z"/>
	<path fill="#EC1C24" d="M97.734,96.752c0,0,0.005,0.011,0.012,0.024h0.137C97.833,96.769,97.785,96.762,97.734,96.752z"/>
	<path fill="#EC1C24" d="M77.226,91.177c-0.021-0.008-0.042-0.017-0.062-0.024c-0.008,0.016-0.015,0.03-0.022,0.045
		C77.195,91.185,77.226,91.177,77.226,91.177z"/>
</g>
</svg>
