<?xml version="1.0" encoding="utf-8"?>
<!-- Generator: Adobe Illustrator 15.1.0, SVG Export Plug-In . SVG Version: 6.00 Build 0)  -->
<!DOCTYPE svg PUBLIC "-//W3C//DTD SVG 1.1//EN" "http://www.w3.org/Graphics/SVG/1.1/DTD/svg11.dtd">
<svg version="1.1" id="Layer_1" xmlns="http://www.w3.org/2000/svg" xmlns:xlink="http://www.w3.org/1999/xlink" x="0px" y="0px"
	 width="125px" height="125px" viewBox="0 0 125 125" enable-background="new 0 0 125 125" xml:space="preserve">
<path fill="#F5F5F5" d="M-112.564,90.327l-3.15,11.985c0,0,0.34-0.037,0.981-0.105l2.71-14.781
	C-113.687,88.297-113.971,89.26-112.564,90.327z"/>
<path fill="none" d="M28.036,79.211l1.284-3.034l0.214-4.028l1.07-0.643l-0.214-2.139l1.069-2.141c1.499-1.284,3.21,0,3.21,0
	l1.07,3.639l2.354,1.711l0.855,5.351l1.285,1.712l0.428-1.712l2.354,2.567l0.826,3.924h2.678l0.916-6.707l1.284,0.215l0.108-0.469
	l0.535-2.313l1.07-0.856l1.284-2.354l0.642-5.137l2.142-5.563l1.282-0.855l1.285-5.136c1.713-2.782,8.132-6.206,8.132-6.206
	c1.713-1.926,6.422-5.564,6.422-5.564c4.707-3.425,6.847,1.925,6.847,1.925l7.492,4.281l5.134,4.494l4.067,4.708l3.637,1.926
	l2.997,3.852l-0.215,2.354l1.072,3.424l0.854,4.708l0.645,1.498l1.711,1.284l1.498-2.782h1.713l1.496,1.926l1.5,2.354l4.279-0.641
	l0.854-1.711l1.497,1.283h2.354l3.854,2.354L125,81.11V25.124H0v59.294h27.349L28.036,79.211z M1,84.414l1.391-1.035h3.632
	l0.428-3.104c0,0,0.863-0.855,1.291,0c0,0,0.856,0.321,1.071,0.749l0.535,1.13v1.867l0.856,0.393H1L1,84.414z M13.341,82.537
	l0.994-1.049l0.883,0.497V80.92H16.1v-2.354h1.436v2.354h0.772l0.332,1.177h1.765l0.442,1.104l1.325,1.213H12.9L13.341,82.537z"/>
<path fill="#333333" d="M121.055,78.354H118.7l-1.497-1.284l-0.855,1.711l-4.279,0.643l-1.5-2.354l-1.495-1.926h-1.714l-1.498,2.782
	l-1.711-1.284l-0.644-1.498l-0.854-4.708l-1.071-3.424l0.215-2.354l-2.997-3.853l-3.637-1.926l-4.066-4.708l-5.135-4.494
	l-7.492-4.281c0,0-2.14-5.35-6.847-1.925c0,0-4.709,3.638-6.422,5.564c0,0-6.419,3.424-8.132,6.206l-1.285,5.136L54.5,61.233
	l-2.141,5.563l-0.642,5.138l-1.284,2.354l-1.07,0.855l-0.535,2.312l-0.108,0.47l-1.284-0.214l-0.916,6.705H125v-3.307l-0.093-0.402
	L121.055,78.354z"/>
<path fill="#333333" d="M43.016,80.494l-2.354-2.567l-0.428,1.712l-1.285-1.712l-0.855-5.351l-2.354-1.711l-1.07-3.639
	c0,0-1.712-1.284-3.21,0l-1.069,2.141l0.214,2.139l-1.07,0.643l-0.214,4.027l-1.284,3.035l-0.687,5.207h16.493L43.016,80.494z"/>
<path fill="#333333" d="M9.347,82.153l-0.535-1.13c-0.214-0.427-1.071-0.749-1.071-0.749c-0.428-0.854-1.291,0-1.291,0l-0.428,3.104
	H2.391L1,84.414h9.203l-0.856-0.394V82.153z"/>
<polygon fill="#333333" points="20.846,83.199 20.404,82.096 18.639,82.096 18.308,80.918 17.536,80.918 17.536,78.564 16.1,78.564 
	16.1,80.918 15.218,80.918 15.218,81.984 14.335,81.488 13.341,82.537 12.9,84.414 22.171,84.414 "/>
<linearGradient id="SVGID_1_" gradientUnits="userSpaceOnUse" x1="549.5" y1="719.1006" x2="549.5" y2="755.6039" gradientTransform="matrix(1 0 0 1 -487 -667)">
	<stop  offset="0" style="stop-color:#FFFFFF;stop-opacity:0"/>
	<stop  offset="0.908" style="stop-color:#FFFFFF"/>
</linearGradient>
<rect y="42.374" fill="url(#SVGID_1_)" width="125" height="43.041"/>
<path fill="#333333" d="M34.021,33.246c0,0,2.983-5.172,8.204-3.479c0,0-6.464-2.983-8.204,0.483c0,0-4.847-3.84-7.954,0.387
	C26.067,30.637,29.919,27.032,34.021,33.246z"/>
<path fill="#333333" d="M9.663,49.958c0,0,1.082-3.583,4.51-3.299c0,0-4.373-0.895-4.938,1.47c0,0-3.507-1.651-4.799,1.374
	C4.436,49.503,6.272,46.752,9.663,49.958z"/>
<path fill="#333333" d="M46.864,50.604c0,0,5.557-8.091,13.893-4.647c0,0-10.207-5.722-13.504-0.262c0,0-7.448-6.92-13.085-0.398
	C34.167,45.296,40.946,39.89,46.864,50.604z"/>
</svg>
