<?xml version="1.0" encoding="utf-8"?>
<!-- Generator: Adobe Illustrator 15.1.0, SVG Export Plug-In . SVG Version: 6.00 Build 0)  -->
<!DOCTYPE svg PUBLIC "-//W3C//DTD SVG 1.1//EN" "http://www.w3.org/Graphics/SVG/1.1/DTD/svg11.dtd">
<svg version="1.1" id="Layer_1" xmlns="http://www.w3.org/2000/svg" xmlns:xlink="http://www.w3.org/1999/xlink" x="0px" y="0px"
	 width="125px" height="125px" viewBox="0 0 125 125" enable-background="new 0 0 125 125" xml:space="preserve">
<g>
	<circle fill="#333333" cx="57.785" cy="18.178" r="3.609"/>
	<circle fill="#333333" cx="67.538" cy="10.142" r="5.037"/>
	<g>
		<path fill="#333333" d="M103.312,113.422l0.008-0.004l-0.026-0.048c-0.213-0.645-0.556-1.233-0.998-1.731l-31-53.683V33.384
			c1.756-0.071,3.158-1.514,3.158-3.285v-0.085c0-1.818-1.474-3.292-3.292-3.292H53.387c-1.818,0-3.292,1.474-3.292,3.292v0.085
			c0,1.771,1.402,3.214,3.157,3.285v24.693l-30.615,53.639c-0.4,0.469-0.713,1.013-0.918,1.608l-0.114,0.201l0.043,0.023
			c-0.127,0.438-0.198,0.902-0.198,1.385c0,2.51,1.865,4.586,4.286,4.914v0.004h0.029c0.212,0.027,0.427,0.043,0.647,0.043
			c0.219,0,0.435-0.016,0.647-0.043h70.878c0.213,0.027,0.426,0.043,0.645,0.043c0.222,0,0.437-0.016,0.649-0.043h0.479v-0.087
			c2.197-0.512,3.835-2.478,3.835-4.831C103.548,114.407,103.465,113.899,103.312,113.422z M51.244,91.024
			c-1.992,0-3.608-1.616-3.608-3.608c0-1.993,1.616-3.609,3.608-3.609c1.993,0,3.609,1.616,3.609,3.609
			C54.854,89.408,53.237,91.024,51.244,91.024z M59.665,60.444c-1.993,0-3.608-1.617-3.608-3.609c0-1.994,1.615-3.609,3.608-3.609
			c1.993,0,3.61,1.615,3.61,3.609C63.275,58.827,61.658,60.444,59.665,60.444z M68.94,79.195c-1.992,0-3.607-1.616-3.607-3.609
			c0-1.994,1.615-3.608,3.607-3.608c1.995,0,3.61,1.614,3.61,3.608C72.551,77.579,70.936,79.195,68.94,79.195z M81.369,109.721
			c-2.782,0-5.038-2.257-5.038-5.038c0-2.78,2.256-5.036,5.038-5.036s5.038,2.256,5.038,5.036
			C86.407,107.464,84.151,109.721,81.369,109.721z"/>
	</g>
</g>
</svg>
