<svg xmlns="http://www.w3.org/2000/svg"><symbol viewBox="0 0 125 125" id="beaker"><title>beaker</title> <g> <circle cx="57.785" cy="18.178" r="3.609"/> <circle cx="67.538" cy="10.142" r="5.037"/> <g> <path d="M103.312,113.422l0.008-0.004l-0.026-0.048c-0.213-0.645-0.556-1.233-0.998-1.731l-31-53.683V33.384
			c1.756-0.071,3.158-1.514,3.158-3.285v-0.085c0-1.818-1.474-3.292-3.292-3.292H53.387c-1.818,0-3.292,1.474-3.292,3.292v0.085
			c0,1.771,1.402,3.214,3.157,3.285v24.693l-30.615,53.639c-0.4,0.469-0.713,1.013-0.918,1.608l-0.114,0.201l0.043,0.023
			c-0.127,0.438-0.198,0.902-0.198,1.385c0,2.51,1.865,4.586,4.286,4.914v0.004h0.029c0.212,0.027,0.427,0.043,0.647,0.043
			c0.219,0,0.435-0.016,0.647-0.043h70.878c0.213,0.027,0.426,0.043,0.645,0.043c0.222,0,0.437-0.016,0.649-0.043h0.479v-0.087
			c2.197-0.512,3.835-2.478,3.835-4.831C103.548,114.407,103.465,113.899,103.312,113.422z M51.244,91.024
			c-1.992,0-3.608-1.616-3.608-3.608c0-1.993,1.616-3.609,3.608-3.609c1.993,0,3.609,1.616,3.609,3.609
			C54.854,89.408,53.237,91.024,51.244,91.024z M59.665,60.444c-1.993,0-3.608-1.617-3.608-3.609c0-1.994,1.615-3.609,3.608-3.609
			c1.993,0,3.61,1.615,3.61,3.609C63.275,58.827,61.658,60.444,59.665,60.444z M68.94,79.195c-1.992,0-3.607-1.616-3.607-3.609
			c0-1.994,1.615-3.608,3.607-3.608c1.995,0,3.61,1.614,3.61,3.608C72.551,77.579,70.936,79.195,68.94,79.195z M81.369,109.721
			c-2.782,0-5.038-2.257-5.038-5.038c0-2.78,2.256-5.036,5.038-5.036s5.038,2.256,5.038,5.036
			C86.407,107.464,84.151,109.721,81.369,109.721z"/> </g> </g> </symbol><symbol viewBox="0 0 125 125" id="duck"><title>duck</title> <g id="duck-zf7LjJ.tif_2_"> <g> <g> <path d="M125,33.733c0-0.49,0-0.981,0-1.473C112.104,27.357,112.822,9.758,101.992,4C99.785,4,98,4,96,4
				c0,0,0,0.041,0,0.286C80,5.538,75.676,26.249,82.433,40.358C55.91,39.26,38.226,52.926,21.171,60.971
				c-4.23,1.997-5.722,9.437-11.12,11.042c-1.455-2.542,2.468-3.238,0.695-3.681c-4.543-0.228-0.763,5.034-3.7,5.153
				c-2.511-0.307,1.103-4.036-0.746-3.681c-2.029,1.898-1.438,6.419-4.423,7.361c0.749,0.316,4.018,1.587,0.902,1.473
				C1.458,78.546,0.992,79.541,0,79.376c0,0.246,0,0.491,0,0.735c12.897-1.657,17.254,11.37,26.335,14.724
				c9.949,3.675,20.057,4.133,33.779,3.682c1.24,6.614,2.864,12.63,5.111,18.235c3.266,2.379,8.388,3.248,12.473,4.248
				c2.454,0,4.302,0,7.302,0c0,0,0-0.152,0-0.399c1-1.416,3.598-2.323,5.186-3.681c-2.328,0.118-4.428,0.026-5.139-1.472
				c2.81-1.853,7.74-1.591,11.049-2.945c-1.747-1.105-0.729-3.1-1.468-3.682c-4.687,0.958-10.525,0.763-16.195,0.737
				c-2.226-3.172-2.79-8.006-4.414-11.778c20.992-5.542,52.019-17.186,50.06-41.962c-1.164-14.691-15.345-17.272-24.2-25.767
				C108.309,23.092,117.063,40.56,125,33.733z M76.228,115c-2.454,0-4.908,0-7.362,0c-1.716-5-3.3-10.933-3.682-17.668
				C75.631,96.456,70.49,111,76.228,115z"/> </g> </g> </g> </symbol><symbol viewBox="0 0 125 125" id="hiker"><title>hiker</title> <g> <path d="M87.486,63.228c0.169-0.791,0.172-1.63-0.035-2.47l-2.355-9.554l2.518,3.091l8.238-23.971l-19.626-5.855
		c-0.389-0.165-0.796-0.289-1.217-0.361l-0.017-0.006v0.002c-0.726-0.125-1.487-0.105-2.248,0.082l-6.168,1.521
		c-2.963,0.73-4.773,3.723-4.043,6.687l5.407,21.934L48.769,72.988l10.416,27.349h8.172l-4.903-24.872l11.695-4.878l3.477,16.578
		l13.546,35.524l7.83-3.729L88.776,84.22L87.486,63.228z M84.687,49.541l-3.755-15.232l6.612,0.666L84.687,49.541z"/> <polygon points="73.792,114.337 68.909,105.47 56.711,105.47 53.383,110.537 44.317,114.08 40.242,122.689 
		87.304,122.689 80.548,114.337 	"/> <polygon points="51.323,54.701 61.7,43.955 59.496,32.716 50.167,47.932 35.666,46.612 37.01,52.475 	"/> <path d="M80.444,23.958l15.725,4.691l-2.135-8.654c-0.593-2.408-3.026-3.879-5.435-3.284l-5.014,1.235
		c-2.408,0.595-3.878,3.028-3.285,5.436L80.444,23.958z"/> <polygon points="84.86,41.877 86.016,35.992 83.344,35.722 	"/> <path d="M100.553,46.434l-3.256-13.208l-6.855,19.95c0.585,0.097,1.199,0.081,1.812-0.07l5.013-1.236
		C99.675,51.275,101.146,48.842,100.553,46.434z"/> <rect x="-3.422" y="66.657" transform="matrix(0.2506 0.9681 -0.9681 0.2506 94.3783 16.2206)" width="80.268" height="4.829"/> <circle cx="64.915" cy="12.097" r="9.787"/> </g> </symbol><symbol viewBox="0 0 32 32" id="icon-a-to-z"><title>icon-a-to-z</title> <g> <g> <path d="M31.388,27.113l-5.877-5.967v-0.002c3.336-5.169,2.661-12.083-1.812-16.626
			c-5.223-5.3-13.755-5.365-19.056-0.144c-5.301,5.22-5.389,13.751-0.169,19.05c4.429,4.5,11.238,5.227,16.418,2.158V25.58
			l5.84,5.92C28.515,30.305,30.09,28.82,31.388,27.113z M20.625,20.602c-0.19,0.188-0.392,0.367-0.593,0.534
			c-3.474,2.89-8.549,2.851-11.981-0.087c-0.202-0.171-0.399-0.354-0.589-0.547c-3.606-3.661-3.562-9.554,0.1-13.159
			c3.662-3.608,9.554-3.563,13.163,0.1C24.33,11.104,24.285,16.997,20.625,20.602z"/> </g> <g> <path d="M8.991,15.337L8.566,16.82l-1.35-0.01l1.806-5.781l1.72,0.013l1.761,5.807l-1.419-0.01l-0.435-1.49
			L8.991,15.337z M10.467,14.368c0,0-0.553-2.007-0.636-2.352H9.814c-0.088,0.343-0.628,2.342-0.628,2.342L10.467,14.368z"/> <path d="M15.164,14.18l-0.007,0.869l-2.252-0.018l0.006-0.868L15.164,14.18z"/> <path d="M15.611,16.17l2.79-3.951v-0.035l-2.51-0.019l0.008-1.083l4.203,0.032l-0.006,0.756l-2.729,3.899v0.035
			l2.74,0.021l-0.008,1.083l-4.495-0.034L15.611,16.17z"/> </g> </g> </symbol><symbol viewBox="0 0 32 32" id="icon-arrow-circle-down"><title>icon-arrow-circle-down</title> <g> <path d="M16,0C7.164,0,0,7.164,0,16.001S7.164,32,16,32s16-7.162,16-15.999C32.001,7.164,24.837,0,16,0z M17.965,24.9
		c-1.084,1.084-2.845,1.084-3.931,0l-9.822-9.823c-1.086-1.085-1.086-2.845,0-3.931c1.083-1.086,2.843-1.086,3.928,0l7.859,7.858
		l7.858-7.858c1.087-1.085,2.849-1.085,3.931,0c1.086,1.085,1.086,2.845,0,3.931L17.965,24.9z"/> </g> </symbol><symbol viewBox="0 0 32 32" id="icon-arrow-circle-up"><title>icon-arrow-circle-up</title> <g> <path d="M16,32c8.836,0,16-7.164,16-16.001C32,7.163,24.836,0,16,0S0,7.163,0,15.999C-0.001,24.836,7.163,32,16,32z M14.035,7.1
		c1.084-1.084,2.844-1.084,3.93,0l9.823,9.823c1.085,1.083,1.085,2.844,0,3.93c-1.083,1.086-2.844,1.086-3.928,0l-7.859-7.858
		l-7.859,7.858c-1.085,1.085-2.847,1.085-3.931,0c-1.084-1.085-1.084-2.847,0-3.932L14.035,7.1z"/> </g> </symbol><symbol viewBox="0 0 32 32" id="icon-arrow-down"><title>icon-arrow-down</title> <g> <path d="M1.033,12.503c-1.377-1.287-1.377-3.372,0-4.66c1.377-1.284,3.611-1.284,4.991,0l9.98,9.324l9.976-9.322
		c1.378-1.288,3.614-1.288,4.99,0c1.374,1.29,1.374,3.373,0,4.66L18.497,24.155c-1.379,1.288-3.615,1.288-4.991,0L1.033,12.503z"/> </g> </symbol><symbol viewBox="0 0 32 32" id="icon-arrow-left"><title>icon-arrow-left</title> <g> <path d="M19.496,1.033c1.287-1.377,3.372-1.377,4.659,0c1.285,1.377,1.285,3.611,0,4.991l-9.321,9.98l9.321,9.976
		c1.288,1.378,1.288,3.614,0,4.99c-1.291,1.374-3.374,1.374-4.659,0L7.845,18.497c-1.288-1.379-1.288-3.615,0-4.991L19.496,1.033z"/> </g> </symbol><symbol viewBox="0 0 32 32" id="icon-arrow-right"><title>icon-arrow-right</title> <g> <path d="M24.155,13.507c1.287,1.376,1.287,3.61,0,4.99L12.504,30.969c-1.286,1.375-3.371,1.375-4.659,0
		c-1.288-1.375-1.288-3.612,0-4.99l9.32-9.974l-9.323-9.98c-1.283-1.38-1.283-3.613,0-4.991c1.289-1.377,3.373-1.377,4.66,0
		L24.155,13.507z"/> </g> </symbol><symbol viewBox="0 0 32 32" id="icon-arrow-up"><title>icon-arrow-up</title> <g> <path d="M30.967,19.495c1.378,1.288,1.378,3.372,0,4.66c-1.376,1.284-3.61,1.284-4.991,0l-9.979-9.321l-9.975,9.321
		c-1.378,1.287-3.615,1.287-4.99,0c-1.375-1.291-1.375-3.374,0-4.66l12.472-11.65c1.379-1.288,3.615-1.288,4.991,0L30.967,19.495z"/> </g> </symbol><symbol viewBox="0 0 32 32" id="icon-calendar-no-circle"><title>icon-calendar-no-circle</title> <g> <rect x="24" y="22.045" width="4.979" height="4.979"/> <rect x="16.889" y="14.223" width="4.979" height="5.156"/> <rect x="24" y="14.223" width="4.979" height="5.156"/> <rect x="16.889" y="22.045" width="4.979" height="4.979"/> <path d="M24.248,8.533h0.037c0.824,0,1.492-0.668,1.492-1.493V1.85c0-0.825-0.668-1.494-1.492-1.494h-0.037
		c-0.824,0-1.492,0.669-1.492,1.494v5.19C22.756,7.865,23.424,8.533,24.248,8.533z"/> <path d="M7.715,8.533h0.036c0.825,0,1.493-0.668,1.493-1.493V1.85c0-0.825-0.668-1.494-1.493-1.494H7.715
		c-0.825,0-1.494,0.669-1.494,1.494v5.19C6.222,7.865,6.89,8.533,7.715,8.533z"/> <rect x="2.844" y="22.045" width="5.333" height="4.979"/> <path d="M28.801,4.445h-1.777V7.45c0,1.313-1.336,2.328-2.647,2.328H24.33c-1.312,0-2.816-1.015-2.816-2.328V4.445
		H10.313V7.45c0,1.313-1.2,2.328-2.513,2.328H7.754c-1.314,0-2.599-1.015-2.599-2.328V4.445H3.2C1.433,4.445,0,5.756,0,7.523v20.801
		c0,1.768,1.433,3.32,3.2,3.32h25.601c1.768,0,3.199-1.554,3.199-3.32V7.523C32,5.756,30.568,4.445,28.801,4.445z M30.398,27.939
		c0,1.235-1.002,2.104-2.238,2.104H3.84c-1.237,0-2.24-0.869-2.24-2.104V11.733h28.798V27.939z"/> <rect x="9.955" y="14.223" width="4.978" height="5.156"/> <rect x="2.844" y="14.223" width="5.333" height="5.156"/> <rect x="9.955" y="22.045" width="4.978" height="4.979"/> </g> </symbol><symbol viewBox="0 0 32 32" id="icon-calendar"><title>icon-calendar</title> <g> <path d="M16,0C7.164,0,0,7.164,0,16c0,8.837,7.164,16,16,16c8.837,0,16-7.163,16-16C32,7.164,24.837,0,16,0z M20.471,5.438
		c0-0.549,0.445-0.995,0.995-0.995h0.024c0.55,0,0.996,0.446,0.996,0.995v3.461c0,0.549-0.446,0.995-0.996,0.995h-0.024
		c-0.55,0-0.995-0.445-0.995-0.995V5.438z M9.448,5.438c0-0.549,0.446-0.995,0.996-0.995h0.023c0.55,0,0.996,0.446,0.996,0.995
		v3.461c0,0.549-0.445,0.995-0.996,0.995h-0.023c-0.55,0-0.996-0.445-0.996-0.995V5.438z M26.634,23.088
		c0,1.179-0.956,2.213-2.134,2.213H7.434c-1.178,0-2.133-1.034-2.133-2.213V9.221c0-1.178,0.955-2.053,2.133-2.053h1.303v2.004
		c0,0.875,0.856,1.551,1.732,1.551h0.03c0.875,0,1.675-0.677,1.675-1.551V7.168h7.467v2.004c0,0.875,1.004,1.551,1.879,1.551h0.029
		c0.876,0,1.766-0.677,1.766-1.551V7.168h1.186c1.178,0,2.134,0.875,2.134,2.053L26.634,23.088L26.634,23.088z"/> <path d="M6.367,22.832c0,0.825,0.668,1.403,1.493,1.403h16.213c0.824,0,1.493-0.578,1.493-1.403V12.028h-19.2V22.832z M21.3,13.687
		h3.319v3.437H21.3V13.687z M21.3,18.901h3.319v3.319H21.3V18.901z M16.56,13.687h3.318v3.437H16.56V13.687z M16.56,18.901h3.318
		v3.319H16.56V18.901z M11.937,13.687h3.319v3.437h-3.319V13.687z M11.937,18.901h3.319v3.319h-3.319V18.901z M7.197,13.687h3.556
		v3.437H7.197V13.687z M7.197,18.901h3.556v3.319H7.197V18.901z"/> </g> </symbol><symbol viewBox="0 0 32 32" id="icon-camera"><title>icon-camera</title> <g> <path d="M29.7,7.9h-4.9c-0.6,0-1.1-0.4-1.3-0.9l-0.2-0.5c-0.4-1.3-1-2.3-2.3-2.3H11c-1.3,0-1.8,1.3-2.3,2.3L8.5,7
		C8.3,7.6,7.7,7.9,7.1,7.9l-4.9,0C0.9,7.9,0,9,0,10.2v15.4c0,1.3,1,2.3,2.3,2.3h27.5c1.2,0,2.2-1,2.2-2.2V10.2C32,9,31,7.9,29.7,7.9
		z M3.7,13.3c-0.9,0-1.7-0.8-1.7-1.7c0-0.9,0.8-1.7,1.7-1.7s1.7,0.8,1.7,1.7C5.4,12.6,4.7,13.3,3.7,13.3z M16,26.2
		c-4.8,0-8.8-3.9-8.8-8.8c0-4.8,3.9-8.8,8.8-8.8c4.8,0,8.8,3.9,8.8,8.8C24.8,22.3,20.8,26.2,16,26.2z"/> <circle cx="16" cy="17.4" r="6.2"/> </g> </symbol><symbol viewBox="0 0 32 32" id="icon-clock"><title>icon-clock</title> <g> <g> <path d="M16.063,0.001C7.228-0.035,0.035,7.099,0,15.937c-0.035,8.834,7.099,16.028,15.937,16.062
			C24.772,32.035,31.965,24.901,32,16.063C32.035,7.226,24.901,0.035,16.063,0.001z M15.967,28.203
			c-6.72,0-12.167-5.448-12.167-12.168c0-6.72,5.448-12.169,12.167-12.169c6.721,0,12.17,5.449,12.17,12.169
			C28.137,22.755,22.688,28.203,15.967,28.203z"/> <polygon points="19.356,12.063 16.744,14.675 16.744,5.533 14.685,5.533 14.685,16.848 16.072,18.263 20.813,13.52 		"/> </g> </g> </symbol><symbol viewBox="0 0 32 32" id="icon-cv"><title>icon-cv</title> <g> <path d="M16,0C7.164,0,0,7.164,0,16c0,8.837,7.164,16,16,16c8.837,0,16-7.163,16-16C32,7.164,24.837,0,16,0z M24.377,26.523H7.521
		V5.586h9.981v6.875h6.874L24.377,26.523L24.377,26.523z M19,10.963V5.586l5.377,5.377H19z"/> <path d="M13.777,22.089c-0.291,0.152-0.634,0.229-1.028,0.229c-0.744,0-1.333-0.285-1.768-0.854
		c-0.435-0.567-0.652-1.354-0.652-2.358c0-0.492,0.061-0.938,0.182-1.33c0.121-0.396,0.291-0.729,0.511-1.002
		c0.22-0.273,0.479-0.484,0.78-0.632c0.301-0.148,0.634-0.222,1.001-0.222c0.341,0,0.639,0.065,0.894,0.195
		c0.255,0.13,0.495,0.307,0.719,0.53l0.874-0.968c-0.278-0.295-0.63-0.555-1.056-0.78c-0.426-0.224-0.907-0.336-1.445-0.336
		c-0.565,0-1.094,0.103-1.586,0.309c-0.493,0.207-0.923,0.506-1.291,0.901c-0.368,0.395-0.657,0.875-0.867,1.445
		s-0.316,1.214-0.316,1.931c0,0.726,0.103,1.371,0.309,1.936s0.489,1.04,0.847,1.425c0.358,0.386,0.78,0.677,1.264,0.874
		s1.008,0.296,1.573,0.296c0.556,0,1.062-0.11,1.519-0.329c0.457-0.22,0.865-0.535,1.224-0.947l-0.874-0.955
		C14.339,21.721,14.068,21.938,13.777,22.089z"/> <path d="M18.799,23.514h1.842l2.729-8.792H21.77l-1.224,4.422c-0.135,0.502-0.258,0.978-0.37,1.426
		c-0.111,0.447-0.244,0.928-0.396,1.438h-0.053c-0.152-0.511-0.285-0.99-0.396-1.438c-0.112-0.448-0.24-0.924-0.383-1.426
		l-1.237-4.422h-1.653L18.799,23.514z"/> </g> </symbol><symbol viewBox="0 0 32 32" id="icon-dot"><title>icon-dot</title> <circle cx="16" cy="16" r="16"/> </symbol><symbol viewBox="0 0 33 15" id="icon-down-triangle"><title>icon-down-triangle</title> <polygon points="0,0 16.486,15 33,0 "/> </symbol><symbol viewBox="0 0 32 32" id="icon-email-circle"><title>icon-email-circle</title> <g> <path d="M16.063,0C7.227-0.035,0.035,7.1,0,15.936C-0.035,24.771,7.1,31.965,15.936,32
		C24.771,32.035,31.965,24.9,32,16.063C32.035,7.227,24.9,0.035,16.063,0z M4.533,12.971l5.741,3.761l-5.741,3.762V12.971z
		 M25.798,23.678h-19.5c-0.795,0-1.467-0.525-1.688-1.25l7.173-4.707l4.265,2.795l4.265-2.795l7.174,4.709
		C27.266,23.152,26.594,23.678,25.798,23.678z M27.562,20.494l-5.74-3.762l5.74-3.761V20.494z M16.047,18.543L4.533,10.986v-0.632
		c0-0.975,0.79-1.765,1.765-1.765h19.5c0.976,0,1.765,0.791,1.765,1.765v0.632L16.047,18.543z"/> </g> </symbol><symbol viewBox="0 0 32 32" id="icon-email"><title>icon-email</title> <g> <path d="M29.547,4.547H2.452C1.098,4.547,0,5.646,0,6.999v0.878l16,10.502l16-10.5v-0.88C32,5.646,30.901,4.547,29.547,4.547z"/> <polygon points="32,22.059 32,11.606 24.022,16.832 	"/> <polygon points="0,11.606 0,22.059 7.977,16.832 	"/> <path d="M16,23.059l-5.927-3.885l-9.967,6.542c0.307,1.006,1.241,1.737,2.345,1.737h27.096c1.106,0,2.04-0.731,2.347-1.735
		l-9.968-6.542L16,23.059z"/> </g> </symbol><symbol viewBox="0 0 32 32" id="icon-external-link"><title>icon-external-link</title> <g> <path d="M31.957,1.77c-0.012-0.059-0.032-0.113-0.049-0.168c-0.024-0.081-0.043-0.163-0.076-0.241
		c-0.028-0.072-0.07-0.135-0.104-0.202C31.694,1.1,31.67,1.039,31.631,0.982c-0.16-0.24-0.366-0.446-0.608-0.607
		c-0.056-0.038-0.117-0.065-0.177-0.097c-0.065-0.036-0.129-0.076-0.199-0.106C30.568,0.142,30.488,0.124,30.41,0.1
		c-0.06-0.017-0.113-0.039-0.175-0.051c-0.142-0.028-0.285-0.043-0.429-0.043H19.269c-1.212,0-2.194,0.983-2.194,2.195
		c0,1.212,0.982,2.194,2.194,2.194h5.239L11.18,17.724c-0.858,0.855-0.858,2.245,0,3.104c0.857,0.857,2.246,0.857,3.103,0
		L27.612,7.5v5.238c0,1.213,0.981,2.194,2.194,2.194c1.212,0,2.193-0.981,2.193-2.194V2.203C32,2.058,31.986,1.913,31.957,1.77z"/> <g> <path d="M21.26,20.539v6.412c0,0.342-0.277,0.62-0.618,0.62H5.048c-0.341,0-0.619-0.278-0.619-0.62V11.36
			c0-0.343,0.277-0.621,0.619-0.621h6.414l4.429-4.428H5.048C2.264,6.311,0,8.576,0,11.36v15.591C0,29.734,2.264,32,5.048,32h15.594
			c2.783,0,5.048-2.266,5.048-5.049V16.11L21.26,20.539z"/> </g> </g> </symbol><symbol viewBox="0 0 32 32" id="icon-facebook"><title>icon-facebook</title> <g id="icon-facebook-Main_Circle"> <g> <path d="M16,0C7.163,0,0,7.163,0,16s7.163,16,16,16s16-7.163,16-16S24.837,0,16,0z M16,31.2
			C7.605,31.2,0.8,24.395,0.8,16S7.605,0.8,16,0.8S31.2,7.605,31.2,16S24.395,31.2,16,31.2z"/> </g> </g> <g id="icon-facebook-FB"> <path d="M14.639,23.904h2.787v-7.32h2.754v-2.79h-2.754v-2.387c0,0-0.104-0.984,0.969-0.984h2.039V8.096H17.05
		c0,0-2.41,0-2.41,3.017v2.68h-2.406v2.791h2.409L14.639,23.904z"/> </g> </symbol><symbol viewBox="0 0 32 32" id="icon-flickr"><title>icon-flickr</title> <g id="icon-flickr-Main_Circle"> <g> <path d="M16,0C7.163,0,0,7.163,0,16s7.163,16,16,16s16-7.163,16-16S24.837,0,16,0z M16,31.2
			C7.605,31.2,0.8,24.395,0.8,16S7.605,0.8,16,0.8S31.2,7.605,31.2,16S24.395,31.2,16,31.2z"/> </g> </g> <circle cx="21.9" cy="15.833" r="4.9"/> <circle cx="9.966" cy="15.833" r="4.966"/> </symbol><symbol viewBox="0 0 32 32" id="icon-generic-blog"><title>icon-generic-blog</title> <g id="icon-generic-blog-Main_Circle"> <g> <path d="M16,0C7.163,0,0,7.163,0,16s7.163,16,16,16s16-7.163,16-16S24.837,0,16,0z M16,31.2
			C7.605,31.2,0.8,24.395,0.8,16S7.605,0.8,16,0.8S31.2,7.605,31.2,16S24.395,31.2,16,31.2z"/> </g> </g> <path d="M12.333,15.934c-0.549,0-1.075,0.098-1.566,0.269V11.6H7.572v9.007c0,0.031-0.004,0.062-0.004,0.093
	s0.004,0.062,0.004,0.093v0.074h0.004c0.089,2.553,2.183,4.6,4.757,4.6c2.633,0,4.766-2.135,4.766-4.767
	S14.966,15.934,12.333,15.934z M12.333,22.666c-1.029,0-1.863-0.793-1.95-1.799c-0.004-0.057-0.017-0.111-0.017-0.167
	c0-0.444,0.152-0.849,0.4-1.177c0.359-0.479,0.924-0.79,1.566-0.79c1.085,0,1.966,0.881,1.966,1.967S13.419,22.666,12.333,22.666z"/> <g> <path d="M12.333,5.213v2.744c7.039,0,12.745,5.706,12.745,12.745h2.744C27.82,12.147,20.886,5.213,12.333,5.213z"/> <path d="M12.333,10.7v2.733c4.014,0,7.266,3.252,7.266,7.267h2.734C22.334,15.178,17.856,10.7,12.333,10.7z"/> </g> </symbol><symbol viewBox="0 0 32 32" id="icon-google-plus"><title>icon-google-plus</title> <g id="icon-google-plus-Main_Circle"> <g> <path d="M16,0C7.163,0,0,7.163,0,16s7.163,16,16,16s16-7.163,16-16S24.837,0,16,0z M16,31.2
			C7.605,31.2,0.8,24.395,0.8,16S7.605,0.8,16,0.8S31.2,7.605,31.2,16S24.395,31.2,16,31.2z"/> </g> </g> <path d="M14.75,13.031l1.875-1.906c0,0-1.531-1.656-4.156-1.656c-3.031,0-6.562,2.062-6.562,6.531
	c0,1.812,1.344,6.031,6.344,6.344c0,0,7.031,0.344,6.125-7.781h-6v2.562h3.375c0,0-0.375,2.594-3.375,2.594
	c0,0-3.844,0.062-3.844-3.719S12.719,10.969,14.75,13.031z"/> <polygon points="26.094,14.719 23.812,14.719 23.812,12.5 22.25,12.5 22.25,14.719 20,14.719 20,16.312 
	22.25,16.312 22.25,18.5 23.812,18.5 23.812,16.312 26.094,16.312 "/> </symbol><symbol viewBox="0 0 32 32" id="icon-home"><title>icon-home</title> <g> <g> <polygon points="23.527,28.188 8.634,28.188 8.634,17.087 5.058,20.681 5.058,32 27.212,32 27.212,20.951 
			23.527,17.253 		"/> </g> <polygon points="31.384,15.384 16,0 16,0 16,0 9.491,6.509 9.491,4.385 5.058,4.385 5.058,10.943 0.616,15.384 
		2.982,17.748 16,4.731 29.02,17.748 	"/> </g> </symbol><symbol viewBox="0 0 32 32" id="icon-instagram"><title>icon-instagram</title> <g id="icon-instagram-Main_Circle"> <g> <path d="M16,0C7.163,0,0,7.163,0,16s7.163,16,16,16s16-7.163,16-16S24.837,0,16,0z M16,31.2
			C7.605,31.2,0.8,24.395,0.8,16S7.605,0.8,16,0.8S31.2,7.605,31.2,16S24.395,31.2,16,31.2z"/> </g> </g> <g id="icon-instagram-Instagram"> <path d="M22.153,14.769h-1.392c0.101,0.394,0.16,0.806,0.16,1.231c0,2.719-2.203,4.924-4.922,4.924
		c-2.718,0-4.923-2.205-4.923-4.924c0-0.426,0.061-0.837,0.161-1.231H9.846v6.77c0,0.34,0.276,0.615,0.616,0.615h11.076
		c0.342,0,0.616-0.275,0.616-0.615L22.153,14.769L22.153,14.769z M22.153,10.462c0-0.34-0.275-0.616-0.616-0.616h-1.846
		c-0.34,0-0.615,0.276-0.615,0.616v1.846c0,0.34,0.275,0.615,0.615,0.615h1.846c0.341,0,0.616-0.275,0.616-0.615V10.462z M16,12.923
		c-1.7,0-3.077,1.378-3.077,3.077c0,1.7,1.378,3.076,3.077,3.076s3.078-1.377,3.078-3.076C19.078,14.3,17.699,12.923,16,12.923
		 M22.153,24H9.846C8.827,24,8,23.174,8,22.153V9.846C8,8.827,8.827,8,9.846,8h12.308C23.174,8,24,8.827,24,9.846v12.308
		C24,23.174,23.174,24,22.153,24"/> </g> </symbol><symbol viewBox="0 0 32 32" id="icon-library"><title>icon-library</title> <g> <g> <path d="M30.833,3.45l-0.701,0.071v21.151C21.493,24.375,16,28.27,16,28.27s-5.493-3.895-14.13-3.598V3.521
			L1.168,3.45C0.523,3.336,0,3.768,0,4.413v22.162c0,0.646,0.523,1.261,1.168,1.374l11.858,1.209
			c0.154,0.467,0.587,0.805,1.104,0.805h3.738c0.519,0,0.95-0.338,1.104-0.805l11.858-1.209C31.479,27.834,32,27.219,32,26.573
			V4.413C32,3.768,31.479,3.336,30.833,3.45z"/> </g> <path d="M15.562,25.964c0,0-4.536-3.385-11.668-3.125V2.116c0,0,7.77-0.94,11.668,3.733V25.964z"/> <path d="M16.672,25.964c0,0,4.535-3.385,11.67-3.125V2.116c0,0-7.771-0.94-11.67,3.733V25.964z"/> </g> </symbol><symbol viewBox="0 0 32 32" id="icon-link-circle"><title>icon-link-circle</title> <g> <g> <path d="M19.518,16.595l3.902-3.9c0.513-0.154,1-0.434,1.405-0.84l4.337-4.337
			c0.085-0.085,0.163-0.172,0.236-0.264c-1.228-1.878-2.842-3.484-4.727-4.702c-0.086,0.07-0.169,0.146-0.25,0.226l-4.339,4.336
			c-0.346,0.346-0.6,0.75-0.763,1.182l-4.014,4.013c-0.782-2.364-0.233-5.07,1.647-6.952l4.429-4.427
			C19.721,0.335,17.931,0.007,16.063,0C7.228-0.035,0.036,7.1,0,15.936c-0.008,1.913,0.321,3.746,0.929,5.447l4.196-4.195
			c1.88-1.88,4.586-2.429,6.952-1.648l-4.014,4.015c-0.431,0.163-0.835,0.418-1.182,0.764l-4.336,4.337
			c-0.001,0-0.002,0.002-0.003,0.002c1.223,1.897,2.835,3.52,4.726,4.754c0.005-0.006,0.011-0.013,0.018-0.018l4.336-4.337
			c0.407-0.406,0.687-0.891,0.841-1.406l3.9-3.898c0.836,2.391,0.299,5.152-1.613,7.062l-4.224,4.226
			c1.688,0.615,3.511,0.954,5.411,0.962C24.772,32.035,31.966,24.899,32,16.063c0.008-1.946-0.331-3.812-0.96-5.539l-4.459,4.459
			C24.672,16.893,21.908,17.43,19.518,16.595z M11.53,23.303c-0.789,0.79-2.071,0.79-2.86,0c-0.789-0.789-0.789-2.071,0-2.86
			L20.489,8.624c0.79-0.789,2.07-0.79,2.86,0c0.79,0.79,0.79,2.071,0,2.86L11.53,23.303z"/> </g> </g> </symbol><symbol viewBox="0 0 32 32" id="icon-link-inverted"><title>icon-link-inverted</title> <g id="icon-link-inverted-Main_Circle"> <g> <path d="M16,0C7.163,0,0,7.163,0,16s7.163,16,16,16s16-7.163,16-16S24.837,0,16,0z M16,31.2
			C7.605,31.2,0.8,24.395,0.8,16C0.8,7.605,7.605,0.8,16,0.8c8.395,0,15.2,6.805,15.2,15.2C31.2,24.395,24.395,31.2,16,31.2z"/> </g> </g> <g> <path d="M12.154,22.319c-0.683,0.683-1.788,0.683-2.47,0c-0.682-0.682-0.682-1.787,0-2.469L19.891,9.644
		c0.681-0.681,1.787-0.681,2.468,0c0.682,0.683,0.682,1.789,0,2.47L12.154,22.319z"/> <path d="M22.358,9.644c-0.681-0.681-1.787-0.681-2.468,0L9.684,19.851c-0.682,0.682-0.682,1.787,0,2.469
		c0.683,0.683,1.788,0.683,2.47,0l10.205-10.205C23.04,11.433,23.04,10.327,22.358,9.644z"/> <path d="M16.327,19.252l-3.369,3.369c-0.133,0.444-0.375,0.863-0.726,1.213l-3.745,3.745
		c-0.004,0.006-0.009,0.008-0.014,0.014c0.874,0.57,1.816,1.045,2.813,1.407l3.648-3.649C16.585,23.701,17.047,21.314,16.327,19.252
		z"/> <path d="M4.395,23.485L8.14,19.74c0.299-0.298,0.648-0.519,1.02-0.659l3.466-3.465
		c-2.042-0.674-4.38-0.201-6.003,1.423L3,20.663c0.357,1,0.827,1.945,1.394,2.825C4.394,23.487,4.394,23.486,4.395,23.485z"/> <path d="M27.379,8.689l-3.745,3.745c-0.353,0.351-0.771,0.592-1.216,0.726l-3.366,3.368
		c2.062,0.724,4.448,0.258,6.099-1.392L29,11.287c-0.364-1.002-0.844-1.949-1.416-2.826C27.521,8.539,27.451,8.615,27.379,8.689z"/> <path d="M15.415,12.827l3.466-3.466c0.141-0.372,0.361-0.721,0.659-1.02l3.745-3.745
		c0.07-0.07,0.142-0.135,0.216-0.197C22.62,3.831,21.668,3.359,20.663,3l-3.824,3.824C15.215,8.448,14.741,10.786,15.415,12.827z"/> </g> </symbol><symbol viewBox="0 0 32 32" id="icon-linkedin"><title>icon-linkedin</title> <g id="icon-linkedin-Main_Circle"> <g> <path d="M16,0C7.163,0,0,7.163,0,16s7.163,16,16,16s16-7.163,16-16S24.837,0,16,0z M16,31.2
			C7.605,31.2,0.8,24.395,0.8,16S7.605,0.8,16,0.8S31.2,7.605,31.2,16S24.395,31.2,16,31.2z"/> </g> </g> <path d="M11.821,10.025c0,1.014-0.758,1.835-2.006,1.835c-1.175,0-1.934-0.821-1.934-1.835
	c0-1.039,0.783-1.835,1.982-1.835C11.062,8.188,11.797,8.985,11.821,10.025z M8.138,24.025V13.071h3.405v10.954H8.138z"/> <path d="M13.642,13.217h3.108l0.016,1.646c0.36-0.556,1.523-1.675,3.36-1.675c2.013,0,3.91,1.587,3.91,4.365v6.474
	h-3.405v-6.07c0-1.413-0.604-2.165-1.836-2.165c-0.941,0-1.39,0.439-1.636,1.066c-0.09,0.224-0.112,0.537-0.112,0.851v6.317h-3.405
	V13.217z"/> </symbol><symbol viewBox="0 0 32 32" id="icon-lock"><title>icon-lock</title> <g> <rect x="4.324" y="15.441" width="23.352" height="16.559"/> <g> <path d="M10.375,9.309c0-3.108,2.519-5.626,5.625-5.626c3.109,0,5.625,2.519,5.625,5.626v2.881h3.684V9.309
			C25.309,4.168,21.141,0,16,0S6.692,4.168,6.692,9.309v2.881h3.684V9.309z"/> </g> </g> </symbol><symbol viewBox="0 0 32 32" id="icon-magazine"><title>icon-magazine</title> <g> <path d="M16,0C7.163,0,0,7.164,0,16c0,8.837,7.163,16,16,16c8.836,0,16-7.163,16-16C32,7.164,24.836,0,16,0z
		 M24.271,22.604h-0.918V7.704c-2.348-1.171-7.048-1.546-10.243-1.664c3.134,0.154,7.262,0.568,9.413,1.665v18.016
		c0,0-0.719-0.322-1.955-0.746V8.548C19.126,6.614,14,6.117,11.062,5.993c-0.058,0-0.116-0.001-0.17-0.001h0.132
		c-0.231-0.01-0.45-0.017-0.651-0.022c2.957,0.136,7.945,0.657,9.365,2.596v18.347c0,0-0.889-0.735-2.508-1.55V10.282
		c-0.062-3.97-7.021-4.329-8.729-4.357c2.359,0.115,8.04,0.773,8.098,4.464v18.888c0,0-2.428-5.369-8.761-5.562
		c-0.067-0.001-0.135-0.003-0.203-0.003c-0.035,0-0.07-0.001-0.104-0.001V23.71c-0.014,0-0.026,0-0.04,0V5.902h0.18h0.088
		C7.927,5.904,8.171,5.91,8.471,5.923h0.316c0.322,0.003,0.751,0.012,1.25,0.031h0.026c0.484,0.004,1.112,0.014,1.83,0.037h12.378
		V22.604z"/> <path d="M10.893,5.992c0.054,0,0.112,0.001,0.17,0.001c-0.013,0-0.025-0.001-0.038-0.001H10.893z"/> <path d="M10.063,5.955h-0.026c0.108,0.004,0.221,0.009,0.336,0.015c0.201,0.005,0.42,0.013,0.651,0.022h0.869
		C11.176,5.968,10.548,5.958,10.063,5.955z"/> <path d="M11.024,5.992c0.013,0,0.025,0.001,0.038,0.001c0.55,0.005,1.251,0.019,2.049,0.048
		c-0.427-0.021-0.835-0.037-1.218-0.049H11.024z"/> <path d="M9.616,5.955c0.211,0.002,0.466,0.006,0.757,0.015c-0.115-0.005-0.228-0.01-0.336-0.015H9.616z"/> <path d="M8.391,5.923c0.034,0,0.071,0.001,0.111,0.001c-0.011,0-0.021-0.001-0.031-0.001H8.391z"/> </g> </symbol><symbol viewBox="0 0 32 32" id="icon-map-pin"><title>icon-map-pin</title> <g> <path d="M25.219,3.819c-5.09-5.092-13.347-5.092-18.437,0c-5.091,5.091-5.091,13.345,0,18.437L15.979,32
		c9.24-9.744,8.871-9.378,9.24-9.744C30.309,17.164,30.309,8.91,25.219,3.819z M16,19.105c-3.459,0-6.263-2.804-6.263-6.263
		c0-3.458,2.803-6.262,6.263-6.262c3.458,0,6.264,2.802,6.264,6.262S19.459,19.105,16,19.105z"/> </g> </symbol><symbol viewBox="0 0 100 100" id="icon-map2"><title>icon-map2</title> <path d="M80.009,60.543L80.131,60h-0.004c10.864-14,9.702-34.792-3.49-47.986
	C62.166-2.457,38.705-2.264,24.235,12.207C10.502,25.939,9.804,47.865,22.138,62.424l19.269,24.591l8.965,11.647
	c2.466-3.199,4.69-6.264,6.699-8.87C57.07,89.792,79.699,60.949,80.009,60.543z M50.436,20.256c9.828,0,17.797,7.968,17.797,17.796
	s-7.969,17.795-17.797,17.795s-17.797-7.967-17.797-17.795S40.607,20.256,50.436,20.256z"/> </symbol><symbol viewBox="0 0 32 32" id="icon-menu-hamburger"><title>icon-menu-hamburger</title> <g> <path d="M32,28.25c0,2.071-1.679,3.75-3.75,3.75H3.75C1.678,32,0,30.321,0,28.25l0,0c0-2.071,1.678-3.75,3.75-3.75
		h24.5C30.321,24.5,32,26.179,32,28.25L32,28.25z"/> <path d="M32,16c0,2.071-1.679,3.75-3.75,3.75H3.75C1.678,19.75,0,18.071,0,16l0,0c0-2.071,1.678-3.75,3.75-3.75
		h24.5C30.321,12.25,32,13.929,32,16L32,16z"/> <path d="M32,3.75c0,2.071-1.679,3.75-3.75,3.75H3.75C1.678,7.5,0,5.821,0,3.75l0,0C0,1.679,1.678,0,3.75,0h24.5
		C30.321,0,32,1.679,32,3.75L32,3.75z"/> </g> </symbol><symbol viewBox="0 0 32 32" id="icon-menu-mobile-a"><title>icon-menu-mobile-a</title> <g> <g> <path d="M9.664,19.813H8.3v-2.38c0-0.162,0.007-0.339,0.021-0.526c0.013-0.193,0.029-0.388,0.048-0.583
			c0.021-0.196,0.041-0.388,0.06-0.578c0.021-0.189,0.041-0.363,0.06-0.522h-0.04l-0.537,1.504l-0.996,2.519H6.329l-0.996-2.519
			l-0.519-1.504H4.776c0.02,0.159,0.04,0.333,0.06,0.522c0.019,0.189,0.038,0.382,0.054,0.578c0.017,0.196,0.032,0.389,0.044,0.583
			c0.014,0.191,0.021,0.368,0.021,0.526v2.38H3.611v-6.491h1.553L6.25,16.24l0.388,1.135h0.041l0.388-1.135l1.055-2.917h1.543
			V19.813z M15.359,19.813h-4.162v-6.491h4.062v1.234h-2.598v1.304h2.209v1.225h-2.209v1.494h2.697V19.813z M21.74,19.813h-1.503
			l-1.693-3.235l-0.637-1.414h-0.039c0.032,0.358,0.07,0.743,0.113,1.155c0.044,0.412,0.065,0.81,0.065,1.195v2.299h-1.395v-6.491
			h1.503l1.693,3.227l0.638,1.436h0.039c-0.034-0.343-0.071-0.729-0.114-1.155c-0.043-0.428-0.065-0.829-0.065-1.214v-2.29h1.395
			V19.813z M27.739,19.187c-0.436,0.497-1.071,0.747-1.907,0.747c-0.843,0-1.487-0.25-1.932-0.747
			c-0.445-0.498-0.668-1.291-0.668-2.383v-3.484h1.474v3.634c0,0.637,0.096,1.082,0.288,1.336c0.192,0.252,0.471,0.376,0.837,0.376
			c0.365,0,0.646-0.126,0.846-0.376c0.196-0.252,0.298-0.696,0.298-1.336v-3.634h1.411v3.484
			C28.391,17.896,28.174,18.688,27.739,19.187z"/> </g> <g> <path d="M16.064,0C7.228-0.035,0.036,7.1,0,15.936C-0.035,24.772,7.1,31.964,15.936,32
			C24.772,32.034,31.965,24.9,32,16.064C32.034,7.227,24.9,0.036,16.064,0z M15.939,31.289c-8.443-0.035-15.26-6.906-15.228-15.35
			c0.035-8.443,6.906-15.26,15.35-15.228c8.442,0.035,15.261,6.905,15.228,15.35C31.256,24.503,24.383,31.322,15.939,31.289z"/> </g> </g> </symbol><symbol viewBox="0 0 32 32" id="icon-menu-mobile-b"><title>icon-menu-mobile-b</title> <g> <path d="M16.064,0C7.228-0.035,0.036,7.1,0,15.936C-0.035,24.772,7.1,31.964,15.936,32
		C24.772,32.034,31.965,24.9,32,16.064C32.034,7.227,24.9,0.036,16.064,0z M9.664,19.813H8.3v-2.38c0-0.159,0.007-0.336,0.021-0.526
		c0.013-0.193,0.029-0.388,0.048-0.583c0.021-0.196,0.041-0.388,0.06-0.578c0.021-0.189,0.041-0.363,0.06-0.522h-0.04l-0.537,1.504
		l-0.996,2.519H6.329l-0.996-2.519l-0.519-1.504H4.776c0.02,0.159,0.04,0.333,0.06,0.522c0.019,0.189,0.038,0.382,0.054,0.578
		c0.017,0.196,0.032,0.389,0.044,0.583c0.014,0.191,0.021,0.368,0.021,0.526v2.38H3.611v-6.491h1.553L6.25,16.24l0.388,1.135h0.041
		l0.388-1.135l1.055-2.917h1.543V19.813z M15.359,19.813h-4.162v-6.491h4.062v1.234h-2.598v1.304h2.209v1.225h-2.209v1.494h2.697
		V19.813z M21.74,19.813h-1.503l-1.693-3.235l-0.637-1.414h-0.039c0.032,0.358,0.07,0.743,0.113,1.155
		c0.044,0.412,0.065,0.81,0.065,1.195v2.299h-1.395v-6.491h1.503l1.693,3.227l0.638,1.433h0.039
		c-0.034-0.345-0.071-0.73-0.114-1.155s-0.065-0.829-0.065-1.214v-2.29h1.395V19.813z M27.739,19.187
		c-0.436,0.497-1.071,0.747-1.907,0.747c-0.843,0-1.487-0.25-1.932-0.747c-0.445-0.498-0.668-1.291-0.668-2.38v-3.485h1.474v3.633
		c0,0.638,0.096,1.082,0.288,1.335c0.192,0.252,0.471,0.378,0.837,0.378c0.365,0,0.646-0.126,0.846-0.378s0.298-0.697,0.298-1.335
		v-3.633h1.414v3.485C28.391,17.896,28.174,18.688,27.739,19.187z"/> </g> </symbol><symbol viewBox="0 0 32 32" id="icon-menu-x"><title>icon-menu-x</title> <g> <g> <path d="M20.491,16.029L31.061,5.461c1.253-1.252,1.253-3.279,0-4.531c-1.252-1.251-3.281-1.251-4.53,0
			L15.961,11.499L5.468,1.006c-1.251-1.251-3.279-1.251-4.53,0c-1.25,1.25-1.252,3.279,0,4.531l10.493,10.492L0.938,26.523
			c-1.252,1.251-1.252,3.28,0,4.528c1.251,1.252,3.28,1.252,4.53,0l10.493-10.491L26.47,31.069c1.252,1.252,3.281,1.252,4.531,0
			c1.25-1.251,1.252-3.277,0-4.528L20.491,16.029z"/> </g> </g> </symbol><symbol viewBox="0 0 32 32" id="icon-mywhitman-cog"><title>icon-mywhitman-cog</title> <g> <g> <path d="M31.527,20c0.304-0.889,0.469-2.625,0.473-3.938C32.005,14.707,31.841,13,31.529,12h-2.975
			c-0.242,0-0.56-1.487-0.941-2.208l2.103-2.07c-1.35-2.238-3.229-4.104-5.471-5.453l-2.036,2.11C21.486,3.998,20,3.688,20,3.444
			V0.472C19,0.169,17.376,0.005,16.064,0C14.708-0.005,13,0.158,12,0.471v2.973c0,0.244-1.487,0.561-2.208,0.944l-2.07-2.103
			c-2.24,1.349-4.104,3.232-5.453,5.472l2.11,2.036C3.998,10.513,3.688,12,3.445,12H0.472C0.169,13,0.005,14.624,0,15.935
			C-0.005,17.291,0.159,19.111,0.472,20h2.973c0.244,0.443,0.562,1.486,0.943,2.208l-2.103,2.069
			c1.349,2.238,3.231,4.104,5.471,5.453l2.036-2.11C10.513,28.002,12,28.312,12,28.555v2.975c1,0.303,2.625,0.467,3.937,0.471
			C17.293,32.006,19,31.842,20,31.529v-2.975c0-0.244,1.486-0.561,2.207-0.943l2.07,2.104c2.238-1.35,4.104-3.231,5.451-5.471
			l-2.108-2.036c0.382-0.723,0.69-1.766,0.937-2.209H31.527z M21.141,24.391c-0.869,0.533-1.824,0.935-2.844,1.178
			c-0.749,0.18-1.531,0.274-2.336,0.271c-0.778-0.003-1.533-0.099-2.258-0.271c-1.019-0.244-1.976-0.645-2.844-1.176
			c-1.322-0.812-2.437-1.929-3.249-3.25c-0.533-0.869-0.934-1.824-1.178-2.844c-0.18-0.75-0.275-1.531-0.272-2.338
			c0.003-0.778,0.099-1.532,0.272-2.257c0.244-1.018,0.643-1.976,1.174-2.843c0.812-1.324,1.93-2.438,3.253-3.25
			c0.868-0.533,1.823-0.934,2.841-1.178c0.75-0.18,1.532-0.275,2.339-0.272c0.777,0.003,1.534,0.099,2.259,0.272
			c1.019,0.244,1.974,0.643,2.841,1.174c1.323,0.812,2.439,1.93,3.252,3.254c0.532,0.868,0.934,1.824,1.176,2.841
			c0.181,0.75,0.276,1.532,0.273,2.337c-0.004,0.779-0.1,1.534-0.273,2.26c-0.243,1.02-0.643,1.977-1.176,2.844
			C23.58,22.464,22.462,23.578,21.141,24.391z"/> </g> <g> <path d="M20.896,14.431l-3.998-5.77l0.026-0.006l-0.032-0.237l-0.421-0.56h-0.209V7.181h-0.1h-0.146v0.677h-0.17
			l-0.421,0.56l-0.032,0.247h0.019l-4,5.769l0.015,0.01l-0.009,0.011l0.779,0.54v8.979c0.219,0.103,0.441,0.194,0.669,0.278v-9.258
			l6.6,0.004v9.214c0.209-0.08,0.414-0.168,0.616-0.262V15l0.799-0.546l-0.003-0.012L20.896,14.431z"/> <path d="M16.118,16.394c-0.902,0-1.635,0.732-1.635,1.635c0,0.902,0.733,1.636,1.635,1.636
			c0.903,0,1.636-0.731,1.636-1.636S17.021,16.394,16.118,16.394z M16.118,19.312c-0.708,0-1.282-0.574-1.282-1.283
			c0-0.707,0.574-1.281,1.282-1.281c0.709,0,1.282,0.574,1.282,1.281C17.4,18.738,16.827,19.312,16.118,19.312z"/> <path d="M13.71,20.438h4.815v-4.814H13.71V20.438z M14.231,16.142h3.774v3.775h-3.774V16.142z"/> <path d="M16.12,21.021c-2.067,0-2.07,1.666-2.07,1.666v1.916c0.183,0.043,0.368,0.078,0.554,0.107V23
			c0,0,0.001-0.717,0.66-0.717c0.66,0,0.66,0.742,0.66,0.717v1.831c0.063,0.002,0.127,0.003,0.19,0.003
			c0.066,0,0.133-0.001,0.199-0.003V23c0,0,0.001-0.717,0.662-0.717c0.658,0,0.658,0.742,0.658,0.717v1.71
			c0.188-0.03,0.371-0.065,0.555-0.106v-1.916C18.188,22.771,18.188,21.021,16.12,21.021z M16.118,22.337
			c0,0-0.18-0.545-0.888-0.448c0,0,0.305-0.373,0.888-0.373c0.584,0,0.89,0.373,0.89,0.373
			C16.298,21.792,16.118,22.337,16.118,22.337z"/> </g> </g> </symbol><symbol viewBox="0 0 32 32" id="icon-news"><title>icon-news</title> <g> <path d="M16,0C7.164,0,0,7.164,0,16c0,8.837,7.164,16,16,16c8.837,0,16-7.163,16-16C32,7.164,24.837,0,16,0z M25.093,24.538
		c0,0.908-0.588,2.129-2.029,2.129H8.451c-0.563,0-1.518-1.058-1.518-1.645V6.933H22.4v16.773c0,0.37,0.252,0.827,0.62,0.827h0.224
		c0.368,0,0.756-0.457,0.756-0.944V7.885l1.021,0.842L25.093,24.538z"/> <path d="M8.533,8.533h11.733v8H8.533V8.533z M8.533,18.667h11.733v1.066H8.533V18.667z M15.467,24H8.533v-1.066h6.934V24z
		 M15.467,21.866H8.533V20.8h6.934V21.866z M20.267,24h-3.2v-3.2h3.2V24z"/> </g> </symbol><symbol viewBox="0 0 32 32" id="icon-phone"><title>icon-phone</title> <path d="M31.999,24.764c0,0.429,0,0.857,0,1.285c-0.342,3.29-3.616,5.899-7.557,5.95c-2.861,0.037-6.179-1.485-8.845-2.895
	C8.291,25.245,1.564,17.183,0.001,8.522c0-0.537,0-1.072,0-1.608C0.884,3.135,2.385-0.025,7.075,0
	c1.1,1.099,1.599,2.238,2.413,3.698c0.584,1.05,2.208,3.121,2.09,4.181c-0.245,2.206-3.867,2.528-4.019,4.502
	c-0.097,1.253,1.474,3.112,2.09,4.019c0.875,1.287,1.645,2.303,2.734,3.377c1.003,0.989,5.623,4.862,7.396,4.664
	c1.967-0.221,2.698-4.006,4.664-4.02C26.1,20.409,30.747,24.48,31.999,24.764z"/> </symbol><symbol viewBox="0 0 32 32" id="icon-pinterest"><title>icon-pinterest</title> <g id="icon-pinterest-Main_Circle"> <g> <path d="M16,0C7.163,0,0,7.163,0,16s7.163,16,16,16s16-7.163,16-16S24.837,0,16,0z M16,31.2
			C7.605,31.2,0.8,24.395,0.8,16S7.605,0.8,16,0.8S31.2,7.605,31.2,16S24.395,31.2,16,31.2z"/> </g> </g> <path d="M13.534,13.483c0,0,0.257-1.877,1.682-1.877c0,0,1.811-0.294,1.234,2.243c0,0-0.125,0.95-0.45,1.5
	c-0.222,0.753-0.19,1.377,0,2.101c0.575,0.524,1.987,0.562,2.8-0.3c1.05-1.301,1.226-2.176,1.351-3.001
	c0.126-0.824,0.1-2.5-1.225-3.8C17.601,9.05,14.25,9.6,12.9,10.8c-0.953,0.848-1.023,2.229-0.825,4.25c0,0,0.396,0.827,0.488,1.118
	c0.111,0.354-0.138,1.257-1.013,1.032c-1.218-0.314-1.6-2.6-1.55-3.75s0.794-4.75,5.098-5.375c0,0,3.528-0.449,5.652,1.375
	c0,0,2.459,1.607,1.625,5.424c-1.037,4.613-4,4.625-4.8,4.625c-0.8,0-1.41-0.292-1.816-0.604c-0.359-0.28-0.621-0.196-0.759,0.253
	c-0.067,0.697-0.975,3.45-1.8,4.525c0,0-0.8,0.425-0.85-0.591c0,0,0.066-1.676,0.366-3.101S13.458,18.059,13.534,13.483z"/> <path d="M21.725,19.5"/> </symbol><symbol viewBox="0 0 32 32" id="icon-play"><title>icon-play</title> <g> <path d="M16,0C7.164,0,0,7.164,0,16c0,8.835,7.164,16,16,16c8.836,0,16-7.164,16-16C32,7.164,24.836,0,16,0z
		 M23.608,17.452l-7.979,7.273c-0.881,0.805-2.311,0.805-3.191,0c-0.476-0.433-0.695-1.012-0.657-1.579c0,0-0.005-14.465,0-14.544
		V8.598l0,0c0.032-0.485,0.25-0.962,0.657-1.333c0.881-0.804,2.31-0.804,3.191,0l7.979,7.276
		C24.489,15.345,24.489,16.648,23.608,17.452z"/> </g> </symbol><symbol viewBox="0 0 32 32" id="icon-quote"><title>icon-quote</title> <g> <path d="M16.064,0C7.227-0.035,0.036,7.1,0,15.936C-0.035,24.772,7.099,31.965,15.936,32
		C24.772,32.035,31.965,24.899,32,16.064C32.035,7.227,24.901,0.036,16.064,0z M14.261,10.9c-1.254,0.407-2.162,0.856-2.727,1.653
		c-0.564,0.798-0.938,2.113-1.121,2.78h3.097l-1.145,7.333H5.704l1.136-7.081c0.132-1.032,0.434-1.952,0.907-2.859
		c0.472-0.906,1.06-1.68,1.764-2.368c0.702-0.688,1.505-1.247,2.406-1.7c0.901-0.454,1.846-0.737,2.835-0.862L14.261,10.9z
		 M24.255,10.9c-1.254,0.407-2.161,0.856-2.726,1.653c-0.565,0.798-0.938,2.113-1.122,2.78h3.098l-1.145,7.333h-6.663l1.137-7.081
		c0.132-1.032,0.434-1.952,0.907-2.859c0.471-0.906,1.059-1.68,1.763-2.368c0.703-0.688,1.505-1.247,2.406-1.7
		c0.9-0.454,1.846-0.737,2.835-0.862L24.255,10.9z"/> </g> </symbol><symbol viewBox="0 0 24 24" id="icon-search-a"><title>icon-search-a</title> <g> <path d="M23.895,21.334l-7.43-7.43c-0.315,0.508-0.692,0.986-1.133,1.428c-0.467,0.467-0.978,0.861-1.519,1.187
		l7.45,7.449L23.895,21.334z"/> <g> <path d="M13.449,2.307c-3.078-3.077-8.065-3.077-11.142,0c-3.077,3.077-3.077,8.065,0,11.14
			c2.609,2.611,6.595,3.006,9.622,1.188c0.542-0.325,1.051-0.722,1.52-1.188c0.439-0.438,0.816-0.918,1.131-1.425
			C16.463,8.983,16.086,4.943,13.449,2.307z M11.727,11.726c-0.111,0.11-0.226,0.216-0.344,0.314
			c-2.019,1.705-4.986,1.705-7.006,0.003c-0.119-0.1-0.235-0.206-0.347-0.317c-2.125-2.125-2.125-5.571,0-7.696s5.571-2.125,7.697,0
			C13.852,6.155,13.852,9.601,11.727,11.726z"/> </g> </g> </symbol><symbol viewBox="0 0 32 32" id="icon-search-b"><title>icon-search-b</title> <g> <path d="M31.95,28.482L19.38,15.909c-0.422,0.678-0.925,1.317-1.513,1.905c-0.625,0.625-1.307,1.15-2.029,1.586L28.438,32
		L31.95,28.482z"/> <g> <path d="M18.005,3.081c-4.109-4.108-10.767-4.108-14.875,0c-4.108,4.107-4.108,10.767,0,14.872
			c3.483,3.486,8.804,4.014,12.846,1.586c0.723-0.434,1.404-0.963,2.029-1.586c0.587-0.584,1.09-1.225,1.51-1.902
			C22.028,11.994,21.525,6.6,18.005,3.081z M15.706,15.656c-0.148,0.146-0.302,0.288-0.459,0.419
			c-2.695,2.277-6.656,2.277-9.353,0.004c-0.159-0.133-0.313-0.275-0.463-0.423c-2.837-2.837-2.837-7.437,0-10.274
			s7.438-2.837,10.276,0C18.542,8.219,18.542,12.819,15.706,15.656z"/> </g> </g> </symbol><symbol viewBox="0 0 32 32" id="icon-search-mobile-a"><title>icon-search-mobile-a</title> <g> <g> <path d="M18.307,16.012L18.307,16.012c1.556-2.608,1.255-6.073-1.008-8.336c-2.638-2.639-6.936-2.639-9.575,0
			c-2.64,2.641-2.649,6.92-0.01,9.558c2.238,2.237,5.654,2.579,8.25,1.02l0,0l0,0l8.02,8.004l2.273-2.257L18.307,16.012z
			 M15.787,15.758c-0.096,0.094-0.194,0.184-0.295,0.27c-1.732,1.461-4.277,1.462-6.011,0.001c-0.102-0.085-0.2-0.176-0.297-0.271
			c-1.822-1.824-1.822-4.78,0-6.603c1.823-1.823,4.779-1.823,6.604,0C17.609,10.978,17.609,13.935,15.787,15.758z"/> </g> </g> <g> <path d="M16.064,0C7.228-0.035,0.036,7.1,0,15.936C-0.035,24.772,7.1,31.964,15.937,32
		C24.772,32.034,31.965,24.9,32,16.064C32.034,7.227,24.9,0.036,16.064,0z M15.939,31.289c-8.443-0.035-15.261-6.906-15.228-15.35
		c0.035-8.443,6.906-15.26,15.35-15.228c8.442,0.035,15.26,6.905,15.228,15.35C31.255,24.503,24.383,31.322,15.939,31.289z"/> </g> </symbol><symbol viewBox="0 0 32 32" id="icon-search-mobile-b"><title>icon-search-mobile-b</title> <g> <path d="M9.183,9.156c-1.822,1.822-1.822,4.779,0,6.603c0.097,0.095,0.196,0.186,0.297,0.271
		c1.734,1.461,4.279,1.46,6.011-0.001c0.101-0.085,0.199-0.175,0.295-0.27c1.822-1.824,1.822-4.78,0-6.603
		C13.962,7.332,11.007,7.332,9.183,9.156z"/> <path d="M16.064,0C7.228-0.035,0.036,7.1,0,15.936C-0.035,24.772,7.1,31.964,15.937,32
		C24.772,32.034,31.965,24.9,32,16.064C32.034,7.227,24.9,0.036,16.064,0z M23.984,26.258l-8.02-8.004
		c-2.596,1.56-6.011,1.22-8.25-1.02c-2.639-2.638-2.63-6.917,0.01-9.558c2.639-2.639,6.937-2.639,9.575,0
		c2.263,2.263,2.563,5.728,1.008,8.335v0.001l7.954,7.989L23.984,26.258z"/> </g> </symbol><symbol viewBox="0 0 32 32" id="icon-share"><title>icon-share</title> <path d="M25.668,19.938c-1.773,0-3.372,0.769-4.477,1.992l-9.028-4.388c0.128-0.493,0.198-1.009,0.198-1.542
	c0-0.009,0-0.016,0-0.025c0-0.009,0-0.016,0-0.025c0-0.518-0.064-1.02-0.188-1.5l9.019-4.379c1.104,1.222,2.701,1.991,4.477,1.991
	c3.332,0,6.032-2.7,6.032-6.031C31.7,2.7,29,0,25.668,0c-3.331,0-6.029,2.7-6.029,6.031c0,0.548,0.073,1.079,0.211,1.586
	l-8.981,4.361C9.763,10.717,8.141,9.919,6.33,9.919c-3.33,0-6.03,2.7-6.03,6.031c0,0.009,0,0.016,0,0.025c0,0.009,0,0.016,0,0.025
	c0,3.331,2.7,6.031,6.03,6.031c1.794,0,3.405-0.783,4.509-2.024l9.013,4.375c-0.14,0.505-0.213,1.038-0.213,1.587
	c0,3.331,2.698,6.031,6.029,6.031C29,32,31.7,29.3,31.7,25.969C31.7,22.639,29,19.938,25.668,19.938z"/> </symbol><symbol viewBox="0 0 32 32" id="icon-snail-mail"><title>icon-snail-mail</title> <g> <g> <g> <path d="M5.797,0.197C5.652,0.182,5.506,0.171,5.358,0.171c-2.873,0-5.201,3.07-5.201,6.858v11.943h10.4V7.029
				C10.557,3.437,8.463,0.49,5.797,0.197z M8.69,10.966H2.026V7.72H8.69V10.966z"/> </g> <path d="M25.693,0h-1.326H7.681c3.452,0,4.962,4.75,4.962,6.829v12.144h19.2v-0.126V6.778
			C31.845,3.239,29.266,0,25.693,0z"/> </g> <rect x="12.697" y="20.701" width="7.687" height="11.299"/> </g> </symbol><symbol viewBox="0 0 32 32" id="icon-tumblr"><title>icon-tumblr</title> <g id="icon-tumblr-Main_Circle"> <g> <path d="M16,0C7.163,0,0,7.163,0,16s7.163,16,16,16s16-7.163,16-16S24.837,0,16,0z M16,31.2
			C7.605,31.2,0.8,24.395,0.8,16S7.605,0.8,16,0.8S31.2,7.605,31.2,16S24.395,31.2,16,31.2z"/> </g> </g> <path d="M14.667,8.065h2.068v4.053h3.842v2.449h-3.8v4.938c0,0,0.718,3.505,4.265,1.015v2.575
	c0,0-0.718,0.802-3.588,0.802c-2.871,0-4.391-1.816-4.391-3.377V14.61h-1.858v-2.322C11.204,12.287,14.667,11.612,14.667,8.065z"/> </symbol><symbol viewBox="0 0 32 32" id="icon-twitter"><title>icon-twitter</title> <g id="icon-twitter-Main_Circle"> <g> <path d="M16,0C7.163,0,0,7.163,0,16s7.163,16,16,16s16-7.163,16-16S24.837,0,16,0z M16,31.2
			C7.605,31.2,0.8,24.395,0.8,16S7.605,0.8,16,0.8S31.2,7.605,31.2,16S24.395,31.2,16,31.2z"/> </g> </g> <g id="icon-twitter-Twitter"> <path d="M8,21.404c0,0,2.231,1.374,5.184,1.374c2.952,0,9.097-2.404,9.097-10.232L24,11.001l-1.82,0.446
		l1.442-1.922l-2.059,1.132c0,0-0.584-1.434-2.748-1.434c0,0-3.423-0.231-2.986,4.069c0,0-3.683,1.03-7.391-3.399
		c0,0-0.85,2.884,1.262,4.661c0,0-0.901-0.103-1.519-0.644c0,0-0.05,2.292,2.652,3.501c0,0-0.901,0.31-1.389,0.078
		c0,0,0.463,1.828,2.96,2.602C12.403,20.092,11.193,21.559,8,21.404z"/> </g> </symbol><symbol viewBox="0 0 32 32" id="icon-vimeo"><title>icon-vimeo</title> <g id="icon-vimeo-Main_Circle"> <g> <path d="M16,0C7.163,0,0,7.163,0,16s7.163,16,16,16s16-7.163,16-16S24.837,0,16,0z M16,31.2
			C7.605,31.2,0.8,24.395,0.8,16S7.605,0.8,16,0.8S31.2,7.605,31.2,16S24.395,31.2,16,31.2z"/> </g> </g> <path d="M9.2,13.6c0,0-1.2,0.275-0.85-0.85c0,0,1.9-3.225,4.625-3.4c0,0,1.65,0.225,1.825,1.524
	c0,0,0.951,6.025,1.425,6.525c0.474,0.5,0.7,0.649,1.425-0.226c0,0,1.724-2.375,1.699-3.424c0,0-0.024-1.476-1.551-1
	c0,0-0.849,0.25-0.625-0.576c0,0,1.25-2.824,4.101-2.824c0,0,2.551-0.125,2.551,2.55c0,2.675-4.5,9.375-7.375,10.55
	c0,0-1.625,0.976-2.476-0.399c0,0-2.275-4.525-3.125-8.476C10.85,13.575,10.351,12.649,9.2,13.6z"/> </symbol><symbol viewBox="0 0 32 32" id="icon-youtube"><title>icon-youtube</title> <g id="icon-youtube-Main_Circle"> <g> <path d="M16,0C7.163,0,0,7.163,0,16s7.163,16,16,16s16-7.163,16-16S24.837,0,16,0z M16,31.2
			C7.605,31.2,0.8,24.395,0.8,16S7.605,0.8,16,0.8S31.2,7.605,31.2,16S24.395,31.2,16,31.2z"/> </g> </g> <g id="icon-youtube-YouTube"> <g> <path id="icon-youtube-The_Sharpness" opacity="0.12" enable-background="new    " d="M14.347,13.58l3.792,2.532l0.532-0.276
			L14.347,13.58z"/> <g id="icon-youtube-Lozenge"> <g> <path d="M23.84,12.801c0,0-0.155-1.103-0.636-1.588c-0.608-0.637-1.29-0.64-1.604-0.678
					c-2.239-0.163-5.598-0.163-5.598-0.163h-0.007c0,0-3.358,0-5.598,0.163c-0.313,0.037-0.995,0.04-1.603,0.678
					c-0.48,0.485-0.635,1.588-0.635,1.588S8,14.095,8,15.39v1.214c0,1.295,0.16,2.589,0.16,2.589s0.156,1.104,0.635,1.588
					c0.608,0.638,1.409,0.617,1.765,0.684c1.28,0.123,5.44,0.161,5.44,0.161s3.361-0.006,5.6-0.167
					c0.312-0.037,0.996-0.04,1.604-0.678c0.479-0.485,0.636-1.588,0.636-1.588s0.16-1.295,0.16-2.589V15.39
					C24,14.095,23.84,12.801,23.84,12.801z M14.348,18.075l-0.001-4.495l4.324,2.255L14.348,18.075z"/> </g> </g> <path id="icon-youtube-The_Sharpness_1_" opacity="0.12" enable-background="new    " d="M14.347,13.58l3.792,2.532l0.532-0.276
			L14.347,13.58z"/> <g id="icon-youtube-Lozenge_1_"> <g> <path d="M23.84,12.801c0,0-0.155-1.103-0.636-1.588c-0.608-0.637-1.29-0.64-1.604-0.678
					c-2.239-0.163-5.598-0.163-5.598-0.163h-0.007c0,0-3.358,0-5.598,0.163c-0.313,0.037-0.995,0.04-1.603,0.678
					c-0.48,0.485-0.635,1.588-0.635,1.588S8,14.095,8,15.39v1.214c0,1.295,0.16,2.589,0.16,2.589s0.156,1.104,0.635,1.588
					c0.608,0.638,1.409,0.617,1.765,0.684c1.28,0.123,5.44,0.161,5.44,0.161s3.361-0.006,5.6-0.167
					c0.312-0.037,0.996-0.04,1.604-0.678c0.479-0.485,0.636-1.588,0.636-1.588s0.16-1.295,0.16-2.589V15.39
					C24,14.095,23.84,12.801,23.84,12.801z M14.348,18.075l-0.001-4.495l4.324,2.255L14.348,18.075z"/> </g> </g> <path id="icon-youtube-The_Sharpness_2_" opacity="0.12" enable-background="new    " d="M14.347,13.58l3.792,2.532l0.532-0.276
			L14.347,13.58z"/> <g id="icon-youtube-Lozenge_2_"> <g> <path d="M23.84,12.801c0,0-0.155-1.103-0.636-1.588c-0.608-0.637-1.29-0.64-1.604-0.678
					c-2.239-0.163-5.598-0.163-5.598-0.163h-0.007c0,0-3.358,0-5.598,0.163c-0.313,0.037-0.995,0.04-1.603,0.678
					c-0.48,0.485-0.635,1.588-0.635,1.588S8,14.095,8,15.39v1.214c0,1.295,0.16,2.589,0.16,2.589s0.156,1.104,0.635,1.588
					c0.608,0.638,1.409,0.617,1.765,0.684c1.28,0.123,5.44,0.161,5.44,0.161s3.361-0.006,5.6-0.167
					c0.312-0.037,0.996-0.04,1.604-0.678c0.479-0.485,0.636-1.588,0.636-1.588s0.16-1.295,0.16-2.589V15.39
					C24,14.095,23.84,12.801,23.84,12.801z M14.348,18.075l-0.001-4.495l4.324,2.255L14.348,18.075z"/> </g> </g> </g> </g> </symbol><symbol viewBox="0 0 180 15" id="logo-whitman-nc-flat"><title>logo-whitman-nc-flat</title> <g> <g> <path d="M18.741,1.447l-4.795,13.37h-0.414l-3.39-9.543l-3.55,9.543H6.178L1.36,1.354L0,1.169V0.432h5.187v0.737
			L3.272,1.354L6.801,11.38l2.788-7.628L8.714,1.354L7.308,1.169V0.432h5.301v0.737l-1.914,0.185v0.231l3.411,9.795l3.527-9.957
			l-1.843-0.254V0.432h4.311v0.737L18.741,1.447z"/> <path d="M26.78,14.632v-0.646l1.66-0.185V9.838h-5.256v3.964l1.661,0.185v0.646h-4.98v-0.646l1.66-0.185v-8.3
			l-1.66-0.183V4.674h4.98v0.646l-1.661,0.183v3.505h5.256V5.502l-1.66-0.183V4.674h4.956v0.646l-1.659,0.183v8.3l1.659,0.185v0.646
			H26.78z"/> <path d="M34.505,14.632v-0.646l1.661-0.185v-8.3l-1.661-0.183V4.674h4.978v0.646l-1.658,0.183v8.3l1.658,0.185
			v0.646H34.505z"/> <path d="M50.296,7.44l-0.254-1.938h-2.788v8.3l1.659,0.185v0.646h-4.98v-0.646l1.66-0.185v-8.3h-2.812L42.526,7.44
			H41.79V4.674h9.243V7.44H50.296z"/> <path d="M62.252,14.632v-0.646l1.66-0.185l-0.461-6.938l-3.78,7.768h-0.369l-3.71-7.584l-0.414,6.663l1.658,0.276
			v0.646h-4.288v-0.646l1.66-0.276l0.553-8.208l-1.658-0.183V4.674h3.134l3.642,7.538l3.665-7.538h3.112v0.646l-1.66,0.137
			l0.576,8.345l1.66,0.185v0.646H62.252z"/> <path d="M74.842,14.632v-0.646l1.729-0.185l-0.945-2.19h-4.011l-0.921,2.168l1.729,0.207v0.646h-3.965v-0.646
			l1.267-0.23l3.942-9.267h0.738l3.989,9.313l1.244,0.185v0.646H74.842z M73.643,6.864h-0.046l-1.637,3.918h3.319L73.643,6.864z"/> <path d="M91.254,5.596v9.129h-0.529l-7.146-7.77v6.755l1.638,0.276v0.646h-4.242v-0.646l1.636-0.276V5.919
			l-0.437-0.462l-1.199-0.137V4.674h2.72l6.593,7.216V5.596l-1.637-0.276V4.674h4.241v0.646L91.254,5.596z"/> <path d="M109.286,15c-4.104,0-7.193-2.881-7.193-7.377c0-4.494,2.997-7.561,7.491-7.561
			c1.914,0,3.065,0.324,3.918,0.691l0.3-0.691h0.738l-0.184,4.173h-0.739l-0.369-1.821c-1.104-0.921-2.145-1.43-4.056-1.43
			c-2.768,0-5.07,2.375-5.07,6.293c0,3.504,1.911,6.685,5.325,6.685c1.843,0,3.434-0.762,4.656-2.028l0.553,0.737
			C113.134,14.217,111.383,15,109.286,15z"/> <path d="M121.198,15c-3.043,0-5.42-2.12-5.42-5.256s2.468-5.439,5.512-5.439c3.042,0,5.417,2.121,5.417,5.254
			C126.707,12.695,124.241,15,121.198,15z M121.198,5.135c-2.03,0-3.528,1.659-3.528,4.425c0,2.767,1.591,4.611,3.62,4.611
			c2.03,0,3.527-1.661,3.527-4.427S123.226,5.135,121.198,5.135z"/> <path d="M127.967,14.632v-0.646l1.657-0.185v-8.3l-1.657-0.183V4.674h4.979v0.646l-1.661,0.183v8.3h3.921
			l0.346-2.098h0.783v2.928H127.967z"/> <path d="M138.237,14.632v-0.646l1.66-0.185v-8.3l-1.66-0.183V4.674h4.977v0.646l-1.657,0.183v8.3h3.918
			l0.347-2.098h0.783v2.928H138.237z"/> <path d="M148.084,14.632v-0.646l1.662-0.185v-8.3l-1.662-0.183V4.674h8.277v2.604h-0.735l-0.255-1.776h-3.965
			v3.505h2.721l0.182-1.105H155v3.04h-0.691l-0.182-1.104h-2.721v3.964h4.103l0.302-1.867h0.78v2.697H148.084z"/> <path d="M168.659,11.312v2.582c-0.763,0.484-2.264,1.105-4.266,1.105c-3.137,0-5.531-2.145-5.531-5.279
			c0-3.134,2.212-5.416,5.669-5.416c1.567,0,2.535,0.345,3.203,0.552l0.185-0.552h0.692l-0.14,3.135h-0.691l-0.252-1.384
			c-1.015-0.668-1.891-0.921-3.181-0.921c-2.123,0-3.595,1.681-3.595,4.402c0,2.696,1.45,4.634,3.801,4.634
			c1.199,0,1.938-0.255,2.446-0.646v-2.212l-1.8-0.186v-0.645h4.15v0.599L168.659,11.312z"/> <path d="M171.494,14.632v-0.646l1.66-0.185v-8.3l-1.66-0.183V4.674h8.275v2.604h-0.74l-0.252-1.776h-3.963v3.505
			h2.72l0.185-1.105h0.69v3.04h-0.69l-0.185-1.104h-2.72v3.964h4.103l0.298-1.867H180v2.697H171.494z"/> </g> </g> </symbol><symbol viewBox="0 0 164 60" id="logo-whitman-nc-stacked"><title>logo-whitman-nc-stacked</title> <g> <g> <path d="M33.305,2.729l-8.344,23.267h-0.722L18.341,9.388l-6.177,16.608h-0.722L3.058,2.568L0.691,2.247V0.965
			h9.027v1.282L6.387,2.568l6.138,17.45L17.379,6.74l-1.525-4.172l-2.446-0.322V0.965h9.225v1.282l-3.329,0.322v0.402l5.937,17.047
			l6.138-17.329L28.17,2.247V0.965h7.501v1.282L33.305,2.729z"/> <path d="M47.294,25.676v-1.124l2.888-0.321v-6.899h-9.146v6.899l2.888,0.321v1.124H35.26v-1.124l2.889-0.321V9.789
			l-2.889-0.32V8.345h8.665v1.124l-2.888,0.32v6.099h9.146V9.789l-2.888-0.32V8.345h8.625v1.124l-2.888,0.32v14.443l2.888,0.321
			v1.124H47.294z"/> <path d="M60.736,25.676v-1.124l2.89-0.321V9.789l-2.89-0.32V8.345h8.665v1.124l-2.887,0.32v14.443l2.887,0.321
			v1.124H60.736z"/> <path d="M88.216,13.16l-0.441-3.372h-4.853v14.443l2.889,0.321v1.124h-8.666v-1.124l2.889-0.321V9.789H75.14
			l-0.442,3.372h-1.284V8.345h16.087v4.815H88.216z"/> <path d="M109.025,25.676v-1.124l2.888-0.321l-0.803-12.075l-6.578,13.519h-0.642l-6.458-13.198L96.71,24.071
			l2.889,0.481v1.124h-7.462v-1.124l2.889-0.481l0.963-14.283l-2.887-0.32V8.345h5.454l6.338,13.118l6.378-13.118h5.417v1.124
			l-2.89,0.241l1.005,14.522l2.887,0.321v1.124H109.025z"/> <path d="M130.933,25.676v-1.124l3.01-0.321l-1.645-3.811h-6.98l-1.605,3.77l3.009,0.362v1.124h-6.9v-1.124
			l2.207-0.401l6.859-16.126h1.283l6.941,16.207l2.166,0.321v1.124H130.933z M128.848,12.157h-0.082l-2.847,6.82h5.776
			L128.848,12.157z"/> <path d="M159.498,9.95v15.886h-0.923l-12.436-13.52v11.755l2.849,0.481v1.124h-7.383v-1.124l2.849-0.481V10.512
			l-0.763-0.803l-2.086-0.241V8.345h4.735l11.472,12.558V9.95l-2.849-0.481V8.345h7.382v1.124L159.498,9.95z"/> </g> <g> <path d="M26.111,59.035c-7.14,0-12.516-5.015-12.516-12.837c0-7.823,5.215-13.159,13.037-13.159
			c3.33,0,5.336,0.562,6.82,1.205l0.521-1.205h1.283l-0.32,7.262h-1.284l-0.644-3.167c-1.924-1.604-3.731-2.489-7.059-2.489
			c-4.814,0-8.825,4.133-8.825,10.952c0,6.098,3.329,11.633,9.266,11.633c3.21,0,5.979-1.324,8.104-3.529l0.961,1.283
			C32.811,57.671,29.762,59.035,26.111,59.035z"/> <path d="M46.842,59.035c-5.294,0-9.427-3.689-9.427-9.146s4.292-9.467,9.589-9.467
			c5.294,0,9.426,3.691,9.426,9.145C56.43,55.023,52.139,59.035,46.842,59.035z M46.842,41.867c-3.531,0-6.138,2.886-6.138,7.699
			c0,4.815,2.767,8.024,6.3,8.024c3.531,0,6.137-2.889,6.137-7.702S50.372,41.867,46.842,41.867z"/> <path d="M58.621,58.394v-1.123l2.887-0.321V42.507l-2.887-0.319v-1.125h8.665v1.125l-2.889,0.319v14.442h6.82
			L71.82,53.3h1.362v5.094H58.621z"/> <path d="M76.496,58.394v-1.123l2.888-0.321V42.507l-2.888-0.319v-1.125h8.664v1.125l-2.887,0.319v14.442h6.818
			l0.603-3.649h1.363v5.094H76.496z"/> <path d="M93.636,58.394v-1.123l2.887-0.321V42.507l-2.887-0.319v-1.125h14.401v4.534h-1.283l-0.442-3.09h-6.898
			v6.1h4.733l0.319-1.926h1.205v5.293h-1.205l-0.319-1.924h-4.733v6.899h7.141l0.521-3.249h1.362v4.693H93.636z"/> <path d="M129.434,52.617v4.492c-1.324,0.844-3.932,1.926-7.419,1.926c-5.457,0-9.627-3.732-9.627-9.188
			c0-5.454,3.848-9.426,9.867-9.426c2.728,0,4.412,0.602,5.573,0.961l0.323-0.961h1.203l-0.242,5.457h-1.202l-0.441-2.408
			c-1.765-1.165-3.289-1.604-5.535-1.604c-3.692,0-6.258,2.927-6.258,7.66c0,4.694,2.526,8.063,6.618,8.063
			c2.086,0,3.369-0.44,4.252-1.123v-3.851l-3.129-0.322v-1.123h7.221v1.045L129.434,52.617z"/> <path d="M134.372,58.394v-1.123l2.886-0.321V42.507l-2.886-0.319v-1.125h14.399v4.534h-1.284l-0.438-3.09h-6.9v6.1
			h4.732l0.322-1.926h1.203v5.293h-1.203l-0.322-1.924h-4.732v6.899h7.14l0.521-3.249h1.366v4.693H134.372z"/> </g> </g> </symbol><symbol viewBox="0 0 180 15" id="logo-whitman-no-clocktower"><title>logo-whitman-no-clocktower</title> <g> <g> <path d="M18.741,1.447l-4.795,13.37h-0.414l-3.39-9.543l-3.55,9.543H6.178L1.36,1.354L0,1.169V0.432h5.187v0.737
			L3.272,1.354L6.801,11.38l2.788-7.628L8.714,1.354L7.308,1.169V0.432h5.301v0.737l-1.914,0.185v0.231l3.411,9.795l3.527-9.957
			l-1.843-0.254V0.432h4.311v0.737L18.741,1.447z"/> <path d="M26.78,14.632v-0.646l1.66-0.185V9.838h-5.256v3.964l1.661,0.185v0.646h-4.98v-0.646l1.66-0.185v-8.3
			l-1.66-0.183V4.674h4.98v0.646l-1.661,0.183v3.505h5.256V5.502l-1.66-0.183V4.674h4.956v0.646l-1.659,0.183v8.3l1.659,0.185v0.646
			H26.78z"/> <path d="M34.505,14.632v-0.646l1.661-0.185v-8.3l-1.661-0.183V4.674h4.978v0.646l-1.658,0.183v8.3l1.658,0.185
			v0.646H34.505z"/> <path d="M50.296,7.44l-0.254-1.938h-2.788v8.3l1.659,0.185v0.646h-4.98v-0.646l1.66-0.185v-8.3h-2.812L42.526,7.44
			H41.79V4.674h9.243V7.44H50.296z"/> <path d="M62.252,14.632v-0.646l1.66-0.185l-0.461-6.938l-3.78,7.768h-0.369l-3.71-7.584l-0.414,6.663l1.658,0.276
			v0.646h-4.288v-0.646l1.66-0.276l0.553-8.208l-1.658-0.183V4.674h3.134l3.642,7.538l3.665-7.538h3.112v0.646l-1.66,0.137
			l0.576,8.345l1.66,0.185v0.646H62.252z"/> <path d="M74.842,14.632v-0.646l1.729-0.185l-0.945-2.19h-4.011l-0.921,2.168l1.729,0.207v0.646h-3.965v-0.646
			l1.267-0.23l3.942-9.267h0.738l3.989,9.313l1.244,0.185v0.646H74.842z M73.643,6.864h-0.046l-1.637,3.918h3.319L73.643,6.864z"/> <path d="M91.254,5.596v9.129h-0.529l-7.146-7.77v6.755l1.638,0.276v0.646h-4.242v-0.646l1.636-0.276V5.919
			l-0.437-0.462l-1.199-0.137V4.674h2.72l6.593,7.216V5.596l-1.637-0.276V4.674h4.241v0.646L91.254,5.596z"/> <path d="M109.286,15c-4.104,0-7.193-2.881-7.193-7.377c0-4.494,2.997-7.561,7.491-7.561
			c1.914,0,3.065,0.324,3.918,0.691l0.3-0.691h0.738l-0.184,4.173h-0.739l-0.369-1.821c-1.104-0.921-2.145-1.43-4.056-1.43
			c-2.768,0-5.07,2.375-5.07,6.293c0,3.504,1.911,6.685,5.325,6.685c1.843,0,3.434-0.762,4.656-2.028l0.553,0.737
			C113.134,14.217,111.383,15,109.286,15z"/> <path d="M121.198,15c-3.043,0-5.42-2.12-5.42-5.256s2.468-5.439,5.512-5.439c3.042,0,5.417,2.121,5.417,5.254
			C126.707,12.695,124.241,15,121.198,15z M121.198,5.135c-2.03,0-3.528,1.659-3.528,4.425c0,2.767,1.591,4.611,3.62,4.611
			c2.03,0,3.527-1.661,3.527-4.427S123.226,5.135,121.198,5.135z"/> <path d="M127.967,14.632v-0.646l1.657-0.185v-8.3l-1.657-0.183V4.674h4.979v0.646l-1.661,0.183v8.3h3.921
			l0.346-2.098h0.783v2.928H127.967z"/> <path d="M138.237,14.632v-0.646l1.66-0.185v-8.3l-1.66-0.183V4.674h4.977v0.646l-1.657,0.183v8.3h3.918
			l0.347-2.098h0.783v2.928H138.237z"/> <path d="M148.084,14.632v-0.646l1.662-0.185v-8.3l-1.662-0.183V4.674h8.277v2.604h-0.735l-0.255-1.776h-3.965
			v3.505h2.721l0.182-1.105H155v3.04h-0.691l-0.182-1.104h-2.721v3.964h4.103l0.302-1.867h0.78v2.697H148.084z"/> <path d="M168.659,11.312v2.582c-0.763,0.484-2.264,1.105-4.266,1.105c-3.137,0-5.531-2.145-5.531-5.279
			c0-3.134,2.212-5.416,5.669-5.416c1.567,0,2.535,0.345,3.203,0.552l0.185-0.552h0.692l-0.14,3.135h-0.691l-0.252-1.384
			c-1.015-0.668-1.891-0.921-3.181-0.921c-2.123,0-3.595,1.681-3.595,4.402c0,2.696,1.45,4.634,3.801,4.634
			c1.199,0,1.938-0.255,2.446-0.646v-2.212l-1.8-0.186v-0.645h4.15v0.599L168.659,11.312z"/> <path d="M171.494,14.632v-0.646l1.66-0.185v-8.3l-1.66-0.183V4.674h8.275v2.604h-0.74l-0.252-1.776h-3.963v3.505
			h2.72l0.185-1.105h0.69v3.04h-0.69l-0.185-1.104h-2.72v3.964h4.103l0.298-1.867H180v2.697H171.494z"/> </g> </g> </symbol><symbol viewBox="0 0 390 20" id="slider-category-arrow-2px"><title>slider-category-arrow-2px</title> <polyline stroke="#333333" stroke-width="2" stroke-miterlimit="10" points="0,1.25 177.879,1.25 193.595,18.75 
	211.202,1.25 390,1.25 "/> </symbol><symbol viewBox="0 0 33 20" id="slider-category-arrow-no-line"><title>slider-category-arrow-no-line</title> <polygon points="33,0.603 33,1.978 15.581,19.397 0,1.978 0,0.614 15.581,17.933 "/> </symbol><symbol viewBox="0 0 390 20" id="slider-category-arrow-solid"><title>slider-category-arrow-solid</title> <polygon points="211,0 193.609,17.266 178.062,0 0,0 0,1 177.7,1 193.562,18.688 211.406,1 390,1.042 390,0 "/> </symbol><symbol viewBox="0 0 390 20" id="slider-category-arrow"><title>slider-category-arrow</title> <polyline stroke="#333333" stroke-miterlimit="10" points="0,0.5 177.879,0.5 193.595,18 211.202,0.5 390,0.5 "/> </symbol><symbol viewBox="0 0 390 20" id="slider-category-line-2px"><title>slider-category-line-2px</title> <line stroke="#333333" stroke-width="2" stroke-miterlimit="10" x1="0" y1="1.25" x2="390" y2="1.25"/> </symbol><symbol viewBox="0 0 390 20" id="slider-category-line-solid"><title>slider-category-line-solid</title> <polygon points="0,0 0,1 390,1.042 390,0 "/> </symbol><symbol viewBox="0 0 390 20" id="slider-category-line"><title>slider-category-line</title> <line stroke="#333333" stroke-miterlimit="10" x1="0" y1="0.5" x2="390" y2="0.5"/> </symbol><symbol viewBox="0 0 32 32" id="tc_icon-filmstrip-fl"><title>tc_icon-filmstrip-fl</title> <g> <path d="M16,1c8.3,0,15,6.7,15,15s-6.7,15-15,15S1,24.3,1,16S7.7,1,16,1 M16,0C7.2,0,0,7.2,0,16s7.2,16,16,16s16-7.2,16-16
		S24.8,0,16,0L16,0z"/> <g> <g> <path d="M26.5,24.5c-0.3,0-0.5-0.2-0.5-0.5V8c0-0.3,0.2-0.5,0.5-0.5S27,7.7,27,8v16C27,24.3,26.8,24.5,26.5,24.5z"/> </g> <g> <path d="M5.5,24.5C5.2,24.5,5,24.3,5,24V8c0-0.3,0.2-0.5,0.5-0.5S6,7.7,6,8v16C6,24.3,5.8,24.5,5.5,24.5z"/> </g> <g> <g> <path d="M8.5,24.5C8.2,24.5,8,24.3,8,24v-1c0-0.3,0.2-0.5,0.5-0.5S9,22.7,9,23v1C9,24.3,8.8,24.5,8.5,24.5z"/> <path d="M8.5,19.5C8.2,19.5,8,19.3,8,19v-1c0-0.3,0.2-0.5,0.5-0.5S9,17.7,9,18v1C9,19.3,8.8,19.5,8.5,19.5z M8.5,14.5
					C8.2,14.5,8,14.3,8,14v-1c0-0.3,0.2-0.5,0.5-0.5S9,12.7,9,13v1C9,14.3,8.8,14.5,8.5,14.5z"/> <path d="M8.5,9.5C8.2,9.5,8,9.3,8,9V8c0-0.3,0.2-0.5,0.5-0.5S9,7.7,9,8v1C9,9.3,8.8,9.5,8.5,9.5z"/> </g> </g> <g> <g> <path d="M23.5,24.5c-0.3,0-0.5-0.2-0.5-0.5v-1c0-0.3,0.2-0.5,0.5-0.5S24,22.7,24,23v1C24,24.3,23.8,24.5,23.5,24.5z"/> <path d="M23.5,19.5c-0.3,0-0.5-0.2-0.5-0.5v-1c0-0.3,0.2-0.5,0.5-0.5S24,17.7,24,18v1C24,19.3,23.8,19.5,23.5,19.5z M23.5,14.5
					c-0.3,0-0.5-0.2-0.5-0.5v-1c0-0.3,0.2-0.5,0.5-0.5S24,12.7,24,13v1C24,14.3,23.8,14.5,23.5,14.5z"/> <path d="M23.5,9.5C23.2,9.5,23,9.3,23,9V8c0-0.3,0.2-0.5,0.5-0.5S24,7.7,24,8v1C24,9.3,23.8,9.5,23.5,9.5z"/> </g> </g> <path d="M20.1,20H12c-0.3,0-0.5-0.2-0.5-0.5v-6.7c0-0.3,0.2-0.5,0.5-0.5h8.1c0.3,0,0.5,0.2,0.5,0.5v6.7C20.6,19.8,20.3,20,20.1,20
			z M12.5,19h7.1v-5.7h-7.1V19z"/> <path d="M20.1,24.7c-0.3,0-0.5-0.2-0.5-0.5v-0.8h-7.1v0.8c0,0.3-0.2,0.5-0.5,0.5s-0.5-0.2-0.5-0.5v-1.3c0-0.3,0.2-0.5,0.5-0.5h8.1
			c0.3,0,0.5,0.2,0.5,0.5v1.3C20.6,24.5,20.3,24.7,20.1,24.7z"/> <path d="M20.1,10H12c-0.3,0-0.5-0.2-0.5-0.5V8.2c0-0.3,0.2-0.5,0.5-0.5s0.5,0.2,0.5,0.5V9h7.1V8.2c0-0.3,0.2-0.5,0.5-0.5
			s0.5,0.2,0.5,0.5v1.3C20.6,9.8,20.3,10,20.1,10z"/> </g> </g> </symbol><symbol viewBox="0 0 32 32" id="tc_icon-filmstrip-ln"><title>tc_icon-filmstrip-ln</title> <style type="text/css"> .st0{fill:none;stroke:#000000;stroke-linecap:round;stroke-linejoin:round;stroke-miterlimit:10;} .st1{fill:none;stroke:#000000;stroke-linecap:round;stroke-linejoin:round;} .st2{fill:none;stroke:#000000;stroke-linecap:round;stroke-linejoin:round;stroke-dasharray:1,4;} </style> <g> <g> <path d="M16,1c8.3,0,15,6.7,15,15s-6.7,15-15,15S1,24.3,1,16S7.7,1,16,1 M16,0C7.2,0,0,7.2,0,16s7.2,16,16,16s16-7.2,16-16
			S24.8,0,16,0L16,0z"/> </g> <g> <g> <line class="st0" x1="26.5" y1="8" x2="26.5" y2="24"/> </g> <g> <g> <g> <line class="st1" x1="23.5" y1="8" x2="23.5" y2="9"/> <line class="st2" x1="23.5" y1="13" x2="23.5" y2="21"/> <line class="st1" x1="23.5" y1="23" x2="23.5" y2="24"/> </g> </g> </g> <g> <line class="st0" x1="5.5" y1="24" x2="5.5" y2="8"/> </g> <g> <g> <g> <line class="st1" x1="8.5" y1="24" x2="8.5" y2="23"/> <line class="st2" x1="8.5" y1="19" x2="8.5" y2="11"/> <line class="st1" x1="8.5" y1="9" x2="8.5" y2="8"/> </g> </g> </g> <rect x="12" y="12.8" class="st0" width="8.1" height="6.7"/> <polyline class="st0" points="12,24.2 12,22.9 20.1,22.9 20.1,24.2 		"/> <polyline class="st0" points="20.1,8.2 20.1,9.5 12,9.5 12,8.2 		"/> </g> </g> </symbol><symbol viewBox="0 0 32 32" id="tc_icon-play-fl-closed"><title>tc_icon-play-fl-closed</title> <g> <path d="M16,1c8.3,0,15,6.7,15,15s-6.7,15-15,15S1,24.3,1,16S7.7,1,16,1 M16,0C7.2,0,0,7.2,0,16s7.2,16,16,16s16-7.2,16-16
		S24.8,0,16,0L16,0z"/> <g> <path d="M12.5,26.7c-0.1,0-0.1,0-0.2,0c-0.2-0.1-0.3-0.3-0.3-0.5V6c0-0.2,0.1-0.4,0.3-0.5c0.2-0.1,0.4,0,0.5,0.1L23,15.8
			c0.1,0.1,0.1,0.2,0.1,0.4s-0.1,0.3-0.1,0.4L12.9,26.6C12.8,26.7,12.6,26.7,12.5,26.7z M13,7.2V25l8.9-8.9L13,7.2z"/> </g> </g> </symbol><symbol viewBox="0 0 32 32" id="tc_icon-play-fl-open"><title>tc_icon-play-fl-open</title> <g> <path d="M16,1c8.3,0,15,6.7,15,15s-6.7,15-15,15S1,24.3,1,16S7.7,1,16,1 M16,0C7.2,0,0,7.2,0,16s7.2,16,16,16s16-7.2,16-16
		S24.8,0,16,0L16,0z"/> <g> <path d="M12.9,26.7c-0.1,0-0.3,0-0.4-0.1c-0.2-0.2-0.2-0.5,0-0.7l9.8-9.8l-9.8-9.8c-0.2-0.2-0.2-0.5,0-0.7s0.5-0.2,0.7,0
			l10.1,10.1c0.1,0.1,0.1,0.2,0.1,0.4s-0.1,0.3-0.1,0.4L13.2,26.6C13.1,26.7,13,26.7,12.9,26.7z"/> </g> </g> </symbol><symbol viewBox="0 0 32 32" id="tc_icon-play-ln-closed"><title>tc_icon-play-ln-closed</title> <style type="text/css"> .st0{fill:none;stroke:#000000;stroke-linecap:round;stroke-linejoin:round;stroke-miterlimit:10;} </style> <g> <g> <path d="M16,1c8.3,0,15,6.7,15,15s-6.7,15-15,15S1,24.3,1,16S7.7,1,16,1 M16,0C7.2,0,0,7.2,0,16s7.2,16,16,16s16-7.2,16-16
			S24.8,0,16,0L16,0z"/> </g> <g> <polygon class="st0" points="12.5,6 22.6,16.1 12.5,26.2 		"/> </g> </g> </symbol><symbol viewBox="0 0 32 32" id="tc_icon-play-ln-open"><title>tc_icon-play-ln-open</title> <style type="text/css"> .st0{fill:none;stroke:#000000;stroke-linecap:round;stroke-linejoin:round;stroke-miterlimit:10;} </style> <g> <g> <path d="M16,1c8.3,0,15,6.7,15,15s-6.7,15-15,15S1,24.3,1,16S7.7,1,16,1 M16,0C7.2,0,0,7.2,0,16s7.2,16,16,16s16-7.2,16-16
			S24.8,0,16,0L16,0z"/> </g> <g> <polyline class="st0" points="12.9,26.2 23,16.1 12.9,6 		"/> </g> </g> </symbol><symbol viewBox="0 0 125 125" id="wifi"><title>wifi</title> <g> <circle cx="62.112" cy="101.12" r="11.915"/> <g> <g> <path d="M3.136,45.086l9.887,9.886c27.111-27.112,71.067-27.112,98.18,0l9.887-9.886
				C88.518,12.513,35.708,12.513,3.136,45.086z"/> <path d="M19.529,61.477l11.177,11.177c17.346-17.345,45.469-17.345,62.816,0l11.177-11.177
				C81.178,37.959,43.047,37.959,19.529,61.477z"/> <path d="M36.761,78.709l9.003,9.004c9.029-9.029,23.668-9.029,32.698,0l9.004-9.004
				C73.463,64.709,50.763,64.709,36.761,78.709z"/> </g> </g> </g> </symbol></svg>