<?xml version="1.0" encoding="utf-8"?>
<!-- Generator: Adobe Illustrator 15.1.0, SVG Export Plug-In . SVG Version: 6.00 Build 0)  -->
<!DOCTYPE svg PUBLIC "-//W3C//DTD SVG 1.1//EN" "http://www.w3.org/Graphics/SVG/1.1/DTD/svg11.dtd">
<svg version="1.1" id="Layer_1" xmlns="http://www.w3.org/2000/svg" xmlns:xlink="http://www.w3.org/1999/xlink" x="0px" y="0px"
	 width="125px" height="125px" viewBox="0 0 125 125" enable-background="new 0 0 125 125" xml:space="preserve">
<g>
	<path fill="#333333" d="M87.486,63.228c0.169-0.791,0.172-1.63-0.035-2.47l-2.355-9.554l2.518,3.091l8.238-23.971l-19.626-5.855
		c-0.389-0.165-0.796-0.289-1.217-0.361l-0.017-0.006v0.002c-0.726-0.125-1.487-0.105-2.248,0.082l-6.168,1.521
		c-2.963,0.73-4.773,3.723-4.043,6.687l5.407,21.934L48.769,72.988l10.416,27.349h8.172l-4.903-24.872l11.695-4.878l3.477,16.578
		l13.546,35.524l7.83-3.729L88.776,84.22L87.486,63.228z M84.687,49.541l-3.755-15.232l6.612,0.666L84.687,49.541z"/>
	<polygon fill="#333333" points="73.792,114.337 68.909,105.47 56.711,105.47 53.383,110.537 44.317,114.08 40.242,122.689 
		87.304,122.689 80.548,114.337 	"/>
	<polygon fill="#333333" points="51.323,54.701 61.7,43.955 59.496,32.716 50.167,47.932 35.666,46.612 37.01,52.475 	"/>
	<path fill="#333333" d="M80.444,23.958l15.725,4.691l-2.135-8.654c-0.593-2.408-3.026-3.879-5.435-3.284l-5.014,1.235
		c-2.408,0.595-3.878,3.028-3.285,5.436L80.444,23.958z"/>
	<polygon fill="#333333" points="84.86,41.877 86.016,35.992 83.344,35.722 	"/>
	<path fill="#333333" d="M100.553,46.434l-3.256-13.208l-6.855,19.95c0.585,0.097,1.199,0.081,1.812-0.07l5.013-1.236
		C99.675,51.275,101.146,48.842,100.553,46.434z"/>
	
		<rect x="-3.422" y="66.657" transform="matrix(0.2506 0.9681 -0.9681 0.2506 94.3783 16.2206)" fill="#333333" width="80.268" height="4.829"/>
	<circle fill="#333333" cx="64.915" cy="12.097" r="9.787"/>
</g>
</svg>
