<?xml version="1.0" encoding="utf-8"?>
<!-- Generator: Adobe Illustrator 15.1.0, SVG Export Plug-In . SVG Version: 6.00 Build 0)  -->
<!DOCTYPE svg PUBLIC "-//W3C//DTD SVG 1.1//EN" "http://www.w3.org/Graphics/SVG/1.1/DTD/svg11.dtd">
<svg version="1.1" id="Layer_1" xmlns="http://www.w3.org/2000/svg" xmlns:xlink="http://www.w3.org/1999/xlink" x="0px" y="0px"
	 width="32px" height="32px" viewBox="0 0 32 32" enable-background="new 0 0 32 32" xml:space="preserve">
<g id="Main_Circle">
	<g>
		<path fill="#E62C2E" d="M16,0C7.163,0,0,7.163,0,16s7.163,16,16,16s16-7.163,16-16S24.837,0,16,0z M16,31.2
			C7.605,31.2,0.8,24.395,0.8,16S7.605,0.8,16,0.8S31.2,7.605,31.2,16S24.395,31.2,16,31.2z"/>
	</g>
</g>
<g id="YouTube">
	<g>
		<path id="The_Sharpness" opacity="0.12" fill="#E62C2E" enable-background="new    " d="M14.347,13.58l3.792,2.532l0.532-0.276
			L14.347,13.58z"/>
		<g id="Lozenge">
			<g>
				<path fill="#E62C2E" d="M23.84,12.801c0,0-0.155-1.103-0.636-1.588c-0.608-0.637-1.29-0.64-1.604-0.678
					c-2.239-0.163-5.598-0.163-5.598-0.163h-0.007c0,0-3.358,0-5.598,0.163c-0.313,0.037-0.995,0.04-1.603,0.678
					c-0.48,0.485-0.635,1.588-0.635,1.588S8,14.095,8,15.39v1.214c0,1.295,0.16,2.589,0.16,2.589s0.156,1.104,0.635,1.588
					c0.608,0.638,1.409,0.617,1.765,0.684c1.28,0.123,5.44,0.161,5.44,0.161s3.361-0.006,5.6-0.167
					c0.312-0.037,0.996-0.04,1.604-0.678c0.479-0.485,0.636-1.588,0.636-1.588s0.16-1.295,0.16-2.589V15.39
					C24,14.095,23.84,12.801,23.84,12.801z M14.348,18.075l-0.001-4.495l4.324,2.255L14.348,18.075z"/>
			</g>
		</g>
		<path id="The_Sharpness_1_" opacity="0.12" fill="#E62C2E" enable-background="new    " d="M14.347,13.58l3.792,2.532l0.532-0.276
			L14.347,13.58z"/>
		<g id="Lozenge_1_">
			<g>
				<path fill="#E62C2E" d="M23.84,12.801c0,0-0.155-1.103-0.636-1.588c-0.608-0.637-1.29-0.64-1.604-0.678
					c-2.239-0.163-5.598-0.163-5.598-0.163h-0.007c0,0-3.358,0-5.598,0.163c-0.313,0.037-0.995,0.04-1.603,0.678
					c-0.48,0.485-0.635,1.588-0.635,1.588S8,14.095,8,15.39v1.214c0,1.295,0.16,2.589,0.16,2.589s0.156,1.104,0.635,1.588
					c0.608,0.638,1.409,0.617,1.765,0.684c1.28,0.123,5.44,0.161,5.44,0.161s3.361-0.006,5.6-0.167
					c0.312-0.037,0.996-0.04,1.604-0.678c0.479-0.485,0.636-1.588,0.636-1.588s0.16-1.295,0.16-2.589V15.39
					C24,14.095,23.84,12.801,23.84,12.801z M14.348,18.075l-0.001-4.495l4.324,2.255L14.348,18.075z"/>
			</g>
		</g>
		<path id="The_Sharpness_2_" opacity="0.12" fill="#E62C2E" enable-background="new    " d="M14.347,13.58l3.792,2.532l0.532-0.276
			L14.347,13.58z"/>
		<g id="Lozenge_2_">
			<g>
				<path fill="#E62C2E" d="M23.84,12.801c0,0-0.155-1.103-0.636-1.588c-0.608-0.637-1.29-0.64-1.604-0.678
					c-2.239-0.163-5.598-0.163-5.598-0.163h-0.007c0,0-3.358,0-5.598,0.163c-0.313,0.037-0.995,0.04-1.603,0.678
					c-0.48,0.485-0.635,1.588-0.635,1.588S8,14.095,8,15.39v1.214c0,1.295,0.16,2.589,0.16,2.589s0.156,1.104,0.635,1.588
					c0.608,0.638,1.409,0.617,1.765,0.684c1.28,0.123,5.44,0.161,5.44,0.161s3.361-0.006,5.6-0.167
					c0.312-0.037,0.996-0.04,1.604-0.678c0.479-0.485,0.636-1.588,0.636-1.588s0.16-1.295,0.16-2.589V15.39
					C24,14.095,23.84,12.801,23.84,12.801z M14.348,18.075l-0.001-4.495l4.324,2.255L14.348,18.075z"/>
			</g>
		</g>
	</g>
</g>
</svg>
