<?xml version="1.0" encoding="utf-8"?>
<!-- Generator: Adobe Illustrator 15.1.0, SVG Export Plug-In . SVG Version: 6.00 Build 0)  -->
<!DOCTYPE svg PUBLIC "-//W3C//DTD SVG 1.1//EN" "http://www.w3.org/Graphics/SVG/1.1/DTD/svg11.dtd">
<svg version="1.1" id="Layer_1" xmlns="http://www.w3.org/2000/svg" xmlns:xlink="http://www.w3.org/1999/xlink" x="0px" y="0px"
	 width="32px" height="32px" viewBox="0 0 32 32" enable-background="new 0 0 32 32" xml:space="preserve">
<g id="Main_Circle">
	<g>
		<path fill="#44546B" d="M16,0C7.163,0,0,7.163,0,16s7.163,16,16,16s16-7.163,16-16S24.837,0,16,0z M16,31.2
			C7.605,31.2,0.8,24.395,0.8,16S7.605,0.8,16,0.8S31.2,7.605,31.2,16S24.395,31.2,16,31.2z"/>
	</g>
</g>
<path fill="#44546B" d="M14.667,8.065h2.068v4.053h3.842v2.449h-3.8v4.938c0,0,0.718,3.505,4.265,1.015v2.575
	c0,0-0.718,0.802-3.588,0.802c-2.871,0-4.391-1.816-4.391-3.377V14.61h-1.858v-2.322C11.204,12.287,14.667,11.612,14.667,8.065z"/>
</svg>
