<?xml version="1.0" encoding="utf-8"?>
<!-- Generator: Adobe Illustrator 15.1.0, SVG Export Plug-In . SVG Version: 6.00 Build 0)  -->
<!DOCTYPE svg PUBLIC "-//W3C//DTD SVG 1.1//EN" "http://www.w3.org/Graphics/SVG/1.1/DTD/svg11.dtd">
<svg version="1.1" id="Layer_1" xmlns="http://www.w3.org/2000/svg" xmlns:xlink="http://www.w3.org/1999/xlink" x="0px" y="0px"
	 width="32px" height="32px" viewBox="0 0 32 32" enable-background="new 0 0 32 32" xml:space="preserve">
<g>
	<rect x="24" y="22.045" fill="#231F20" width="4.979" height="4.979"/>
	<rect x="16.889" y="14.223" fill="#231F20" width="4.979" height="5.156"/>
	<rect x="24" y="14.223" fill="#231F20" width="4.979" height="5.156"/>
	<rect x="16.889" y="22.045" fill="#231F20" width="4.979" height="4.979"/>
	<path fill="#231F20" d="M24.248,8.533h0.037c0.824,0,1.492-0.668,1.492-1.493V1.85c0-0.825-0.668-1.494-1.492-1.494h-0.037
		c-0.824,0-1.492,0.669-1.492,1.494v5.19C22.756,7.865,23.424,8.533,24.248,8.533z"/>
	<path fill="#231F20" d="M7.715,8.533h0.036c0.825,0,1.493-0.668,1.493-1.493V1.85c0-0.825-0.668-1.494-1.493-1.494H7.715
		c-0.825,0-1.494,0.669-1.494,1.494v5.19C6.222,7.865,6.89,8.533,7.715,8.533z"/>
	<rect x="2.844" y="22.045" fill="#231F20" width="5.333" height="4.979"/>
	<path fill="#231F20" d="M28.801,4.445h-1.777V7.45c0,1.313-1.336,2.328-2.647,2.328H24.33c-1.312,0-2.816-1.015-2.816-2.328V4.445
		H10.313V7.45c0,1.313-1.2,2.328-2.513,2.328H7.754c-1.314,0-2.599-1.015-2.599-2.328V4.445H3.2C1.433,4.445,0,5.756,0,7.523v20.801
		c0,1.768,1.433,3.32,3.2,3.32h25.601c1.768,0,3.199-1.554,3.199-3.32V7.523C32,5.756,30.568,4.445,28.801,4.445z M30.398,27.939
		c0,1.235-1.002,2.104-2.238,2.104H3.84c-1.237,0-2.24-0.869-2.24-2.104V11.733h28.798V27.939z"/>
	<rect x="9.955" y="14.223" fill="#231F20" width="4.978" height="5.156"/>
	<rect x="2.844" y="14.223" fill="#231F20" width="5.333" height="5.156"/>
	<rect x="9.955" y="22.045" fill="#231F20" width="4.978" height="4.979"/>
</g>
</svg>
