<?xml version="1.0" encoding="utf-8"?>
<!-- Generator: Adobe Illustrator 15.1.0, SVG Export Plug-In . SVG Version: 6.00 Build 0)  -->
<!DOCTYPE svg PUBLIC "-//W3C//DTD SVG 1.1//EN" "http://www.w3.org/Graphics/SVG/1.1/DTD/svg11.dtd">
<svg version="1.1" id="Layer_1" xmlns="http://www.w3.org/2000/svg" xmlns:xlink="http://www.w3.org/1999/xlink" x="0px" y="0px"
	 width="32px" height="32px" viewBox="0 0 32 32" enable-background="new 0 0 32 32" xml:space="preserve">
<g>
	<path fill="#231F20" d="M16,0C7.163,0,0,7.164,0,16c0,8.837,7.163,16,16,16c8.836,0,16-7.163,16-16C32,7.164,24.836,0,16,0z
		 M24.271,22.604h-0.918V7.704c-2.348-1.171-7.048-1.546-10.243-1.664c3.134,0.154,7.262,0.568,9.413,1.665v18.016
		c0,0-0.719-0.322-1.955-0.746V8.548C19.126,6.614,14,6.117,11.062,5.993c-0.058,0-0.116-0.001-0.17-0.001h0.132
		c-0.231-0.01-0.45-0.017-0.651-0.022c2.957,0.136,7.945,0.657,9.365,2.596v18.347c0,0-0.889-0.735-2.508-1.55V10.282
		c-0.062-3.97-7.021-4.329-8.729-4.357c2.359,0.115,8.04,0.773,8.098,4.464v18.888c0,0-2.428-5.369-8.761-5.562
		c-0.067-0.001-0.135-0.003-0.203-0.003c-0.035,0-0.07-0.001-0.104-0.001V23.71c-0.014,0-0.026,0-0.04,0V5.902h0.18h0.088
		C7.927,5.904,8.171,5.91,8.471,5.923h0.316c0.322,0.003,0.751,0.012,1.25,0.031h0.026c0.484,0.004,1.112,0.014,1.83,0.037h12.378
		V22.604z"/>
	<path fill="#231F20" d="M10.893,5.992c0.054,0,0.112,0.001,0.17,0.001c-0.013,0-0.025-0.001-0.038-0.001H10.893z"/>
	<path fill="#231F20" d="M10.063,5.955h-0.026c0.108,0.004,0.221,0.009,0.336,0.015c0.201,0.005,0.42,0.013,0.651,0.022h0.869
		C11.176,5.968,10.548,5.958,10.063,5.955z"/>
	<path fill="#231F20" d="M11.024,5.992c0.013,0,0.025,0.001,0.038,0.001c0.55,0.005,1.251,0.019,2.049,0.048
		c-0.427-0.021-0.835-0.037-1.218-0.049H11.024z"/>
	<path fill="#231F20" d="M9.616,5.955c0.211,0.002,0.466,0.006,0.757,0.015c-0.115-0.005-0.228-0.01-0.336-0.015H9.616z"/>
	<path fill="#231F20" d="M8.391,5.923c0.034,0,0.071,0.001,0.111,0.001c-0.011,0-0.021-0.001-0.031-0.001H8.391z"/>
</g>
</svg>
