<?xml version="1.0" encoding="utf-8"?>
<!-- Generator: Adobe Illustrator 15.1.0, SVG Export Plug-In . SVG Version: 6.00 Build 0)  -->
<!DOCTYPE svg PUBLIC "-//W3C//DTD SVG 1.1//EN" "http://www.w3.org/Graphics/SVG/1.1/DTD/svg11.dtd">
<svg version="1.1" id="Layer_1" xmlns="http://www.w3.org/2000/svg" xmlns:xlink="http://www.w3.org/1999/xlink" x="0px" y="0px"
	 width="32px" height="32px" viewBox="0 0 32 32" enable-background="new 0 0 32 32" xml:space="preserve">
<g>
	<path fill="#231F20" d="M16.063,0C7.227-0.035,0.035,7.1,0,15.936C-0.035,24.771,7.1,31.965,15.936,32
		C24.771,32.035,31.965,24.9,32,16.063C32.035,7.227,24.9,0.035,16.063,0z M4.533,12.971l5.741,3.761l-5.741,3.762V12.971z
		 M25.798,23.678h-19.5c-0.795,0-1.467-0.525-1.688-1.25l7.173-4.707l4.265,2.795l4.265-2.795l7.174,4.709
		C27.266,23.152,26.594,23.678,25.798,23.678z M27.562,20.494l-5.74-3.762l5.74-3.761V20.494z M16.047,18.543L4.533,10.986v-0.632
		c0-0.975,0.79-1.765,1.765-1.765h19.5c0.976,0,1.765,0.791,1.765,1.765v0.632L16.047,18.543z"/>
</g>
</svg>
