<?xml version="1.0" encoding="utf-8"?>
<!-- Generator: Adobe Illustrator 15.1.0, SVG Export Plug-In . SVG Version: 6.00 Build 0)  -->
<!DOCTYPE svg PUBLIC "-//W3C//DTD SVG 1.1//EN" "http://www.w3.org/Graphics/SVG/1.1/DTD/svg11.dtd">
<svg version="1.1" id="Layer_1" xmlns="http://www.w3.org/2000/svg" xmlns:xlink="http://www.w3.org/1999/xlink" x="0px" y="0px"
	 width="32px" height="32px" viewBox="0 0 32 32" enable-background="new 0 0 32 32" xml:space="preserve">
<g>
	<g>
		<path fill="#231F20" d="M30.833,3.45l-0.701,0.071v21.151C21.493,24.375,16,28.27,16,28.27s-5.493-3.895-14.13-3.598V3.521
			L1.168,3.45C0.523,3.336,0,3.768,0,4.413v22.162c0,0.646,0.523,1.261,1.168,1.374l11.858,1.209
			c0.154,0.467,0.587,0.805,1.104,0.805h3.738c0.519,0,0.95-0.338,1.104-0.805l11.858-1.209C31.479,27.834,32,27.219,32,26.573
			V4.413C32,3.768,31.479,3.336,30.833,3.45z"/>
	</g>
	<path fill="#231F20" d="M15.562,25.964c0,0-4.536-3.385-11.668-3.125V2.116c0,0,7.77-0.94,11.668,3.733V25.964z"/>
	<path fill="#231F20" d="M16.672,25.964c0,0,4.535-3.385,11.67-3.125V2.116c0,0-7.771-0.94-11.67,3.733V25.964z"/>
</g>
</svg>
