<?xml version="1.0" encoding="utf-8"?>
<!-- Generator: Adobe Illustrator 15.1.0, SVG Export Plug-In . SVG Version: 6.00 Build 0)  -->
<!DOCTYPE svg PUBLIC "-//W3C//DTD SVG 1.1//EN" "http://www.w3.org/Graphics/SVG/1.1/DTD/svg11.dtd">
<svg version="1.1" id="Layer_1" xmlns="http://www.w3.org/2000/svg" xmlns:xlink="http://www.w3.org/1999/xlink" x="0px" y="0px"
	 width="32px" height="32px" viewBox="0 0 32 32" enable-background="new 0 0 32 32" xml:space="preserve">
<g>
	<g>
		<path d="M16.063,0.001C7.228-0.035,0.035,7.099,0,15.937c-0.035,8.834,7.099,16.028,15.937,16.062
			C24.772,32.035,31.965,24.901,32,16.063C32.035,7.226,24.901,0.035,16.063,0.001z M15.967,28.203
			c-6.72,0-12.167-5.448-12.167-12.168c0-6.72,5.448-12.169,12.167-12.169c6.721,0,12.17,5.449,12.17,12.169
			C28.137,22.755,22.688,28.203,15.967,28.203z"/>
		<polygon points="19.356,12.063 16.744,14.675 16.744,5.533 14.685,5.533 14.685,16.848 16.072,18.263 20.813,13.52 		"/>
	</g>
</g>
</svg>
