<?xml version="1.0" encoding="utf-8"?>
<!-- Generator: Adobe Illustrator 15.1.0, SVG Export Plug-In . SVG Version: 6.00 Build 0)  -->
<!DOCTYPE svg PUBLIC "-//W3C//DTD SVG 1.1//EN" "http://www.w3.org/Graphics/SVG/1.1/DTD/svg11.dtd">
<svg version="1.1" id="Layer_1" xmlns="http://www.w3.org/2000/svg" xmlns:xlink="http://www.w3.org/1999/xlink" x="0px" y="0px"
	 width="32px" height="32px" viewBox="0 0 32 32" enable-background="new 0 0 32 32" xml:space="preserve">
<g>
	<path fill="#231F20" d="M16,0C7.164,0,0,7.164,0,16c0,8.835,7.164,16,16,16c8.836,0,16-7.164,16-16C32,7.164,24.836,0,16,0z
		 M23.608,17.452l-7.979,7.273c-0.881,0.805-2.311,0.805-3.191,0c-0.476-0.433-0.695-1.012-0.657-1.579c0,0-0.005-14.465,0-14.544
		V8.598l0,0c0.032-0.485,0.25-0.962,0.657-1.333c0.881-0.804,2.31-0.804,3.191,0l7.979,7.276
		C24.489,15.345,24.489,16.648,23.608,17.452z"/>
</g>
</svg>
