<?xml version="1.0" encoding="utf-8"?>
<!-- Generator: Adobe Illustrator 15.1.0, SVG Export Plug-In . SVG Version: 6.00 Build 0)  -->
<!DOCTYPE svg PUBLIC "-//W3C//DTD SVG 1.1//EN" "http://www.w3.org/Graphics/SVG/1.1/DTD/svg11.dtd">
<svg version="1.1" id="Layer_1" xmlns="http://www.w3.org/2000/svg" xmlns:xlink="http://www.w3.org/1999/xlink" x="0px" y="0px"
	 width="32px" height="32px" viewBox="0 0 32 32" enable-background="new 0 0 32 32" xml:space="preserve">
<g>
	<path fill="#231F20" d="M16.064,0C7.227-0.035,0.036,7.1,0,15.936C-0.035,24.772,7.099,31.965,15.936,32
		C24.772,32.035,31.965,24.899,32,16.064C32.035,7.227,24.901,0.036,16.064,0z M14.261,10.9c-1.254,0.407-2.162,0.856-2.727,1.653
		c-0.564,0.798-0.938,2.113-1.121,2.78h3.097l-1.145,7.333H5.704l1.136-7.081c0.132-1.032,0.434-1.952,0.907-2.859
		c0.472-0.906,1.06-1.68,1.764-2.368c0.702-0.688,1.505-1.247,2.406-1.7c0.901-0.454,1.846-0.737,2.835-0.862L14.261,10.9z
		 M24.255,10.9c-1.254,0.407-2.161,0.856-2.726,1.653c-0.565,0.798-0.938,2.113-1.122,2.78h3.098l-1.145,7.333h-6.663l1.137-7.081
		c0.132-1.032,0.434-1.952,0.907-2.859c0.471-0.906,1.059-1.68,1.763-2.368c0.703-0.688,1.505-1.247,2.406-1.7
		c0.9-0.454,1.846-0.737,2.835-0.862L24.255,10.9z"/>
</g>
</svg>
