<?xml version="1.0" encoding="utf-8"?>
<!-- Generator: Adobe Illustrator 15.1.0, SVG Export Plug-In . SVG Version: 6.00 Build 0)  -->
<!DOCTYPE svg PUBLIC "-//W3C//DTD SVG 1.1//EN" "http://www.w3.org/Graphics/SVG/1.1/DTD/svg11.dtd">
<svg version="1.1" id="Layer_1" xmlns="http://www.w3.org/2000/svg" xmlns:xlink="http://www.w3.org/1999/xlink" x="0px" y="0px"
	 width="32px" height="32px" viewBox="0 0 32 32" enable-background="new 0 0 32 32" xml:space="preserve">
<g>
	<path fill="#231F20" d="M32,28.25c0,2.071-1.679,3.75-3.75,3.75H3.75C1.678,32,0,30.321,0,28.25l0,0c0-2.071,1.678-3.75,3.75-3.75
		h24.5C30.321,24.5,32,26.179,32,28.25L32,28.25z"/>
	<path fill="#231F20" d="M32,16c0,2.071-1.679,3.75-3.75,3.75H3.75C1.678,19.75,0,18.071,0,16l0,0c0-2.071,1.678-3.75,3.75-3.75
		h24.5C30.321,12.25,32,13.929,32,16L32,16z"/>
	<path fill="#231F20" d="M32,3.75c0,2.071-1.679,3.75-3.75,3.75H3.75C1.678,7.5,0,5.821,0,3.75l0,0C0,1.679,1.678,0,3.75,0h24.5
		C30.321,0,32,1.679,32,3.75L32,3.75z"/>
</g>
</svg>
