<?xml version="1.0" encoding="utf-8"?>
<!-- Generator: Adobe Illustrator 20.0.0, SVG Export Plug-In . SVG Version: 6.00 Build 0)  -->
<svg version="1.1" id="Layer_1" xmlns="http://www.w3.org/2000/svg" xmlns:xlink="http://www.w3.org/1999/xlink" x="0px" y="0px"
	 viewBox="0 0 32 32" style="enable-background:new 0 0 32 32;" xml:space="preserve">
<g>
	<path d="M29.7,7.9h-4.9c-0.6,0-1.1-0.4-1.3-0.9l-0.2-0.5c-0.4-1.3-1-2.3-2.3-2.3H11c-1.3,0-1.8,1.3-2.3,2.3L8.5,7
		C8.3,7.6,7.7,7.9,7.1,7.9l-4.9,0C0.9,7.9,0,9,0,10.2v15.4c0,1.3,1,2.3,2.3,2.3h27.5c1.2,0,2.2-1,2.2-2.2V10.2C32,9,31,7.9,29.7,7.9
		z M3.7,13.3c-0.9,0-1.7-0.8-1.7-1.7c0-0.9,0.8-1.7,1.7-1.7s1.7,0.8,1.7,1.7C5.4,12.6,4.7,13.3,3.7,13.3z M16,26.2
		c-4.8,0-8.8-3.9-8.8-8.8c0-4.8,3.9-8.8,8.8-8.8c4.8,0,8.8,3.9,8.8,8.8C24.8,22.3,20.8,26.2,16,26.2z"/>
	<circle cx="16" cy="17.4" r="6.2"/>
</g>
</svg>
