<?xml version="1.0" encoding="utf-8"?>
<!-- Generator: Adobe Illustrator 15.1.0, SVG Export Plug-In . SVG Version: 6.00 Build 0)  -->
<!DOCTYPE svg PUBLIC "-//W3C//DTD SVG 1.1//EN" "http://www.w3.org/Graphics/SVG/1.1/DTD/svg11.dtd">
<svg version="1.1" id="Layer_1" xmlns="http://www.w3.org/2000/svg" xmlns:xlink="http://www.w3.org/1999/xlink" x="0px" y="0px"
	 width="32px" height="32px" viewBox="0 0 32 32" enable-background="new 0 0 32 32" xml:space="preserve">
<g>
	<g>
		<path fill="#231F20" d="M9.664,19.813H8.3v-2.38c0-0.162,0.007-0.339,0.021-0.526c0.013-0.193,0.029-0.388,0.048-0.583
			c0.021-0.196,0.041-0.388,0.06-0.578c0.021-0.189,0.041-0.363,0.06-0.522h-0.04l-0.537,1.504l-0.996,2.519H6.329l-0.996-2.519
			l-0.519-1.504H4.776c0.02,0.159,0.04,0.333,0.06,0.522c0.019,0.189,0.038,0.382,0.054,0.578c0.017,0.196,0.032,0.389,0.044,0.583
			c0.014,0.191,0.021,0.368,0.021,0.526v2.38H3.611v-6.491h1.553L6.25,16.24l0.388,1.135h0.041l0.388-1.135l1.055-2.917h1.543
			V19.813z M15.359,19.813h-4.162v-6.491h4.062v1.234h-2.598v1.304h2.209v1.225h-2.209v1.494h2.697V19.813z M21.74,19.813h-1.503
			l-1.693-3.235l-0.637-1.414h-0.039c0.032,0.358,0.07,0.743,0.113,1.155c0.044,0.412,0.065,0.81,0.065,1.195v2.299h-1.395v-6.491
			h1.503l1.693,3.227l0.638,1.436h0.039c-0.034-0.343-0.071-0.729-0.114-1.155c-0.043-0.428-0.065-0.829-0.065-1.214v-2.29h1.395
			V19.813z M27.739,19.187c-0.436,0.497-1.071,0.747-1.907,0.747c-0.843,0-1.487-0.25-1.932-0.747
			c-0.445-0.498-0.668-1.291-0.668-2.383v-3.484h1.474v3.634c0,0.637,0.096,1.082,0.288,1.336c0.192,0.252,0.471,0.376,0.837,0.376
			c0.365,0,0.646-0.126,0.846-0.376c0.196-0.252,0.298-0.696,0.298-1.336v-3.634h1.411v3.484
			C28.391,17.896,28.174,18.688,27.739,19.187z"/>
	</g>
	<g>
		<path fill="#231F20" d="M16.064,0C7.228-0.035,0.036,7.1,0,15.936C-0.035,24.772,7.1,31.964,15.936,32
			C24.772,32.034,31.965,24.9,32,16.064C32.034,7.227,24.9,0.036,16.064,0z M15.939,31.289c-8.443-0.035-15.26-6.906-15.228-15.35
			c0.035-8.443,6.906-15.26,15.35-15.228c8.442,0.035,15.261,6.905,15.228,15.35C31.256,24.503,24.383,31.322,15.939,31.289z"/>
	</g>
</g>
</svg>
