<?xml version="1.0" encoding="utf-8"?>
<!-- Generator: Adobe Illustrator 15.1.0, SVG Export Plug-In . SVG Version: 6.00 Build 0)  -->
<!DOCTYPE svg PUBLIC "-//W3C//DTD SVG 1.1//EN" "http://www.w3.org/Graphics/SVG/1.1/DTD/svg11.dtd">
<svg version="1.1" id="Layer_1" xmlns="http://www.w3.org/2000/svg" xmlns:xlink="http://www.w3.org/1999/xlink" x="0px" y="0px"
	 width="32px" height="32px" viewBox="0 0 32 32" enable-background="new 0 0 32 32" xml:space="preserve">
<g id="Main_Circle">
	<g>
		<path fill="#231F20" d="M16,0C7.163,0,0,7.163,0,16s7.163,16,16,16s16-7.163,16-16S24.837,0,16,0z M16,31.2
			C7.605,31.2,0.8,24.395,0.8,16S7.605,0.8,16,0.8S31.2,7.605,31.2,16S24.395,31.2,16,31.2z"/>
	</g>
</g>
<path fill="#231F20" d="M12.333,15.934c-0.549,0-1.075,0.098-1.566,0.269V11.6H7.572v9.007c0,0.031-0.004,0.062-0.004,0.093
	s0.004,0.062,0.004,0.093v0.074h0.004c0.089,2.553,2.183,4.6,4.757,4.6c2.633,0,4.766-2.135,4.766-4.767
	S14.966,15.934,12.333,15.934z M12.333,22.666c-1.029,0-1.863-0.793-1.95-1.799c-0.004-0.057-0.017-0.111-0.017-0.167
	c0-0.444,0.152-0.849,0.4-1.177c0.359-0.479,0.924-0.79,1.566-0.79c1.085,0,1.966,0.881,1.966,1.967S13.419,22.666,12.333,22.666z"
	/>
<g>
	<path fill="#231F20" d="M12.333,5.213v2.744c7.039,0,12.745,5.706,12.745,12.745h2.744C27.82,12.147,20.886,5.213,12.333,5.213z"/>
	<path fill="#231F20" d="M12.333,10.7v2.733c4.014,0,7.266,3.252,7.266,7.267h2.734C22.334,15.178,17.856,10.7,12.333,10.7z"/>
</g>
</svg>
