<?xml version="1.0" encoding="utf-8"?>
<!-- Generator: Adobe Illustrator 15.1.0, SVG Export Plug-In . SVG Version: 6.00 Build 0)  -->
<!DOCTYPE svg PUBLIC "-//W3C//DTD SVG 1.1//EN" "http://www.w3.org/Graphics/SVG/1.1/DTD/svg11.dtd">
<svg version="1.1" id="Layer_1" xmlns="http://www.w3.org/2000/svg" xmlns:xlink="http://www.w3.org/1999/xlink" x="0px" y="0px"
	 width="32px" height="32px" viewBox="0 0 32 32" enable-background="new 0 0 32 32" xml:space="preserve">
<path d="M25.668,19.938c-1.773,0-3.372,0.769-4.477,1.992l-9.028-4.388c0.128-0.493,0.198-1.009,0.198-1.542
	c0-0.009,0-0.016,0-0.025c0-0.009,0-0.016,0-0.025c0-0.518-0.064-1.02-0.188-1.5l9.019-4.379c1.104,1.222,2.701,1.991,4.477,1.991
	c3.332,0,6.032-2.7,6.032-6.031C31.7,2.7,29,0,25.668,0c-3.331,0-6.029,2.7-6.029,6.031c0,0.548,0.073,1.079,0.211,1.586
	l-8.981,4.361C9.763,10.717,8.141,9.919,6.33,9.919c-3.33,0-6.03,2.7-6.03,6.031c0,0.009,0,0.016,0,0.025c0,0.009,0,0.016,0,0.025
	c0,3.331,2.7,6.031,6.03,6.031c1.794,0,3.405-0.783,4.509-2.024l9.013,4.375c-0.14,0.505-0.213,1.038-0.213,1.587
	c0,3.331,2.698,6.031,6.029,6.031C29,32,31.7,29.3,31.7,25.969C31.7,22.639,29,19.938,25.668,19.938z"/>
</svg>
