<?xml version="1.0" encoding="utf-8"?>
<!-- Generator: Adobe Illustrator 15.1.0, SVG Export Plug-In . SVG Version: 6.00 Build 0)  -->
<!DOCTYPE svg PUBLIC "-//W3C//DTD SVG 1.1//EN" "http://www.w3.org/Graphics/SVG/1.1/DTD/svg11.dtd">
<svg version="1.1" id="Layer_1" xmlns="http://www.w3.org/2000/svg" xmlns:xlink="http://www.w3.org/1999/xlink" x="0px" y="0px"
	 width="32px" height="32px" viewBox="0 0 32 32" enable-background="new 0 0 32 32" xml:space="preserve">
<g>
	<path d="M16,32c8.836,0,16-7.164,16-16.001C32,7.163,24.836,0,16,0S0,7.163,0,15.999C-0.001,24.836,7.163,32,16,32z M14.035,7.1
		c1.084-1.084,2.844-1.084,3.93,0l9.823,9.823c1.085,1.083,1.085,2.844,0,3.93c-1.083,1.086-2.844,1.086-3.928,0l-7.859-7.858
		l-7.859,7.858c-1.085,1.085-2.847,1.085-3.931,0c-1.084-1.085-1.084-2.847,0-3.932L14.035,7.1z"/>
</g>
</svg>
