<?xml version="1.0" encoding="utf-8"?>
<!-- Generator: Adobe Illustrator 15.1.0, SVG Export Plug-In . SVG Version: 6.00 Build 0)  -->
<!DOCTYPE svg PUBLIC "-//W3C//DTD SVG 1.1//EN" "http://www.w3.org/Graphics/SVG/1.1/DTD/svg11.dtd">
<svg version="1.1" id="Layer_1" xmlns="http://www.w3.org/2000/svg" xmlns:xlink="http://www.w3.org/1999/xlink" x="0px" y="0px"
	 width="32px" height="32px" viewBox="0 0 32 32" enable-background="new 0 0 32 32" xml:space="preserve">
<g>
	<path fill="#231F20" d="M9.183,9.156c-1.822,1.822-1.822,4.779,0,6.603c0.097,0.095,0.196,0.186,0.297,0.271
		c1.734,1.461,4.279,1.46,6.011-0.001c0.101-0.085,0.199-0.175,0.295-0.27c1.822-1.824,1.822-4.78,0-6.603
		C13.962,7.332,11.007,7.332,9.183,9.156z"/>
	<path fill="#231F20" d="M16.064,0C7.228-0.035,0.036,7.1,0,15.936C-0.035,24.772,7.1,31.964,15.937,32
		C24.772,32.034,31.965,24.9,32,16.064C32.034,7.227,24.9,0.036,16.064,0z M23.984,26.258l-8.02-8.004
		c-2.596,1.56-6.011,1.22-8.25-1.02c-2.639-2.638-2.63-6.917,0.01-9.558c2.639-2.639,6.937-2.639,9.575,0
		c2.263,2.263,2.563,5.728,1.008,8.335v0.001l7.954,7.989L23.984,26.258z"/>
</g>
</svg>
