<?xml version="1.0" encoding="utf-8"?>
<!-- Generator: Adobe Illustrator 15.1.0, SVG Export Plug-In . SVG Version: 6.00 Build 0)  -->
<!DOCTYPE svg PUBLIC "-//W3C//DTD SVG 1.1//EN" "http://www.w3.org/Graphics/SVG/1.1/DTD/svg11.dtd">
<svg version="1.1" id="Layer_1" xmlns="http://www.w3.org/2000/svg" xmlns:xlink="http://www.w3.org/1999/xlink" x="0px" y="0px"
	 width="32px" height="32px" viewBox="0 0 32 32" enable-background="new 0 0 32 32" xml:space="preserve">
<g>
	<g>
		<path fill="#231F20" d="M18.307,16.012L18.307,16.012c1.556-2.608,1.255-6.073-1.008-8.336c-2.638-2.639-6.936-2.639-9.575,0
			c-2.64,2.641-2.649,6.92-0.01,9.558c2.238,2.237,5.654,2.579,8.25,1.02l0,0l0,0l8.02,8.004l2.273-2.257L18.307,16.012z
			 M15.787,15.758c-0.096,0.094-0.194,0.184-0.295,0.27c-1.732,1.461-4.277,1.462-6.011,0.001c-0.102-0.085-0.2-0.176-0.297-0.271
			c-1.822-1.824-1.822-4.78,0-6.603c1.823-1.823,4.779-1.823,6.604,0C17.609,10.978,17.609,13.935,15.787,15.758z"/>
	</g>
</g>
<g>
	<path fill="#231F20" d="M16.064,0C7.228-0.035,0.036,7.1,0,15.936C-0.035,24.772,7.1,31.964,15.937,32
		C24.772,32.034,31.965,24.9,32,16.064C32.034,7.227,24.9,0.036,16.064,0z M15.939,31.289c-8.443-0.035-15.261-6.906-15.228-15.35
		c0.035-8.443,6.906-15.26,15.35-15.228c8.442,0.035,15.26,6.905,15.228,15.35C31.255,24.503,24.383,31.322,15.939,31.289z"/>
</g>
</svg>
