<?xml version="1.0" encoding="utf-8"?>
<!-- Generator: Adobe Illustrator 15.1.0, SVG Export Plug-In . SVG Version: 6.00 Build 0)  -->
<!DOCTYPE svg PUBLIC "-//W3C//DTD SVG 1.1//EN" "http://www.w3.org/Graphics/SVG/1.1/DTD/svg11.dtd">
<svg version="1.1" id="Layer_1" xmlns="http://www.w3.org/2000/svg" xmlns:xlink="http://www.w3.org/1999/xlink" x="0px" y="0px"
	 width="32px" height="32px" viewBox="0 0 32 32" enable-background="new 0 0 32 32" xml:space="preserve">
<g>
	<path d="M16,0C7.164,0,0,7.164,0,16.001S7.164,32,16,32s16-7.162,16-15.999C32.001,7.164,24.837,0,16,0z M17.965,24.9
		c-1.084,1.084-2.845,1.084-3.931,0l-9.822-9.823c-1.086-1.085-1.086-2.845,0-3.931c1.083-1.086,2.843-1.086,3.928,0l7.859,7.858
		l7.858-7.858c1.087-1.085,2.849-1.085,3.931,0c1.086,1.085,1.086,2.845,0,3.931L17.965,24.9z"/>
</g>
</svg>
