<?xml version="1.0" encoding="utf-8"?>
<!-- Generator: Adobe Illustrator 15.1.0, SVG Export Plug-In . SVG Version: 6.00 Build 0)  -->
<!DOCTYPE svg PUBLIC "-//W3C//DTD SVG 1.1//EN" "http://www.w3.org/Graphics/SVG/1.1/DTD/svg11.dtd">
<svg version="1.1" id="Layer_1" xmlns="http://www.w3.org/2000/svg" xmlns:xlink="http://www.w3.org/1999/xlink" x="0px" y="0px"
	 width="32px" height="32px" viewBox="0 0 32 32" enable-background="new 0 0 32 32" xml:space="preserve">
<g id="Main_Circle">
	<g>
		<path fill="#1AB7EA" d="M16,0C7.163,0,0,7.163,0,16s7.163,16,16,16s16-7.163,16-16S24.837,0,16,0z M16,31.2
			C7.605,31.2,0.8,24.395,0.8,16S7.605,0.8,16,0.8S31.2,7.605,31.2,16S24.395,31.2,16,31.2z"/>
	</g>
</g>
<path fill="#1AB7EA" d="M9.2,13.6c0,0-1.2,0.275-0.85-0.85c0,0,1.9-3.225,4.625-3.4c0,0,1.65,0.225,1.825,1.524
	c0,0,0.951,6.025,1.425,6.525c0.474,0.5,0.7,0.649,1.425-0.226c0,0,1.724-2.375,1.699-3.424c0,0-0.024-1.476-1.551-1
	c0,0-0.849,0.25-0.625-0.576c0,0,1.25-2.824,4.101-2.824c0,0,2.551-0.125,2.551,2.55c0,2.675-4.5,9.375-7.375,10.55
	c0,0-1.625,0.976-2.476-0.399c0,0-2.275-4.525-3.125-8.476C10.85,13.575,10.351,12.649,9.2,13.6z"/>
</svg>
