<?xml version="1.0" encoding="utf-8"?>
<!-- Generator: Adobe Illustrator 15.1.0, SVG Export Plug-In . SVG Version: 6.00 Build 0)  -->
<!DOCTYPE svg PUBLIC "-//W3C//DTD SVG 1.1//EN" "http://www.w3.org/Graphics/SVG/1.1/DTD/svg11.dtd">
<svg version="1.1" id="Layer_1" xmlns="http://www.w3.org/2000/svg" xmlns:xlink="http://www.w3.org/1999/xlink" x="0px" y="0px"
	 width="32px" height="32px" viewBox="0 0 32 32" enable-background="new 0 0 32 32" xml:space="preserve">
<g>
	<path d="M31.95,28.482L19.38,15.909c-0.422,0.678-0.925,1.317-1.513,1.905c-0.625,0.625-1.307,1.15-2.029,1.586L28.438,32
		L31.95,28.482z"/>
	<g>
		<path d="M18.005,3.081c-4.109-4.108-10.767-4.108-14.875,0c-4.108,4.107-4.108,10.767,0,14.872
			c3.483,3.486,8.804,4.014,12.846,1.586c0.723-0.434,1.404-0.963,2.029-1.586c0.587-0.584,1.09-1.225,1.51-1.902
			C22.028,11.994,21.525,6.6,18.005,3.081z M15.706,15.656c-0.148,0.146-0.302,0.288-0.459,0.419
			c-2.695,2.277-6.656,2.277-9.353,0.004c-0.159-0.133-0.313-0.275-0.463-0.423c-2.837-2.837-2.837-7.437,0-10.274
			s7.438-2.837,10.276,0C18.542,8.219,18.542,12.819,15.706,15.656z"/>
	</g>
</g>
</svg>
