<?xml version="1.0" encoding="utf-8"?>
<!-- Generator: Adobe Illustrator 15.1.0, SVG Export Plug-In . SVG Version: 6.00 Build 0)  -->
<!DOCTYPE svg PUBLIC "-//W3C//DTD SVG 1.1//EN" "http://www.w3.org/Graphics/SVG/1.1/DTD/svg11.dtd">
<svg version="1.1" id="Layer_1" xmlns="http://www.w3.org/2000/svg" xmlns:xlink="http://www.w3.org/1999/xlink" x="0px" y="0px"
	 width="32px" height="32px" viewBox="0 0 32 32" enable-background="new 0 0 32 32" xml:space="preserve">
<path d="M31.999,24.764c0,0.429,0,0.857,0,1.285c-0.342,3.29-3.616,5.899-7.557,5.95c-2.861,0.037-6.179-1.485-8.845-2.895
	C8.291,25.245,1.564,17.183,0.001,8.522c0-0.537,0-1.072,0-1.608C0.884,3.135,2.385-0.025,7.075,0
	c1.1,1.099,1.599,2.238,2.413,3.698c0.584,1.05,2.208,3.121,2.09,4.181c-0.245,2.206-3.867,2.528-4.019,4.502
	c-0.097,1.253,1.474,3.112,2.09,4.019c0.875,1.287,1.645,2.303,2.734,3.377c1.003,0.989,5.623,4.862,7.396,4.664
	c1.967-0.221,2.698-4.006,4.664-4.02C26.1,20.409,30.747,24.48,31.999,24.764z"/>
</svg>
