<?xml version="1.0" encoding="utf-8"?>
<!-- Generator: Adobe Illustrator 15.1.0, SVG Export Plug-In . SVG Version: 6.00 Build 0)  -->
<!DOCTYPE svg PUBLIC "-//W3C//DTD SVG 1.1//EN" "http://www.w3.org/Graphics/SVG/1.1/DTD/svg11.dtd">
<svg version="1.1" id="Layer_1" xmlns="http://www.w3.org/2000/svg" xmlns:xlink="http://www.w3.org/1999/xlink" x="0px" y="0px"
	 width="32px" height="32px" viewBox="0 0 32 32" enable-background="new 0 0 32 32" xml:space="preserve">
<g>
	<path d="M16,0C7.164,0,0,7.164,0,16c0,8.837,7.164,16,16,16c8.837,0,16-7.163,16-16C32,7.164,24.837,0,16,0z M20.471,5.438
		c0-0.549,0.445-0.995,0.995-0.995h0.024c0.55,0,0.996,0.446,0.996,0.995v3.461c0,0.549-0.446,0.995-0.996,0.995h-0.024
		c-0.55,0-0.995-0.445-0.995-0.995V5.438z M9.448,5.438c0-0.549,0.446-0.995,0.996-0.995h0.023c0.55,0,0.996,0.446,0.996,0.995
		v3.461c0,0.549-0.445,0.995-0.996,0.995h-0.023c-0.55,0-0.996-0.445-0.996-0.995V5.438z M26.634,23.088
		c0,1.179-0.956,2.213-2.134,2.213H7.434c-1.178,0-2.133-1.034-2.133-2.213V9.221c0-1.178,0.955-2.053,2.133-2.053h1.303v2.004
		c0,0.875,0.856,1.551,1.732,1.551h0.03c0.875,0,1.675-0.677,1.675-1.551V7.168h7.467v2.004c0,0.875,1.004,1.551,1.879,1.551h0.029
		c0.876,0,1.766-0.677,1.766-1.551V7.168h1.186c1.178,0,2.134,0.875,2.134,2.053L26.634,23.088L26.634,23.088z"/>
	<path d="M6.367,22.832c0,0.825,0.668,1.403,1.493,1.403h16.213c0.824,0,1.493-0.578,1.493-1.403V12.028h-19.2V22.832z M21.3,13.687
		h3.319v3.437H21.3V13.687z M21.3,18.901h3.319v3.319H21.3V18.901z M16.56,13.687h3.318v3.437H16.56V13.687z M16.56,18.901h3.318
		v3.319H16.56V18.901z M11.937,13.687h3.319v3.437h-3.319V13.687z M11.937,18.901h3.319v3.319h-3.319V18.901z M7.197,13.687h3.556
		v3.437H7.197V13.687z M7.197,18.901h3.556v3.319H7.197V18.901z"/>
</g>
</svg>
