<?xml version="1.0" encoding="utf-8"?>
<!-- Generator: Adobe Illustrator 15.1.0, SVG Export Plug-In . SVG Version: 6.00 Build 0)  -->
<!DOCTYPE svg PUBLIC "-//W3C//DTD SVG 1.1//EN" "http://www.w3.org/Graphics/SVG/1.1/DTD/svg11.dtd">
<svg version="1.1" id="Layer_1" xmlns="http://www.w3.org/2000/svg" xmlns:xlink="http://www.w3.org/1999/xlink" x="0px" y="0px"
	 width="32px" height="32px" viewBox="0 0 32 32" enable-background="new 0 0 32 32" xml:space="preserve">
<g>
	<path d="M16,0C7.164,0,0,7.164,0,16c0,8.837,7.164,16,16,16c8.837,0,16-7.163,16-16C32,7.164,24.837,0,16,0z M24.377,26.523H7.521
		V5.586h9.981v6.875h6.874L24.377,26.523L24.377,26.523z M19,10.963V5.586l5.377,5.377H19z"/>
	<path d="M13.777,22.089c-0.291,0.152-0.634,0.229-1.028,0.229c-0.744,0-1.333-0.285-1.768-0.854
		c-0.435-0.567-0.652-1.354-0.652-2.358c0-0.492,0.061-0.938,0.182-1.33c0.121-0.396,0.291-0.729,0.511-1.002
		c0.22-0.273,0.479-0.484,0.78-0.632c0.301-0.148,0.634-0.222,1.001-0.222c0.341,0,0.639,0.065,0.894,0.195
		c0.255,0.13,0.495,0.307,0.719,0.53l0.874-0.968c-0.278-0.295-0.63-0.555-1.056-0.78c-0.426-0.224-0.907-0.336-1.445-0.336
		c-0.565,0-1.094,0.103-1.586,0.309c-0.493,0.207-0.923,0.506-1.291,0.901c-0.368,0.395-0.657,0.875-0.867,1.445
		s-0.316,1.214-0.316,1.931c0,0.726,0.103,1.371,0.309,1.936s0.489,1.04,0.847,1.425c0.358,0.386,0.78,0.677,1.264,0.874
		s1.008,0.296,1.573,0.296c0.556,0,1.062-0.11,1.519-0.329c0.457-0.22,0.865-0.535,1.224-0.947l-0.874-0.955
		C14.339,21.721,14.068,21.938,13.777,22.089z"/>
	<path d="M18.799,23.514h1.842l2.729-8.792H21.77l-1.224,4.422c-0.135,0.502-0.258,0.978-0.37,1.426
		c-0.111,0.447-0.244,0.928-0.396,1.438h-0.053c-0.152-0.511-0.285-0.99-0.396-1.438c-0.112-0.448-0.24-0.924-0.383-1.426
		l-1.237-4.422h-1.653L18.799,23.514z"/>
</g>
</svg>
