<?xml version="1.0" encoding="utf-8"?>
<!-- Generator: Adobe Illustrator 15.1.0, SVG Export Plug-In . SVG Version: 6.00 Build 0)  -->
<!DOCTYPE svg PUBLIC "-//W3C//DTD SVG 1.1//EN" "http://www.w3.org/Graphics/SVG/1.1/DTD/svg11.dtd">
<svg version="1.1" id="Layer_1" xmlns="http://www.w3.org/2000/svg" xmlns:xlink="http://www.w3.org/1999/xlink" x="0px" y="0px"
	 width="32px" height="32px" viewBox="0 0 32 32" enable-background="new 0 0 32 32" xml:space="preserve">
<g>
	<path d="M16,0C7.164,0,0,7.164,0,16c0,8.837,7.164,16,16,16c8.837,0,16-7.163,16-16C32,7.164,24.837,0,16,0z M25.093,24.538
		c0,0.908-0.588,2.129-2.029,2.129H8.451c-0.563,0-1.518-1.058-1.518-1.645V6.933H22.4v16.773c0,0.37,0.252,0.827,0.62,0.827h0.224
		c0.368,0,0.756-0.457,0.756-0.944V7.885l1.021,0.842L25.093,24.538z"/>
	<path d="M8.533,8.533h11.733v8H8.533V8.533z M8.533,18.667h11.733v1.066H8.533V18.667z M15.467,24H8.533v-1.066h6.934V24z
		 M15.467,21.866H8.533V20.8h6.934V21.866z M20.267,24h-3.2v-3.2h3.2V24z"/>
</g>
</svg>
