<?xml version="1.0" encoding="utf-8"?>
<!-- Generator: Adobe Illustrator 15.1.0, SVG Export Plug-In . SVG Version: 6.00 Build 0)  -->
<!DOCTYPE svg PUBLIC "-//W3C//DTD SVG 1.1//EN" "http://www.w3.org/Graphics/SVG/1.1/DTD/svg11.dtd">
<svg version="1.1" id="Layer_1" xmlns="http://www.w3.org/2000/svg" xmlns:xlink="http://www.w3.org/1999/xlink" x="0px" y="0px"
	 width="32px" height="32px" viewBox="0 0 32 32" enable-background="new 0 0 32 32" xml:space="preserve">
<g id="Main_Circle">
	<g>
		<path fill="#231F20" d="M16,0C7.163,0,0,7.163,0,16s7.163,16,16,16s16-7.163,16-16S24.837,0,16,0z M16,31.2
			C7.605,31.2,0.8,24.395,0.8,16S7.605,0.8,16,0.8S31.2,7.605,31.2,16S24.395,31.2,16,31.2z"/>
	</g>
</g>
<g id="Instagram">
	<path fill="#231F20" d="M22.153,14.769h-1.392c0.101,0.394,0.16,0.806,0.16,1.231c0,2.719-2.203,4.924-4.922,4.924
		c-2.718,0-4.923-2.205-4.923-4.924c0-0.426,0.061-0.837,0.161-1.231H9.846v6.77c0,0.34,0.276,0.615,0.616,0.615h11.076
		c0.342,0,0.616-0.275,0.616-0.615L22.153,14.769L22.153,14.769z M22.153,10.462c0-0.34-0.275-0.616-0.616-0.616h-1.846
		c-0.34,0-0.615,0.276-0.615,0.616v1.846c0,0.34,0.275,0.615,0.615,0.615h1.846c0.341,0,0.616-0.275,0.616-0.615V10.462z M16,12.923
		c-1.7,0-3.077,1.378-3.077,3.077c0,1.7,1.378,3.076,3.077,3.076s3.078-1.377,3.078-3.076C19.078,14.3,17.699,12.923,16,12.923
		 M22.153,24H9.846C8.827,24,8,23.174,8,22.153V9.846C8,8.827,8.827,8,9.846,8h12.308C23.174,8,24,8.827,24,9.846v12.308
		C24,23.174,23.174,24,22.153,24"/>
</g>
</svg>
