<?xml version="1.0" encoding="utf-8"?>
<!-- Generator: Adobe Illustrator 15.1.0, SVG Export Plug-In . SVG Version: 6.00 Build 0)  -->
<!DOCTYPE svg PUBLIC "-//W3C//DTD SVG 1.1//EN" "http://www.w3.org/Graphics/SVG/1.1/DTD/svg11.dtd">
<svg version="1.1" id="Layer_1" xmlns="http://www.w3.org/2000/svg" xmlns:xlink="http://www.w3.org/1999/xlink" x="0px" y="0px"
	 width="24px" height="24px" viewBox="0 0 24 24" enable-background="new 0 0 24 24" xml:space="preserve">
<g>
	<path fill="#003D7D" d="M23.895,21.334l-7.43-7.43c-0.315,0.508-0.692,0.986-1.133,1.428c-0.467,0.467-0.978,0.861-1.519,1.187
		l7.45,7.449L23.895,21.334z"/>
	<g>
		<path d="M13.449,2.307c-3.078-3.077-8.065-3.077-11.142,0c-3.077,3.077-3.077,8.065,0,11.14
			c2.609,2.611,6.595,3.006,9.622,1.188c0.542-0.325,1.051-0.722,1.52-1.188c0.439-0.438,0.816-0.918,1.131-1.425
			C16.463,8.983,16.086,4.943,13.449,2.307z M11.727,11.726c-0.111,0.11-0.226,0.216-0.344,0.314
			c-2.019,1.705-4.986,1.705-7.006,0.003c-0.119-0.1-0.235-0.206-0.347-0.317c-2.125-2.125-2.125-5.571,0-7.696s5.571-2.125,7.697,0
			C13.852,6.155,13.852,9.601,11.727,11.726z"/>
	</g>
</g>
</svg>
