<?xml version="1.0" encoding="utf-8"?>
<!-- Generator: Adobe Illustrator 15.1.0, SVG Export Plug-In . SVG Version: 6.00 Build 0)  -->
<!DOCTYPE svg PUBLIC "-//W3C//DTD SVG 1.1//EN" "http://www.w3.org/Graphics/SVG/1.1/DTD/svg11.dtd">
<svg version="1.1" id="Layer_1" xmlns="http://www.w3.org/2000/svg" xmlns:xlink="http://www.w3.org/1999/xlink" x="0px" y="0px"
	 width="32px" height="32px" viewBox="0 0 32 32" enable-background="new 0 0 32 32" xml:space="preserve">
<g id="Main_Circle">
	<g>
		<path fill="#DD4C3F" d="M16,0C7.163,0,0,7.163,0,16s7.163,16,16,16s16-7.163,16-16S24.837,0,16,0z M16,31.2
			C7.605,31.2,0.8,24.395,0.8,16S7.605,0.8,16,0.8S31.2,7.605,31.2,16S24.395,31.2,16,31.2z"/>
	</g>
</g>
<path fill="#DD4C3F" d="M14.75,13.031l1.875-1.906c0,0-1.531-1.656-4.156-1.656c-3.031,0-6.562,2.062-6.562,6.531
	c0,1.812,1.344,6.031,6.344,6.344c0,0,7.031,0.344,6.125-7.781h-6v2.562h3.375c0,0-0.375,2.594-3.375,2.594
	c0,0-3.844,0.062-3.844-3.719S12.719,10.969,14.75,13.031z"/>
<polygon fill="#DD4C3F" points="26.094,14.719 23.812,14.719 23.812,12.5 22.25,12.5 22.25,14.719 20,14.719 20,16.312 
	22.25,16.312 22.25,18.5 23.812,18.5 23.812,16.312 26.094,16.312 "/>
</svg>
