<?xml version="1.0" encoding="utf-8"?>
<!-- Generator: Adobe Illustrator 15.1.0, SVG Export Plug-In . SVG Version: 6.00 Build 0)  -->
<!DOCTYPE svg PUBLIC "-//W3C//DTD SVG 1.1//EN" "http://www.w3.org/Graphics/SVG/1.1/DTD/svg11.dtd">
<svg version="1.1" id="Layer_1" xmlns="http://www.w3.org/2000/svg" xmlns:xlink="http://www.w3.org/1999/xlink" x="0px" y="0px"
	 width="32px" height="32px" viewBox="0 0 32 32" enable-background="new 0 0 32 32" xml:space="preserve">
<g id="Main_Circle">
	<g>
		<path fill="#003D7D" d="M16,0C7.163,0,0,7.163,0,16s7.163,16,16,16s16-7.163,16-16S24.837,0,16,0z M16,31.2
			C7.605,31.2,0.8,24.395,0.8,16C0.8,7.605,7.605,0.8,16,0.8c8.395,0,15.2,6.805,15.2,15.2C31.2,24.395,24.395,31.2,16,31.2z"/>
	</g>
</g>
<g>
	<path fill="#003D7D" d="M12.154,22.319c-0.683,0.683-1.788,0.683-2.47,0c-0.682-0.682-0.682-1.787,0-2.469L19.891,9.644
		c0.681-0.681,1.787-0.681,2.468,0c0.682,0.683,0.682,1.789,0,2.47L12.154,22.319z"/>
	<path fill="#003D7D" d="M22.358,9.644c-0.681-0.681-1.787-0.681-2.468,0L9.684,19.851c-0.682,0.682-0.682,1.787,0,2.469
		c0.683,0.683,1.788,0.683,2.47,0l10.205-10.205C23.04,11.433,23.04,10.327,22.358,9.644z"/>
	<path fill="#003D7D" d="M16.327,19.252l-3.369,3.369c-0.133,0.444-0.375,0.863-0.726,1.213l-3.745,3.745
		c-0.004,0.006-0.009,0.008-0.014,0.014c0.874,0.57,1.816,1.045,2.813,1.407l3.648-3.649C16.585,23.701,17.047,21.314,16.327,19.252
		z"/>
	<path fill="#003D7D" d="M4.395,23.485L8.14,19.74c0.299-0.298,0.648-0.519,1.02-0.659l3.466-3.465
		c-2.042-0.674-4.38-0.201-6.003,1.423L3,20.663c0.357,1,0.827,1.945,1.394,2.825C4.394,23.487,4.394,23.486,4.395,23.485z"/>
	<path fill="#003D7D" d="M27.379,8.689l-3.745,3.745c-0.353,0.351-0.771,0.592-1.216,0.726l-3.366,3.368
		c2.062,0.724,4.448,0.258,6.099-1.392L29,11.287c-0.364-1.002-0.844-1.949-1.416-2.826C27.521,8.539,27.451,8.615,27.379,8.689z"/>
	<path fill="#003D7D" d="M15.415,12.827l3.466-3.466c0.141-0.372,0.361-0.721,0.659-1.02l3.745-3.745
		c0.07-0.07,0.142-0.135,0.216-0.197C22.62,3.831,21.668,3.359,20.663,3l-3.824,3.824C15.215,8.448,14.741,10.786,15.415,12.827z"/>
</g>
</svg>
