<?xml version="1.0" encoding="utf-8"?>
<!-- Generator: Adobe Illustrator 15.1.0, SVG Export Plug-In . SVG Version: 6.00 Build 0)  -->
<!DOCTYPE svg PUBLIC "-//W3C//DTD SVG 1.1//EN" "http://www.w3.org/Graphics/SVG/1.1/DTD/svg11.dtd">
<svg version="1.1" id="Layer_1" xmlns="http://www.w3.org/2000/svg" xmlns:xlink="http://www.w3.org/1999/xlink" x="0px" y="0px"
	 width="32px" height="32px" viewBox="0 0 32 32" enable-background="new 0 0 32 32" xml:space="preserve">
<g>
	<g>
		<path fill="#231F20" d="M31.527,20c0.304-0.889,0.469-2.625,0.473-3.938C32.005,14.707,31.841,13,31.529,12h-2.975
			c-0.242,0-0.56-1.487-0.941-2.208l2.103-2.07c-1.35-2.238-3.229-4.104-5.471-5.453l-2.036,2.11C21.486,3.998,20,3.688,20,3.444
			V0.472C19,0.169,17.376,0.005,16.064,0C14.708-0.005,13,0.158,12,0.471v2.973c0,0.244-1.487,0.561-2.208,0.944l-2.07-2.103
			c-2.24,1.349-4.104,3.232-5.453,5.472l2.11,2.036C3.998,10.513,3.688,12,3.445,12H0.472C0.169,13,0.005,14.624,0,15.935
			C-0.005,17.291,0.159,19.111,0.472,20h2.973c0.244,0.443,0.562,1.486,0.943,2.208l-2.103,2.069
			c1.349,2.238,3.231,4.104,5.471,5.453l2.036-2.11C10.513,28.002,12,28.312,12,28.555v2.975c1,0.303,2.625,0.467,3.937,0.471
			C17.293,32.006,19,31.842,20,31.529v-2.975c0-0.244,1.486-0.561,2.207-0.943l2.07,2.104c2.238-1.35,4.104-3.231,5.451-5.471
			l-2.108-2.036c0.382-0.723,0.69-1.766,0.937-2.209H31.527z M21.141,24.391c-0.869,0.533-1.824,0.935-2.844,1.178
			c-0.749,0.18-1.531,0.274-2.336,0.271c-0.778-0.003-1.533-0.099-2.258-0.271c-1.019-0.244-1.976-0.645-2.844-1.176
			c-1.322-0.812-2.437-1.929-3.249-3.25c-0.533-0.869-0.934-1.824-1.178-2.844c-0.18-0.75-0.275-1.531-0.272-2.338
			c0.003-0.778,0.099-1.532,0.272-2.257c0.244-1.018,0.643-1.976,1.174-2.843c0.812-1.324,1.93-2.438,3.253-3.25
			c0.868-0.533,1.823-0.934,2.841-1.178c0.75-0.18,1.532-0.275,2.339-0.272c0.777,0.003,1.534,0.099,2.259,0.272
			c1.019,0.244,1.974,0.643,2.841,1.174c1.323,0.812,2.439,1.93,3.252,3.254c0.532,0.868,0.934,1.824,1.176,2.841
			c0.181,0.75,0.276,1.532,0.273,2.337c-0.004,0.779-0.1,1.534-0.273,2.26c-0.243,1.02-0.643,1.977-1.176,2.844
			C23.58,22.464,22.462,23.578,21.141,24.391z"/>
	</g>
	<g>
		<path fill="#231F20" d="M20.896,14.431l-3.998-5.77l0.026-0.006l-0.032-0.237l-0.421-0.56h-0.209V7.181h-0.1h-0.146v0.677h-0.17
			l-0.421,0.56l-0.032,0.247h0.019l-4,5.769l0.015,0.01l-0.009,0.011l0.779,0.54v8.979c0.219,0.103,0.441,0.194,0.669,0.278v-9.258
			l6.6,0.004v9.214c0.209-0.08,0.414-0.168,0.616-0.262V15l0.799-0.546l-0.003-0.012L20.896,14.431z"/>
		<path fill="#231F20" d="M16.118,16.394c-0.902,0-1.635,0.732-1.635,1.635c0,0.902,0.733,1.636,1.635,1.636
			c0.903,0,1.636-0.731,1.636-1.636S17.021,16.394,16.118,16.394z M16.118,19.312c-0.708,0-1.282-0.574-1.282-1.283
			c0-0.707,0.574-1.281,1.282-1.281c0.709,0,1.282,0.574,1.282,1.281C17.4,18.738,16.827,19.312,16.118,19.312z"/>
		<path fill="#231F20" d="M13.71,20.438h4.815v-4.814H13.71V20.438z M14.231,16.142h3.774v3.775h-3.774V16.142z"/>
		<path fill="#231F20" d="M16.12,21.021c-2.067,0-2.07,1.666-2.07,1.666v1.916c0.183,0.043,0.368,0.078,0.554,0.107V23
			c0,0,0.001-0.717,0.66-0.717c0.66,0,0.66,0.742,0.66,0.717v1.831c0.063,0.002,0.127,0.003,0.19,0.003
			c0.066,0,0.133-0.001,0.199-0.003V23c0,0,0.001-0.717,0.662-0.717c0.658,0,0.658,0.742,0.658,0.717v1.71
			c0.188-0.03,0.371-0.065,0.555-0.106v-1.916C18.188,22.771,18.188,21.021,16.12,21.021z M16.118,22.337
			c0,0-0.18-0.545-0.888-0.448c0,0,0.305-0.373,0.888-0.373c0.584,0,0.89,0.373,0.89,0.373
			C16.298,21.792,16.118,22.337,16.118,22.337z"/>
	</g>
</g>
</svg>
