<?xml version="1.0" encoding="utf-8"?>
<!-- Generator: Adobe Illustrator 15.1.0, SVG Export Plug-In . SVG Version: 6.00 Build 0)  -->
<!DOCTYPE svg PUBLIC "-//W3C//DTD SVG 1.1//EN" "http://www.w3.org/Graphics/SVG/1.1/DTD/svg11.dtd">
<svg version="1.1" id="Layer_1" xmlns="http://www.w3.org/2000/svg" xmlns:xlink="http://www.w3.org/1999/xlink" x="0px" y="0px"
	 width="32px" height="32px" viewBox="0 0 32 32" enable-background="new 0 0 32 32" xml:space="preserve">
<g>
	<path d="M31.957,1.77c-0.012-0.059-0.032-0.113-0.049-0.168c-0.024-0.081-0.043-0.163-0.076-0.241
		c-0.028-0.072-0.07-0.135-0.104-0.202C31.694,1.1,31.67,1.039,31.631,0.982c-0.16-0.24-0.366-0.446-0.608-0.607
		c-0.056-0.038-0.117-0.065-0.177-0.097c-0.065-0.036-0.129-0.076-0.199-0.106C30.568,0.142,30.488,0.124,30.41,0.1
		c-0.06-0.017-0.113-0.039-0.175-0.051c-0.142-0.028-0.285-0.043-0.429-0.043H19.269c-1.212,0-2.194,0.983-2.194,2.195
		c0,1.212,0.982,2.194,2.194,2.194h5.239L11.18,17.724c-0.858,0.855-0.858,2.245,0,3.104c0.857,0.857,2.246,0.857,3.103,0
		L27.612,7.5v5.238c0,1.213,0.981,2.194,2.194,2.194c1.212,0,2.193-0.981,2.193-2.194V2.203C32,2.058,31.986,1.913,31.957,1.77z"/>
	<g>
		<path d="M21.26,20.539v6.412c0,0.342-0.277,0.62-0.618,0.62H5.048c-0.341,0-0.619-0.278-0.619-0.62V11.36
			c0-0.343,0.277-0.621,0.619-0.621h6.414l4.429-4.428H5.048C2.264,6.311,0,8.576,0,11.36v15.591C0,29.734,2.264,32,5.048,32h15.594
			c2.783,0,5.048-2.266,5.048-5.049V16.11L21.26,20.539z"/>
	</g>
</g>
</svg>
