<?xml version="1.0" encoding="utf-8"?>
<!-- Generator: Adobe Illustrator 15.1.0, SVG Export Plug-In . SVG Version: 6.00 Build 0)  -->
<!DOCTYPE svg PUBLIC "-//W3C//DTD SVG 1.1//EN" "http://www.w3.org/Graphics/SVG/1.1/DTD/svg11.dtd">
<svg version="1.1" id="Layer_1" xmlns="http://www.w3.org/2000/svg" xmlns:xlink="http://www.w3.org/1999/xlink" x="0px" y="0px"
	 width="32px" height="32px" viewBox="0 0 32 32" enable-background="new 0 0 32 32" xml:space="preserve">
<g>
	<g>
		<path fill="#231F20" d="M31.388,27.113l-5.877-5.967v-0.002c3.336-5.169,2.661-12.083-1.812-16.626
			c-5.223-5.3-13.755-5.365-19.056-0.144c-5.301,5.22-5.389,13.751-0.169,19.05c4.429,4.5,11.238,5.227,16.418,2.158V25.58
			l5.84,5.92C28.515,30.305,30.09,28.82,31.388,27.113z M20.625,20.602c-0.19,0.188-0.392,0.367-0.593,0.534
			c-3.474,2.89-8.549,2.851-11.981-0.087c-0.202-0.171-0.399-0.354-0.589-0.547c-3.606-3.661-3.562-9.554,0.1-13.159
			c3.662-3.608,9.554-3.563,13.163,0.1C24.33,11.104,24.285,16.997,20.625,20.602z"/>
	</g>
	<g>
		<path fill="#231F20" d="M8.991,15.337L8.566,16.82l-1.35-0.01l1.806-5.781l1.72,0.013l1.761,5.807l-1.419-0.01l-0.435-1.49
			L8.991,15.337z M10.467,14.368c0,0-0.553-2.007-0.636-2.352H9.814c-0.088,0.343-0.628,2.342-0.628,2.342L10.467,14.368z"/>
		<path fill="#231F20" d="M15.164,14.18l-0.007,0.869l-2.252-0.018l0.006-0.868L15.164,14.18z"/>
		<path fill="#231F20" d="M15.611,16.17l2.79-3.951v-0.035l-2.51-0.019l0.008-1.083l4.203,0.032l-0.006,0.756l-2.729,3.899v0.035
			l2.74,0.021l-0.008,1.083l-4.495-0.034L15.611,16.17z"/>
	</g>
</g>
</svg>
