<?xml version="1.0" encoding="utf-8"?>
<!-- Generator: Adobe Illustrator 15.1.0, SVG Export Plug-In . SVG Version: 6.00 Build 0)  -->
<!DOCTYPE svg PUBLIC "-//W3C//DTD SVG 1.1//EN" "http://www.w3.org/Graphics/SVG/1.1/DTD/svg11.dtd">
<svg version="1.1" id="Layer_1" xmlns="http://www.w3.org/2000/svg" xmlns:xlink="http://www.w3.org/1999/xlink" x="0px" y="0px"
	 width="32px" height="32px" viewBox="0 0 32 32" enable-background="new 0 0 32 32" xml:space="preserve">
<g id="Main_Circle">
	<g>
		<path fill="#28AAE1" d="M16,0C7.163,0,0,7.163,0,16s7.163,16,16,16s16-7.163,16-16S24.837,0,16,0z M16,31.2
			C7.605,31.2,0.8,24.395,0.8,16S7.605,0.8,16,0.8S31.2,7.605,31.2,16S24.395,31.2,16,31.2z"/>
	</g>
</g>
<g id="Twitter">
	<path fill="#28AAE1" d="M8,21.404c0,0,2.231,1.374,5.184,1.374c2.952,0,9.097-2.404,9.097-10.232L24,11.001l-1.82,0.446
		l1.442-1.922l-2.059,1.132c0,0-0.584-1.434-2.748-1.434c0,0-3.423-0.231-2.986,4.069c0,0-3.683,1.03-7.391-3.399
		c0,0-0.85,2.884,1.262,4.661c0,0-0.901-0.103-1.519-0.644c0,0-0.05,2.292,2.652,3.501c0,0-0.901,0.31-1.389,0.078
		c0,0,0.463,1.828,2.96,2.602C12.403,20.092,11.193,21.559,8,21.404z"/>
</g>
</svg>
