<?xml version="1.0" encoding="utf-8"?>
<!-- Generator: Adobe Illustrator 15.1.0, SVG Export Plug-In . SVG Version: 6.00 Build 0)  -->
<!DOCTYPE svg PUBLIC "-//W3C//DTD SVG 1.1//EN" "http://www.w3.org/Graphics/SVG/1.1/DTD/svg11.dtd">
<svg version="1.1" id="Layer_1" xmlns="http://www.w3.org/2000/svg" xmlns:xlink="http://www.w3.org/1999/xlink" x="0px" y="0px"
	 width="32px" height="32px" viewBox="0 0 32 32" enable-background="new 0 0 32 32" xml:space="preserve">
<g>
	<path d="M29.547,4.547H2.452C1.098,4.547,0,5.646,0,6.999v0.878l16,10.502l16-10.5v-0.88C32,5.646,30.901,4.547,29.547,4.547z"/>
	<polygon points="32,22.059 32,11.606 24.022,16.832 	"/>
	<polygon points="0,11.606 0,22.059 7.977,16.832 	"/>
	<path d="M16,23.059l-5.927-3.885l-9.967,6.542c0.307,1.006,1.241,1.737,2.345,1.737h27.096c1.106,0,2.04-0.731,2.347-1.735
		l-9.968-6.542L16,23.059z"/>
</g>
</svg>
