<?xml version="1.0" encoding="utf-8"?>
<!-- Generator: Adobe Illustrator 15.1.0, SVG Export Plug-In . SVG Version: 6.00 Build 0)  -->
<!DOCTYPE svg PUBLIC "-//W3C//DTD SVG 1.1//EN" "http://www.w3.org/Graphics/SVG/1.1/DTD/svg11.dtd">
<svg version="1.1" id="Layer_1" xmlns="http://www.w3.org/2000/svg" xmlns:xlink="http://www.w3.org/1999/xlink" x="0px" y="0px"
	 width="100px" height="100px" viewBox="0 0 100 100" enable-background="new 0 0 100 100" xml:space="preserve">
<path d="M80.009,60.543L80.131,60h-0.004c10.864-14,9.702-34.792-3.49-47.986
	C62.166-2.457,38.705-2.264,24.235,12.207C10.502,25.939,9.804,47.865,22.138,62.424l19.269,24.591l8.965,11.647
	c2.466-3.199,4.69-6.264,6.699-8.87C57.07,89.792,79.699,60.949,80.009,60.543z M50.436,20.256c9.828,0,17.797,7.968,17.797,17.796
	s-7.969,17.795-17.797,17.795s-17.797-7.967-17.797-17.795S40.607,20.256,50.436,20.256z"/>
</svg>
