<?xml version="1.0" encoding="utf-8"?>
<!-- Generator: Adobe Illustrator 15.1.0, SVG Export Plug-In . SVG Version: 6.00 Build 0)  -->
<!DOCTYPE svg PUBLIC "-//W3C//DTD SVG 1.1//EN" "http://www.w3.org/Graphics/SVG/1.1/DTD/svg11.dtd">
<svg version="1.1" id="Layer_1" xmlns="http://www.w3.org/2000/svg" xmlns:xlink="http://www.w3.org/1999/xlink" x="0px" y="0px"
	 width="32px" height="32px" viewBox="0 0 32 32" enable-background="new 0 0 32 32" xml:space="preserve">
<g id="Main_Circle">
	<g>
		<path fill="#CB2028" d="M16,0C7.163,0,0,7.163,0,16s7.163,16,16,16s16-7.163,16-16S24.837,0,16,0z M16,31.2
			C7.605,31.2,0.8,24.395,0.8,16S7.605,0.8,16,0.8S31.2,7.605,31.2,16S24.395,31.2,16,31.2z"/>
	</g>
</g>
<path fill="#CB2028" d="M13.534,13.483c0,0,0.257-1.877,1.682-1.877c0,0,1.811-0.294,1.234,2.243c0,0-0.125,0.95-0.45,1.5
	c-0.222,0.753-0.19,1.377,0,2.101c0.575,0.524,1.987,0.562,2.8-0.3c1.05-1.301,1.226-2.176,1.351-3.001
	c0.126-0.824,0.1-2.5-1.225-3.8C17.601,9.05,14.25,9.6,12.9,10.8c-0.953,0.848-1.023,2.229-0.825,4.25c0,0,0.396,0.827,0.488,1.118
	c0.111,0.354-0.138,1.257-1.013,1.032c-1.218-0.314-1.6-2.6-1.55-3.75s0.794-4.75,5.098-5.375c0,0,3.528-0.449,5.652,1.375
	c0,0,2.459,1.607,1.625,5.424c-1.037,4.613-4,4.625-4.8,4.625c-0.8,0-1.41-0.292-1.816-0.604c-0.359-0.28-0.621-0.196-0.759,0.253
	c-0.067,0.697-0.975,3.45-1.8,4.525c0,0-0.8,0.425-0.85-0.591c0,0,0.066-1.676,0.366-3.101S13.458,18.059,13.534,13.483z"/>
<path fill="#CB2028" d="M21.725,19.5"/>
</svg>
