<?xml version="1.0" encoding="utf-8"?>
<!-- Generator: Adobe Illustrator 15.1.0, SVG Export Plug-In . SVG Version: 6.00 Build 0)  -->
<!DOCTYPE svg PUBLIC "-//W3C//DTD SVG 1.1//EN" "http://www.w3.org/Graphics/SVG/1.1/DTD/svg11.dtd">
<svg version="1.1" id="Layer_1" xmlns="http://www.w3.org/2000/svg" xmlns:xlink="http://www.w3.org/1999/xlink" x="0px" y="0px"
	 width="32px" height="32px" viewBox="0 0 32 32" enable-background="new 0 0 32 32" xml:space="preserve">
<g>
	<g>
		<path fill="#231F20" d="M19.518,16.595l3.902-3.9c0.513-0.154,1-0.434,1.405-0.84l4.337-4.337
			c0.085-0.085,0.163-0.172,0.236-0.264c-1.228-1.878-2.842-3.484-4.727-4.702c-0.086,0.07-0.169,0.146-0.25,0.226l-4.339,4.336
			c-0.346,0.346-0.6,0.75-0.763,1.182l-4.014,4.013c-0.782-2.364-0.233-5.07,1.647-6.952l4.429-4.427
			C19.721,0.335,17.931,0.007,16.063,0C7.228-0.035,0.036,7.1,0,15.936c-0.008,1.913,0.321,3.746,0.929,5.447l4.196-4.195
			c1.88-1.88,4.586-2.429,6.952-1.648l-4.014,4.015c-0.431,0.163-0.835,0.418-1.182,0.764l-4.336,4.337
			c-0.001,0-0.002,0.002-0.003,0.002c1.223,1.897,2.835,3.52,4.726,4.754c0.005-0.006,0.011-0.013,0.018-0.018l4.336-4.337
			c0.407-0.406,0.687-0.891,0.841-1.406l3.9-3.898c0.836,2.391,0.299,5.152-1.613,7.062l-4.224,4.226
			c1.688,0.615,3.511,0.954,5.411,0.962C24.772,32.035,31.966,24.899,32,16.063c0.008-1.946-0.331-3.812-0.96-5.539l-4.459,4.459
			C24.672,16.893,21.908,17.43,19.518,16.595z M11.53,23.303c-0.789,0.79-2.071,0.79-2.86,0c-0.789-0.789-0.789-2.071,0-2.86
			L20.489,8.624c0.79-0.789,2.07-0.79,2.86,0c0.79,0.79,0.79,2.071,0,2.86L11.53,23.303z"/>
	</g>
</g>
</svg>
