<?xml version="1.0" encoding="utf-8"?>
<!-- Generator: Adobe Illustrator 15.1.0, SVG Export Plug-In . SVG Version: 6.00 Build 0)  -->
<!DOCTYPE svg PUBLIC "-//W3C//DTD SVG 1.1//EN" "http://www.w3.org/Graphics/SVG/1.1/DTD/svg11.dtd">
<svg version="1.1" id="Layer_1" xmlns="http://www.w3.org/2000/svg" xmlns:xlink="http://www.w3.org/1999/xlink" x="0px" y="0px"
	 width="180px" height="15px" viewBox="0 0 180 15" enable-background="new 0 0 180 15" xml:space="preserve">
<g>
	<g>
		<path fill="#FFFFFF" d="M18.741,1.447l-4.795,13.37h-0.414l-3.39-9.543l-3.55,9.543H6.178L1.36,1.354L0,1.169V0.432h5.187v0.737
			L3.272,1.354L6.801,11.38l2.788-7.628L8.714,1.354L7.308,1.169V0.432h5.301v0.737l-1.914,0.185v0.231l3.411,9.795l3.527-9.957
			l-1.843-0.254V0.432h4.311v0.737L18.741,1.447z"/>
		<path fill="#FFFFFF" d="M26.78,14.632v-0.646l1.66-0.185V9.838h-5.256v3.964l1.661,0.185v0.646h-4.98v-0.646l1.66-0.185v-8.3
			l-1.66-0.183V4.674h4.98v0.646l-1.661,0.183v3.505h5.256V5.502l-1.66-0.183V4.674h4.956v0.646l-1.659,0.183v8.3l1.659,0.185v0.646
			H26.78z"/>
		<path fill="#FFFFFF" d="M34.505,14.632v-0.646l1.661-0.185v-8.3l-1.661-0.183V4.674h4.978v0.646l-1.658,0.183v8.3l1.658,0.185
			v0.646H34.505z"/>
		<path fill="#FFFFFF" d="M50.296,7.44l-0.254-1.938h-2.788v8.3l1.659,0.185v0.646h-4.98v-0.646l1.66-0.185v-8.3h-2.812L42.526,7.44
			H41.79V4.674h9.243V7.44H50.296z"/>
		<path fill="#FFFFFF" d="M62.252,14.632v-0.646l1.66-0.185l-0.461-6.938l-3.78,7.768h-0.369l-3.71-7.584l-0.414,6.663l1.658,0.276
			v0.646h-4.288v-0.646l1.66-0.276l0.553-8.208l-1.658-0.183V4.674h3.134l3.642,7.538l3.665-7.538h3.112v0.646l-1.66,0.137
			l0.576,8.345l1.66,0.185v0.646H62.252z"/>
		<path fill="#FFFFFF" d="M74.842,14.632v-0.646l1.729-0.185l-0.945-2.19h-4.011l-0.921,2.168l1.729,0.207v0.646h-3.965v-0.646
			l1.267-0.23l3.942-9.267h0.738l3.989,9.313l1.244,0.185v0.646H74.842z M73.643,6.864h-0.046l-1.637,3.918h3.319L73.643,6.864z"/>
		<path fill="#FFFFFF" d="M91.254,5.596v9.129h-0.529l-7.146-7.77v6.755l1.638,0.276v0.646h-4.242v-0.646l1.636-0.276V5.919
			l-0.437-0.462l-1.199-0.137V4.674h2.72l6.593,7.216V5.596l-1.637-0.276V4.674h4.241v0.646L91.254,5.596z"/>
		<path fill="#FFFFFF" d="M109.286,15c-4.104,0-7.193-2.881-7.193-7.377c0-4.494,2.997-7.561,7.491-7.561
			c1.914,0,3.065,0.324,3.918,0.691l0.3-0.691h0.738l-0.184,4.173h-0.739l-0.369-1.821c-1.104-0.921-2.145-1.43-4.056-1.43
			c-2.768,0-5.07,2.375-5.07,6.293c0,3.504,1.911,6.685,5.325,6.685c1.843,0,3.434-0.762,4.656-2.028l0.553,0.737
			C113.134,14.217,111.383,15,109.286,15z"/>
		<path fill="#FFFFFF" d="M121.198,15c-3.043,0-5.42-2.12-5.42-5.256s2.468-5.439,5.512-5.439c3.042,0,5.417,2.121,5.417,5.254
			C126.707,12.695,124.241,15,121.198,15z M121.198,5.135c-2.03,0-3.528,1.659-3.528,4.425c0,2.767,1.591,4.611,3.62,4.611
			c2.03,0,3.527-1.661,3.527-4.427S123.226,5.135,121.198,5.135z"/>
		<path fill="#FFFFFF" d="M127.967,14.632v-0.646l1.657-0.185v-8.3l-1.657-0.183V4.674h4.979v0.646l-1.661,0.183v8.3h3.921
			l0.346-2.098h0.783v2.928H127.967z"/>
		<path fill="#FFFFFF" d="M138.237,14.632v-0.646l1.66-0.185v-8.3l-1.66-0.183V4.674h4.977v0.646l-1.657,0.183v8.3h3.918
			l0.347-2.098h0.783v2.928H138.237z"/>
		<path fill="#FFFFFF" d="M148.084,14.632v-0.646l1.662-0.185v-8.3l-1.662-0.183V4.674h8.277v2.604h-0.735l-0.255-1.776h-3.965
			v3.505h2.721l0.182-1.105H155v3.04h-0.691l-0.182-1.104h-2.721v3.964h4.103l0.302-1.867h0.78v2.697H148.084z"/>
		<path fill="#FFFFFF" d="M168.659,11.312v2.582c-0.763,0.484-2.264,1.105-4.266,1.105c-3.137,0-5.531-2.145-5.531-5.279
			c0-3.134,2.212-5.416,5.669-5.416c1.567,0,2.535,0.345,3.203,0.552l0.185-0.552h0.692l-0.14,3.135h-0.691l-0.252-1.384
			c-1.015-0.668-1.891-0.921-3.181-0.921c-2.123,0-3.595,1.681-3.595,4.402c0,2.696,1.45,4.634,3.801,4.634
			c1.199,0,1.938-0.255,2.446-0.646v-2.212l-1.8-0.186v-0.645h4.15v0.599L168.659,11.312z"/>
		<path fill="#FFFFFF" d="M171.494,14.632v-0.646l1.66-0.185v-8.3l-1.66-0.183V4.674h8.275v2.604h-0.74l-0.252-1.776h-3.963v3.505
			h2.72l0.185-1.105h0.69v3.04h-0.69l-0.185-1.104h-2.72v3.964h4.103l0.298-1.867H180v2.697H171.494z"/>
	</g>
</g>
</svg>
