<?xml version="1.0" encoding="utf-8"?>
<!-- Generator: Adobe Illustrator 20.0.0, SVG Export Plug-In . SVG Version: 6.00 Build 0)  -->
<svg version="1.1" id="Layer_1" xmlns="http://www.w3.org/2000/svg" xmlns:xlink="http://www.w3.org/1999/xlink" x="0px" y="0px"
	 viewBox="0 0 32 32" style="enable-background:new 0 0 32 32;" xml:space="preserve">
<g>
	<path d="M16,1c8.3,0,15,6.7,15,15s-6.7,15-15,15S1,24.3,1,16S7.7,1,16,1 M16,0C7.2,0,0,7.2,0,16s7.2,16,16,16s16-7.2,16-16
		S24.8,0,16,0L16,0z"/>
	<g>
		<path d="M12.5,26.7c-0.1,0-0.1,0-0.2,0c-0.2-0.1-0.3-0.3-0.3-0.5V6c0-0.2,0.1-0.4,0.3-0.5c0.2-0.1,0.4,0,0.5,0.1L23,15.8
			c0.1,0.1,0.1,0.2,0.1,0.4s-0.1,0.3-0.1,0.4L12.9,26.6C12.8,26.7,12.6,26.7,12.5,26.7z M13,7.2V25l8.9-8.9L13,7.2z"/>
	</g>
</g>
</svg>
