<?xml version="1.0" encoding="utf-8"?>
<!-- Generator: Adobe Illustrator 20.0.0, SVG Export Plug-In . SVG Version: 6.00 Build 0)  -->
<svg version="1.1" id="Layer_1" xmlns="http://www.w3.org/2000/svg" xmlns:xlink="http://www.w3.org/1999/xlink" x="0px" y="0px"
	 viewBox="0 0 32 32" style="enable-background:new 0 0 32 32;" xml:space="preserve">
<g>
	<path d="M16,1c8.3,0,15,6.7,15,15s-6.7,15-15,15S1,24.3,1,16S7.7,1,16,1 M16,0C7.2,0,0,7.2,0,16s7.2,16,16,16s16-7.2,16-16
		S24.8,0,16,0L16,0z"/>
	<g>
		<g>
			<path d="M26.5,24.5c-0.3,0-0.5-0.2-0.5-0.5V8c0-0.3,0.2-0.5,0.5-0.5S27,7.7,27,8v16C27,24.3,26.8,24.5,26.5,24.5z"/>
		</g>
		<g>
			<path d="M5.5,24.5C5.2,24.5,5,24.3,5,24V8c0-0.3,0.2-0.5,0.5-0.5S6,7.7,6,8v16C6,24.3,5.8,24.5,5.5,24.5z"/>
		</g>
		<g>
			<g>
				<path d="M8.5,24.5C8.2,24.5,8,24.3,8,24v-1c0-0.3,0.2-0.5,0.5-0.5S9,22.7,9,23v1C9,24.3,8.8,24.5,8.5,24.5z"/>
				<path d="M8.5,19.5C8.2,19.5,8,19.3,8,19v-1c0-0.3,0.2-0.5,0.5-0.5S9,17.7,9,18v1C9,19.3,8.8,19.5,8.5,19.5z M8.5,14.5
					C8.2,14.5,8,14.3,8,14v-1c0-0.3,0.2-0.5,0.5-0.5S9,12.7,9,13v1C9,14.3,8.8,14.5,8.5,14.5z"/>
				<path d="M8.5,9.5C8.2,9.5,8,9.3,8,9V8c0-0.3,0.2-0.5,0.5-0.5S9,7.7,9,8v1C9,9.3,8.8,9.5,8.5,9.5z"/>
			</g>
		</g>
		<g>
			<g>
				<path d="M23.5,24.5c-0.3,0-0.5-0.2-0.5-0.5v-1c0-0.3,0.2-0.5,0.5-0.5S24,22.7,24,23v1C24,24.3,23.8,24.5,23.5,24.5z"/>
				<path d="M23.5,19.5c-0.3,0-0.5-0.2-0.5-0.5v-1c0-0.3,0.2-0.5,0.5-0.5S24,17.7,24,18v1C24,19.3,23.8,19.5,23.5,19.5z M23.5,14.5
					c-0.3,0-0.5-0.2-0.5-0.5v-1c0-0.3,0.2-0.5,0.5-0.5S24,12.7,24,13v1C24,14.3,23.8,14.5,23.5,14.5z"/>
				<path d="M23.5,9.5C23.2,9.5,23,9.3,23,9V8c0-0.3,0.2-0.5,0.5-0.5S24,7.7,24,8v1C24,9.3,23.8,9.5,23.5,9.5z"/>
			</g>
		</g>
		<path d="M20.1,20H12c-0.3,0-0.5-0.2-0.5-0.5v-6.7c0-0.3,0.2-0.5,0.5-0.5h8.1c0.3,0,0.5,0.2,0.5,0.5v6.7C20.6,19.8,20.3,20,20.1,20
			z M12.5,19h7.1v-5.7h-7.1V19z"/>
		<path d="M20.1,24.7c-0.3,0-0.5-0.2-0.5-0.5v-0.8h-7.1v0.8c0,0.3-0.2,0.5-0.5,0.5s-0.5-0.2-0.5-0.5v-1.3c0-0.3,0.2-0.5,0.5-0.5h8.1
			c0.3,0,0.5,0.2,0.5,0.5v1.3C20.6,24.5,20.3,24.7,20.1,24.7z"/>
		<path d="M20.1,10H12c-0.3,0-0.5-0.2-0.5-0.5V8.2c0-0.3,0.2-0.5,0.5-0.5s0.5,0.2,0.5,0.5V9h7.1V8.2c0-0.3,0.2-0.5,0.5-0.5
			s0.5,0.2,0.5,0.5v1.3C20.6,9.8,20.3,10,20.1,10z"/>
	</g>
</g>
</svg>
