<?xml version="1.0" encoding="utf-8"?>
<!-- Generator: Adobe Illustrator 20.0.0, SVG Export Plug-In . SVG Version: 6.00 Build 0)  -->
<svg version="1.1" id="Layer_1" xmlns="http://www.w3.org/2000/svg" xmlns:xlink="http://www.w3.org/1999/xlink" x="0px" y="0px"
	 viewBox="0 0 32 32" style="enable-background:new 0 0 32 32;" xml:space="preserve">
<style type="text/css">
	.st0{fill:none;stroke:#000000;stroke-linecap:round;stroke-linejoin:round;stroke-miterlimit:10;}
	.st1{fill:none;stroke:#000000;stroke-linecap:round;stroke-linejoin:round;}
	.st2{fill:none;stroke:#000000;stroke-linecap:round;stroke-linejoin:round;stroke-dasharray:1,4;}
</style>
<g>
	<g>
		<path d="M16,1c8.3,0,15,6.7,15,15s-6.7,15-15,15S1,24.3,1,16S7.7,1,16,1 M16,0C7.2,0,0,7.2,0,16s7.2,16,16,16s16-7.2,16-16
			S24.8,0,16,0L16,0z"/>
	</g>
	<g>
		<g>
			<line class="st0" x1="26.5" y1="8" x2="26.5" y2="24"/>
		</g>
		<g>
			<g>
				<g>
					<line class="st1" x1="23.5" y1="8" x2="23.5" y2="9"/>
					<line class="st2" x1="23.5" y1="13" x2="23.5" y2="21"/>
					<line class="st1" x1="23.5" y1="23" x2="23.5" y2="24"/>
				</g>
			</g>
		</g>
		<g>
			<line class="st0" x1="5.5" y1="24" x2="5.5" y2="8"/>
		</g>
		<g>
			<g>
				<g>
					<line class="st1" x1="8.5" y1="24" x2="8.5" y2="23"/>
					<line class="st2" x1="8.5" y1="19" x2="8.5" y2="11"/>
					<line class="st1" x1="8.5" y1="9" x2="8.5" y2="8"/>
				</g>
			</g>
		</g>
		<rect x="12" y="12.8" class="st0" width="8.1" height="6.7"/>
		<polyline class="st0" points="12,24.2 12,22.9 20.1,22.9 20.1,24.2 		"/>
		<polyline class="st0" points="20.1,8.2 20.1,9.5 12,9.5 12,8.2 		"/>
	</g>
</g>
</svg>
